<svg preserveAspectRatio="none" width="100%" height="100%" overflow="visible" style="display: block;" viewBox="0 0 269.31 204" fill="none" xmlns="http://www.w3.org/2000/svg">
<g id="Group 29">
<path id="Vector" d="M174.734 0.00799162C174.734 0.00799162 148.118 -0.919192 133.29 22.1885C128.873 19.1831 123.751 17.9602 118.774 19.1911C114.381 20.2781 110.78 23.0997 108.267 26.9763C95.7432 19.4629 77.9621 14.0516 60.1329 26.3288C27.2914 48.9249 33.4611 102.638 48.5535 136.879C71.2561 188.394 119.886 212.037 162.339 201.567C226.325 185.78 247.595 127.536 241.234 95.9315C241.234 95.9315 243.322 3.70873 174.726 0L174.734 0.00799162Z" fill="var(--fill-0, #D5D1FE)"/>
<g id="&#236;&#134;&#144;">
<path id="Vector_2" d="M94.2229 134.913C94.2229 134.913 91.3746 195.041 33.3663 156.518C15.3219 144.532 6.9536 133.122 3.7844 123.264C-1.81585 105.833 11.8478 88.1785 30.2051 88.5543C48.418 88.9221 71.7256 103.098 94.2149 134.921L94.2229 134.913Z" fill="var(--fill-0, #D5D1FE)"/>
<path id="Vector_3" d="M10.203 139.663C15.5064 146.171 22.7755 152.504 31.9701 158.613C48.3858 169.519 62.4667 173.253 73.8277 169.727C83.0384 166.864 90.3957 159.1 95.1134 147.275C95.6269 145.979 94.9931 144.516 93.7013 143.996C92.4015 143.485 90.9333 144.116 90.4118 145.404C86.2156 155.918 80.134 162.475 72.3193 164.905C62.4908 167.96 49.8621 164.425 34.7783 154.407C19.3335 144.148 9.72159 133.402 6.20739 122.48C3.8325 115.092 5.17239 107.248 9.87404 100.964C14.6399 94.599 22.2219 90.897 30.1729 91.0569C43.1626 91.3207 54.5156 95.4705 74.1406 115.9C75.1034 116.907 76.708 116.939 77.7189 115.98C78.7299 115.02 78.762 113.429 77.7992 112.413C59.6345 93.5036 46.7571 86.3554 30.2772 86.0196C20.6974 85.8277 11.5589 90.2893 5.82229 97.9572C0.133779 105.561 -1.47892 115.068 1.39342 124.023C3.09436 129.324 6.03892 134.538 10.211 139.655L10.203 139.663Z" fill="var(--fill-0, #A5A5FF)"/>
</g>
<g id="&#236;&#134;&#144;_2">
<path id="Vector_4" d="M205.225 110.87C205.225 110.87 249.112 152.232 264.1 84.3805C268.761 63.2798 266.852 49.2713 262.27 39.9803C254.183 23.5571 232.047 20.2709 219.081 33.2239C206.22 46.073 199.288 72.3949 205.225 110.862V110.87Z" fill="var(--fill-0, #D5D1FE)"/>
<path id="Vector_5" d="M269.066 56.2276C269.772 64.5751 268.946 74.17 266.571 84.9242C262.327 104.122 254.785 116.555 244.146 121.856C235.521 126.158 224.81 125.654 213.184 120.393C211.908 119.817 211.347 118.322 211.924 117.059C212.502 115.788 214.002 115.228 215.27 115.804C225.604 120.481 234.558 121.001 241.875 117.347C251.078 112.757 257.729 101.483 261.621 83.8368C265.608 65.7665 265.063 51.3902 259.992 41.0917C256.566 34.1275 250.139 29.402 242.381 28.1227C234.518 26.8274 226.479 29.402 220.862 35.007C211.692 44.1701 206.388 55.0123 206.461 83.2931C206.461 84.6843 205.337 85.8197 203.933 85.8197C202.537 85.8197 201.406 84.7003 201.398 83.3011C201.334 57.1231 205.634 43.0667 217.276 31.4409C224.04 24.6846 233.732 21.5822 243.199 23.1414C252.594 24.6926 260.369 30.4175 264.525 38.8689C266.988 43.8663 268.497 49.6631 269.05 56.2196L269.066 56.2276Z" fill="var(--fill-0, #A5A5FF)"/>
</g>
<g id="&#235;&#136;&#136;">
<path id="Vector_6" d="M155.088 47.6562C159.364 47.0885 163.247 49.7191 163.753 53.5331L165.285 65.0469C165.791 68.8608 162.742 72.4109 158.466 72.9786C154.189 73.5463 150.306 70.9157 149.8 67.1018L148.268 55.588C147.762 51.774 150.811 48.2239 155.088 47.6562Z" fill="url(#paint0_linear_0_150)"/>
<path id="Vector_7" d="M118.1 82.7094L131.098 73.9301C131.467 73.6822 131.908 73.6023 132.334 73.7062L147.618 77.2963C149.207 77.6721 149.64 80.0148 148.292 80.9263L135.294 89.7056C134.925 89.9535 134.484 90.0334 134.059 89.9295L118.774 86.3394C117.186 85.9636 116.752 83.6209 118.1 82.7094Z" fill="url(#paint1_linear_0_150)"/>
<path id="Vector_8" d="M99.6388 58.3625C103.915 57.7948 107.798 60.4254 108.304 64.2394L109.836 75.7532C110.342 79.5671 107.293 83.1172 103.017 83.6849C98.7402 84.2526 94.8569 81.622 94.3514 77.8081L92.819 66.2942C92.3135 62.4803 95.3624 58.9302 99.6388 58.3625Z" fill="url(#paint2_linear_0_150)"/>
</g>
</g>
<defs>
<linearGradient id="paint0_linear_0_150" x1="155.087" y1="47.6567" x2="158.441" y2="72.9834" gradientUnits="userSpaceOnUse">
<stop stop-color="#111111"/>
<stop offset="1" stop-color="#4040D2"/>
</linearGradient>
<linearGradient id="paint1_linear_0_150" x1="131.698" y1="73.6864" x2="134.68" y2="89.944" gradientUnits="userSpaceOnUse">
<stop stop-color="#111111"/>
<stop offset="1" stop-color="#4040D2"/>
</linearGradient>
<linearGradient id="paint2_linear_0_150" x1="99.6315" y1="58.3644" x2="102.985" y2="83.6832" gradientUnits="userSpaceOnUse">
<stop stop-color="#111111"/>
<stop offset="1" stop-color="#4040D2"/>
</linearGradient>
</defs>
</svg>
