<svg preserveAspectRatio="none" width="100%" height="100%" overflow="visible" style="display: block;" viewBox="0 0 718.265 144" fill="none" xmlns="http://www.w3.org/2000/svg">
<path id="Ellipse 122" d="M705.907 85.385C706.119 85.8581 709 86.5 714 91C717 95 717.366 95.9878 718 100.67C718.394 103.537 718.338 106.423 717.901 109.29L717.833 109.757C717.168 114.263 716.505 118.752 714.396 122.99L714.184 123.414C712.091 127.612 710.042 131.721 706.61 135.32C704.977 137.532 702.978 139.427 700.598 141.034C700.922 142.026 701.119 143.008 701.176 144H82.6295C82.4042 141.897 82.7421 139.893 83.6432 137.969L83.0905 138.039C80.5223 138.364 77.9093 138.696 75.3084 138.871C73.4922 139.09 71.6197 139.209 69.8599 139.109C66.3542 138.901 64.0875 138.633 61.7222 138.028C58.5263 138.514 55.2881 138.832 52.0218 139.109C47.418 139.506 42.5748 139.526 37.971 139.248C33.8458 139 29.6503 138.604 25.5533 137.889C25.4422 137.88 25.3271 137.872 25.216 137.865C25.1032 137.857 24.9903 137.85 24.8775 137.84L24.8353 137.79C17.8099 137.155 10.8549 136.382 4.22369 134.338L3.60477 134.144C2.4134 133.772 1.21181 133.396 0 132.999V39.8314C1.07 40.3076 2.12592 40.7936 3.15369 41.3194C6.25106 42.8967 9.15133 44.712 11.9953 46.5571C13.91 47.7971 15.7966 49.1164 17.4579 50.5746C19.9217 52.7471 22.1603 55.4453 24.061 57.9848C25.2577 59.5819 26.2995 61.2385 27.2569 62.9348C29.1153 62.905 30.9737 62.9447 32.8181 63.1233C33.1618 63.1562 33.5062 63.189 33.851 63.2219C38.6898 63.6824 43.6244 64.1521 48.2768 65.3652C52.6694 66.506 57.0058 67.9741 61.0605 69.7597C65.1434 71.5453 68.8321 73.9558 72.38 76.3167C74.3792 77.646 76.1813 79.1339 77.7863 80.7707C78.1322 81.1243 78.4809 81.4773 78.8299 81.8306C81.2216 84.2517 83.6342 86.694 85.3045 89.4804C88.2329 89.3018 91.1754 89.5598 94.0053 90.4426C97.7081 91.5933 100.608 92.6845 103.41 94.1328C104.522 92.1587 105.733 90.2244 107.197 88.3892C109.76 85.1751 112.716 82.1 115.926 79.2827C117.954 77.5269 120.192 75.9794 122.501 74.5013C127.527 70.9401 132.99 67.5376 139.157 65.3652C139.575 65.2178 139.995 65.0688 140.415 64.9195L140.433 64.9131C143.716 63.7475 147.072 62.5558 150.561 61.8535C151.659 61.6353 152.771 61.4666 153.883 61.3377C154.545 61.2626 155.208 61.182 155.873 61.1013C158.191 60.8197 160.524 60.5363 162.866 60.4747C164.048 60.4449 165.231 60.4846 166.413 60.5937C166.989 60.6466 167.574 60.6949 168.163 60.7436C170.557 60.9413 173.032 61.1456 175.325 61.6948C178.169 62.3793 180.999 63.3812 183.632 64.4823C186.129 65.5222 188.747 67.3144 190.692 68.646L190.812 68.728C193.713 70.712 196.148 73.3209 197.964 75.9993C199.172 77.769 200.105 79.6929 201.022 81.581L201.062 81.6635C201.709 82.4373 202.343 83.2308 202.864 84.0641C204.356 86.425 205.637 88.9249 206.707 91.4346C207.088 92.3075 207.411 93.2102 207.721 94.1129C210.973 94.728 214.141 95.7497 216.971 97.0096C219.026 97.9207 220.904 99.1682 222.722 100.375L223.029 100.579C223.225 100.71 223.421 100.839 223.616 100.968C223.68 101.007 223.74 101.052 223.799 101.097C223.859 101.141 223.919 101.186 223.982 101.225C224.2 101.015 224.418 100.804 224.634 100.594L224.879 100.356C225.027 100.212 225.174 100.068 225.32 99.926C230.515 94.8867 237.371 90.9088 243.918 87.1194L240.485 89.2563C239.943 89.5888 239.399 89.9278 238.85 90.274L240.485 89.2563C243.53 87.388 246.504 85.7237 249.803 84.1237C252.014 83.0523 254.266 82.0107 256.533 81.0187C262.657 78.3503 269.063 76.1084 275.54 74.0649C285.55 70.9104 296.461 69.224 307.203 69.0157C313.398 68.8966 319.691 69.5712 325.759 70.4838C331.799 71.3965 337.473 73.3209 343.034 75.3942C348.455 77.4178 353.312 80.4731 357.789 83.6078C361.773 86.3953 365.152 89.8573 368.123 93.369C369.686 92.7936 371.263 92.2381 372.839 91.7024C372.958 91.5983 373.071 91.4942 373.183 91.3909C373.339 91.248 373.493 91.1064 373.656 90.9684C379.414 86.0183 386.186 81.6437 393.395 78.1519C394.338 77.6856 395.323 77.2591 396.408 76.8524C399.012 75.8802 401.687 74.9974 404.348 74.1244C406.657 73.3705 409.036 72.7257 411.444 72.2C417.709 70.8409 424.354 70.087 430.845 70.0176C436.842 69.9581 442.981 70.6128 448.809 71.7238C452 72.331 455.135 73.1974 458.205 74.1936C459.747 59.9761 469.813 49 482 49C483.166 49 484.312 49.1004 485.434 49.2945C489.911 35.269 504.363 25 521.5 25C529.35 25 536.637 27.1547 542.659 30.8382C550.733 12.6348 568.447 0 589 0C614.87 0 636.24 20.0165 639.554 45.9592C639.758 45.9146 639.963 45.8715 640.168 45.8299C645.003 44.6414 650.155 44 655.5 44C683.39 44 706 61.4609 706 83C706 83.8009 705.969 84.5961 705.907 85.385ZM496.819 54.5704C496.824 54.5594 496.828 54.5561 496.833 54.5624L496.819 54.5704Z" fill="var(--fill-0, #349F8F)"/>
</svg>
