<svg preserveAspectRatio="none" width="100%" height="100%" overflow="visible" style="display: block;" viewBox="0 0 43.3597 42.414" fill="none" xmlns="http://www.w3.org/2000/svg">
<g id="Group">
<path id="Vector" d="M33.6959 4.27257C33.5453 2.75985 33.1513 1.32796 32.5719 4.6791e-07C31.1351 0.13857 29.6866 0.496542 28.2846 1.10856C21.1236 4.22638 17.8444 12.5521 20.9846 19.6885C28.7713 18.9264 34.4607 12.0209 33.6959 4.27257Z" fill="var(--fill-0, white)"/>
<path id="Vector_2" d="M10.1968 2.88688C8.70199 2.56355 7.21882 2.49426 5.78199 2.63283C5.46913 4.04163 5.36487 5.51971 5.5155 7.03243C6.28027 14.7924 13.2095 20.4622 20.9846 19.7C22.6647 12.0902 17.8328 4.56127 10.1968 2.88688Z" fill="var(--fill-0, white)"/>
<path id="Vector_3" d="M1.61066 24.7232C0.834305 26.0396 0.312858 27.4253 0 28.8341C1.25143 29.5616 2.63032 30.1159 4.12509 30.4508C11.7611 32.1251 19.3161 27.3098 20.9962 19.7C14.2524 15.7623 5.57346 18.0141 1.62218 24.7347L1.61066 24.7232Z" fill="var(--fill-0, white)"/>
<path id="Vector_4" d="M20.9846 19.7C15.133 24.8733 14.6116 33.788 19.8027 39.6195C20.8108 40.7511 21.9811 41.6865 23.221 42.414C24.2986 41.4555 25.2603 40.3239 26.0367 39.0075C29.9879 32.2868 27.7284 23.6377 20.9846 19.7Z" fill="var(--fill-0, white)"/>
<path id="Vector_5" d="M39.6286 26.975C41.0307 26.3629 42.2705 25.5546 43.3597 24.5962C42.7804 23.2682 41.9924 22.0211 40.9727 20.8779C35.7816 15.0464 26.8362 14.5268 20.9846 19.7C24.1132 26.8364 32.4677 30.0928 39.6286 26.975Z" fill="var(--fill-0, white)"/>
</g>
</svg>
