<svg preserveAspectRatio="none" width="100%" height="100%" overflow="visible" style="display: block;" viewBox="0 0 42.8681 41.2682" fill="none" xmlns="http://www.w3.org/2000/svg">
<g id="Group">
<g id="Group_2">
<path id="Vector" d="M22.2491 15.3832C22.1926 15.2329 22.1266 15.0826 22.0512 14.9323C21.9946 14.782 21.9286 14.6317 21.8532 14.4814C21.7967 14.3311 21.7307 14.1808 21.6553 14.0305C21.5988 13.8802 21.5328 13.73 21.4573 13.5797C21.4008 13.4294 21.3348 13.2791 21.2594 13.1288C21.2029 12.9785 21.1369 12.8282 21.0615 12.6779C21.0049 12.5276 20.9389 12.3773 20.8635 12.227C20.807 12.0767 20.741 11.9264 20.6656 11.7761C20.609 11.6258 20.5431 11.4755 20.4677 11.3252C20.4111 11.1749 20.3451 11.0247 20.2697 10.8744C20.2132 10.7241 20.1472 10.5738 20.0718 10.4235C20.0152 10.2732 19.9492 10.1229 19.8738 9.97259C19.8173 9.8223 19.7513 9.67201 19.6759 9.52172C19.6193 9.37142 19.5533 9.22113 19.4779 9.07084C19.4214 8.92054 19.3554 8.77025 19.28 8.61996C19.2234 8.46967 19.1575 8.31936 19.0821 8.16907C19.0255 8.01878 18.9595 7.86849 18.8841 7.71819C18.8276 7.5679 18.7616 7.41761 18.6862 7.26731C18.6296 7.11702 18.5636 6.96672 18.4882 6.81642C18.2243 6.14949 17.8567 5.52014 17.376 4.93775C14.9442 1.99762 10.5706 1.57493 7.62033 4.00781C4.67006 6.4407 4.24591 10.7898 6.68718 13.7299C7.1679 14.3123 7.72401 14.7914 8.32726 15.1765C8.45922 15.2705 8.59117 15.3644 8.73256 15.4489C8.86452 15.5429 8.99647 15.6368 9.13786 15.7213C9.26982 15.8153 9.4018 15.9092 9.54319 15.9937C9.67515 16.0877 9.80711 16.1816 9.94849 16.2662C10.0805 16.3601 10.2124 16.454 10.3538 16.5386C10.4858 16.6325 10.6177 16.7264 10.7591 16.811C10.8911 16.9049 11.023 16.9988 11.1644 17.0834C11.2964 17.1773 11.4283 17.2712 11.5697 17.3558C11.7017 17.4497 11.8336 17.5437 11.975 17.6282C12.107 17.7221 12.2389 17.8161 12.3803 17.9006C12.5123 17.9945 12.6443 18.0885 12.7857 18.173C12.9176 18.2669 13.0496 18.3609 13.191 18.4454C13.3229 18.5393 13.4549 18.6333 13.5963 18.7178C13.7282 18.8212 13.8602 18.9057 14.0016 18.9902C14.1335 19.0936 14.2655 19.1781 14.4069 19.2626C14.5389 19.366 14.6708 19.4505 14.8122 19.535C14.9442 19.6384 15.0761 19.7229 15.2175 19.8074C15.3495 19.9108 15.4814 19.9953 15.6228 20.0799C15.7548 20.1832 15.8867 20.2677 16.0281 20.3523C16.1601 20.4556 16.292 20.5401 16.4334 20.6247C17.8567 21.7237 19.9021 21.7331 21.3537 20.5495C22.8052 19.366 23.1823 17.3558 22.3716 15.7495C22.3151 15.5992 22.2491 15.4489 22.1737 15.2986L22.2491 15.3832Z" fill="var(--fill-0, white)"/>
<path id="Vector_2" d="M17.2817 17.2994C17.1215 17.2712 16.9612 17.2524 16.7916 17.243C16.6313 17.2148 16.4711 17.1961 16.3014 17.1867C16.1412 17.1585 15.981 17.1397 15.8113 17.1303C15.6511 17.1021 15.4908 17.0833 15.3212 17.0739C15.1609 17.0458 15.0007 17.027 14.831 17.0176C14.6708 16.9894 14.5105 16.9706 14.3409 16.9612C14.1806 16.933 14.0204 16.9143 13.8507 16.9049C13.6905 16.8767 13.5302 16.8579 13.3606 16.8485C13.2003 16.8203 13.0401 16.8015 12.8705 16.7921C12.7102 16.764 12.55 16.7452 12.3803 16.7358C12.2201 16.7076 12.0598 16.6888 11.8902 16.6794C11.7299 16.6512 11.5697 16.6324 11.4 16.6231C11.2398 16.5949 11.0795 16.5761 10.9099 16.5667C10.7496 16.5385 10.5894 16.5197 10.4197 16.5103C10.2595 16.4822 10.0993 16.4634 9.92962 16.454C9.76938 16.4258 9.60913 16.407 9.43946 16.3976C9.27922 16.3694 9.119 16.3506 8.94933 16.3413C8.78909 16.3131 8.62887 16.2943 8.4592 16.2849C8.29896 16.2567 8.13871 16.2379 7.96904 16.2285C7.26211 16.1252 6.5269 16.1158 5.78226 16.2473C2.01195 16.8767 -0.542429 20.4368 0.0985227 24.1941C0.739475 27.9515 4.30244 30.4971 8.07274 29.8583C8.81738 29.7362 9.51487 29.492 10.1464 29.1632C10.2972 29.0974 10.4386 29.0223 10.5894 28.9472C10.7402 28.8814 10.8816 28.8063 11.0324 28.7311C11.1832 28.6654 11.334 28.5902 11.4754 28.5151C11.6262 28.4493 11.7771 28.3836 11.9184 28.299C12.0693 28.2333 12.2201 28.1675 12.3615 28.083C12.5123 28.0172 12.6631 27.9515 12.8045 27.8669C12.9553 27.8012 13.1061 27.7354 13.2475 27.6509C13.3983 27.5851 13.5491 27.5194 13.6905 27.4348C13.8413 27.3691 13.9921 27.3033 14.1335 27.2188C14.2843 27.153 14.4351 27.0873 14.5765 27.0027C14.7273 26.937 14.8781 26.8712 15.0195 26.7867C15.1703 26.7209 15.3212 26.6552 15.4625 26.5706C15.6134 26.5049 15.7642 26.4391 15.9056 26.3546C16.0564 26.2888 16.2072 26.2231 16.3486 26.1385C16.4994 26.0728 16.6502 26.007 16.7916 25.9225C16.9424 25.8567 17.0932 25.791 17.2346 25.7064C17.3854 25.6407 17.5362 25.575 17.6776 25.4904C17.8284 25.4247 17.9792 25.3589 18.1206 25.2744C18.2714 25.2086 18.4222 25.1428 18.5636 25.0583C18.7144 24.9925 18.8652 24.9268 19.0066 24.8423C20.675 24.1659 21.7118 22.4 21.4008 20.5589C21.0897 18.7178 19.5345 17.3839 17.7342 17.2806C17.5739 17.2524 17.4137 17.2336 17.244 17.2242L17.2817 17.2994Z" fill="var(--fill-0, white)"/>
<path id="Vector_3" d="M16.4617 22.5503C16.358 22.6724 16.2637 22.8039 16.1695 22.9448C16.0658 23.0669 15.9715 23.1984 15.8773 23.3393C15.7736 23.4615 15.6793 23.5929 15.5851 23.7338C15.4814 23.856 15.3871 23.9875 15.2929 24.1284C15.1892 24.2505 15.0949 24.382 15.0007 24.5229C14.897 24.645 14.8027 24.7765 14.7085 24.9174C14.6048 25.0395 14.5105 25.1711 14.4163 25.312C14.3126 25.4341 14.2183 25.5656 14.1241 25.7065C14.0204 25.8286 13.9261 25.9601 13.8319 26.101C13.7282 26.2231 13.6339 26.3546 13.5397 26.4955C13.436 26.6176 13.3417 26.7491 13.2475 26.89C13.1438 27.0121 13.0495 27.1436 12.9553 27.2845C12.8516 27.4067 12.7574 27.5382 12.6631 27.6791C12.5594 27.8012 12.4652 27.9327 12.3709 28.0736C12.2672 28.1957 12.173 28.3272 12.0787 28.4681C11.975 28.5902 11.8808 28.7217 11.7865 28.8626C11.6828 28.9848 11.5885 29.1163 11.4943 29.2572C11.3906 29.3793 11.2963 29.5108 11.2021 29.6517C11.0984 29.7738 11.0041 29.9053 10.9099 30.0462C10.4669 30.6004 10.0898 31.2392 9.82593 31.9437C8.48747 35.5131 10.3066 39.4959 13.8884 40.8298C17.4702 42.1636 21.4667 40.3507 22.8052 36.7812C23.0691 36.0767 23.2105 35.3535 23.2388 34.6396C23.2577 34.4799 23.2671 34.3108 23.2765 34.1511C23.2953 33.9914 23.3048 33.8223 23.3142 33.6626C23.3331 33.503 23.3425 33.3339 23.3519 33.1742C23.3708 33.0145 23.3802 32.8454 23.3896 32.6857C23.4085 32.526 23.4179 32.357 23.4273 32.1973C23.4462 32.0376 23.4556 31.8685 23.465 31.7088C23.4839 31.5491 23.4933 31.38 23.5027 31.2204C23.5216 31.0607 23.531 30.8916 23.5404 30.7319C23.5593 30.5722 23.5687 30.4032 23.5781 30.2435C23.597 30.0838 23.6064 29.9147 23.6158 29.755C23.6347 29.5953 23.6441 29.4262 23.6535 29.2666C23.6724 29.1069 23.6818 28.9378 23.6912 28.7781C23.7101 28.6184 23.7195 28.4493 23.7289 28.2896C23.7478 28.1299 23.7572 27.9609 23.7666 27.8012C23.7855 27.6415 23.7949 27.4724 23.8044 27.3127C23.8232 27.153 23.8326 26.984 23.842 26.8243C23.8609 26.6646 23.8798 26.4955 23.8798 26.3358C23.8986 26.1761 23.9175 26.007 23.9175 25.8474C23.9363 25.6877 23.9551 25.5186 23.9551 25.3589C23.974 25.1992 23.9929 25.0302 23.9929 24.8705C24.2379 23.0857 23.22 21.3198 21.4668 20.6622C19.7136 20.0047 17.7719 20.681 16.7916 22.1839C16.6879 22.3061 16.5936 22.4376 16.4994 22.5785L16.4617 22.5503Z" fill="var(--fill-0, white)"/>
<path id="Vector_4" d="M20.6092 25.8849C20.6657 26.0352 20.7317 26.1855 20.8071 26.3358C20.8637 26.4861 20.9297 26.6364 21.0051 26.7867C21.0616 26.937 21.1276 27.0873 21.203 27.2376C21.2595 27.3879 21.3255 27.5382 21.4009 27.6885C21.4575 27.8388 21.5235 27.9891 21.5989 28.1393C21.6554 28.2896 21.7214 28.4399 21.7968 28.5902C21.8534 28.7405 21.9193 28.8908 21.9948 29.0411C22.0513 29.1914 22.1173 29.3417 22.1927 29.492C22.2492 29.6423 22.3152 29.7926 22.3907 29.9429C22.4472 30.0932 22.5132 30.2435 22.5886 30.3938C22.6451 30.5441 22.7111 30.6943 22.7865 30.8446C22.8431 30.9949 22.909 31.1452 22.9845 31.2955C23.041 31.4458 23.107 31.5961 23.1824 31.7464C23.239 31.8967 23.3049 32.047 23.3803 32.1973C23.4369 32.3476 23.5029 32.4979 23.5783 32.6482C23.6348 32.7985 23.7008 32.9488 23.7762 33.099C23.8328 33.2493 23.8988 33.3996 23.9742 33.5499C24.0307 33.7002 24.0967 33.8505 24.1721 34.0008C24.2287 34.1511 24.2946 34.3014 24.37 34.4517C24.634 35.1186 25.0016 35.748 25.4823 36.3304C27.9142 39.2705 32.2877 39.6932 35.2379 37.2603C38.1882 34.8368 38.6124 30.4783 36.1711 27.5382C35.6904 26.9558 35.1343 26.4767 34.531 26.0916C34.3991 25.9977 34.2671 25.9037 34.1257 25.8192C33.9938 25.7253 33.8618 25.6313 33.7204 25.5468C33.5885 25.4529 33.4565 25.3589 33.3151 25.2744C33.1832 25.1804 33.0512 25.0865 32.9098 25.002C32.7779 24.908 32.6459 24.8141 32.5045 24.7295C32.3725 24.6356 32.2405 24.5417 32.0992 24.4572C31.9672 24.3632 31.8352 24.2693 31.6939 24.1847C31.5619 24.0908 31.4299 23.9969 31.2885 23.9123C31.1566 23.8184 31.0246 23.7245 30.8832 23.6399C30.7513 23.546 30.6193 23.4521 30.4779 23.3675C30.346 23.2736 30.214 23.1797 30.0726 23.0951C29.9407 23.0012 29.8087 22.9072 29.6673 22.8227C29.5354 22.7288 29.4034 22.6349 29.262 22.5503C29.1301 22.447 28.9981 22.3624 28.8567 22.2779C28.7248 22.1746 28.5928 22.09 28.4514 22.0055C28.3194 21.9022 28.1875 21.8176 28.0461 21.7331C27.9141 21.6298 27.7822 21.5452 27.6408 21.4607C27.5088 21.3573 27.3769 21.2728 27.2355 21.1883C27.1035 21.0849 26.9716 21.0004 26.8302 20.9158C26.6982 20.8125 26.5663 20.728 26.4249 20.6435C25.0016 19.5444 22.9562 19.535 21.5046 20.7186C20.0531 21.9022 19.676 23.9124 20.4866 25.5186C20.5432 25.6689 20.6092 25.8192 20.6846 25.9695L20.6092 25.8849Z" fill="var(--fill-0, white)"/>
<path id="Vector_5" d="M25.586 23.9687C25.7462 23.9969 25.9065 24.0157 26.0762 24.0251C26.2364 24.0533 26.3966 24.0721 26.5663 24.0815C26.7265 24.1096 26.8868 24.1284 27.0564 24.1378C27.2167 24.166 27.3769 24.1848 27.5466 24.1942C27.7068 24.2224 27.867 24.2411 28.0367 24.2505C28.1969 24.2787 28.3572 24.2975 28.5268 24.3069C28.6871 24.3351 28.8473 24.3539 29.017 24.3632C29.1772 24.3914 29.3374 24.4102 29.5071 24.4196C29.6673 24.4478 29.8276 24.4666 29.9973 24.476C30.1575 24.5041 30.3178 24.5229 30.4874 24.5323C30.6477 24.5605 30.8079 24.5793 30.9776 24.5887C31.1378 24.6169 31.298 24.6356 31.4677 24.645C31.6279 24.6732 31.7882 24.692 31.9578 24.7014C32.1181 24.7296 32.2783 24.7484 32.448 24.7578C32.6082 24.786 32.7684 24.8047 32.9381 24.8141C33.0983 24.8423 33.2586 24.8611 33.4283 24.8705C33.5885 24.8987 33.7488 24.9175 33.9184 24.9269C34.0787 24.955 34.2389 24.9738 34.4085 24.9832C34.5688 25.0114 34.729 25.0302 34.8987 25.0396C35.6056 25.1429 36.3408 25.1523 37.0855 25.0208C40.8558 24.3914 43.4101 20.8313 42.7692 17.074C42.1282 13.3167 38.5653 10.771 34.795 11.4098C34.0504 11.5319 33.3528 11.7761 32.7213 12.1049C32.5705 12.1707 32.4291 12.2458 32.2783 12.3209C32.1275 12.3867 31.9861 12.4619 31.8353 12.537C31.6845 12.6028 31.5336 12.6779 31.3923 12.753C31.2414 12.8188 31.0907 12.8846 30.9493 12.9691C30.7985 13.0348 30.6477 13.1006 30.5063 13.1851C30.3555 13.2509 30.2046 13.3167 30.0632 13.4012C29.9124 13.4669 29.7617 13.5327 29.6203 13.6172C29.4695 13.683 29.3186 13.7487 29.1772 13.8333C29.0264 13.899 28.8756 13.9648 28.7342 14.0493C28.5834 14.1151 28.4326 14.1808 28.2912 14.2654C28.1404 14.3311 27.9896 14.3969 27.8482 14.4814C27.6974 14.5472 27.5466 14.6129 27.4052 14.6975C27.2544 14.7632 27.1036 14.829 26.9622 14.9135C26.8114 14.9793 26.6605 15.045 26.5192 15.1296C26.3683 15.1953 26.2176 15.2611 26.0762 15.3456C25.9254 15.4114 25.7745 15.4771 25.6331 15.5617C25.4823 15.6274 25.3315 15.6932 25.1901 15.7777C25.0393 15.8435 24.8885 15.9092 24.7471 15.9938C24.5963 16.0595 24.4455 16.1253 24.3041 16.2098C24.1533 16.2756 24.0025 16.3413 23.8611 16.4259C22.1927 17.1022 21.1559 18.8681 21.467 20.7092C21.778 22.5503 23.3332 23.8842 25.1336 23.9875C25.2938 24.0157 25.454 24.0345 25.6237 24.0439L25.586 23.9687Z" fill="var(--fill-0, white)"/>
<path id="Vector_6" d="M26.4059 18.7178C26.5096 18.5957 26.6038 18.4642 26.6981 18.3233C26.8018 18.2012 26.896 18.0697 26.9903 17.9288C27.094 17.8066 27.1882 17.6751 27.2825 17.5342C27.3862 17.4121 27.4804 17.2806 27.5747 17.1397C27.6784 17.0176 27.7726 16.8861 27.8669 16.7452C27.9705 16.6231 28.0648 16.4916 28.1591 16.3507C28.2627 16.2286 28.357 16.0971 28.4513 15.9562C28.5549 15.834 28.6492 15.7025 28.7435 15.5616C28.8471 15.4395 28.9414 15.308 29.0356 15.1671C29.1393 15.045 29.2336 14.9135 29.3279 14.7726C29.4316 14.6505 29.5258 14.519 29.6201 14.3781C29.7238 14.2559 29.818 14.1244 29.9123 13.9835C30.016 13.8614 30.1102 13.7299 30.2045 13.589C30.3082 13.4669 30.4024 13.3354 30.4967 13.1945C30.6004 13.0724 30.6946 12.9409 30.7889 12.8C30.8926 12.6779 30.9868 12.5464 31.0811 12.4055C31.1848 12.2834 31.279 12.1518 31.3733 12.0109C31.477 11.8888 31.5712 11.7573 31.6655 11.6164C31.7692 11.4943 31.8634 11.3628 31.9577 11.2219C32.4007 10.6677 32.7777 10.0289 33.0416 9.32444C34.3801 5.75496 32.5609 1.77217 28.9791 0.43831C25.3973 -0.895548 21.4008 0.91737 20.0624 4.48685C19.7984 5.19135 19.657 5.91464 19.6288 6.62854C19.6099 6.78822 19.6005 6.95731 19.5911 7.11699C19.5722 7.27668 19.5628 7.44577 19.5534 7.60545C19.5345 7.76514 19.5251 7.93421 19.5156 8.0939C19.4968 8.25359 19.4874 8.42267 19.4779 8.58236C19.4591 8.74204 19.4497 8.91113 19.4403 9.07082C19.4214 9.2305 19.412 9.39959 19.4025 9.55928C19.3837 9.71896 19.3743 9.88803 19.3648 10.0477C19.346 10.2074 19.3366 10.3765 19.3271 10.5362C19.3083 10.6959 19.2989 10.865 19.2894 11.0246C19.2706 11.1843 19.2612 11.3534 19.2517 11.5131C19.2329 11.6728 19.2234 11.8419 19.214 12.0015C19.1952 12.1612 19.1858 12.3303 19.1763 12.49C19.1575 12.6497 19.148 12.8188 19.1386 12.9785C19.1198 13.1381 19.1103 13.3072 19.1009 13.4669C19.0821 13.6266 19.0727 13.7957 19.0632 13.9554C19.0444 14.1151 19.0349 14.2841 19.0255 14.4438C19.0067 14.6035 18.9878 14.7726 18.9878 14.9323C18.969 15.092 18.9501 15.261 18.9501 15.4207C18.9312 15.5804 18.9124 15.7495 18.9124 15.9092C18.8936 16.0689 18.8747 16.238 18.8747 16.3976C18.6296 18.1824 19.6476 19.9483 21.4008 20.6059C23.1634 21.2634 25.0957 20.5871 26.076 19.0841C26.1797 18.962 26.2739 18.8305 26.3682 18.6896L26.4059 18.7178Z" fill="var(--fill-0, white)"/>
</g>
<path id="Vector_7" d="M21.9287 27.8482C25.5935 27.8482 28.5644 24.8875 28.5644 21.2353C28.5644 17.5831 25.5935 14.6224 21.9287 14.6224C18.2639 14.6224 15.293 17.5831 15.293 21.2353C15.293 24.8875 18.2639 27.8482 21.9287 27.8482Z" fill="var(--fill-0, #FED229)"/>
</g>
</svg>
