<svg preserveAspectRatio="none" width="100%" height="100%" overflow="visible" style="display: block;" viewBox="0 0 72.8411 79.9896" fill="none" xmlns="http://www.w3.org/2000/svg">
<g id="Group">
<g id="Group_2">
<path id="Vector" d="M43.8364 33.4185C43.9407 33.1298 44.0218 32.8411 44.0914 32.5524C44.1956 32.2637 44.2767 31.975 44.3462 31.6748C44.4505 31.3861 44.5317 31.0974 44.6012 30.8087C44.7055 30.52 44.7866 30.2314 44.8561 29.9311C44.9604 29.6424 45.0415 29.3537 45.111 29.0651C45.2153 28.7764 45.2964 28.4877 45.3659 28.199C45.4586 27.9103 45.5514 27.6216 45.6209 27.3329C45.7136 27.0442 45.8063 26.7556 45.8758 26.4669C45.9685 26.1782 46.0612 25.8895 46.1307 25.5893C46.2234 25.3006 46.3161 25.0119 46.3856 24.7232C46.4783 24.4345 46.5711 24.1458 46.6406 23.8456C46.7333 23.5569 46.8259 23.2682 46.8955 22.9795C46.9882 22.6908 47.0809 22.4022 47.1504 22.1019C47.2431 21.8132 47.3358 21.5245 47.4053 21.2359C47.498 20.9472 47.5907 20.6585 47.6603 20.3582C47.753 20.0696 47.8456 19.7809 47.9152 19.4922C48.0079 19.2035 48.1006 18.9148 48.1701 18.6146C48.2628 18.3259 48.3555 18.0372 48.425 17.737C48.5177 17.4483 48.6104 17.1596 48.68 16.8709C49.0971 15.6122 49.3288 14.2612 49.3288 12.8639C49.3288 5.7622 43.5468 0 36.4205 0C29.2943 0 23.5122 5.7622 23.5122 12.8639C23.5122 14.2612 23.744 15.6122 24.1611 16.8709C24.2307 17.1711 24.3234 17.4598 24.4161 17.7485C24.4856 18.0487 24.5783 18.3374 24.671 18.6146C24.7405 18.9148 24.8332 19.2035 24.9259 19.4922C24.9955 19.7924 25.0881 20.0811 25.1808 20.3582C25.2503 20.6585 25.3431 20.9472 25.4358 21.2359C25.5053 21.5361 25.598 21.8248 25.6907 22.1019C25.7602 22.4022 25.8529 22.6908 25.9456 22.9795C26.0151 23.2798 26.1078 23.5685 26.2005 23.8456C26.27 24.1458 26.3627 24.4345 26.4554 24.7117C26.5249 25.0119 26.6177 25.3006 26.7104 25.5893C26.7799 25.8895 26.8725 26.1782 26.9652 26.4553C27.0348 26.7556 27.1275 27.0443 27.2202 27.3214C27.2897 27.6216 27.3708 27.9103 27.4751 28.1875C27.5446 28.4877 27.6258 28.7764 27.73 29.0535C27.7996 29.3538 27.8807 29.6424 27.9849 29.9196C28.0545 30.2198 28.1356 30.5085 28.2399 30.7972C28.3094 31.0974 28.3905 31.3861 28.4948 31.6632C28.5643 31.9635 28.6455 32.2522 28.7497 32.5293C28.8193 32.8295 28.9003 33.1182 29.0046 33.4069C29.0742 33.7071 29.1553 33.9958 29.2596 34.273C30.0012 37.5409 32.9212 39.9774 36.4205 39.9774C39.9199 39.9774 42.8399 37.5409 43.5815 34.273C43.6858 33.9843 43.7669 33.6956 43.8364 33.3954V33.4185Z" fill="var(--fill-0, white)"/>
<path id="Vector_2" d="M34.416 30.3007C34.219 30.0697 34.0104 29.8503 33.7902 29.6424C33.5932 29.4115 33.3847 29.1921 33.1645 28.9842C32.9675 28.7533 32.7589 28.5339 32.5387 28.326C32.3418 28.0951 32.1332 27.8757 31.9131 27.6678C31.7161 27.4369 31.5075 27.2175 31.2874 27.0096C31.0904 26.7787 30.8818 26.5592 30.6616 26.3514C30.4646 26.1204 30.2561 25.901 30.0359 25.6932C29.8389 25.4622 29.6304 25.2428 29.4102 25.035C29.2132 24.804 29.0046 24.5846 28.7845 24.3768C28.5875 24.1458 28.3789 23.9264 28.1588 23.7186C27.9618 23.4876 27.7532 23.2682 27.5331 23.0604C27.3361 22.8294 27.1275 22.61 26.9073 22.4022C26.7103 22.1712 26.5018 21.9518 26.2816 21.7439C26.0846 21.513 25.876 21.2936 25.6559 21.0857C25.4589 20.8548 25.2503 20.6354 25.0302 20.4275C24.8332 20.1966 24.6246 19.9887 24.4045 19.7693C24.2075 19.5384 23.9989 19.3305 23.7787 19.1111C23.5817 18.8917 23.3732 18.6723 23.153 18.4529C22.956 18.2335 22.7475 18.0141 22.5273 17.7947C21.6351 16.8016 20.5806 15.9356 19.364 15.2312C13.1879 11.6745 5.29698 13.7877 1.73967 19.9425C-1.82923 26.0974 0.291201 33.9612 6.46725 37.5063C7.68392 38.2107 8.97016 38.6841 10.2795 38.9613C10.5692 39.0421 10.8705 39.1114 11.1602 39.1807C11.4499 39.2615 11.7511 39.3308 12.0408 39.4001C12.3304 39.4809 12.6317 39.5502 12.9214 39.6195C13.2111 39.7003 13.5124 39.7696 13.802 39.8389C14.0917 39.9197 14.393 39.989 14.6827 40.0583C14.9724 40.1391 15.2737 40.22 15.5633 40.2777C15.853 40.3585 16.1543 40.4393 16.444 40.4971C16.7337 40.5779 17.035 40.6587 17.3246 40.7165C17.6143 40.7973 17.9155 40.8782 18.2052 40.9359C18.4949 41.0167 18.7962 41.0976 19.0859 41.1553C19.3756 41.2361 19.6768 41.317 19.9665 41.3747C20.2562 41.4555 20.5575 41.5364 20.8472 41.5941C21.1368 41.6865 21.4381 41.7558 21.7278 41.8135C22.0175 41.9059 22.3188 41.9752 22.6085 42.0329C22.8981 42.1253 23.1994 42.1946 23.489 42.2523C23.7787 42.3447 24.08 42.414 24.3697 42.4717C24.6594 42.5641 24.9607 42.6334 25.2503 42.6911C25.54 42.7835 25.8413 42.8528 26.131 42.9105C26.4207 43.0029 26.722 43.0722 27.0116 43.1299C27.3013 43.2223 27.6026 43.2916 27.8923 43.3493C31.102 44.3424 34.6825 43.0375 36.4321 40.0121C38.1818 36.9982 37.5214 33.2453 35.0648 30.982C34.8679 30.751 34.6592 30.5316 34.4391 30.3237L34.416 30.3007Z" fill="var(--fill-0, white)"/>
<path id="Vector_3" d="M27 36.8827C26.6988 36.9405 26.4091 37.0098 26.1194 37.1021C25.8181 37.1599 25.5284 37.2291 25.2387 37.3215C24.9375 37.3793 24.6478 37.4485 24.3581 37.5409C24.0568 37.5987 23.7672 37.6679 23.4775 37.7603C23.1762 37.8181 22.8865 37.8874 22.5969 37.9797C22.2956 38.0375 22.0059 38.1068 21.7162 38.1991C21.4149 38.2569 21.1252 38.3262 20.8356 38.4185C20.5343 38.4763 20.2446 38.5456 19.9549 38.6379C19.6536 38.6957 19.3639 38.765 19.0743 38.8573C18.773 38.9151 18.4834 38.9844 18.1937 39.0767C17.8924 39.1345 17.6027 39.2038 17.313 39.2961C17.0118 39.3539 16.7221 39.4232 16.4324 39.5156C16.1311 39.5733 15.8414 39.6426 15.5517 39.735C15.2505 39.7927 14.9608 39.862 14.6711 39.9544C14.3698 40.0121 14.0801 40.0814 13.7904 40.1738C13.4892 40.2315 13.1995 40.3008 12.9098 40.3932C12.6085 40.4509 12.3189 40.5202 12.0292 40.6126C11.7279 40.6703 11.4382 40.7396 11.1486 40.832C10.8473 40.8897 10.5576 40.959 10.2679 41.0514C8.95855 41.3285 7.67238 41.802 6.45571 42.5064C0.279662 46.063 -1.82925 53.9268 1.72806 60.0701C5.29696 66.2249 13.188 68.3266 19.3524 64.7815C20.5691 64.0771 21.6235 63.211 22.5157 62.2179C22.7359 62.0101 22.9444 61.7907 23.1414 61.5597C23.3616 61.3519 23.5702 61.1325 23.7672 60.9015C23.9873 60.6937 24.1959 60.4743 24.3929 60.2433C24.613 60.0355 24.8216 59.8161 25.0186 59.5851C25.2387 59.3773 25.4473 59.1578 25.6443 58.9269C25.8645 58.719 26.073 58.4996 26.27 58.2687C26.4902 58.0608 26.6987 57.8414 26.8957 57.6105C27.1159 57.4026 27.3245 57.1832 27.5215 56.9523C27.7416 56.7444 27.9502 56.525 28.1472 56.2941C28.3673 56.0862 28.5759 55.8668 28.7729 55.6359C28.993 55.428 29.2016 55.2086 29.3986 54.9777C29.6188 54.7698 29.8273 54.5504 30.0243 54.3194C30.2445 54.1116 30.4531 53.8922 30.6501 53.6612C30.8702 53.4534 31.0788 53.234 31.2758 53.003C31.4959 52.7952 31.7045 52.5758 31.9014 52.3448C32.1216 52.137 32.3302 51.9176 32.5272 51.6866C32.7474 51.4788 32.9559 51.2594 33.1529 51.0284C33.3731 50.8206 33.5816 50.6011 33.7786 50.3702C33.9987 50.1623 34.219 49.9429 34.4043 49.712C34.6245 49.5041 34.8446 49.2847 35.03 49.0538C37.4981 46.7789 38.147 43.0375 36.3973 40.0236C34.6476 37.0098 31.0672 35.6933 27.8575 36.6864C27.5562 36.7442 27.2665 36.8134 26.9768 36.9058L27 36.8827Z" fill="var(--fill-0, white)"/>
<path id="Vector_4" d="M28.993 46.5711C28.8887 46.8598 28.8077 47.1485 28.7381 47.4371C28.6339 47.7258 28.5527 48.0145 28.4832 48.3147C28.3789 48.6034 28.2978 48.8921 28.2283 49.1808C28.124 49.4695 28.0429 49.7582 27.9733 50.0584C27.8691 50.3471 27.788 50.6358 27.7185 50.9245C27.6142 51.2132 27.5331 51.5019 27.4636 51.7906C27.3709 52.0792 27.2781 52.3679 27.2086 52.6566C27.1159 52.9453 27.0232 53.234 26.9537 53.5227C26.861 53.8114 26.7683 54.1 26.6988 54.4003C26.6061 54.689 26.5134 54.9777 26.4439 55.2663C26.3512 55.555 26.2584 55.8437 26.1889 56.1439C26.0962 56.4326 26.0036 56.7213 25.934 57.01C25.8413 57.2987 25.7486 57.5874 25.6791 57.8876C25.5864 58.1763 25.4937 58.465 25.4242 58.7537C25.3315 59.0424 25.2387 59.3311 25.1692 59.6313C25.0765 59.92 24.9839 60.2087 24.9143 60.4974C24.8216 60.786 24.7289 61.0747 24.6594 61.375C24.5667 61.6637 24.474 61.9524 24.4045 62.2526C24.3118 62.5413 24.2191 62.83 24.1495 63.1186C23.7324 64.3773 23.5006 65.7284 23.5006 67.1256C23.5006 74.2273 29.2827 79.9895 36.4089 79.9895C43.5352 79.9895 49.3173 74.2273 49.3173 67.1256C49.3173 65.7284 49.0855 64.3773 48.6684 63.1186C48.5988 62.8184 48.5061 62.5297 48.4134 62.241C48.3439 61.9408 48.2512 61.6521 48.1585 61.375C48.089 61.0747 47.9963 60.786 47.9036 60.4974C47.834 60.1971 47.7414 59.9084 47.6487 59.6313C47.5791 59.3311 47.4864 59.0424 47.3937 58.7537C47.3242 58.4535 47.2315 58.1648 47.1388 57.8876C47.0693 57.5874 46.9766 57.2987 46.8839 57.01C46.8143 56.7098 46.7217 56.4211 46.629 56.1439C46.5595 55.8437 46.4667 55.555 46.374 55.2779C46.3045 54.9776 46.2118 54.689 46.1191 54.4003C46.0496 54.1 45.9569 53.8114 45.8642 53.5342C45.7947 53.234 45.702 52.9453 45.6093 52.6682C45.5398 52.3679 45.4586 52.0792 45.3543 51.8021C45.2848 51.5019 45.2037 51.2132 45.0994 50.936C45.0299 50.6358 44.9488 50.3471 44.8446 50.07C44.775 49.7697 44.6939 49.4811 44.5896 49.1924C44.5201 48.8921 44.439 48.6034 44.3347 48.3263C44.2652 48.0261 44.184 47.7374 44.0798 47.4602C44.0102 47.16 43.9292 46.8713 43.8249 46.5826C43.7553 46.2824 43.6742 45.9937 43.5699 45.7166C42.8283 42.4486 39.9083 40.0121 36.4089 40.0121C32.9096 40.0121 29.9896 42.4486 29.248 45.7166C29.1437 46.0052 29.0626 46.2939 28.993 46.5942V46.5711Z" fill="var(--fill-0, white)"/>
<path id="Vector_5" d="M38.4136 49.6889C38.6105 49.9198 38.8192 50.1393 39.0393 50.3471C39.2363 50.5781 39.4448 50.7975 39.665 51.0053C39.862 51.2363 40.0705 51.4557 40.2907 51.6635C40.4877 51.8945 40.6963 52.1139 40.9165 52.3217C41.1134 52.5527 41.322 52.7721 41.5421 52.9799C41.7391 53.2109 41.9477 53.4303 42.1678 53.6381C42.3648 53.8691 42.5734 54.0885 42.7936 54.2964C42.9906 54.5273 43.1991 54.7467 43.4193 54.9546C43.6163 55.1855 43.8249 55.4049 44.045 55.6128C44.242 55.8437 44.4506 56.0631 44.6707 56.271C44.8677 56.5019 45.0763 56.7213 45.2964 56.9292C45.4934 57.1601 45.702 57.3795 45.9222 57.5874C46.1192 57.8183 46.3277 58.0377 46.5479 58.2456C46.7449 58.4765 46.9534 58.6959 47.1736 58.9038C47.3706 59.1347 47.5792 59.3542 47.7993 59.562C47.9963 59.793 48.2049 60.0008 48.425 60.2202C48.622 60.4512 48.8306 60.659 49.0507 60.8784C49.2477 61.0978 49.4563 61.3172 49.6765 61.5366C49.8735 61.756 50.082 61.9754 50.3022 62.1948C51.1944 63.1879 52.2488 64.054 53.4655 64.7584C59.6415 68.315 67.5325 66.2018 71.0898 60.047C74.6587 53.8922 72.5382 46.0283 66.3622 42.4832C65.1455 41.7788 63.8594 41.3054 62.55 41.0283C62.2603 40.9474 61.959 40.8781 61.6693 40.8089C61.3797 40.728 61.0784 40.6587 60.7887 40.5895C60.499 40.5086 60.1978 40.4393 59.9081 40.3701C59.6184 40.2892 59.3171 40.2199 59.0275 40.1507C58.7378 40.0698 58.4365 40.0005 58.1468 39.9313C57.8571 39.8504 57.5558 39.7696 57.2662 39.7119C56.9765 39.631 56.6752 39.5502 56.3855 39.4924C56.0958 39.4116 55.7945 39.3308 55.5049 39.273C55.2152 39.1922 54.9139 39.1114 54.6242 39.0536C54.3345 38.9728 54.0333 38.892 53.7436 38.8342C53.454 38.7534 53.1527 38.6726 52.863 38.6148C52.5733 38.534 52.272 38.4532 51.9823 38.3954C51.6927 38.3031 51.3914 38.2338 51.1017 38.176C50.812 38.0837 50.5107 38.0144 50.221 37.9566C49.9314 37.8642 49.6301 37.795 49.3404 37.7372C49.0507 37.6448 48.7495 37.5756 48.4598 37.5178C48.1701 37.4255 47.8689 37.3562 47.5792 37.2984C47.2895 37.206 46.9882 37.1368 46.6985 37.079C46.4088 36.9866 46.1076 36.9174 45.8179 36.8596C45.5282 36.7672 45.2269 36.698 44.9372 36.6402C41.7275 35.6471 38.1471 36.952 36.3974 39.9774C34.6477 43.0029 35.3082 46.7443 37.7647 49.0076C37.9616 49.2385 38.1703 49.4579 38.3904 49.6658L38.4136 49.6889Z" fill="var(--fill-0, white)"/>
<path id="Vector_6" d="M45.841 43.1184C46.1423 43.0606 46.432 42.9913 46.7217 42.899C47.0229 42.8412 47.3126 42.7719 47.6023 42.6796C47.9035 42.6218 48.1932 42.5525 48.4829 42.4602C48.7842 42.4024 49.0739 42.3331 49.3635 42.2408C49.6648 42.183 49.9545 42.1137 50.2442 42.0214C50.5455 41.9636 50.8352 41.8943 51.1248 41.802C51.4261 41.7442 51.7158 41.6749 52.0055 41.5825C52.3068 41.5248 52.5964 41.4555 52.8861 41.3631C53.1873 41.3054 53.477 41.2361 53.7667 41.1438C54.068 41.086 54.3577 41.0167 54.6474 40.9243C54.9486 40.8666 55.2383 40.7973 55.528 40.7049C55.8293 40.6472 56.119 40.5779 56.4087 40.4855C56.7099 40.4278 56.9996 40.3585 57.2893 40.2661C57.5906 40.2084 57.8803 40.1391 58.17 40.0467C58.4712 39.989 58.7609 39.9197 59.0505 39.8273C59.3518 39.7696 59.6415 39.7003 59.9312 39.6079C60.2325 39.5502 60.5222 39.4809 60.8118 39.3885C61.1131 39.3308 61.4028 39.2615 61.6925 39.1691C61.9938 39.1114 62.2834 39.0421 62.5731 38.9497C63.8825 38.6726 65.1687 38.1991 66.3853 37.4947C72.5614 33.9381 74.6703 26.0743 71.113 19.931C67.5557 13.7877 59.6531 11.6745 53.4886 15.2196C52.272 15.924 51.2175 16.7901 50.3253 17.7832C50.1052 17.991 49.8965 18.2104 49.6996 18.4414C49.4794 18.6492 49.2708 18.8686 49.0739 19.0996C48.8537 19.3074 48.6452 19.5268 48.4482 19.7578C48.228 19.9656 48.0194 20.185 47.8224 20.416C47.6023 20.6238 47.3937 20.8432 47.1967 21.0742C46.9766 21.282 46.768 21.5014 46.571 21.7324C46.3509 21.9403 46.1423 22.1597 45.9453 22.3906C45.7251 22.5985 45.5166 22.8179 45.3196 23.0488C45.0994 23.2567 44.8909 23.4761 44.6939 23.707C44.4737 23.9149 44.2651 24.1343 44.0681 24.3652C43.848 24.5731 43.6394 24.7925 43.4424 25.0234C43.2223 25.2313 43.0137 25.4507 42.8167 25.6817C42.5966 25.8895 42.388 26.1089 42.191 26.3398C41.9708 26.5477 41.7623 26.7671 41.5653 26.9981C41.3451 27.2059 41.1365 27.4253 40.9395 27.6563C40.7194 27.8641 40.5108 28.0835 40.3138 28.3145C40.0937 28.5223 39.8851 28.7417 39.6882 28.9727C39.468 29.1805 39.2594 29.3999 39.0624 29.6309C38.8422 29.8387 38.6221 30.0581 38.4367 30.2891C38.2165 30.4969 37.9964 30.7164 37.811 30.9473C35.3429 33.2222 34.694 36.9635 36.4437 39.9774C38.1934 42.9913 41.7739 44.3078 44.9836 43.3147C45.2848 43.2569 45.5745 43.1876 45.8642 43.0953L45.841 43.1184Z" fill="var(--fill-0, white)"/>
</g>
<path id="Vector_7" d="M36.4205 53.7652C43.2488 53.7652 48.7842 48.2488 48.7842 41.444C48.7842 34.6392 43.2488 29.1228 36.4205 29.1228C29.5923 29.1228 24.0569 34.6392 24.0569 41.444C24.0569 48.2488 29.5923 53.7652 36.4205 53.7652Z" fill="var(--fill-0, #FED229)"/>
</g>
</svg>
