<svg preserveAspectRatio="none" width="100%" height="100%" overflow="visible" style="display: block;" viewBox="0 0 52.6983 50.7319" fill="none" xmlns="http://www.w3.org/2000/svg">
<g id="Group">
<g id="Group_2">
<path id="Vector" d="M27.3514 18.9109C27.2819 18.7262 27.2008 18.5414 27.1081 18.3566C27.0386 18.1719 26.9574 17.9871 26.8648 17.8023C26.7952 17.6176 26.7141 17.4328 26.6214 17.2481C26.5519 17.0633 26.4708 16.8786 26.3781 16.6938C26.3085 16.509 26.2274 16.3243 26.1347 16.1395C26.0652 15.9547 25.9841 15.77 25.8914 15.5852C25.8219 15.4005 25.7408 15.2157 25.6481 15.031C25.5785 14.8462 25.4974 14.6614 25.4047 14.4767C25.3352 14.2919 25.2541 14.1071 25.1614 13.9224C25.0919 13.7376 25.0108 13.5529 24.9181 13.3681C24.8486 13.1833 24.7674 12.9986 24.6747 12.8138C24.6052 12.6291 24.5241 12.4443 24.4314 12.2595C24.3619 12.0748 24.2808 11.89 24.1881 11.7053C24.1186 11.5205 24.0374 11.3358 23.9447 11.151C23.8752 10.9662 23.7941 10.7815 23.7014 10.5967C23.6319 10.412 23.5508 10.2272 23.4581 10.0424C23.3885 9.85766 23.3074 9.67291 23.2147 9.48815C23.1452 9.30339 23.0641 9.11863 22.9714 8.93387C22.9019 8.74911 22.8208 8.56434 22.7281 8.37958C22.4036 7.55971 21.9517 6.78602 21.3608 6.07008C18.3712 2.45571 12.9947 1.93609 9.36787 4.92689C5.74104 7.91769 5.21962 13.2642 8.22074 16.8785C8.81169 17.5945 9.49533 18.1834 10.2369 18.6569C10.3991 18.7723 10.5614 18.8878 10.7352 18.9917C10.8974 19.1072 11.0596 19.2227 11.2334 19.3266C11.3956 19.4421 11.5579 19.5576 11.7317 19.6615C11.8939 19.777 12.0561 19.8925 12.2299 19.9964C12.3922 20.1119 12.5544 20.2273 12.7282 20.3313C12.8904 20.4467 13.0526 20.5622 13.2264 20.6661C13.3887 20.7816 13.5509 20.8971 13.7247 21.001C13.8869 21.1165 14.0492 21.232 14.223 21.3359C14.3852 21.4514 14.5474 21.5668 14.7212 21.6708C14.8834 21.7862 15.0457 21.9017 15.2195 22.0056C15.3817 22.1211 15.5439 22.2366 15.7177 22.3405C15.88 22.456 16.0422 22.5715 16.216 22.6754C16.3782 22.7909 16.5404 22.9064 16.7142 23.0103C16.8765 23.1373 17.0387 23.2412 17.2125 23.3451C17.3747 23.4722 17.537 23.5761 17.7108 23.68C17.873 23.807 18.0352 23.911 18.209 24.0149C18.3712 24.1419 18.5334 24.2458 18.7073 24.3498C18.8695 24.4768 19.0317 24.5807 19.2055 24.6847C19.3677 24.8117 19.53 24.9156 19.7038 25.0196C19.866 25.1466 20.0282 25.2505 20.202 25.3544C21.9517 26.7055 24.4662 26.717 26.2506 25.262C28.0351 23.8071 28.4986 21.3359 27.502 19.3613C27.4325 19.1765 27.3514 18.9917 27.2587 18.807L27.3514 18.9109Z" fill="var(--fill-0, white)"/>
<path id="Vector_2" d="M21.2448 21.2666C21.0478 21.2319 20.8509 21.2089 20.6423 21.1973C20.4453 21.1627 20.2483 21.1396 20.0397 21.128C19.8428 21.0934 19.6458 21.0703 19.4372 21.0587C19.2402 21.0241 19.0433 21.001 18.8347 20.9895C18.6377 20.9548 18.4407 20.9317 18.2321 20.9202C18.0351 20.8855 17.8382 20.8624 17.6296 20.8509C17.4326 20.8162 17.2356 20.7931 17.027 20.7816C16.83 20.747 16.6331 20.7239 16.4245 20.7123C16.2275 20.6777 16.0305 20.6546 15.822 20.643C15.625 20.6084 15.428 20.5853 15.2194 20.5738C15.0224 20.5391 14.8255 20.516 14.6169 20.5045C14.4199 20.4698 14.2229 20.4467 14.0144 20.4352C13.8174 20.4005 13.6204 20.3774 13.4118 20.3659C13.2148 20.3312 13.0178 20.3082 12.8093 20.2966C12.6123 20.262 12.4153 20.2389 12.2067 20.2273C12.0097 20.1927 11.8127 20.1696 11.6042 20.158C11.4072 20.1234 11.2102 20.1003 11.0016 20.0887C10.8047 20.0541 10.6077 20.031 10.3991 20.0195C10.2021 19.9848 10.0051 19.9617 9.79654 19.9502C8.92749 19.8232 8.02368 19.8116 7.10828 19.9733C2.47334 20.747 -0.666822 25.1235 0.121116 29.7425C0.909055 34.3615 5.28909 37.4908 9.92402 36.7056C10.8394 36.5555 11.6969 36.2552 12.4732 35.8511C12.6586 35.7702 12.8324 35.6779 13.0178 35.5855C13.2032 35.5047 13.377 35.4123 13.5624 35.3199C13.7478 35.2391 13.9332 35.1467 14.107 35.0543C14.2924 34.9735 14.4778 34.8927 14.6516 34.7887C14.837 34.7079 15.0224 34.627 15.1962 34.5231C15.3816 34.4423 15.567 34.3615 15.7409 34.2575C15.9262 34.1767 16.1116 34.0959 16.2855 33.9919C16.4709 33.9111 16.6563 33.8303 16.8301 33.7263C17.0155 33.6455 17.2009 33.5647 17.3747 33.4608C17.5601 33.3799 17.7455 33.2991 17.9193 33.1952C18.1047 33.1143 18.2901 33.0335 18.4639 32.9296C18.6493 32.8487 18.8347 32.7679 19.0085 32.664C19.1939 32.5832 19.3793 32.5023 19.5531 32.3984C19.7385 32.3175 19.9239 32.2367 20.0977 32.1328C20.2831 32.0519 20.4685 31.9711 20.6423 31.8672C20.8277 31.7864 21.0131 31.7055 21.1869 31.6016C21.3723 31.5208 21.5577 31.44 21.7315 31.336C21.9169 31.2552 22.1023 31.1744 22.2761 31.0704C22.4615 30.9896 22.6469 30.9087 22.8207 30.8048C23.0061 30.724 23.1915 30.6432 23.3653 30.5393C25.4163 29.7078 26.6909 27.5369 26.3085 25.2736C25.9261 23.0103 24.0142 21.3705 21.801 21.2435C21.6041 21.2088 21.407 21.1858 21.1985 21.1742L21.2448 21.2666Z" fill="var(--fill-0, white)"/>
<path id="Vector_3" d="M20.2368 27.7217C20.1093 27.8718 19.9935 28.0334 19.8776 28.2066C19.7501 28.3568 19.6343 28.5184 19.5184 28.6916C19.3909 28.8418 19.2751 29.0034 19.1592 29.1766C19.0317 29.3267 18.9159 29.4884 18.8 29.6616C18.6725 29.8118 18.5566 29.9734 18.4407 30.1466C18.3133 30.2968 18.1974 30.4584 18.0815 30.6316C17.9541 30.7817 17.8382 30.9434 17.7223 31.1166C17.5949 31.2667 17.479 31.4284 17.3631 31.6016C17.2357 31.7517 17.1198 31.9134 17.0039 32.0866C16.8765 32.2367 16.7606 32.3984 16.6447 32.5716C16.5173 32.7217 16.4014 32.8834 16.2855 33.0566C16.1581 33.2067 16.0422 33.3684 15.9263 33.5416C15.7988 33.6917 15.683 33.8534 15.5671 34.0266C15.4396 34.1767 15.3238 34.3384 15.2079 34.5116C15.0804 34.6617 14.9646 34.8234 14.8487 34.9966C14.7212 35.1467 14.6054 35.3084 14.4895 35.4816C14.362 35.6317 14.2461 35.7933 14.1303 35.9666C14.0028 36.1167 13.8869 36.2784 13.771 36.4516C13.6436 36.6017 13.5277 36.7633 13.4118 36.9365C12.8672 37.6178 12.4038 38.4031 12.0793 39.2692C10.4339 43.6572 12.6703 48.5533 17.0734 50.1931C21.4766 51.8328 26.3896 49.6042 28.0351 45.2161C28.3595 44.3501 28.5333 43.4609 28.5681 42.5833C28.5913 42.387 28.6028 42.1791 28.6144 41.9828C28.6376 41.7865 28.6492 41.5786 28.6608 41.3823C28.684 41.186 28.6955 40.9782 28.7071 40.7819C28.7303 40.5856 28.7419 40.3777 28.7535 40.1814C28.7767 39.9851 28.7882 39.7772 28.7998 39.5809C28.823 39.3846 28.8346 39.1768 28.8462 38.9805C28.8694 38.7842 28.8809 38.5763 28.8925 38.38C28.9157 38.1837 28.9273 37.9758 28.9389 37.7795C28.9621 37.5832 28.9736 37.3754 28.9852 37.1791C29.0084 36.9828 29.02 36.7749 29.0316 36.5786C29.0548 36.3823 29.0664 36.1744 29.0779 35.9781C29.1011 35.7818 29.1127 35.574 29.1243 35.3777C29.1474 35.1814 29.159 34.9735 29.1706 34.7772C29.1938 34.5809 29.2054 34.373 29.217 34.1767C29.2402 33.9804 29.2518 33.7725 29.2633 33.5762C29.2865 33.3799 29.2981 33.1721 29.3097 32.9758C29.3328 32.7795 29.356 32.5716 29.356 32.3753C29.3792 32.179 29.4024 31.9711 29.4024 31.7748C29.4256 31.5785 29.4487 31.3707 29.4487 31.1744C29.4719 30.978 29.4951 30.7702 29.4951 30.5739C29.7963 28.3799 28.5449 26.2089 26.3897 25.4006C24.2344 24.5923 21.8474 25.4237 20.6424 27.2713C20.5149 27.4214 20.399 27.5831 20.2832 27.7563L20.2368 27.7217Z" fill="var(--fill-0, white)"/>
<path id="Vector_4" d="M25.3352 31.821C25.4047 32.0058 25.4858 32.1905 25.5785 32.3753C25.6481 32.56 25.7292 32.7448 25.8219 32.9295C25.8914 33.1143 25.9725 33.2991 26.0652 33.4838C26.1347 33.6686 26.2158 33.8534 26.3085 34.0381C26.3781 34.2229 26.4592 34.4076 26.5519 34.5924C26.6214 34.7771 26.7025 34.9619 26.7952 35.1467C26.8647 35.3314 26.9458 35.5162 27.0385 35.701C27.1081 35.8857 27.1892 36.0705 27.2819 36.2552C27.3514 36.44 27.4325 36.6248 27.5252 36.8095C27.5948 36.9943 27.6759 37.1791 27.7686 37.3638C27.8381 37.5486 27.9192 37.7333 28.0119 37.9181C28.0814 38.1028 28.1625 38.2876 28.2552 38.4724C28.3247 38.6571 28.4059 38.8419 28.4986 39.0266C28.5681 39.2114 28.6492 39.3962 28.7419 39.5809C28.8114 39.7657 28.8925 39.9504 28.9852 40.1352C29.0547 40.32 29.1359 40.5047 29.2286 40.6895C29.2981 40.8742 29.3792 41.059 29.4719 41.2438C29.5414 41.4285 29.6225 41.6133 29.7152 41.798C29.7847 41.9828 29.8658 42.1675 29.9585 42.3523C30.283 43.1722 30.7349 43.9459 31.3259 44.6618C34.3154 48.2762 39.6919 48.7958 43.3187 45.805C46.9456 42.8258 47.467 37.4677 44.4659 33.8534C43.8749 33.1374 43.1913 32.5485 42.4497 32.075C42.2875 31.9596 42.1252 31.8441 41.9514 31.7401C41.7892 31.6247 41.627 31.5092 41.4532 31.4053C41.291 31.2898 41.1288 31.1743 40.9549 31.0704C40.7927 30.9549 40.6305 30.8395 40.4567 30.7355C40.2945 30.62 40.1323 30.5046 39.9584 30.4006C39.7962 30.2852 39.6339 30.1697 39.4601 30.0658C39.2979 29.9503 39.1357 29.8348 38.9619 29.7309C38.7997 29.6154 38.6374 29.4999 38.4636 29.396C38.3014 29.2805 38.1392 29.1651 37.9654 29.0612C37.8032 28.9457 37.641 28.8302 37.4671 28.7263C37.3049 28.6108 37.1427 28.4953 36.9689 28.3914C36.8067 28.2759 36.6445 28.1604 36.4707 28.0565C36.3084 27.941 36.1462 27.8256 35.9724 27.7216C35.8102 27.5946 35.648 27.4907 35.4742 27.3868C35.3119 27.2597 35.1496 27.1558 34.9758 27.0519C34.8136 26.9248 34.6514 26.8209 34.4776 26.717C34.3154 26.59 34.1532 26.4861 33.9793 26.3821C33.8171 26.2551 33.6549 26.1512 33.4811 26.0472C33.3189 25.9202 33.1567 25.8163 32.9829 25.7124C32.8206 25.5853 32.6584 25.4814 32.4846 25.3775C30.7349 24.0264 28.2205 24.0149 26.436 25.4699C24.6516 26.9249 24.1881 29.396 25.1846 31.3707C25.2541 31.5554 25.3352 31.7402 25.4279 31.9249L25.3352 31.821Z" fill="var(--fill-0, white)"/>
<path id="Vector_5" d="M31.4533 29.4653C31.6503 29.5 31.8473 29.523 32.0559 29.5346C32.2529 29.5692 32.4498 29.5924 32.6584 29.6039C32.8554 29.6386 33.0524 29.6616 33.2609 29.6732C33.4579 29.7078 33.6549 29.7309 33.8635 29.7425C34.0605 29.7771 34.2574 29.8002 34.466 29.8118C34.663 29.8464 34.86 29.8695 35.0686 29.881C35.2655 29.9157 35.4625 29.9388 35.6711 29.9503C35.8681 29.985 36.065 30.0081 36.2736 30.0196C36.4706 30.0542 36.6676 30.0773 36.8762 30.0889C37.0732 30.1235 37.2702 30.1466 37.4787 30.1582C37.6757 30.1928 37.8727 30.2159 38.0813 30.2275C38.2783 30.2621 38.4752 30.2852 38.6838 30.2967C38.8808 30.3314 39.0778 30.3545 39.2864 30.366C39.4833 30.4007 39.6803 30.4238 39.8889 30.4353C40.0859 30.47 40.2828 30.4931 40.4914 30.5046C40.6884 30.5393 40.8854 30.5623 41.094 30.5739C41.291 30.6085 41.488 30.6316 41.6965 30.6432C41.8935 30.6778 42.0905 30.7009 42.299 30.7125C42.496 30.7471 42.693 30.7702 42.9016 30.7817C43.7706 30.9088 44.6745 30.9203 45.5899 30.7587C50.2248 29.985 53.3649 25.6085 52.577 20.9895C51.7891 16.3705 47.4091 13.2411 42.7742 14.0263C41.8588 14.1764 41.0013 14.4767 40.2249 14.8808C40.0395 14.9617 39.8657 15.054 39.6803 15.1464C39.4949 15.2272 39.3211 15.3196 39.1357 15.412C38.9503 15.4929 38.7649 15.5852 38.5911 15.6776C38.4057 15.7584 38.2203 15.8393 38.0465 15.9432C37.8611 16.024 37.6757 16.1049 37.5019 16.2088C37.3165 16.2896 37.1311 16.3705 36.9573 16.4744C36.7719 16.5552 36.5865 16.636 36.4127 16.74C36.2273 16.8208 36.0419 16.9016 35.8681 17.0056C35.6827 17.0864 35.4973 17.1672 35.3235 17.2712C35.1381 17.352 34.9527 17.4328 34.7789 17.5368C34.5935 17.6176 34.4081 17.6984 34.2343 17.8023C34.0489 17.8832 33.8635 17.964 33.6897 18.0679C33.5043 18.1488 33.3189 18.2296 33.1451 18.3335C32.9597 18.4144 32.7743 18.4952 32.6004 18.5991C32.415 18.68 32.2297 18.7608 32.0559 18.8647C31.8705 18.9455 31.685 19.0264 31.5112 19.1303C31.3258 19.2112 31.1405 19.292 30.9667 19.3959C30.7813 19.4767 30.5959 19.5576 30.4221 19.6615C30.2367 19.7423 30.0513 19.8232 29.8774 19.9271C29.6921 20.0079 29.5067 20.0888 29.3328 20.1927C27.2819 21.0241 26.0073 23.195 26.3897 25.4583C26.772 27.7216 28.6839 29.3614 30.8971 29.4884C31.0941 29.5231 31.2911 29.5462 31.4996 29.5577L31.4533 29.4653Z" fill="var(--fill-0, white)"/>
<path id="Vector_6" d="M32.4614 23.0103C32.5889 22.8602 32.7047 22.6985 32.8206 22.5253C32.9481 22.3752 33.064 22.2135 33.1798 22.0403C33.3073 21.8902 33.4232 21.7285 33.539 21.5553C33.6665 21.4052 33.7824 21.2435 33.8982 21.0703C34.0257 20.9202 34.1416 20.7585 34.2574 20.5853C34.3849 20.4352 34.5008 20.2735 34.6166 20.1003C34.7441 19.9502 34.86 19.7885 34.9758 19.6153C35.1033 19.4652 35.2192 19.3035 35.3351 19.1303C35.4625 18.9802 35.5784 18.8185 35.6943 18.6453C35.8217 18.4952 35.9377 18.3335 36.0535 18.1603C36.181 18.0102 36.2969 17.8485 36.4127 17.6753C36.5402 17.5252 36.6561 17.3635 36.7719 17.1903C36.8994 17.0402 37.0153 16.8785 37.1311 16.7053C37.2586 16.5552 37.3745 16.3936 37.4904 16.2203C37.6178 16.0702 37.7337 15.9086 37.8496 15.7354C37.977 15.5852 38.0929 15.4236 38.2088 15.2504C38.3362 15.1002 38.4521 14.9386 38.568 14.7654C38.6954 14.6152 38.8113 14.4536 38.9272 14.2804C39.0546 14.1302 39.1705 13.9686 39.2864 13.7954C39.831 13.1141 40.2944 12.3288 40.6189 11.4628C42.2643 7.07473 40.0279 2.17858 35.6247 0.538835C31.2216 -1.10091 26.3086 1.12776 24.6632 5.51581C24.3387 6.38187 24.1649 7.27102 24.1301 8.14863C24.1069 8.34494 24.0954 8.5528 24.0838 8.74911C24.0606 8.94542 24.049 9.15328 24.0374 9.34958C24.0143 9.54589 24.0027 9.75373 23.9911 9.95004C23.9679 10.1463 23.9563 10.3542 23.9447 10.5505C23.9215 10.7468 23.91 10.9547 23.8984 11.151C23.8752 11.3473 23.8636 11.5552 23.852 11.7515C23.8289 11.9478 23.8173 12.1556 23.8057 12.3519C23.7825 12.5482 23.7709 12.7561 23.7594 12.9524C23.7362 13.1487 23.7246 13.3566 23.713 13.5529C23.6898 13.7492 23.6782 13.957 23.6666 14.1533C23.6435 14.3496 23.6319 14.5575 23.6203 14.7538C23.5971 14.9501 23.5855 15.158 23.574 15.3543C23.5508 15.5506 23.5392 15.7584 23.5276 15.9548C23.5044 16.1511 23.4928 16.3589 23.4812 16.5552C23.4581 16.7515 23.4465 16.9594 23.4349 17.1557C23.4117 17.352 23.4001 17.5599 23.3886 17.7562C23.3654 17.9525 23.3422 18.1603 23.3422 18.3566C23.319 18.5529 23.2958 18.7608 23.2958 18.9571C23.2727 19.1534 23.2495 19.3613 23.2495 19.5576C23.2263 19.7539 23.2032 19.9617 23.2032 20.158C22.9019 22.3521 24.1533 24.523 26.3085 25.3313C28.4754 26.1396 30.8508 25.3082 32.0559 23.4606C32.1833 23.3105 32.2992 23.1488 32.4151 22.9756L32.4614 23.0103Z" fill="var(--fill-0, white)"/>
</g>
<path id="Vector_7" d="M26.9574 34.2344C31.4627 34.2344 35.1149 30.5948 35.1149 26.105C35.1149 21.6152 31.4627 17.9756 26.9574 17.9756C22.4522 17.9756 18.8 21.6152 18.8 26.105C18.8 30.5948 22.4522 34.2344 26.9574 34.2344Z" fill="var(--fill-0, #FED229)"/>
</g>
</svg>
