<svg preserveAspectRatio="none" width="100%" height="100%" overflow="visible" style="display: block;" viewBox="0 0 73.1828 71.5862" fill="none" xmlns="http://www.w3.org/2000/svg">
<g id="Group">
<path id="Vector" d="M56.8719 7.21127C56.6176 4.65811 55.9527 2.24138 54.9749 4.94462e-05C52.5498 0.233927 50.1051 0.838094 47.7387 1.87105C35.6525 7.1333 30.1179 21.1854 35.4178 33.2301C48.5602 31.9438 58.1626 20.2889 56.8719 7.21127Z" fill="var(--fill-0, white)"/>
<path id="Vector_2" d="M17.2106 4.87253C14.6877 4.32682 12.1844 4.20988 9.75933 4.44375C9.23129 6.82151 9.05529 9.3162 9.30953 11.8694C10.6003 24.9665 22.2954 34.536 35.4182 33.2497C38.2539 20.4059 30.0986 7.69855 17.2106 4.87253Z" fill="var(--fill-0, white)"/>
<path id="Vector_3" d="M2.71849 41.7472C1.40817 43.9691 0.528105 46.3078 6.51498e-05 48.6856C2.11222 49.9134 4.43951 50.8489 6.96236 51.4141C19.8504 54.2402 32.6016 46.1129 35.4374 33.2691C24.0552 26.6231 9.40698 30.4236 2.73804 41.7667L2.71849 41.7472Z" fill="var(--fill-0, white)"/>
<path id="Vector_4" d="M35.4178 33.2497C25.5415 41.9811 24.6614 57.0273 33.4229 66.8696C35.1244 68.7796 37.0997 70.3583 39.1923 71.5861C41.0111 69.9685 42.6343 68.0585 43.9446 65.8367C50.6136 54.4936 46.8 39.8957 35.4178 33.2497Z" fill="var(--fill-0, white)"/>
<path id="Vector_5" d="M66.8854 45.5283C69.2518 44.4954 71.3444 43.131 73.1828 41.5134C72.2049 39.2721 70.8751 37.1672 69.1541 35.2377C60.3925 25.3953 45.2945 24.5183 35.4182 33.2497C40.6986 45.2944 54.7992 50.7906 66.8854 45.5283Z" fill="var(--fill-0, white)"/>
</g>
</svg>
