<svg preserveAspectRatio="none" width="100%" height="100%" overflow="visible" style="display: block;" viewBox="0 0 39.8433 38.6024" fill="none" xmlns="http://www.w3.org/2000/svg">
<g id="Group">
<g id="Group_2">
<path id="Vector" d="M20.6921 14.3935C20.6457 14.255 20.5763 14.1164 20.5067 13.9778C20.4604 13.8393 20.3908 13.7007 20.3213 13.5621C20.2749 13.4235 20.2054 13.285 20.1359 13.1464C20.078 13.0078 20.02 12.8693 19.9505 12.7307C19.8926 12.5921 19.8346 12.4535 19.7651 12.315C19.7072 12.1764 19.6492 12.0378 19.5797 11.8993C19.5217 11.7607 19.4638 11.6221 19.3943 11.4836C19.3364 11.345 19.2785 11.2064 19.209 11.0679C19.151 10.9293 19.093 10.7907 19.0235 10.6522C18.9656 10.5136 18.9077 10.375 18.8381 10.2364C18.7802 10.0979 18.7222 9.9593 18.6527 9.82073C18.5948 9.68216 18.5369 9.54359 18.4673 9.40502C18.4094 9.26645 18.3514 9.12788 18.2819 8.98931C18.224 8.85074 18.1661 8.71217 18.0965 8.5736C18.0386 8.43503 17.9806 8.29646 17.9111 8.15789C17.8532 8.01932 17.7953 7.88075 17.7257 7.74218C17.6678 7.60361 17.6099 7.46504 17.5404 7.32647C17.4824 7.1879 17.4245 7.04933 17.3549 6.91076C17.297 6.77219 17.2391 6.63362 17.1696 6.49505C16.9262 5.87148 16.5786 5.28255 16.1383 4.73982C13.8672 1.99152 9.77684 1.59891 7.01906 3.86222C4.26127 6.12553 3.86729 10.2018 6.13841 12.9501C6.59031 13.4928 7.11175 13.9432 7.66794 14.3011C7.7954 14.3935 7.92288 14.4744 8.05035 14.5552C8.17781 14.6476 8.30522 14.7284 8.43268 14.8092C8.56014 14.9016 8.68762 14.9825 8.81508 15.0633C8.94254 15.1557 9.07002 15.2365 9.19748 15.3173C9.32494 15.4097 9.45235 15.4905 9.57981 15.5714C9.70727 15.6638 9.83475 15.7446 9.96221 15.8254C10.0897 15.9178 10.2172 15.9986 10.3446 16.0795C10.4721 16.1719 10.588 16.2527 10.727 16.3335C10.8545 16.4259 10.9703 16.5067 11.1093 16.5876C11.2368 16.6799 11.3527 16.7608 11.4917 16.8416C11.6192 16.934 11.7351 17.0148 11.8742 17.0956C12.0016 17.188 12.1175 17.2689 12.2566 17.3497C12.384 17.4421 12.4998 17.5229 12.6389 17.6037C12.7663 17.6961 12.8822 17.7769 13.0213 17.8578C13.1487 17.9502 13.2646 18.031 13.4037 18.1118C13.5311 18.2042 13.647 18.285 13.786 18.3659C13.9135 18.4583 14.0294 18.5391 14.1684 18.6199C14.2959 18.7123 14.4118 18.7931 14.5508 18.874C14.6783 18.9663 14.7942 19.0587 14.9332 19.128C15.0607 19.2204 15.1765 19.3128 15.3156 19.3821C16.6481 20.4098 18.56 20.4213 19.9158 19.3128C21.2715 18.2042 21.6191 16.322 20.8659 14.8208C20.8196 14.6822 20.75 14.5437 20.6805 14.4051L20.6921 14.3935Z" fill="var(--fill-0, white)"/>
<path id="Vector_2" d="M16.0456 16.1834C15.8949 16.1603 15.7443 16.1372 15.5936 16.1257C15.443 16.1026 15.2924 16.0795 15.1418 16.0679C14.9911 16.0448 14.8405 16.0217 14.6899 16.0102C14.5392 15.9871 14.3886 15.964 14.2379 15.9525C14.0873 15.9294 13.9367 15.9063 13.786 15.8947C13.6354 15.8716 13.4848 15.8485 13.3342 15.837C13.1835 15.8139 13.0329 15.7908 12.8822 15.7792C12.7316 15.7561 12.581 15.7331 12.4303 15.7215C12.2797 15.6984 12.129 15.6753 11.9784 15.6638C11.8278 15.6407 11.6772 15.6176 11.5265 15.606C11.3759 15.5829 11.2253 15.5598 11.0746 15.5483C10.924 15.5252 10.7733 15.5021 10.6227 15.4905C10.4721 15.4675 10.3214 15.4444 10.1708 15.4328C10.0201 15.4097 9.86956 15.3866 9.71892 15.3751C9.56829 15.352 9.41763 15.3289 9.267 15.3173C9.11636 15.2942 8.96571 15.2711 8.81508 15.2596C8.66444 15.2365 8.51379 15.2134 8.36315 15.2019C8.21252 15.1788 8.06194 15.1557 7.9113 15.1441C7.76067 15.121 7.61001 15.0979 7.45938 15.0864C6.7989 14.9825 6.11523 14.9825 5.4084 15.0979C1.88585 15.6869 -0.501101 19.0125 0.0898527 22.5345C0.680807 26.0565 4.01789 28.4237 7.55203 27.8348C8.24727 27.7194 8.89621 27.5 9.48716 27.1882C9.62621 27.1304 9.76524 27.0611 9.90429 26.9919C10.0433 26.9341 10.1824 26.8648 10.3214 26.7956C10.4605 26.7378 10.5995 26.6685 10.7385 26.5993C10.8776 26.5415 11.0167 26.4722 11.1557 26.4029C11.2948 26.3452 11.4338 26.2759 11.5729 26.2066C11.7119 26.1489 11.8509 26.0796 11.99 26.0103C12.129 25.9526 12.2681 25.8833 12.4071 25.814C12.5462 25.7563 12.6853 25.687 12.8243 25.6177C12.9634 25.56 13.1024 25.4907 13.2414 25.4214C13.3805 25.3637 13.5195 25.2944 13.6586 25.2251C13.7976 25.1674 13.9367 25.0981 14.0757 25.0288C14.2147 24.9711 14.3538 24.9018 14.4929 24.8325C14.6319 24.7748 14.771 24.7055 14.91 24.6362C15.0491 24.5784 15.1881 24.5091 15.3272 24.4399C15.4662 24.3821 15.6052 24.3128 15.7443 24.2436C15.8833 24.1858 16.0224 24.1165 16.1615 24.0472C16.3005 23.9895 16.4396 23.9202 16.5786 23.8509C16.7176 23.7932 16.8567 23.7239 16.9957 23.6546C17.1348 23.5969 17.2738 23.5276 17.4129 23.4583C17.5519 23.4006 17.691 23.3313 17.8301 23.262C19.3943 22.6269 20.3561 20.9756 20.0664 19.255C19.7767 17.5345 18.3283 16.2873 16.6365 16.1949C16.4859 16.1718 16.3352 16.1488 16.1846 16.1372L16.0456 16.1834Z" fill="var(--fill-0, white)"/>
<path id="Vector_3" d="M15.2692 21.0911C15.1765 21.2066 15.0839 21.3336 14.9912 21.4606C14.8985 21.5761 14.8058 21.7031 14.7131 21.8301C14.6204 21.9456 14.5276 22.0726 14.4349 22.1997C14.3422 22.3151 14.2495 22.4421 14.1568 22.5692C14.0641 22.6846 13.9714 22.8117 13.8787 22.9387C13.786 23.0542 13.6934 23.1812 13.6007 23.3082C13.508 23.4237 13.4153 23.5507 13.3226 23.6777C13.2299 23.7932 13.1372 23.9202 13.0445 24.0472C12.9518 24.1627 12.859 24.2897 12.7663 24.4168C12.6736 24.5322 12.5809 24.6593 12.4882 24.7863C12.3956 24.9018 12.3029 25.0288 12.2102 25.1558C12.1175 25.2713 12.0248 25.3983 11.9321 25.5253C11.8394 25.6408 11.7467 25.7678 11.654 25.8948C11.5613 26.0103 11.4686 26.1373 11.3759 26.2644C11.2832 26.3798 11.1905 26.5069 11.0978 26.6339C11.0051 26.7494 10.9124 26.8764 10.8197 27.0034C10.727 27.1189 10.6343 27.2459 10.5416 27.3729C10.4489 27.4884 10.3562 27.6154 10.2635 27.7424C10.1708 27.8579 10.0781 27.9849 9.98542 28.112C9.56827 28.6316 9.22066 29.2321 8.97732 29.8903C7.72589 33.2275 9.42919 36.9458 12.7779 38.1929C16.1267 39.4401 19.8578 37.7426 21.1092 34.4054C21.3526 33.7471 21.4917 33.0774 21.5148 32.4076C21.5264 32.2575 21.538 32.1074 21.5496 31.9573C21.5611 31.8072 21.5728 31.6571 21.5843 31.5069C21.6075 31.3568 21.6075 31.2067 21.6191 31.0566C21.6422 30.9065 21.6423 30.7564 21.6539 30.6062C21.677 30.4561 21.677 30.306 21.6886 30.1559C21.7118 30.0058 21.7118 29.8556 21.7234 29.7055C21.7466 29.5554 21.7465 29.4053 21.7581 29.2552C21.7813 29.1051 21.7813 28.9549 21.7929 28.8048C21.8161 28.6547 21.8276 28.5046 21.8276 28.3545C21.8508 28.2043 21.8624 28.0542 21.8624 27.9041C21.8856 27.754 21.8972 27.6039 21.8972 27.4538C21.9203 27.3036 21.932 27.1535 21.932 27.0034C21.9551 26.8533 21.9667 26.7032 21.9667 26.553C21.9899 26.4029 22.0015 26.2528 22.0015 26.1027C22.0246 25.9526 22.0362 25.8025 22.0362 25.6523C22.0594 25.5022 22.071 25.3521 22.071 25.202C22.0942 25.0519 22.1058 24.9018 22.1058 24.7516C22.129 24.6015 22.1405 24.4514 22.1405 24.3013C22.1637 24.1512 22.1753 24.0011 22.1753 23.8509C22.1985 23.7008 22.21 23.5507 22.21 23.4006C22.4418 21.7377 21.4916 20.0749 19.8462 19.4629C18.2008 18.8509 16.3932 19.486 15.4778 20.8832C15.3851 20.9987 15.2924 21.1257 15.1997 21.2527L15.2692 21.0911Z" fill="var(--fill-0, white)"/>
<path id="Vector_4" d="M19.1509 24.2089C19.1973 24.3475 19.2668 24.486 19.3364 24.6246C19.3827 24.7632 19.4522 24.9018 19.5217 25.0403C19.5681 25.1789 19.6376 25.3175 19.7072 25.456C19.7651 25.5946 19.823 25.7332 19.8925 25.8717C19.9505 26.0103 20.0084 26.1489 20.078 26.2875C20.1359 26.426 20.1938 26.5646 20.2633 26.7032C20.3213 26.8417 20.3792 26.9803 20.4487 27.1189C20.5066 27.2575 20.5646 27.396 20.6341 27.5346C20.6921 27.6732 20.75 27.8117 20.8195 27.9503C20.8774 28.0889 20.9354 28.2274 21.0049 28.366C21.0629 28.5046 21.1208 28.6432 21.1903 28.7817C21.2482 28.9203 21.3062 29.0589 21.3757 29.1974C21.4337 29.336 21.4916 29.4746 21.5611 29.6131C21.619 29.7517 21.6769 29.8903 21.7465 30.0289C21.8044 30.1674 21.8624 30.306 21.9319 30.4446C21.9898 30.5831 22.0477 30.7217 22.1173 30.8603C22.1752 30.9988 22.2332 31.1374 22.3027 31.276C22.3606 31.4146 22.4185 31.5531 22.4881 31.6917C22.546 31.8303 22.604 31.9688 22.6735 32.1074C22.9168 32.731 23.2644 33.3199 23.7047 33.8626C25.9758 36.6109 30.0662 37.0035 32.824 34.7402C35.5818 32.4769 35.9757 28.4006 33.7046 25.6523C33.2527 25.1096 32.7313 24.6593 32.1751 24.3013C32.0476 24.2089 31.9202 24.1281 31.7927 24.0472C31.6653 23.9549 31.5378 23.874 31.4103 23.7932C31.2829 23.7008 31.1554 23.62 31.0279 23.5391C30.9005 23.4468 30.7731 23.3659 30.6456 23.2851C30.5181 23.1927 30.3907 23.1119 30.2632 23.0311C30.1357 22.9387 30.0083 22.8579 29.8808 22.777C29.7533 22.6846 29.6259 22.6038 29.4984 22.523C29.3709 22.4306 29.2551 22.3498 29.1161 22.2689C28.9886 22.1766 28.8727 22.0957 28.7337 22.0149C28.6062 21.9225 28.4903 21.8417 28.3513 21.7608C28.2238 21.6685 28.108 21.5876 27.9689 21.5068C27.8415 21.4144 27.7256 21.3336 27.5865 21.2527C27.4591 21.1604 27.3432 21.0795 27.2041 20.9987C27.0767 20.9063 26.9608 20.8255 26.8217 20.7447C26.6943 20.6523 26.5784 20.5714 26.4394 20.4906C26.3119 20.3982 26.196 20.3174 26.057 20.2366C25.9295 20.1442 25.8136 20.0633 25.6746 19.9825C25.5471 19.8901 25.4313 19.8093 25.2923 19.7285C25.1648 19.6361 25.0489 19.5437 24.9099 19.4744C24.7824 19.3821 24.6665 19.2897 24.5275 19.2204C23.1949 18.1927 21.283 18.1811 19.9273 19.2897C18.5716 20.3982 18.224 22.2805 18.9771 23.7817C19.0235 23.9202 19.093 24.0588 19.1625 24.1974L19.1509 24.2089Z" fill="var(--fill-0, white)"/>
<path id="Vector_5" d="M23.7975 22.419C23.9481 22.4421 24.0988 22.4652 24.2494 22.4768C24.4 22.4999 24.5507 22.523 24.7013 22.5345C24.852 22.5576 25.0025 22.5807 25.1532 22.5923C25.3038 22.6154 25.4545 22.6385 25.6051 22.65C25.7557 22.6731 25.9064 22.6962 26.057 22.7077C26.2077 22.7308 26.3583 22.7539 26.5089 22.7655C26.6596 22.7886 26.8102 22.8117 26.9608 22.8232C27.1114 22.8463 27.2621 22.8694 27.4127 22.881C27.5634 22.904 27.714 22.9271 27.8646 22.9387C28.0153 22.9618 28.1659 22.9849 28.3166 22.9964C28.4672 23.0195 28.6179 23.0426 28.7685 23.0542C28.9191 23.0773 29.0697 23.1004 29.2203 23.1119C29.371 23.135 29.5216 23.1581 29.6723 23.1696C29.8229 23.1927 29.9736 23.2158 30.1242 23.2274C30.2748 23.2505 30.4255 23.2736 30.5761 23.2851C30.7267 23.3082 30.8773 23.3313 31.028 23.3428C31.1786 23.3659 31.3293 23.389 31.4799 23.4006C31.6305 23.4237 31.7812 23.4468 31.9318 23.4583C32.0824 23.4814 32.2331 23.5045 32.3837 23.5161C33.0442 23.62 33.7278 23.62 34.4346 23.5045C37.9572 22.9156 40.3442 19.5899 39.7533 16.0679C39.1623 12.5459 35.8251 10.1787 32.291 10.7676C31.5958 10.8831 30.9469 11.1025 30.3559 11.4143C30.2169 11.472 30.0778 11.5413 29.9388 11.6106C29.7997 11.6683 29.6607 11.7376 29.5216 11.8069C29.3826 11.8646 29.2435 11.9339 29.1045 12.0032C28.9654 12.0609 28.8264 12.1302 28.6874 12.1995C28.5483 12.2573 28.4092 12.3265 28.2702 12.3958C28.1311 12.4536 27.9921 12.5228 27.853 12.5921C27.714 12.6499 27.575 12.7191 27.4359 12.7884C27.2969 12.8462 27.1578 12.9154 27.0188 12.9847C26.8797 13.0425 26.7406 13.1118 26.6016 13.181C26.4625 13.2388 26.3235 13.3081 26.1845 13.3774C26.0454 13.4351 25.9064 13.5044 25.7673 13.5737C25.6283 13.6314 25.4893 13.7007 25.3502 13.77C25.2112 13.8277 25.0721 13.897 24.933 13.9663C24.794 14.024 24.6549 14.0933 24.5159 14.1626C24.3768 14.2203 24.2378 14.2896 24.0988 14.3589C23.9597 14.4166 23.8207 14.4859 23.6816 14.5552C23.5426 14.6129 23.4036 14.6822 23.2645 14.7515C23.1255 14.8092 22.9864 14.8785 22.8473 14.9478C22.7083 15.0055 22.5692 15.0748 22.4302 15.1441C22.2911 15.2019 22.1521 15.2711 22.0131 15.3404C20.4488 15.9755 19.487 17.6268 19.7767 19.3474C20.0664 21.068 21.5148 22.3151 23.2065 22.4075C23.3571 22.4306 23.5078 22.4537 23.6584 22.4652L23.7975 22.419Z" fill="var(--fill-0, white)"/>
<path id="Vector_6" d="M24.5623 17.5113C24.655 17.3959 24.7476 17.2689 24.8403 17.1418C24.933 17.0264 25.0257 16.8993 25.1184 16.7723C25.2111 16.6568 25.3038 16.5298 25.3965 16.4028C25.4892 16.2873 25.5819 16.1603 25.6746 16.0333C25.7673 15.9178 25.86 15.7908 25.9527 15.6638C26.0454 15.5483 26.1381 15.4213 26.2308 15.2942C26.3235 15.1788 26.4162 15.0517 26.5089 14.9247C26.6016 14.8092 26.6943 14.6822 26.787 14.5552C26.8797 14.4397 26.9724 14.3127 27.0651 14.1857C27.1578 14.0702 27.2505 13.9432 27.3432 13.8162C27.4359 13.7007 27.5286 13.5737 27.6213 13.4466C27.714 13.3312 27.8067 13.2041 27.8994 13.0771C27.9921 12.9616 28.0848 12.8346 28.1775 12.7076C28.2702 12.5921 28.3629 12.4651 28.4556 12.3381C28.5483 12.2226 28.641 12.0956 28.7337 11.9686C28.8264 11.8531 28.919 11.7261 29.0117 11.599C29.1044 11.4836 29.1971 11.3565 29.2898 11.2295C29.3825 11.114 29.4752 10.987 29.5679 10.86C29.6606 10.7445 29.7534 10.6175 29.8461 10.4905C30.2632 9.97085 30.6108 9.37037 30.8542 8.71216C32.1056 5.37493 30.4022 1.65663 27.0535 0.409503C23.7047 -0.837627 19.9736 0.859854 18.7222 4.19708C18.4789 4.85529 18.3398 5.52506 18.3167 6.19481C18.3051 6.34493 18.2935 6.49505 18.2819 6.64516C18.2703 6.79528 18.2587 6.9454 18.2471 7.09552C18.224 7.24563 18.2239 7.39575 18.2123 7.54587C18.1892 7.69599 18.1892 7.8461 18.1776 7.99622C18.1544 8.14634 18.1544 8.29645 18.1428 8.44657C18.1196 8.59669 18.1197 8.74681 18.1081 8.89692C18.0849 9.04704 18.0849 9.19716 18.0733 9.34728C18.0501 9.49739 18.0502 9.64751 18.0386 9.79763C18.0154 9.94774 18.0038 10.0979 18.0038 10.248C17.9806 10.3981 17.9691 10.5482 17.9691 10.6983C17.9459 10.8484 17.9343 10.9986 17.9343 11.1487C17.9111 11.2988 17.8995 11.4489 17.8995 11.599C17.8764 11.7492 17.8647 11.8993 17.8647 12.0494C17.8416 12.1995 17.83 12.3496 17.83 12.4997C17.8068 12.6499 17.7952 12.8 17.7952 12.9501C17.772 13.1002 17.7605 13.2503 17.7605 13.4004C17.7373 13.5506 17.7257 13.7007 17.7257 13.8508C17.7025 14.0009 17.6909 14.151 17.6909 14.3011C17.6677 14.4513 17.6562 14.6014 17.6562 14.7515C17.633 14.9016 17.6214 15.0517 17.6214 15.2018C17.3896 16.8647 18.3398 18.5275 19.9852 19.1396C21.6306 19.7516 23.4382 19.1165 24.3536 17.7192C24.4463 17.6037 24.5391 17.4767 24.6318 17.3497L24.5623 17.5113Z" fill="var(--fill-0, white)"/>
</g>
<path id="Vector_7" d="M20.3908 26.045C23.8145 26.045 26.5901 23.279 26.5901 19.8671C26.5901 16.4551 23.8145 13.6891 20.3908 13.6891C16.9671 13.6891 14.1916 16.4551 14.1916 19.8671C14.1916 23.279 16.9671 26.045 20.3908 26.045Z" fill="var(--fill-0, #FED229)"/>
</g>
</svg>
