<svg preserveAspectRatio="none" width="100%" height="100%" overflow="visible" style="display: block;" viewBox="0 0 39.8547 38.6024" fill="none" xmlns="http://www.w3.org/2000/svg">
<g id="Group">
<g id="Group_2">
<path id="Vector" d="M20.6921 14.3935C20.6458 14.2549 20.5762 14.1164 20.5067 13.9778C20.4603 13.8392 20.3908 13.7007 20.3213 13.5621C20.275 13.4235 20.2054 13.285 20.1359 13.1464C20.0779 13.0078 20.02 12.8693 19.9505 12.7307C19.8926 12.5921 19.8346 12.4535 19.7651 12.315C19.7071 12.1764 19.6492 12.0378 19.5797 11.8993C19.5218 11.7607 19.4639 11.6221 19.3943 11.4835C19.3364 11.345 19.2784 11.2064 19.2089 11.0678C19.151 10.9293 19.0931 10.7907 19.0235 10.6521C18.9656 10.5136 18.9076 10.375 18.8381 10.2364C18.7802 10.0978 18.7223 9.95928 18.6527 9.82071C18.5948 9.68214 18.5368 9.54357 18.4673 9.405C18.4094 9.26643 18.3515 9.12786 18.2819 8.98929C18.224 8.85072 18.1661 8.71214 18.0966 8.57357C18.0386 8.435 17.9807 8.29643 17.9111 8.15786C17.8532 8.01929 17.7953 7.88072 17.7258 7.74215C17.6678 7.60358 17.6099 7.46501 17.5403 7.32644C17.4824 7.18787 17.4245 7.0493 17.355 6.91073C17.297 6.77216 17.2391 6.63359 17.1695 6.49502C16.9262 5.87146 16.5786 5.28255 16.1383 4.73981C13.8672 1.99151 9.7768 1.59888 7.01902 3.86219C4.26123 6.1255 3.86732 10.2018 6.13844 12.9501C6.59034 13.4928 7.11178 13.9432 7.66797 14.3011C7.79543 14.3935 7.92284 14.4744 8.05031 14.5552C8.17777 14.6476 8.30525 14.7284 8.43271 14.8092C8.56017 14.9016 8.68765 14.9824 8.81511 15.0633C8.94257 15.1556 9.06998 15.2365 9.19744 15.3173C9.3249 15.4097 9.45238 15.4905 9.57984 15.5714C9.7073 15.6637 9.83478 15.7446 9.96224 15.8254C10.0897 15.9178 10.2172 15.9986 10.3446 16.0795C10.4721 16.1718 10.5879 16.2527 10.727 16.3335C10.8544 16.4259 10.9703 16.5067 11.1094 16.5875C11.2368 16.6799 11.3527 16.7608 11.4918 16.8416C11.6192 16.934 11.7351 17.0148 11.8741 17.0956C12.0016 17.188 12.1175 17.2688 12.2565 17.3497C12.384 17.4421 12.4999 17.5229 12.6389 17.6037C12.7664 17.6961 12.8823 17.7769 13.0213 17.8578C13.1488 17.9501 13.2646 18.031 13.4036 18.1118C13.5311 18.2042 13.647 18.285 13.786 18.3659C13.9135 18.4582 14.0294 18.5391 14.1685 18.6199C14.2959 18.7123 14.4117 18.7931 14.5508 18.8739C14.6782 18.9663 14.7941 19.0587 14.9332 19.128C15.0606 19.2204 15.1765 19.3128 15.3156 19.382C16.6481 20.4098 18.56 20.4213 19.9157 19.3128C21.2714 18.2042 21.6191 16.322 20.8659 14.8208C20.8195 14.6822 20.75 14.5436 20.6805 14.4051L20.6921 14.3935Z" fill="var(--fill-0, white)"/>
<path id="Vector_2" d="M16.0456 16.1949C15.895 16.1718 15.7443 16.1487 15.5937 16.1372C15.4431 16.1141 15.2924 16.091 15.1418 16.0795C14.9911 16.0564 14.8406 16.0333 14.6899 16.0217C14.5393 15.9986 14.3886 15.9755 14.238 15.964C14.0874 15.9409 13.9367 15.9178 13.7861 15.9062C13.6354 15.8832 13.4848 15.8601 13.3342 15.8485C13.1835 15.8254 13.0329 15.8023 12.8823 15.7908C12.7317 15.7677 12.581 15.7446 12.4304 15.733C12.2797 15.7099 12.1291 15.6868 11.9785 15.6753C11.8278 15.6522 11.6772 15.6291 11.5265 15.6176C11.3759 15.5945 11.2252 15.5714 11.0746 15.5598C10.924 15.5367 10.7734 15.5136 10.6228 15.5021C10.4721 15.479 10.3215 15.4559 10.1708 15.4443C10.0202 15.4212 9.86955 15.3981 9.71891 15.3866C9.56828 15.3635 9.41762 15.3404 9.26699 15.3289C9.11635 15.3058 8.96577 15.2827 8.81513 15.2711C8.6645 15.248 8.51385 15.2249 8.36321 15.2134C8.21258 15.1903 8.06192 15.1672 7.91129 15.1556C7.76065 15.1326 7.61 15.1095 7.45937 15.0979C6.79889 14.994 6.11528 14.994 5.40846 15.1095C1.88591 15.6984 -0.501113 19.0241 0.0898404 22.546C0.680794 26.068 4.01795 28.4353 7.55208 27.8463C8.24732 27.7309 8.8962 27.5115 9.48715 27.1997C9.6262 27.1419 9.7653 27.0727 9.90435 27.0034C10.0434 26.9457 10.1824 26.8764 10.3215 26.8071C10.4605 26.7493 10.5996 26.6801 10.7386 26.6108C10.8776 26.553 11.0167 26.4837 11.1557 26.4145C11.2948 26.3567 11.4339 26.2875 11.5729 26.2182C11.712 26.1604 11.851 26.0911 11.9901 26.0219C12.1291 25.9641 12.2681 25.8948 12.4072 25.8255C12.5462 25.7678 12.6853 25.6985 12.8243 25.6292C12.9634 25.5715 13.1025 25.5022 13.2415 25.4329C13.3806 25.3752 13.5196 25.3059 13.6586 25.2366C13.7977 25.1789 13.9367 25.1096 14.0758 25.0403C14.2148 24.9826 14.3538 24.9133 14.4929 24.844C14.6319 24.7863 14.771 24.717 14.9101 24.6477C15.0491 24.59 15.1882 24.5207 15.3272 24.4514C15.4663 24.3937 15.6053 24.3244 15.7443 24.2551C15.8834 24.1973 16.0224 24.128 16.1615 24.0588C16.3005 24.001 16.4395 23.9318 16.5786 23.8625C16.7176 23.8047 16.8567 23.7354 16.9958 23.6662C17.1348 23.6084 17.2739 23.5391 17.4129 23.4699C17.552 23.4121 17.691 23.3428 17.83 23.2735C19.3943 22.6384 20.3561 20.9871 20.0664 19.2666C19.7767 17.546 18.3283 16.2989 16.6366 16.2065C16.4859 16.1834 16.3353 16.1603 16.1847 16.1487L16.0456 16.1949Z" fill="var(--fill-0, white)"/>
<path id="Vector_3" d="M15.2808 21.0911C15.1881 21.2065 15.0954 21.3336 15.0027 21.4606C14.91 21.5761 14.8174 21.7031 14.7247 21.8301C14.632 21.9456 14.5393 22.0726 14.4466 22.1996C14.3539 22.3151 14.2612 22.4421 14.1685 22.5692C14.0758 22.6846 13.9831 22.8116 13.8904 22.9387C13.7977 23.0541 13.7049 23.1812 13.6123 23.3082C13.5196 23.4237 13.4269 23.5507 13.3342 23.6777C13.2415 23.7932 13.1488 23.9202 13.0561 24.0472C12.9634 24.1627 12.8707 24.2897 12.778 24.4167C12.6853 24.5322 12.5926 24.6592 12.4999 24.7863C12.4072 24.9017 12.3145 25.0288 12.2218 25.1558C12.1291 25.2713 12.0364 25.3983 11.9437 25.5253C11.851 25.6408 11.7583 25.7678 11.6656 25.8949C11.5729 26.0103 11.4802 26.1373 11.3875 26.2643C11.2948 26.3798 11.2021 26.5069 11.1094 26.6339C11.0167 26.7493 10.924 26.8764 10.8313 27.0034C10.7386 27.1189 10.6459 27.2459 10.5532 27.3729C10.4606 27.4884 10.3679 27.6154 10.2752 27.7424C10.1825 27.8579 10.0897 27.9849 9.99701 28.112C9.57986 28.6316 9.23225 29.2321 8.98892 29.8903C7.73748 33.2275 9.44086 36.9458 12.7896 38.1929C16.1383 39.4401 19.8695 37.7426 21.1209 34.4054C21.3642 33.7471 21.5032 33.0774 21.5264 32.4076C21.538 32.2575 21.5496 32.1074 21.5612 31.9573C21.5728 31.8072 21.5844 31.657 21.5959 31.5069C21.6191 31.3568 21.6191 31.2067 21.6307 31.0566C21.6539 30.9064 21.6539 30.7563 21.6655 30.6062C21.6886 30.4561 21.6887 30.306 21.7003 30.1558C21.7234 30.0057 21.7234 29.8556 21.735 29.7055C21.7582 29.5554 21.7582 29.4053 21.7698 29.2551C21.793 29.105 21.7929 28.9549 21.8045 28.8048C21.8277 28.6547 21.8393 28.5046 21.8393 28.3544C21.8625 28.2043 21.874 28.0542 21.874 27.9041C21.8972 27.754 21.9088 27.6039 21.9088 27.4537C21.932 27.3036 21.9435 27.1535 21.9435 27.0034C21.9667 26.8533 21.9783 26.7031 21.9783 26.553C22.0015 26.4029 22.0131 26.2528 22.0131 26.1027C22.0362 25.9526 22.0479 25.8024 22.0479 25.6523C22.071 25.5022 22.0826 25.3521 22.0826 25.202C22.1058 25.0519 22.1174 24.9017 22.1174 24.7516C22.1406 24.6015 22.1522 24.4514 22.1522 24.3013C22.1754 24.1512 22.1869 24.001 22.1869 23.8509C22.2101 23.7008 22.2217 23.5507 22.2217 23.4006C22.4534 21.7377 21.5032 20.0749 19.8578 19.4629C18.2124 18.8509 16.4049 19.486 15.4895 20.8832C15.3968 20.9987 15.304 21.1257 15.2113 21.2527L15.2808 21.0911Z" fill="var(--fill-0, white)"/>
<path id="Vector_4" d="M19.1626 24.2089C19.2089 24.3475 19.2784 24.486 19.348 24.6246C19.3943 24.7632 19.4639 24.9017 19.5334 25.0403C19.5797 25.1789 19.6492 25.3175 19.7188 25.456C19.7767 25.5946 19.8347 25.7332 19.9042 25.8717C19.9621 26.0103 20.02 26.1489 20.0896 26.2875C20.1475 26.426 20.2054 26.5646 20.2749 26.7032C20.3329 26.8417 20.3908 26.9803 20.4604 27.1189C20.5183 27.2575 20.5762 27.396 20.6457 27.5346C20.7037 27.6731 20.7616 27.8117 20.8312 27.9503C20.8891 28.0889 20.947 28.2274 21.0165 28.366C21.0745 28.5046 21.1324 28.6432 21.202 28.7817C21.2599 28.9203 21.3178 29.0588 21.3873 29.1974C21.4453 29.336 21.5032 29.4745 21.5728 29.6131C21.6307 29.7517 21.6886 29.8903 21.7581 30.0288C21.8161 30.1674 21.874 30.306 21.9435 30.4445C22.0014 30.5831 22.0594 30.7217 22.1289 30.8603C22.1869 30.9988 22.2448 31.1374 22.3143 31.276C22.3722 31.4145 22.4302 31.5531 22.4997 31.6917C22.5577 31.8303 22.6156 31.9688 22.6851 32.1074C22.9284 32.7309 23.2761 33.3199 23.7164 33.8626C25.9875 36.6109 30.0778 37.0035 32.8356 34.7402C35.5934 32.4769 35.9874 28.4006 33.7163 25.6523C33.2644 25.1096 32.7429 24.6593 32.1867 24.3013C32.0593 24.2089 31.9318 24.1281 31.8043 24.0472C31.6769 23.9549 31.5495 23.874 31.422 23.7932C31.2945 23.7008 31.1671 23.62 31.0396 23.5391C30.9121 23.4468 30.7847 23.3659 30.6572 23.2851C30.5297 23.1927 30.4023 23.1119 30.2748 23.0311C30.1473 22.9387 30.0199 22.8578 29.8925 22.777C29.765 22.6846 29.6375 22.6038 29.5101 22.523C29.3826 22.4306 29.2667 22.3497 29.1277 22.2689C29.0002 22.1765 28.8843 22.0957 28.7453 22.0149C28.6178 21.9225 28.502 21.8417 28.3629 21.7608C28.2355 21.6684 28.1196 21.5876 27.9805 21.5068C27.8531 21.4144 27.7372 21.3336 27.5981 21.2527C27.4707 21.1604 27.3548 21.0795 27.2158 20.9987C27.0883 20.9063 26.9724 20.8255 26.8334 20.7446C26.7059 20.6523 26.59 20.5714 26.451 20.4906C26.3235 20.3982 26.2076 20.3174 26.0686 20.2366C25.9411 20.1442 25.8253 20.0633 25.6863 19.9825C25.5588 19.8901 25.4429 19.8093 25.3039 19.7285C25.1764 19.6361 25.0605 19.5437 24.9215 19.4744C24.794 19.382 24.6782 19.2897 24.5391 19.2204C23.2066 18.1926 21.2946 18.1811 19.9389 19.2897C18.5832 20.3982 18.2356 22.2805 18.9887 23.7816C19.0351 23.9202 19.1047 24.0588 19.1742 24.1974L19.1626 24.2089Z" fill="var(--fill-0, white)"/>
<path id="Vector_5" d="M23.8092 22.419C23.9598 22.4421 24.1104 22.4652 24.261 22.4768C24.4116 22.4999 24.5623 22.523 24.7129 22.5345C24.8636 22.5576 25.0142 22.5807 25.1648 22.5922C25.3155 22.6153 25.4661 22.6384 25.6168 22.65C25.7674 22.6731 25.918 22.6962 26.0686 22.7077C26.2193 22.7308 26.3699 22.7539 26.5205 22.7655C26.6712 22.7885 26.8218 22.8117 26.9725 22.8232C27.1231 22.8463 27.2738 22.8694 27.4244 22.8809C27.575 22.904 27.7256 22.9271 27.8762 22.9387C28.0269 22.9618 28.1775 22.9849 28.3282 22.9964C28.4788 23.0195 28.6295 23.0426 28.7801 23.0541C28.9307 23.0772 29.0814 23.1003 29.232 23.1119C29.3826 23.135 29.5333 23.1581 29.6839 23.1696C29.8346 23.1927 29.9852 23.2158 30.1358 23.2273C30.2864 23.2504 30.4371 23.2736 30.5877 23.2851C30.7383 23.3082 30.889 23.3313 31.0396 23.3428C31.1903 23.3659 31.3409 23.389 31.4916 23.4006C31.6422 23.4237 31.7928 23.4468 31.9434 23.4583C32.094 23.4814 32.2447 23.5045 32.3953 23.516C33.0558 23.62 33.7395 23.62 34.4463 23.5045C37.9689 22.9156 40.3558 19.5899 39.7649 16.0679C39.1739 12.5459 35.8367 10.1787 32.3026 10.7676C31.6074 10.8831 30.9585 11.1025 30.3675 11.4143C30.2285 11.472 30.0895 11.5413 29.9504 11.6106C29.8114 11.6683 29.6723 11.7376 29.5333 11.8069C29.3942 11.8646 29.2551 11.9339 29.1161 12.0032C28.977 12.0609 28.838 12.1302 28.699 12.1995C28.5599 12.2572 28.4209 12.3265 28.2818 12.3958C28.1428 12.4535 28.0038 12.5228 27.8647 12.5921C27.7257 12.6498 27.5866 12.7191 27.4475 12.7884C27.3085 12.8461 27.1694 12.9154 27.0304 12.9847C26.8913 13.0425 26.7523 13.1118 26.6133 13.181C26.4742 13.2388 26.3352 13.3081 26.1961 13.3773C26.0571 13.4351 25.918 13.5044 25.7789 13.5737C25.6399 13.6314 25.5009 13.7007 25.3618 13.77C25.2228 13.8277 25.0837 13.897 24.9447 13.9663C24.8056 14.024 24.6666 14.0933 24.5276 14.1626C24.3885 14.2203 24.2494 14.2896 24.1104 14.3589C23.9713 14.4166 23.8323 14.4859 23.6932 14.5552C23.5542 14.6129 23.4152 14.6822 23.2761 14.7515C23.1371 14.8092 22.998 14.8785 22.859 14.9478C22.7199 15.0055 22.5809 15.0748 22.4419 15.1441C22.3028 15.2018 22.1637 15.2711 22.0247 15.3404C20.4604 15.9755 19.4986 17.6268 19.7883 19.3474C20.078 21.068 21.5264 22.3151 23.2182 22.4075C23.3688 22.4306 23.5195 22.4537 23.6701 22.4652L23.8092 22.419Z" fill="var(--fill-0, white)"/>
<path id="Vector_6" d="M24.5739 17.5113C24.6666 17.3959 24.7592 17.2688 24.8519 17.1418C24.9446 17.0263 25.0373 16.8993 25.13 16.7723C25.2227 16.6568 25.3155 16.5298 25.4082 16.4028C25.5009 16.2873 25.5936 16.1603 25.6863 16.0333C25.779 15.9178 25.8716 15.7908 25.9643 15.6637C26.057 15.5483 26.1497 15.4213 26.2424 15.2942C26.3351 15.1788 26.4278 15.0517 26.5205 14.9247C26.6132 14.8092 26.7059 14.6822 26.7986 14.5552C26.8913 14.4397 26.9841 14.3127 27.0768 14.1857C27.1695 14.0702 27.2621 13.9432 27.3548 13.8161C27.4475 13.7007 27.5402 13.5736 27.6329 13.4466C27.7256 13.3311 27.8183 13.2041 27.911 13.0771C28.0037 12.9616 28.0964 12.8346 28.1891 12.7076C28.2818 12.5921 28.3745 12.4651 28.4672 12.3381C28.5599 12.2226 28.6526 12.0956 28.7453 11.9685C28.838 11.8531 28.9307 11.726 29.0234 11.599C29.1161 11.4835 29.2088 11.3565 29.3015 11.2295C29.3942 11.114 29.4869 10.987 29.5796 10.86C29.6723 10.7445 29.765 10.6175 29.8577 10.4905C30.2748 9.97083 30.6224 9.37035 30.8658 8.71214C32.1172 5.37491 30.4139 1.65663 27.0652 0.409503C23.7164 -0.837627 19.9853 0.859854 18.7339 4.19708C18.4905 4.85529 18.3514 5.52504 18.3283 6.19479C18.3167 6.34491 18.3051 6.49503 18.2935 6.64515C18.282 6.79526 18.2703 6.94538 18.2587 7.0955C18.2356 7.24562 18.2356 7.39573 18.224 7.54585C18.2008 7.69597 18.2008 7.84608 18.1892 7.9962C18.166 8.14632 18.1661 8.29644 18.1545 8.44655C18.1313 8.59667 18.1313 8.74679 18.1197 8.89691C18.0965 9.04702 18.0966 9.19714 18.085 9.34726C18.0618 9.49738 18.0618 9.64749 18.0502 9.79761C18.027 9.94773 18.0155 10.0978 18.0155 10.248C17.9923 10.3981 17.9807 10.5482 17.9807 10.6983C17.9575 10.8484 17.9459 10.9985 17.9459 11.1487C17.9228 11.2988 17.9111 11.4489 17.9111 11.599C17.888 11.7491 17.8764 11.8993 17.8764 12.0494C17.8532 12.1995 17.8416 12.3496 17.8416 12.4997C17.8184 12.6498 17.8069 12.8 17.8069 12.9501C17.7837 13.1002 17.7721 13.2503 17.7721 13.4004C17.7489 13.5506 17.7373 13.7007 17.7373 13.8508C17.7141 14.0009 17.7026 14.151 17.7026 14.3011C17.6794 14.4513 17.6678 14.6014 17.6678 14.7515C17.6446 14.9016 17.6331 15.0517 17.6331 15.2018C17.4013 16.8647 18.3514 18.5275 19.9968 19.1395C21.6422 19.7516 23.4499 19.1164 24.3653 17.7192C24.458 17.6037 24.5507 17.4767 24.6434 17.3497L24.5739 17.5113Z" fill="var(--fill-0, white)"/>
</g>
<path id="Vector_7" d="M20.3909 26.0449C23.8146 26.0449 26.5901 23.279 26.5901 19.867C26.5901 16.4551 23.8146 13.6891 20.3909 13.6891C16.9671 13.6891 14.1916 16.4551 14.1916 19.867C14.1916 23.279 16.9671 26.0449 20.3909 26.0449Z" fill="var(--fill-0, #FED229)"/>
</g>
</svg>
