<svg preserveAspectRatio="none" width="100%" height="100%" overflow="visible" style="display: block;" viewBox="0 0 43.5684 41.2823" fill="none" xmlns="http://www.w3.org/2000/svg">
<g id="Group">
<path id="Vector" d="M12.6881 0.681298C11.2397 0.207851 9.76811 0 8.31969 0C7.86779 1.37415 7.62448 2.84069 7.62448 4.35341C7.62448 12.148 13.9627 18.4644 21.7842 18.4644C24.1943 11.0509 20.1272 3.09473 12.6997 0.681298H12.6881Z" fill="var(--fill-0, white)"/>
<path id="Vector_2" d="M2.00459 21.5823C1.11236 22.8179 0.440319 24.1458 0 25.5084C1.17032 26.3514 2.4913 27.0442 3.93972 27.5177C11.3788 29.9196 19.3624 25.8664 21.7842 18.4529C15.4575 13.8686 6.60476 15.2658 2.00459 21.5707V21.5823Z" fill="var(--fill-0, white)"/>
<path id="Vector_3" d="M18.6441 38.1645C19.5363 39.4001 20.6023 40.4278 21.7726 41.2823C22.9429 40.4278 24.009 39.4001 24.9012 38.1645C29.5014 31.8595 28.0993 23.0373 21.7726 18.4529C15.4459 23.0373 14.0439 31.8595 18.6441 38.1645Z" fill="var(--fill-0, white)"/>
<path id="Vector_4" d="M21.7842 18.4644C24.1943 25.8779 32.1896 29.9311 39.6287 27.5177C41.0771 27.0442 42.398 26.3629 43.5683 25.5084C43.1164 24.1343 42.456 22.8063 41.5638 21.5823C36.9636 15.2773 28.1108 13.8801 21.7842 18.4644Z" fill="var(--fill-0, white)"/>
<path id="Vector_5" d="M35.9324 4.35341C35.9324 2.82914 35.689 1.37415 35.2371 0C33.7887 0 32.3171 0.219398 30.8687 0.681298C23.4296 3.09473 19.3624 11.0509 21.7842 18.4644C29.6056 18.4644 35.9439 12.148 35.9439 4.35341H35.9324Z" fill="var(--fill-0, white)"/>
</g>
</svg>
