<svg preserveAspectRatio="none" width="100%" height="100%" overflow="visible" style="display: block;" viewBox="0 0 116 69" fill="none" xmlns="http://www.w3.org/2000/svg">
<path id="Vector" d="M115.987 69C115.798 68.6397 115.61 68.2793 115.436 67.919C115.059 67.1867 114.656 66.4892 114.132 65.8266C112.761 64.083 111.243 62.2232 109.415 60.7818C107.695 59.4218 105.72 58.0153 103.623 57.0157C101.849 56.1787 99.8874 55.5627 98.0195 54.9233C97.3341 54.6909 96.6622 54.4816 95.9365 54.3538C93.1548 53.8423 90.1177 53.3773 87.2284 53.5401C84.1914 53.7144 80.8721 54.0051 77.9291 54.842C77.9022 54.842 77.8888 54.8536 77.8619 54.8652C77.5125 53.3076 77.0422 51.7849 76.4106 50.3319C74.3142 45.4847 71.8953 41.7882 68.0116 37.8361C64.1145 33.8723 58.7794 31.222 53.1756 29.5017C48.6335 28.1068 43.9703 28.0371 39.3207 28.3858C36.9824 28.0138 34.6038 27.8976 32.3462 28.0952C31.1367 28.1998 29.981 28.3393 28.8522 28.5136C27.804 25.9447 26.5677 23.4107 25.0626 20.9464C23.1812 17.8777 20.7085 15.1809 18.2224 12.4609C18.424 12.6818 18.6256 12.9142 18.8272 13.1351C16.9861 11.1009 15.0778 9.14807 12.8068 7.43935C9.81001 5.18429 6.5848 3.0106 3.09082 1.34837C2.08295 0.871786 1.04819 0.418464 0 0V68.9884H116L115.987 69Z" fill="var(--fill-0, #349F8F)"/>
</svg>
