<svg preserveAspectRatio="none" width="100%" height="100%" overflow="visible" style="display: block;" viewBox="0 0 295.797 41.9245" fill="none" xmlns="http://www.w3.org/2000/svg">
<path id="Vector" fill-rule="evenodd" clip-rule="evenodd" d="M295.43 5.27725C295.492 5.24165 295.553 5.20612 295.614 5.17065C295.639 5.15645 295.663 5.14224 295.688 5.12805L295.711 5.11476L295.735 5.10127C295.756 5.08928 295.777 5.0773 295.797 5.06532C295.78 5.10602 295.76 5.25226 295.741 5.39847C295.731 5.47034 295.722 5.54221 295.712 5.60152C295.708 5.62909 295.704 5.65396 295.699 5.67485C295.689 5.7249 295.68 5.75214 295.67 5.73929C295.646 5.69226 295.622 5.64522 295.597 5.59819L295.58 5.56548L295.564 5.53336C295.54 5.48802 295.516 5.44269 295.493 5.39737C295.458 5.36537 295.423 5.33351 295.388 5.30174L295.43 5.27725ZM294.778 4.0303C294.759 3.99461 294.74 3.95891 294.721 3.92322C294.74 3.9577 294.759 3.99582 294.778 4.0303C294.996 4.44716 295.213 4.8604 295.43 5.27725C295.214 4.8616 294.996 4.44595 294.778 4.0303ZM39.4632 39.7513C38.9212 40.0838 38.3769 40.4228 37.8282 40.769L39.4632 39.7513Z" fill="var(--fill-0, #349F8F)"/>
</svg>
