<svg preserveAspectRatio="none" width="100%" height="100%" overflow="visible" style="display: block;" viewBox="0 0 545 245" fill="none" xmlns="http://www.w3.org/2000/svg">
<path id="Vector" d="M545 15.8954C542.416 16.1478 539.855 16.4937 537.422 17.2135C533.968 18.2324 530.492 19.3449 527.236 20.7284C522.404 22.7756 518.07 25.3838 513.782 28.048C511.917 29.2072 510.155 30.4692 508.487 31.8059C505.926 29.7867 503.272 27.8423 500.479 26.0101C492.298 20.6442 483.573 15.6243 474.129 11.6607C468.393 9.24884 462.297 7.34182 456.202 5.57502C452.146 4.39715 448.009 3.38755 443.791 2.60231C437.267 1.38705 430.535 0.676585 423.872 0.227874C419.492 -0.071267 415.077 -0.0899633 410.708 0.255918C404.23 0.770067 397.567 1.36835 391.379 3.03232C385.412 4.63086 379.143 6.59397 373.94 9.46385C368.795 12.3057 363.881 15.2971 359.918 19.1205C355.978 22.9158 352.247 26.6925 349.512 31.0768C344.877 38.4992 341.494 46.1834 339.871 54.3256C338.921 59.1306 338.064 63.9823 337.739 68.8433C337.519 72.1152 337.612 75.3777 337.67 78.6496C337.739 83.5293 338.574 88.3249 339.489 93.1485C340.092 96.3176 341.007 99.4586 342.305 102.506C343.579 105.497 345.109 108.367 346.847 111.144C345.121 110.742 343.371 110.415 341.598 110.19C336.65 109.564 331.574 108.956 326.534 109.115C321.481 109.274 316.36 109.826 311.435 110.723C306.382 111.649 301.631 113.266 296.88 114.864C293.868 115.874 290.959 117.033 288.166 118.361C283.751 120.455 279.684 122.941 275.628 125.418C273.067 126.98 270.599 128.625 268.258 130.382C265.941 132.112 263.785 133.953 261.792 135.916C260.784 136.907 259.776 137.898 258.779 138.898C258.177 138.618 257.597 138.328 256.983 138.066C252.279 136.057 247.134 134.327 241.884 133.374C236.056 132.308 229.717 131.663 223.691 131.999C217.619 132.336 211.373 133.009 205.545 134.458C199.693 135.907 193.945 137.833 188.51 140.058C184.768 141.591 181.187 143.339 177.745 145.246C172.983 147.882 168.151 150.64 164.025 153.893C161.36 155.996 159.054 158.417 156.794 160.764C155.613 161.998 154.523 163.278 153.666 164.662C153.086 165.597 152.553 166.55 152.032 167.513C145.079 162.755 137.535 159.221 128.694 156.959C124.047 155.772 119.099 155.276 114.244 154.912C110.837 154.65 107.384 154.678 103.977 154.959C94.0809 155.753 85.0539 157.492 76.1196 160.932C68.8193 163.736 62.2374 167.56 55.9915 171.58C50.0237 175.422 44.589 179.741 39.4209 184.228C36.2689 186.967 33.3024 189.893 31.008 193.062C29.6639 192.912 28.2965 192.837 26.9639 192.837C24.9939 192.837 23.0124 193.136 21.0888 193.361C20.3472 193.445 19.6172 193.566 18.9103 193.735C18.7249 193.781 18.5395 193.828 18.3657 193.875C17.1721 194.211 15.2833 194.791 14.1477 195.249C13.8116 195.389 13.4872 195.539 13.1743 195.717C11.4245 196.689 9.59366 197.68 8.06406 198.876C4.98168 201.279 2.24695 204.476 1.04181 207.776C-0.221271 211.253 -0.476217 215.824 1.06497 219.283C2.51346 222.536 3.93878 224.612 7.02116 227.126C10.0108 229.566 13.2786 230.744 17.2648 231.875C19.5361 232.52 22.1549 232.66 24.4957 232.763C24.8665 232.782 25.2373 232.763 25.6081 232.745C27.3463 232.642 29.3626 232.38 31.0892 232.174C31.3905 232.137 31.6917 232.1 31.9814 232.043C36.8947 231.109 41.8311 228.687 45.2959 225.864C46.9646 224.509 48.413 222.966 49.8152 221.443C50.777 221.377 51.7504 221.246 52.7238 221.05C53.871 220.816 54.9023 220.386 55.8177 219.844C56.7331 221.798 57.7297 223.873 59.155 225.649C59.7112 226.341 60.4065 227.005 61.067 227.65C61.3799 228.22 61.7159 228.8 62.0636 229.389C62.3765 229.912 62.7241 230.379 63.1528 230.856C64.5086 232.352 65.9339 233.979 67.7184 235.212C69.4682 236.428 71.5309 237.755 73.6862 238.662C75.8647 239.578 78.4604 240.447 80.8939 240.915C82.9102 241.298 85.3436 241.429 87.3947 241.616C87.9045 241.663 88.3912 241.709 88.9011 241.709C89.7817 241.709 90.6625 241.663 91.5315 241.588C96.5839 241.7 101.265 239.989 105.727 238.41C107.071 237.933 108.357 237.381 109.585 236.746C109.968 236.54 110.35 236.325 110.744 236.119C113.085 236.876 115.507 237.503 117.906 237.998C122.68 238.989 127.697 239.428 132.622 239.653C135.681 239.793 138.764 239.737 141.846 239.587C143.283 240.859 144.94 241.962 146.864 242.85C150.027 244.271 153.446 244.991 157.119 245C164.222 245 171.117 241.999 174.663 237.204C174.964 236.802 175.219 236.39 175.497 235.979C183.111 234.867 190.654 233.52 198.128 231.8C203.111 230.651 207.839 229.342 212.613 227.715C214.688 227.014 216.124 226.089 217.967 224.986C219.288 224.191 220.354 223.649 221.409 222.77C224.839 219.956 225.487 218.863 227.191 215.75C227.678 214.852 228.303 213.945 228.628 212.983C228.662 212.889 228.686 212.768 228.72 212.655C228.802 212.683 228.894 212.711 228.975 212.74C229.172 212.796 229.369 212.842 229.566 212.898C230.435 215.572 231.305 218.246 232.185 220.928L234.746 225.64C236.067 226.967 237.4 228.304 238.721 229.632C240.436 230.66 242.151 231.688 243.866 232.717C246.786 234.156 249.938 234.941 253.322 235.054C255.581 235.521 257.829 235.521 260.089 235.054C262.383 235.054 264.527 234.595 266.509 233.707C268.664 233.24 270.541 232.389 272.129 231.174C274.898 229.781 277.088 227.94 278.687 225.64C281.747 221.452 284.168 217.021 286.451 212.553C287.204 211.066 287.888 209.552 288.491 208.019C291.654 206.925 294.609 205.504 297.135 203.504C298.178 202.681 299.163 201.793 300.067 200.858C305.386 201.671 311.226 201.372 315.896 199.035C317.356 198.156 318.816 197.287 320.288 196.408C321.389 195.548 322.316 194.613 323.138 193.632C323.729 193.043 324.286 192.417 324.796 191.753C325.294 191.201 325.769 190.631 326.244 190.07C327.206 188.948 328.144 187.817 329.071 186.686C329.987 185.555 330.914 184.424 331.783 183.274C331.806 183.246 331.818 183.218 331.841 183.19C332.478 183.947 333.174 184.695 333.938 185.471C336.789 188.331 339.593 190.238 343.591 192.332C349.605 195.473 357.079 196.773 364.194 196.979C367.891 197.081 371.784 196.52 375.353 196.1C377.138 195.885 378.888 195.576 380.603 195.128C385.736 193.8 390.951 192.08 395.458 189.706C402.909 185.789 409.41 181.152 415.297 175.908C420.998 170.832 426.549 165.41 430.79 159.511C433.362 155.931 435.402 152.042 437.036 148.153C437.372 147.368 437.65 146.564 437.905 145.769C440.5 145.517 443.096 145.227 445.669 144.9C449.852 144.376 453.989 143.573 457.963 142.441C463.931 140.749 470.038 138.833 475.392 136.122C480.664 133.458 485.937 130.364 490.12 126.671C497.988 119.725 503.933 111.649 506.969 102.684C509.437 103.17 512.033 103.291 514.57 103.413C517.711 103.553 521.72 102.871 524.362 102.525C529.727 101.814 534.756 99.9353 539.299 97.5515C541.245 96.8598 543.146 96.0932 544.977 95.2425V15.8954H545Z" fill="var(--fill-0, #1E7B6D)"/>
</svg>
