<svg width="593" height="143" viewBox="0 0 593 143" fill="none" xmlns="http://www.w3.org/2000/svg">
<path d="M579.907 85.385C580.119 85.8581 583 86.5 588 91C591 95 591.366 95.9878 592 100.67C592.394 103.537 592.338 106.423 591.901 109.29L591.833 109.757C591.168 114.263 590.505 118.752 588.396 122.99L588.184 123.414C586.091 127.612 584.042 131.721 580.61 135.32C578.977 137.532 576.978 139.427 574.598 141.034C574.922 142.026 575.119 143.008 575.176 144H-43.3705C-43.5958 141.897 -43.2579 139.893 -42.3568 137.969L-42.9095 138.039C-45.4777 138.364 -48.0907 138.696 -50.6916 138.871C-52.5078 139.09 -54.3803 139.209 -56.1401 139.109C-59.6458 138.901 -61.9125 138.633 -64.2778 138.028C-67.4737 138.514 -70.7119 138.832 -73.9782 139.109C-78.582 139.506 -83.4252 139.526 -88.029 139.248C-92.1542 139 -96.3497 138.604 -100.447 137.889C-100.558 137.88 -100.673 137.872 -100.784 137.865C-100.897 137.857 -101.01 137.85 -101.122 137.84L-101.165 137.79C-108.19 137.155 -115.145 136.382 -121.776 134.338L-122.395 134.144C-123.587 133.772 -124.788 133.396 -126 132.999V39.8314C-124.93 40.3076 -123.874 40.7936 -122.846 41.3194C-119.749 42.8967 -116.849 44.712 -114.005 46.5571C-112.09 47.7971 -110.203 49.1164 -108.542 50.5746C-106.078 52.7471 -103.84 55.4453 -101.939 57.9848C-100.742 59.5819 -99.7005 61.2385 -98.7431 62.9348C-96.8847 62.905 -95.0263 62.9447 -93.1819 63.1233C-92.8382 63.1562 -92.4938 63.189 -92.149 63.2219C-87.3102 63.6824 -82.3756 64.1521 -77.7232 65.3652C-73.3306 66.506 -68.9942 67.9741 -64.9395 69.7597C-60.8566 71.5453 -57.1679 73.9558 -53.62 76.3167C-51.6208 77.646 -49.8187 79.1339 -48.2137 80.7707C-47.8678 81.1243 -47.5191 81.4773 -47.1701 81.8306C-44.7784 84.2517 -42.3658 86.694 -40.6955 89.4804C-37.7671 89.3018 -34.8246 89.5598 -31.9947 90.4426C-28.2919 91.5933 -25.3917 92.6845 -22.59 94.1328C-21.4777 92.1587 -20.2669 90.2244 -18.8027 88.3892C-16.2403 85.1751 -13.2838 82.1 -10.0738 79.2827C-8.04638 77.5269 -5.80781 75.9794 -3.49886 74.5013C1.52734 70.9401 6.98996 67.5376 13.1566 65.3652C13.575 65.2178 13.9945 65.0688 14.4153 64.9195L14.4333 64.9131C17.7157 63.7475 21.072 62.5558 24.5605 61.8535C25.6587 61.6353 26.7709 61.4666 27.8832 61.3377C28.545 61.2626 29.2082 61.182 29.8727 61.1013C32.1907 60.8197 34.5239 60.5363 36.8656 60.4747C38.0482 60.4449 39.2308 60.4846 40.4135 60.5937C40.9892 60.6466 41.5738 60.6949 42.1633 60.7436C44.5574 60.9413 47.0321 61.1456 49.3255 61.6948C52.1694 62.3793 54.9993 63.3812 57.632 64.4823C60.1287 65.5222 62.747 67.3144 64.6925 68.646L64.8123 68.728C67.7126 70.712 70.1482 73.3209 71.9644 75.9993C73.1717 77.769 74.1054 79.6929 75.0218 81.581L75.0618 81.6635C75.7094 82.4373 76.343 83.2308 76.8639 84.0641C78.3563 86.425 79.6375 88.9249 80.7075 91.4346C81.0876 92.3075 81.4114 93.2102 81.7211 94.1129C84.9734 94.728 88.1412 95.7497 90.9711 97.0096C93.0257 97.9207 94.904 99.1682 96.7216 100.375L97.029 100.579C97.2253 100.71 97.4211 100.839 97.6163 100.968C97.6797 101.007 97.7395 101.052 97.7993 101.097C97.8589 101.141 97.9194 101.186 97.9824 101.225C98.2001 101.015 98.4178 100.804 98.6339 100.594L98.8789 100.356C99.0271 100.212 99.1743 100.068 99.3199 99.926C104.515 94.8867 111.371 90.9088 117.918 87.1194L114.485 89.2563C113.943 89.5888 113.399 89.9278 112.85 90.274L114.485 89.2563C117.53 87.388 120.504 85.7237 123.803 84.1237C126.014 83.0523 128.266 82.0107 130.533 81.0187C136.657 78.3503 143.063 76.1084 149.54 74.0649C159.55 70.9104 170.461 69.224 181.203 69.0157C187.398 68.8966 193.691 69.5712 199.759 70.4838C205.799 71.3965 211.473 73.3209 217.034 75.3942C222.455 77.4178 227.312 80.4731 231.789 83.6078C235.773 86.3953 239.152 89.8573 242.123 93.369C243.686 92.7936 245.263 92.2381 246.839 91.7024C246.958 91.5983 247.071 91.4942 247.183 91.3909C247.339 91.248 247.493 91.1064 247.656 90.9684C253.414 86.0183 260.186 81.6437 267.395 78.1519C268.338 77.6856 269.323 77.2591 270.408 76.8524C273.012 75.8802 275.687 74.9974 278.348 74.1244C280.657 73.3705 283.036 72.7257 285.444 72.2C291.709 70.8409 298.354 70.087 304.845 70.0176C310.842 69.9581 316.981 70.6128 322.809 71.7238C326 72.331 329.135 73.1974 332.205 74.1936C333.747 59.9761 343.813 49 356 49C357.166 49 358.312 49.1004 359.434 49.2945C363.911 35.269 378.363 25 395.5 25C403.35 25 410.637 27.1547 416.659 30.8382C424.733 12.6348 442.447 0 463 0C488.87 0 510.24 20.0165 513.554 45.9592C513.758 45.9146 513.963 45.8715 514.168 45.8299C519.003 44.6414 524.155 44 529.5 44C557.39 44 580 61.4609 580 83C580 83.8009 579.969 84.5961 579.907 85.385ZM370.819 54.5704C370.824 54.5594 370.828 54.5561 370.833 54.5624L370.819 54.5704Z" fill="#349F8F"/>
</svg>
