<svg preserveAspectRatio="none" width="100%" height="100%" overflow="visible" style="display: block;" viewBox="0 0 545.01 270.824" fill="none" xmlns="http://www.w3.org/2000/svg">
<path id="Vector" d="M545.01 270.824V5.02326C543.029 4.21493 541.012 3.47589 538.938 2.85233C533.933 1.3396 528.603 0.669851 523.423 0.207951C520.016 -0.0922842 516.586 -0.0691895 513.191 0.288783C508.035 0.831516 502.809 1.48972 497.827 2.95625C492.879 4.41124 488.058 6.47825 483.447 8.7531C475.683 12.5869 468.557 18.0257 462.265 23.915C459.704 26.3053 457.294 28.8804 455 31.5594C454.733 31.6402 454.478 31.7211 454.212 31.8135C449.31 33.5687 444.374 35.6472 440.133 38.7189C435.811 41.8482 431.524 45.0931 428.082 49.1924C424.896 52.98 421.756 56.9639 419.392 61.3404C417.028 65.74 415.023 70.4399 413.587 75.209C412.463 78.9157 411.814 82.8303 411.385 86.7103C410.365 91.1099 409.798 95.6596 409.52 100.152C409.45 101.237 409.438 102.323 409.438 103.396C408.407 103.847 407.387 104.309 406.379 104.747C404.815 105.452 403.309 106.272 401.907 107.265C399.091 109.263 396.078 111.399 393.691 113.962C392.104 113.616 390.505 113.339 388.894 113.108C383.575 110.821 378.234 108.627 372.533 107.484C368.361 106.641 364.086 106.018 359.821 105.833C355.662 105.648 351.49 106.306 347.411 106.965C339.265 108.269 332.255 112.634 326.056 117.819C323.124 120.267 320.795 123.581 318.559 126.595C317.331 128.247 316.276 130.002 315.384 131.838C314.538 133.582 313.739 135.348 312.997 137.138C311.201 135.764 309.37 134.448 307.389 133.351C304.376 131.688 301.132 130.36 297.91 129.205C292.719 127.334 287.018 126.561 281.537 126.26C275.431 125.914 269.139 126.734 263.195 128.097C258.56 129.043 254.11 131.041 249.881 133.062C246.914 134.471 244.11 136.18 241.48 138.131C237.587 141.03 233.798 143.986 230.599 147.658C227.459 151.249 224.412 155.164 222.164 159.402C221.944 159.806 221.735 160.222 221.527 160.637C215.478 159.39 209.047 160.753 203.647 163.94C202.002 164.667 200.415 165.707 198.92 166.908C193.775 164.24 188.491 161.85 183.091 159.702C175.363 156.63 167.228 154.91 158.909 154.39C154.065 154.09 149.268 154.714 144.494 155.487C139.732 156.261 135.375 158.085 130.983 160.037C128.052 161.342 125.271 162.958 122.663 164.818C118.851 167.543 115.132 170.453 111.714 173.675C105.955 179.09 100.949 185.234 96.2676 191.585C91.5283 198.028 88.0753 204.922 85.0278 212.289C84.5296 213.479 84.0893 214.691 83.6605 215.915C83.4288 215.823 83.2086 215.719 82.9769 215.627C79.5702 214.276 76.0361 213.825 72.3977 213.398C68.4232 212.936 64.6226 213.513 60.6713 214.079C54.0317 215.038 47.6587 217.659 41.6912 220.615C35.6311 223.617 30.2082 227.59 24.9823 231.851C26.1526 230.95 27.3345 230.038 28.5048 229.137C24.4956 232.186 20.9499 235.384 17.6939 239.207C14.6001 242.844 11.6337 246.678 9.0729 250.719C7.21893 253.629 5.58512 256.689 4.19464 259.842C2.96639 262.613 1.69178 265.431 0.718444 268.318C0.440348 269.138 0.208572 269.969 0 270.812H544.999L545.01 270.824Z" fill="var(--fill-0, #58C7C5)"/>
</svg>
