<svg width="272" height="183" viewBox="0 0 272 183" fill="none" xmlns="http://www.w3.org/2000/svg">
<path d="M0 123.301V113.359C0 110.367 2.3225 107.882 5.32155 107.661L61.0918 103.554C63.5961 103.368 65.9287 104.824 66.8577 107.143L97.0047 130.049C98.4235 133.599 96.0051 137.505 92.178 137.846L38.0536 142.742C37.0944 142.827 36.13 142.671 35.2465 142.29L3.45346 128.537C1.35816 127.629 0 125.57 0 123.301Z" fill="#80D1FF"/>
<path d="M63.7476 103.985C62.8034 103.875 61.6876 103.744 60.4405 103.599L5.32155 107.661C2.3225 107.881 0 110.367 0 113.359V123.301C0 125.575 1.35816 127.634 3.45346 128.537L35.2465 142.29C35.5241 142.41 35.8069 142.496 36.0947 142.571V126.012C36.0947 125.093 36.8066 124.325 37.7255 124.255L64.515 122.091L68.438 123.15C68.438 123.15 67.7968 112.812 67.307 107.49L66.8526 107.143C66.272 105.682 65.131 104.568 63.7425 103.985H63.7476Z" fill="#409FD4"/>
<path d="M2.82715 114.137V124.149L36.0742 138.88C36.0742 138.88 83.0443 135.25 82.711 135.25C82.3778 135.25 78.066 124.998 78.066 124.998L35.9935 128.156L2.82715 114.137Z" fill="#DDDDFF"/>
<path d="M36.0947 128.141L36.1503 138.871C38.1698 138.715 94.8287 134.141 94.5005 134.141C94.1724 134.141 89.8555 123.888 89.8555 123.888L36.0947 128.141Z" fill="white"/>
<path d="M5.70524 105.477V96.9059C5.70524 94.3251 7.70461 92.1862 10.2897 91.9954L58.3654 88.4557C60.5213 88.295 62.5358 89.5502 63.3335 91.5486L71.8561 112.902C73.0779 115.96 70.9927 119.329 67.6958 119.625L38.503 122.236C37.675 122.312 36.8469 122.176 36.0845 121.85L8.67905 109.995C6.87154 109.212 5.7002 107.44 5.7002 105.482L5.70524 105.477Z" fill="#FF7CB7"/>
<path d="M6.32593 94.531L5.7655 96.1929C5.73016 96.4289 5.70996 96.6649 5.70996 96.9109V105.482C5.70996 107.44 6.88131 109.217 8.68882 109.995L36.0943 121.85C36.3316 121.95 36.579 122.03 36.8264 122.096V107.625C36.8264 106.732 36.2963 105.923 35.4783 105.562L7.41649 93.2004C6.98229 93.577 6.61372 94.0289 6.33603 94.536L6.32593 94.531Z" fill="#EB5597"/>
<path d="M8.14355 97.5786V106.21L36.8012 118.907C36.8012 118.907 77.2884 115.779 77.0006 115.779C76.7128 115.779 72.9968 106.938 72.9968 106.938L36.7305 109.659L8.14355 97.5836V97.5786Z" fill="#DDDDFF"/>
<path d="M36.8213 109.649L36.8667 118.902C38.6086 118.767 77.2833 115.779 77.0005 115.779C76.7178 115.779 72.9967 106.938 72.9967 106.938L36.8213 109.654V109.649Z" fill="white"/>
<path d="M98.3178 6.27857C98.3178 6.27857 121.896 2.7539 138.482 19.0618C141.976 16.2752 146.363 14.789 150.978 15.2107C155.047 15.5873 158.673 17.3848 161.475 20.1262C171.537 12.9965 186.588 6.93631 204.269 14.543C236.835 28.5513 239.172 70.7369 230.726 98.8187C218.017 141.055 178.07 165.175 138.785 160.847C75.5169 153.878 59.2645 112.134 53.0695 87.4816C53.0695 87.4816 37.741 16.3806 98.3229 6.27857H98.3178Z" fill="#D4D4FF"/>
<path d="M183.426 69.984C187.809 70.245 191.166 73.6191 190.929 77.5153L190.217 89.2793C189.98 93.1755 186.239 96.1278 181.861 95.8617C177.479 95.6006 174.121 92.2265 174.359 88.3303L175.07 76.5663C175.308 72.6701 179.049 69.7178 183.426 69.984Z" fill="url(#paint0_linear_1054_37026)"/>
<path d="M139.663 96.2281L154.355 89.9922C154.769 89.8164 155.229 89.8214 155.638 90.0072L170.199 96.5344C171.709 97.2122 171.683 99.6323 170.159 100.28L155.466 106.516C155.052 106.692 154.593 106.687 154.184 106.501L139.623 99.9737C138.113 99.2959 138.138 96.8758 139.663 96.2281Z" fill="url(#paint1_linear_1054_37026)"/>
<path d="M125.975 69.9337C130.358 70.1947 133.715 73.5688 133.478 77.465L132.766 89.229C132.529 93.1252 128.787 96.0775 124.41 95.8114C120.028 95.5503 116.67 92.1762 116.907 88.28L117.619 76.5161C117.857 72.6198 121.598 69.6676 125.975 69.9337Z" fill="url(#paint2_linear_1054_37026)"/>
<path d="M84.0292 145.408L113.833 179.008C116.362 181.859 120.255 183.1 123.981 182.241C139.355 178.701 180.221 169.649 200.134 168.775C202.623 168.665 204.951 167.49 206.435 165.496C210.661 159.813 224.46 147.712 268.254 137.952C271.824 137.158 273.02 132.7 270.314 130.255L244.842 107.194C240.389 103.162 233.911 102.253 228.509 104.899L167.043 135.025C166.468 135.306 165.837 135.466 165.19 135.486L87.2707 137.957C83.4537 138.077 81.5048 142.561 84.0292 145.408Z" fill="#7D7DFF"/>
<path d="M88.9775 134.563L121.619 170.306C123.81 172.706 127.142 173.736 130.318 172.988C143.41 169.9 178.328 162.022 196.6 161.379C198.398 161.314 200.089 160.501 201.2 159.095C204.916 154.385 217.503 143.184 256.975 134.116C261.095 133.167 262.473 128.02 259.363 125.169L235.648 103.413C234.336 102.208 232.725 101.369 230.978 100.993C220.749 98.7837 184.851 93.5871 169.76 125.128C169.76 125.128 132.832 114.419 88.9775 134.563Z" fill="white"/>
<path d="M201.199 159.095C204.915 154.385 217.502 143.183 256.974 134.116C259.812 133.463 261.347 130.822 261.014 128.312C260.362 127.704 259.479 127.348 258.519 127.393C208.369 129.803 199.018 147.742 197.271 154.541C196.892 156.022 195.489 157.006 193.954 156.896C163.832 154.757 139.976 163.789 130.55 168.082C127.869 169.302 124.703 168.69 122.673 166.566L91.1378 133.594C90.4158 133.91 89.6938 134.236 88.9668 134.568L121.608 170.311C123.799 172.711 127.132 173.741 130.307 172.993C143.399 169.905 178.317 162.027 196.589 161.384C198.387 161.319 200.078 160.506 201.189 159.1L201.199 159.095Z" fill="#DDDDFF"/>
<path d="M135.003 148.049C134.533 148.049 134.069 147.833 133.771 147.421C133.286 146.748 133.438 145.81 134.114 145.322C134.68 144.916 148.231 135.451 172.905 138.68C173.733 138.79 174.319 139.543 174.207 140.372C174.096 141.195 173.334 141.778 172.506 141.667C149.104 138.605 136.012 147.677 135.881 147.773C135.614 147.963 135.306 148.054 135.003 148.054V148.049Z" fill="#DDDDFF"/>
<path d="M192.066 145.378C191.804 145.378 191.531 145.307 191.289 145.162C190.572 144.735 190.339 143.811 190.763 143.098C190.92 142.837 194.686 136.661 203.366 130.677C211.323 125.194 225.106 118.852 245.605 119.796C246.443 119.836 247.084 120.539 247.049 121.373C247.008 122.201 246.322 122.844 245.463 122.809C225.899 121.905 212.787 127.89 205.224 133.066C197.024 138.68 193.399 144.589 193.359 144.65C193.076 145.122 192.571 145.383 192.056 145.383L192.066 145.378Z" fill="#DDDDFF"/>
<path d="M185.806 138.238C185.599 138.238 185.392 138.198 185.19 138.107C184.427 137.766 184.084 136.877 184.422 136.119C190.425 122.758 209.374 110.302 238.158 112.596C238.991 112.661 239.612 113.389 239.546 114.218C239.481 115.046 238.749 115.669 237.915 115.599C206.698 113.108 191.344 128.101 187.189 137.344C186.937 137.906 186.386 138.238 185.806 138.238Z" fill="#DDDDFF"/>
<path d="M178.292 131.676C178.191 131.676 178.09 131.666 177.984 131.645C177.166 131.48 176.636 130.681 176.808 129.868C178.999 119.289 199.987 100.983 230.649 105.155C231.477 105.266 232.058 106.029 231.947 106.852C231.831 107.676 231.063 108.253 230.24 108.143C213.619 105.878 201.507 110.502 194.272 114.775C185.472 119.972 180.589 126.559 179.776 130.481C179.63 131.194 178.999 131.686 178.292 131.686V131.676Z" fill="#DDDDFF"/>
<path d="M127.056 159.406C126.47 159.406 125.91 159.065 125.663 158.492C125.334 157.729 125.688 156.84 126.455 156.514C157.794 143.103 180.221 146.593 181.155 146.748C181.978 146.884 182.539 147.662 182.402 148.481C182.266 149.304 181.483 149.856 180.66 149.721C180.433 149.686 158.107 146.246 127.652 159.281C127.455 159.366 127.253 159.406 127.056 159.406Z" fill="#DDDDFF"/>
<path d="M17.9131 49.2023C20.1649 55.2575 24.9664 60.0324 31.0554 62.2717C32.3832 62.7587 32.3832 64.6315 31.0554 65.1185C24.9664 67.3579 20.1649 72.1327 17.9131 78.1879C17.4233 79.5084 15.5401 79.5084 15.0503 78.1879C12.7985 72.1327 7.99699 67.3579 1.90801 65.1185C0.580143 64.6315 0.580143 62.7587 1.90801 62.2717C7.99699 60.0324 12.7985 55.2575 15.0503 49.2023C15.5401 47.8818 17.4233 47.8818 17.9131 49.2023Z" fill="#FED229"/>
<path d="M236.026 0.790792C237.824 5.61587 241.646 9.4167 246.498 11.2041C247.558 11.5958 247.558 13.082 246.498 13.4736C241.646 15.261 237.824 19.0618 236.026 23.8869C235.632 24.9413 234.138 24.9413 233.744 23.8869C231.947 19.0618 228.125 15.261 223.273 13.4736C222.212 13.082 222.212 11.5958 223.273 11.2041C228.125 9.4167 231.947 5.61587 233.744 0.790792C234.138 -0.263597 235.632 -0.263597 236.026 0.790792Z" fill="#FED229"/>
<path d="M246.912 22.918L247.003 23.2393C247.795 26.0561 249.754 28.4058 252.395 29.6962C252.925 29.9523 252.925 30.7054 252.395 30.9615C249.754 32.2518 247.79 34.6016 247.003 37.4184L246.912 37.7397C246.72 38.4276 245.741 38.4276 245.549 37.7397L245.458 37.4184C244.665 34.6016 242.706 32.2518 240.066 30.9615C239.535 30.7054 239.535 29.9523 240.066 29.6962C242.706 28.4058 244.67 26.0561 245.458 23.2393L245.549 22.918C245.741 22.2301 246.72 22.2301 246.912 22.918Z" fill="#FED229"/>
<path d="M30.2984 29.7514C31.7576 33.6727 34.8677 36.7706 38.8159 38.2216C39.6793 38.5379 39.6793 39.748 38.8159 40.0693C34.8727 41.5203 31.7576 44.6132 30.2984 48.5395C29.9803 49.3981 28.7636 49.3981 28.4404 48.5395C26.9813 44.6182 23.8712 41.5203 19.9229 40.0693C19.0595 39.753 19.0595 38.5429 19.9229 38.2216C23.8661 36.7706 26.9813 33.6777 28.4404 29.7514C28.7585 28.8928 29.9753 28.8928 30.2984 29.7514Z" fill="#FED229"/>
<path d="M73.9665 76.9378C76.7737 74.5981 81.1965 75.2408 83.8421 78.3788L129.197 132.153C130.191 133.328 130.954 134.673 131.443 136.104L135.003 146.543C135.124 148.104 133.796 149.214 132.271 148.822L122.557 143.52C121.224 142.792 120.028 141.813 119.033 140.633L73.6787 86.8591C71.0331 83.7211 71.1593 79.2776 73.9715 76.9328L73.9665 76.9378Z" fill="#7D7DFF"/>
<path d="M67.095 101.656C67.095 101.656 37.4176 128.505 81.2695 142.3C94.906 146.593 104.238 146.111 110.614 143.593C121.884 139.141 125.274 124.612 117.46 115.254C109.709 105.973 92.7586 99.881 67.095 101.656Z" fill="#D4D4FF"/>
<path d="M99.1207 146.699C93.5933 146.699 87.3293 145.631 80.3904 143.501C68.0002 139.692 60.2534 134.12 57.3543 126.93C55.0064 121.099 55.9285 114.191 60.0348 106.94C60.4815 106.145 61.4986 105.863 62.297 106.31C63.1002 106.752 63.3854 107.758 62.9339 108.548C59.2886 114.99 58.4474 120.765 60.4435 125.707C62.9529 131.928 69.9916 136.856 81.3742 140.355C93.0325 143.938 102.519 144.376 109.567 141.653C114.334 139.814 117.799 135.911 119.072 130.95C120.36 125.928 119.115 120.572 115.736 116.622C110.218 110.17 103.389 106.141 84.7914 104.631C83.8741 104.556 83.1945 103.761 83.2706 102.858C83.3466 101.951 84.145 101.283 85.0623 101.353C102.276 102.75 111.278 106.315 118.274 114.501C122.342 119.26 123.844 125.712 122.295 131.764C120.755 137.769 116.558 142.49 110.774 144.724C107.357 146.045 103.46 146.703 99.1159 146.703L99.1207 146.699Z" fill="#A5A5FF"/>
<defs>
<linearGradient id="paint0_linear_1054_37026" x1="183.429" y1="69.9856" x2="181.882" y2="95.8679" gradientUnits="userSpaceOnUse">
<stop stop-color="#111111"/>
<stop offset="1" stop-color="#4040D2"/>
</linearGradient>
<linearGradient id="paint1_linear_1054_37026" x1="154.995" y1="89.8749" x2="154.826" y2="106.649" gradientUnits="userSpaceOnUse">
<stop stop-color="#111111"/>
<stop offset="1" stop-color="#4040D2"/>
</linearGradient>
<linearGradient id="paint2_linear_1054_37026" x1="125.973" y1="69.9361" x2="124.426" y2="95.8183" gradientUnits="userSpaceOnUse">
<stop stop-color="#111111"/>
<stop offset="1" stop-color="#4040D2"/>
</linearGradient>
</defs>
</svg>
