<svg width="244" height="199" viewBox="0 0 244 199" fill="none" xmlns="http://www.w3.org/2000/svg">
<g clip-path="url(#clip0_1054_37088)">
<path d="M149.695 10.2238C146.134 6.65187 141.188 4.4328 135.721 4.4328C130.872 4.4328 126.441 6.17597 123.015 9.05809C103.858 -1.41165 68.6392 -11.9242 45.9061 33.7727C27.9045 69.6896 46.9963 152.801 111.989 162.917C111.989 162.917 212.851 179.622 232.083 82.2447C242.356 30.2329 195.285 -10.7745 149.695 10.2291V10.2238Z" fill="#D4D4FF"/>
<path d="M143.798 88.2227C148.175 88.5436 151.489 91.9711 151.199 95.8745L150.323 107.649C150.033 111.552 146.247 114.451 141.87 114.13C137.493 113.809 134.18 110.381 134.47 106.478L135.345 94.7035C135.635 90.8001 139.421 87.9019 143.798 88.2227Z" fill="url(#paint0_linear_1054_37088)"/>
<path d="M97.7093 109.285L112.892 103.687C113.321 103.526 113.778 103.569 114.17 103.799L128.138 111.948C129.588 112.793 129.357 115.402 127.784 115.985L112.602 121.584C112.172 121.744 111.715 121.701 111.323 121.471L97.3549 113.322C95.9049 112.478 96.1358 109.868 97.7093 109.285Z" fill="url(#paint1_linear_1054_37088)"/>
<path d="M87.559 79.2716C91.9359 79.5924 95.2495 83.0199 94.9594 86.9234L94.0841 98.6978C93.7941 102.601 90.0079 105.499 85.631 105.179C81.2541 104.858 77.9406 101.43 78.2306 97.5268L79.1059 85.7523C79.3959 81.8489 83.1821 78.9507 87.559 79.2716Z" fill="url(#paint2_linear_1054_37088)"/>
<path d="M60.75 88.3671C49.4614 83.8274 6.11129 78.9187 5.4185 103.243C5.25202 113.173 18.7962 131.69 73.5316 129.754" fill="#D4D4FF"/>
<path d="M211.401 110.365C221.578 114.098 253.124 136.69 238.962 153.148C233.103 159.8 213.039 163.944 178.094 130.054" fill="#D4D4FF"/>
<path d="M213.63 156.554C204.35 153.153 192.255 145.78 177.095 131.075C176.525 130.524 176.515 129.621 177.068 129.054C177.621 128.487 178.529 128.476 179.098 129.027C204.21 153.383 220.284 156.538 227.625 156.255C232.029 156.084 235.772 154.608 237.888 152.207C240.917 148.683 241.819 144.758 240.632 140.219C237.27 127.364 218.275 114.408 210.912 111.708C210.171 111.435 209.79 110.611 210.064 109.873C210.338 109.136 211.165 108.756 211.906 109.029C219.075 111.659 239.622 125.011 243.414 139.502C244.837 144.94 243.709 149.843 240.063 154.084C238.505 155.854 234.848 158.837 227.748 159.115C224.097 159.26 219.414 158.677 213.64 156.56L213.63 156.554Z" fill="#A5A5FF"/>
<path d="M18.2276 80.8867L20.4133 105.633C20.6281 107.296 21.8794 108.644 23.5335 108.975L44.9132 114.467C47.0721 114.814 49.2847 114.595 51.3309 113.831L66.266 106.5C68.2746 105.746 69.4829 103.703 69.1714 101.591L66.6366 75.1866C66.3681 73.3312 64.9825 71.834 63.1458 71.4116L46.5029 67.5776C43.8445 66.9627 41.0572 67.2354 38.5707 68.3476L20.8967 76.24C19.0868 77.0475 18.0074 78.9297 18.2276 80.8974V80.8867Z" fill="#82DBCC"/>
<path d="M42.9472 84.0683C42.7807 82.4267 41.5294 81.1006 39.8914 80.8279L20.4075 77.5875C19.8436 77.4806 19.3495 77.5982 18.9414 77.887C18.3721 78.7532 18.1036 79.8066 18.2217 80.8814L20.4075 105.628C20.6223 107.291 21.8736 108.638 23.5277 108.97L44.9074 114.462C47.0663 114.809 49.2789 114.59 51.325 113.825L53.5323 112.74L42.9472 84.0683Z" fill="#38B4A4"/>
<path d="M66.2604 106.494C68.2689 105.74 69.4773 103.698 69.1658 101.586L66.631 75.1813C66.5236 74.4541 66.2443 73.791 65.8361 73.2189C65.0198 72.8713 64.0693 72.8286 63.1617 73.1975L45.2996 80.5445C43.6187 81.2396 42.6359 82.9935 42.9366 84.7848L46.1911 114.601C47.9311 114.702 49.6819 114.446 51.3199 113.831L66.255 106.5L66.2604 106.494Z" fill="#56CDBE"/>
<path d="M20.4017 119.258C25.524 119.258 29.6764 112.023 29.6764 103.099C29.6764 94.1744 25.524 86.9397 20.4017 86.9397C15.2794 86.9397 11.127 94.1744 11.127 103.099C11.127 112.023 15.2794 119.258 20.4017 119.258Z" fill="#D4D4FF"/>
<path d="M-0.000684544 148.795L0.251726 173.275C0.278578 175.654 2.05619 177.654 4.42455 177.97L27.6194 181.05C29.8213 181.344 32.0608 181.012 34.0908 180.103L49.52 173.157C51.2815 172.366 52.3932 170.601 52.3449 168.682L51.7541 144.079C51.695 141.673 49.853 139.684 47.447 139.433L24.0803 136.994C22.2114 136.796 20.321 137.075 18.5917 137.802L2.94231 144.336C1.14322 145.085 -0.0221663 146.849 -0.000684544 148.795Z" fill="#9996FA"/>
<path d="M49.5202 173.157C51.2817 172.366 52.3934 170.601 52.345 168.682L51.7543 144.079C51.7382 143.347 51.5502 142.652 51.2387 142.031C50.3419 141.213 48.9992 140.914 47.7641 141.465L32.7644 148.175C31.3198 148.822 30.4015 150.266 30.4283 151.843L30.9815 181.012C32.0502 180.852 33.0974 180.547 34.0909 180.098L49.5202 173.152V173.157Z" fill="#7D7BF0"/>
<path d="M30.4446 152.667C30.407 150.705 28.9247 149.068 26.9645 148.833L4.01669 146.069C2.28741 145.86 0.821282 146.646 0.0747929 147.945C0.0264591 148.223 -0.00576351 148.512 -0.000393081 148.801L0.257387 173.28C0.28424 175.66 2.06185 177.66 4.43021 177.975L27.6305 181.055C28.7529 181.205 29.886 181.189 30.9923 181.023L30.4553 152.672L30.4446 152.667Z" fill="#B7B4FA"/>
<path d="M37.6521 154.33L37.9046 178.809C37.9314 181.189 39.709 183.189 42.0774 183.504L65.2723 186.584C67.4741 186.878 69.7136 186.547 71.7436 185.638L87.1729 178.692C88.9344 177.9 90.046 176.136 89.9977 174.216L89.407 149.614C89.3479 147.207 87.5058 145.218 85.0999 144.967L61.7331 142.529C59.8642 142.331 57.9738 142.609 56.2446 143.336L40.5951 149.87C38.7907 150.624 37.6253 152.389 37.6468 154.335L37.6521 154.33Z" fill="#36B6FF"/>
<path d="M87.1774 178.691C88.9389 177.9 90.0506 176.136 90.0023 174.216L89.4115 149.614C89.3954 148.881 89.2074 148.186 88.8959 147.566C87.9991 146.748 86.6565 146.448 85.4213 146.999L70.4217 153.71C68.977 154.357 68.0587 155.8 68.0855 157.378L68.6387 186.546C69.7074 186.386 70.7546 186.081 71.7482 185.632L87.1774 178.686V178.691Z" fill="#439ACC"/>
<path d="M68.1018 158.201C68.0642 156.239 66.582 154.602 64.6218 154.367L41.6739 151.603C39.9446 151.394 38.4785 152.18 37.732 153.48C37.6837 153.758 37.6515 154.046 37.6568 154.335L37.9146 178.814C37.9415 181.194 39.7191 183.194 42.0874 183.509L65.2877 186.589C66.4101 186.739 67.5433 186.723 68.6496 186.557L68.1125 158.206L68.1018 158.201Z" fill="#8AD4FF"/>
<path d="M74.4393 159.287L74.6917 183.766C74.7185 186.146 76.4961 188.145 78.8645 188.461L102.059 191.541C104.261 191.835 106.501 191.503 108.531 190.594L123.96 183.648C125.721 182.857 126.833 181.092 126.785 179.173L126.194 154.571C126.135 152.164 124.293 150.175 121.887 149.924L98.5203 147.486C96.6513 147.288 94.761 147.566 93.0317 148.293L77.3822 154.827C75.5778 155.581 74.4124 157.346 74.4339 159.292L74.4393 159.287Z" fill="#FF7CB7"/>
<path d="M123.965 183.649C125.727 182.857 126.839 181.093 126.79 179.173L126.2 154.571C126.183 153.838 125.996 153.143 125.684 152.523C124.787 151.705 123.445 151.405 122.209 151.956L107.21 158.667C105.765 159.314 104.847 160.757 104.874 162.335L105.427 191.503C106.495 191.343 107.543 191.038 108.536 190.589L123.965 183.643V183.649Z" fill="#EB5597"/>
<path d="M104.89 163.158C104.852 161.196 103.37 159.559 101.41 159.324L78.462 156.56C76.7327 156.351 75.2666 157.137 74.5201 158.437C74.4718 158.715 74.4395 159.003 74.4449 159.292L74.7027 183.771C74.7296 186.151 76.5072 188.151 78.8755 188.466L102.076 191.546C103.198 191.696 104.331 191.68 105.438 191.514L104.901 163.163L104.89 163.158Z" fill="#FDAACF"/>
<path d="M131.188 191.765L143.879 199L160.903 154.437L149.34 149.673C147.445 148.892 145.275 149.785 144.486 151.667L129.604 187.124C128.879 188.846 129.561 190.84 131.188 191.765Z" fill="#FEE78F"/>
<path d="M141.349 194.049L157.171 155.987C158.03 153.918 160.844 153.597 162.149 155.426L182.745 184.231C184.205 186.274 183.158 189.14 180.72 189.771L145.576 198.882C142.703 199.626 140.216 196.781 141.349 194.054V194.049Z" fill="#FED229"/>
</g>
<defs>
<linearGradient id="paint0_linear_1054_37088" x1="143.796" y1="88.2116" x2="141.884" y2="114.113" gradientUnits="userSpaceOnUse">
<stop stop-color="#111111"/>
<stop offset="1" stop-color="#4040D2"/>
</linearGradient>
<linearGradient id="paint1_linear_1054_37088" x1="113.547" y1="103.591" x2="111.965" y2="121.674" gradientUnits="userSpaceOnUse">
<stop stop-color="#111111"/>
<stop offset="1" stop-color="#4040D2"/>
</linearGradient>
<linearGradient id="paint2_linear_1054_37088" x1="87.5514" y1="79.2664" x2="85.6395" y2="105.168" gradientUnits="userSpaceOnUse">
<stop stop-color="#111111"/>
<stop offset="1" stop-color="#4040D2"/>
</linearGradient>
<clipPath id="clip0_1054_37088">
<rect width="244" height="199" fill="white"/>
</clipPath>
</defs>
</svg>
