<svg width="269" height="130" viewBox="0 0 269 130" fill="none" xmlns="http://www.w3.org/2000/svg">
<g clip-path="url(#clip0_2669_41386)">
<path d="M86.1341 11.6366C88.4673 9.14361 91.7621 7.54212 95.455 7.43562C98.7262 7.34095 101.753 8.43754 104.122 10.327C116.844 2.84415 140.413 -4.97398 156.65 25.5885C169.507 49.6069 158.243 106.369 114.57 114.503C114.57 114.503 46.8165 127.8 31.9305 62.1073C23.981 27.0164 54.9511 -1.72366 86.1341 11.6366Z" fill="#D5D1FE"/>
<path d="M90.8883 54.7031C87.9402 55.0069 85.7686 57.3973 86.0406 60.0362L86.8643 68.0081C87.1362 70.651 89.7493 72.5444 92.6973 72.2407C95.6453 71.9369 97.8169 69.5465 97.545 66.9076L96.7213 58.9356C96.4493 56.2928 93.8363 54.3994 90.8883 54.7031Z" fill="url(#paint0_linear_2669_41386)"/>
<path d="M122.411 68.095L112.053 64.5922C111.762 64.4936 111.454 64.5291 111.194 64.6947L101.924 70.4972C100.963 71.0968 101.172 72.8639 102.244 73.2268L112.601 76.7296C112.893 76.8282 113.2 76.7927 113.46 76.627L122.73 70.8246C123.692 70.225 123.483 68.4579 122.411 68.095Z" fill="url(#paint1_linear_2669_41386)"/>
<path d="M128.677 47.532C125.729 47.8357 123.558 50.2261 123.83 52.865L124.653 60.837C124.925 63.4799 127.538 65.3732 130.486 65.0695C133.434 64.7658 135.606 62.3754 135.334 59.7365L134.51 51.7645C134.238 49.1216 131.625 47.2283 128.677 47.532Z" fill="url(#paint2_linear_2669_41386)"/>
<path d="M61.2922 82.54C61.2922 82.54 32.1902 97.9751 64.7407 117.623C74.8657 123.733 82.4565 125.2 88.0728 124.463C98.0007 123.161 103.566 112.294 99.1121 103.32C94.6979 94.4171 82.2634 86.2164 61.2882 82.54H61.2922Z" fill="#D5D1FE"/>
<path d="M78.4642 125.13C74.0106 124.033 69.1866 121.919 64.0236 118.806C54.813 113.245 49.6894 107.166 48.7987 100.736C48.0735 95.5216 50.2057 90.0781 54.9627 84.9896C55.483 84.4335 56.354 84.4058 56.9136 84.9226C57.4694 85.4433 57.5009 86.319 56.9806 86.8751C52.7517 91.3996 50.919 95.9358 51.5339 100.358C52.3064 105.923 56.9885 111.335 65.4543 116.444C74.121 121.674 81.6724 123.915 87.8956 123.098C92.1048 122.546 95.6755 120.057 97.6934 116.27C99.7389 112.432 99.8059 107.825 97.8787 103.939C94.7296 97.5886 90.0396 92.9498 75.3664 88.027C74.6452 87.7863 74.255 87.0014 74.4954 86.2795C74.7358 85.5577 75.5162 85.1671 76.2414 85.4078C89.8189 89.9637 96.3534 94.6538 100.35 102.709C102.671 107.391 102.588 112.945 100.125 117.568C97.6816 122.151 93.3541 125.165 88.2503 125.836C85.2313 126.23 81.964 125.993 78.4642 125.133V125.13Z" fill="#A5A5FF"/>
<path d="M222.103 123.169H148.028C145.044 123.169 142.597 120.81 142.482 117.828L138.746 19.6321H231.384L227.648 117.828C227.534 120.81 225.086 123.169 222.103 123.169Z" fill="#80D1FF"/>
<path d="M190.368 46.0843C190.368 43.152 187.992 40.7749 185.063 40.7749C182.133 40.7749 179.758 43.152 179.758 46.0843V101.486C179.758 104.418 182.133 106.795 185.063 106.795C187.992 106.795 190.368 104.418 190.368 101.486V46.0843Z" fill="#36B6FF"/>
<path d="M214.556 46.2524C214.637 43.3212 212.329 40.8791 209.4 40.7977C206.472 40.7163 204.032 43.0266 203.95 45.9577L202.415 101.338C202.333 104.269 204.641 106.711 207.57 106.792C210.499 106.874 212.939 104.564 213.02 101.632L214.556 46.2524Z" fill="#36B6FF"/>
<path d="M157.105 101.623C157.186 104.554 159.626 106.864 162.555 106.783C165.483 106.702 167.792 104.26 167.71 101.328L166.174 45.9483C166.093 43.0172 163.653 40.707 160.724 40.7883C157.796 40.8697 155.487 43.3118 155.569 46.243L157.105 101.623Z" fill="#36B6FF"/>
<path d="M37.5598 120.597C37.5598 120.597 31.4115 128.695 23.4778 121.966C23.4778 121.966 17.5935 123.808 14.547 119.65C11.5004 115.497 13.7075 112.183 13.7075 112.183C13.7075 112.183 9.50222 107.134 12.1823 103.454C14.8623 99.7738 18.8035 99.9829 18.8035 99.9829C18.8035 99.9829 20.1159 94.3027 24.4276 93.6716C28.7354 93.0405 32.5189 96.1448 32.5189 96.1448C32.5189 96.1448 36.3537 94.2002 40.0348 95.5137C43.7159 96.8272 45.1308 101.403 44.0273 105.032C44.0273 105.032 50.8062 109.45 47.0226 116.55C43.2391 123.65 37.5637 120.601 37.5637 120.601L37.5598 120.597Z" fill="#DDDDFF"/>
<path d="M23.9695 64.2845C21.1003 61.6772 16.7808 61.7679 14.3214 64.4818C14.0416 64.7934 13.7973 65.1247 13.5884 65.4718C9.94274 63.7915 5.43005 64.6277 2.53325 67.8267C-1.02567 71.7555 -0.804962 77.7592 3.0259 81.2422C4.49204 82.5755 6.27347 83.3407 8.11796 83.5616C8.16131 85.6049 9.02444 87.6482 10.6797 89.1471C13.8248 92.003 18.6331 91.8294 21.4196 88.7566C22.4798 87.5851 23.0946 86.1611 23.2719 84.6898C24.9075 84.4531 26.5116 83.6405 27.7492 82.2717C30.4174 79.3291 30.3819 74.9506 27.6703 72.4892C27.1895 72.0553 26.6614 71.7082 26.0939 71.4518C26.8072 69.0141 26.0663 66.1976 23.9695 64.2924V64.2845Z" fill="#DDDDFF"/>
<path d="M240.776 72.872C241.343 69.452 244.421 67.1129 247.653 67.6533C248.024 67.7164 248.375 67.8111 248.713 67.9413C250.341 64.7383 253.967 62.8212 257.774 63.4563C262.449 64.2334 265.621 68.5684 264.861 73.1402C264.569 74.8876 263.745 76.4142 262.575 77.5936C263.678 79.0531 264.202 80.9623 263.875 82.9345C263.253 86.6858 259.784 89.2301 256.127 88.6226C254.732 88.3899 253.514 87.7311 252.572 86.8002C251.295 87.5418 249.718 87.8613 248.091 87.5891C244.591 87.0053 242.187 83.9128 242.723 80.6822C242.817 80.1102 242.999 79.5738 243.251 79.0807C241.399 77.7672 240.358 75.3807 240.772 72.8798L240.776 72.872Z" fill="#BEBEFF"/>
<path d="M9.15066 98.9375C10.6264 98.9375 11.8228 97.7401 11.8228 96.263C11.8228 94.786 10.6264 93.5886 9.15066 93.5886C7.67488 93.5886 6.47852 94.786 6.47852 96.263C6.47852 97.7401 7.67488 98.9375 9.15066 98.9375Z" fill="#BEBEFF"/>
<path d="M44.022 105.028C44.6014 107.659 42.6544 108.341 42.6544 108.341C42.6544 108.341 44.495 110.286 42.9697 112.968C41.4445 115.651 36.8214 115.177 36.8214 115.177C35.1937 121.855 30.4642 120.857 30.4642 120.857C21.3758 120.53 23.2124 112.077 23.2124 112.077C25.6835 105.923 33.1442 109.659 33.1442 109.659C33.2507 105.083 39.7143 104.085 39.7143 104.085C39.7143 104.085 35.4459 104.235 37.8107 100.886C35.4262 103.34 33.1088 103.703 31.4377 103.466C31.1618 103.47 30.8071 103.379 30.4169 103.233C29.7627 103.024 29.2937 102.752 29.0809 102.594C27.5044 101.722 25.8963 100.515 25.8963 100.515C25.581 101.671 26.8422 104.724 26.8422 104.724C24.6864 105.146 20.7925 103.671 20.7925 103.671C20.1028 105.722 23.638 108.405 23.638 108.405C19.9688 112.231 20.5166 116.199 21.6201 118.846C12.4923 120.577 13.7101 112.191 13.7101 112.191C13.7101 112.191 11.503 115.505 14.5496 119.658C17.5961 123.812 23.4804 121.974 23.4804 121.974C23.6893 122.151 23.8981 122.317 24.107 122.475C24.1937 122.542 24.2804 122.605 24.3672 122.664C24.4736 122.739 24.576 122.81 24.6785 122.881C32.0249 127.891 37.5624 120.605 37.5624 120.605C37.5624 120.605 43.2377 123.654 47.0213 116.554C50.8048 109.454 44.026 105.036 44.026 105.036L44.022 105.028Z" fill="#BEBEFF"/>
<path d="M256.887 121.867C256.887 121.867 249.328 128.664 242.801 120.558C242.801 120.558 236.676 121.256 234.461 116.601C232.246 111.947 235.041 109.107 235.041 109.107C235.041 109.107 231.86 103.356 235.186 100.247C238.509 97.135 242.34 98.0856 242.34 98.0856C242.34 98.0856 244.697 92.7565 249.048 92.9458C253.399 93.1391 256.532 96.8983 256.532 96.8983C256.532 96.8983 260.666 95.711 264.032 97.6951C267.398 99.6792 267.93 104.44 266.164 107.797C266.164 107.797 271.99 113.414 266.941 119.674C261.888 125.934 256.891 121.871 256.891 121.871L256.887 121.867Z" fill="#DDDDFF"/>
<path d="M266.161 107.797C266.236 110.487 264.194 110.795 264.194 110.795C264.194 110.795 265.633 113.051 263.634 115.398C261.632 117.745 257.183 116.408 257.183 116.408C254.325 122.66 249.872 120.79 249.872 120.79C241.008 118.755 244.401 110.799 244.401 110.799C247.984 105.221 254.609 110.294 254.609 110.294C255.571 105.821 262.109 106.057 262.109 106.057C262.109 106.057 257.892 105.403 260.84 102.555C258.038 104.515 255.693 104.436 254.097 103.888C253.825 103.841 253.494 103.687 253.135 103.466C252.532 103.138 252.122 102.783 251.941 102.586C250.557 101.434 249.206 99.9434 249.206 99.9434C248.677 101.02 249.344 104.255 249.344 104.255C247.148 104.263 243.601 102.081 243.601 102.081C242.537 103.967 245.505 107.264 245.505 107.264C241.181 110.333 240.976 114.329 241.556 117.142C232.266 117.122 235.037 109.114 235.037 109.114C235.037 109.114 232.247 111.955 234.458 116.609C236.669 121.264 242.797 120.566 242.797 120.566C242.971 120.782 243.144 120.98 243.321 121.173C243.392 121.256 243.467 121.331 243.538 121.41C243.625 121.504 243.715 121.595 243.806 121.682C250.081 127.985 256.887 121.875 256.887 121.875C256.887 121.875 261.888 125.938 266.937 119.678C271.99 113.418 266.161 107.801 266.161 107.801V107.797Z" fill="#BEBEFF"/>
<path d="M230.967 30.5309L231.365 20.1606H138.766L139.16 30.5309H230.967Z" fill="#36B6FF"/>
<path d="M233.71 8.06269H198.452V6.05885C198.452 2.70991 195.74 0 192.398 0H177.484C174.138 0 171.427 2.71386 171.427 6.05885V8.06269H136.417C134.052 8.06269 132.137 9.97974 132.137 12.3465V21.064C132.137 23.4307 134.052 25.3478 136.417 25.3478H233.71C236.075 25.3478 237.99 23.4307 237.99 21.064V12.3465C237.99 9.97974 236.075 8.06269 233.71 8.06269Z" fill="#80D1FF"/>
</g>
<defs>
<linearGradient id="paint0_linear_2669_41386" x1="90.8892" y1="54.6993" x2="92.7016" y2="72.2379" gradientUnits="userSpaceOnUse">
<stop stop-color="#111111"/>
<stop offset="1" stop-color="#4040D2"/>
</linearGradient>
<linearGradient id="paint1_linear_2669_41386" x1="111.617" y1="64.6195" x2="113.05" y2="76.8514" gradientUnits="userSpaceOnUse">
<stop stop-color="#111111"/>
<stop offset="1" stop-color="#4040D2"/>
</linearGradient>
<linearGradient id="paint2_linear_2669_41386" x1="128.675" y1="47.535" x2="130.487" y2="65.0697" gradientUnits="userSpaceOnUse">
<stop stop-color="#111111"/>
<stop offset="1" stop-color="#4040D2"/>
</linearGradient>
<clipPath id="clip0_2669_41386">
<rect width="269" height="130" fill="white"/>
</clipPath>
</defs>
</svg>
