<svg viewBox="0 0 24 24" fill="none" xmlns="http://www.w3.org/2000/svg">
  <path d="M19.231 18H4.77C4.42017 17.9999 4.07824 17.896 3.78744 17.7015C3.49663 17.5071 3.27001 17.2308 3.13622 16.9075C3.00244 16.5843 2.96749 16.2287 3.0358 15.8856C3.10411 15.5425 3.27261 15.2273 3.52 14.98L4.122 14.377C4.68428 13.8144 5.0001 13.0514 5 12.256V9.5C5 7.64349 5.7375 5.86301 7.05025 4.55025C8.36301 3.2375 10.1435 2.5 12 2.5C13.8565 2.5 15.637 3.2375 16.9497 4.55025C18.2625 5.86301 19 7.64349 19 9.5V12.256C19.0002 13.0516 19.3164 13.8145 19.879 14.377L20.482 14.98C20.7289 15.2275 20.897 15.5426 20.965 15.8856C21.033 16.2285 20.998 16.5839 20.8643 16.9069C20.7306 17.23 20.5042 17.5062 20.2137 17.7007C19.9232 17.8952 19.5806 17.9994 19.231 18Z" fill="currentColor"/>
  <path d="M12 22.125C10.3545 22.125 8.95646 21.2771 8.45146 20.0976C8.23409 19.5899 8.69772 19.125 9.25 19.125H14.75C15.3023 19.125 15.7659 19.5899 15.5485 20.0976C15.0435 21.2771 13.6455 22.125 12 22.125Z" fill="currentColor"/>
</svg>
