<svg viewBox="0 0 32 32" fill="none" xmlns="http://www.w3.org/2000/svg">
<path d="M25.6413 24H6.36C5.89356 23.9998 5.43765 23.8614 5.04991 23.6021C4.66217 23.3428 4.36001 22.9744 4.18163 22.5434C4.00324 22.1124 3.95664 21.6383 4.04773 21.1808C4.13881 20.7233 4.36347 20.3032 4.69333 19.9734L5.496 19.1694C6.2457 18.4192 6.66679 17.402 6.66666 16.3414V12.6667C6.66666 10.1914 7.64999 7.81738 9.40033 6.06704C11.1507 4.3167 13.5246 3.33337 16 3.33337C18.4753 3.33337 20.8493 4.3167 22.5997 6.06704C24.35 7.81738 25.3333 10.1914 25.3333 12.6667V16.3414C25.3336 17.4022 25.7551 18.4194 26.5053 19.1694L27.3093 19.9734C27.6385 20.3034 27.8626 20.7235 27.9533 21.1808C28.0441 21.638 27.9973 22.1119 27.819 22.5426C27.6408 22.9733 27.3389 23.3416 26.9516 23.601C26.5643 23.8603 26.1075 23.9992 25.6413 24Z" fill="currentColor"/>
<path d="M16 29.5C13.6632 29.5 11.7009 28.2176 11.1526 26.4845C10.986 25.9579 11.4477 25.5 12 25.5H20C20.5523 25.5 21.014 25.9579 20.8474 26.4845C20.2991 28.2176 18.3368 29.5 16 29.5Z" fill="currentColor"/>
<circle cx="26" cy="4" r="3" fill="#FF3F55"/>
</svg>
