<svg viewBox="0 0 24 24" fill="none" xmlns="http://www.w3.org/2000/svg">
<path d="M2.25 7V11.903V13.5862V18.25C2.25 18.7805 2.45545 19.2892 2.82114 19.6642C3.18684 20.0393 3.68283 20.25 4.2 20.25H19.8C20.3172 20.25 20.8132 20.0393 21.1789 19.6642C21.5446 19.2892 21.75 18.7805 21.75 18.25V13.7161V11.7886V7C21.75 6.53587 21.5446 6.09075 21.1789 5.76256C20.8132 5.43437 20.3172 5.25 19.8 5.25H16.875L15.5231 3.69014C15.1432 3.25181 14.5918 3 14.0117 3H9.98826C9.40822 3 8.85676 3.25181 8.47688 3.69014L7.125 5.25H4.2C3.68283 5.25 3.18684 5.43437 2.82114 5.76256C2.45545 6.09075 2.25 6.53587 2.25 7ZM16.526 12.7484C16.526 13.9419 16.0519 15.0864 15.208 15.9304C14.364 16.7743 13.2194 17.2484 12.026 17.2484C10.8325 17.2484 9.68791 16.7743 8.84399 15.9304C8.00008 15.0864 7.52597 13.9419 7.52597 12.7484C7.52597 11.5549 8.00008 10.4103 8.84399 9.5664C9.68791 8.72248 10.8325 8.24838 12.026 8.24838C13.2194 8.24838 14.364 8.72248 15.208 9.5664C16.0519 10.4103 16.526 11.5549 16.526 12.7484Z" fill="white"/>
<path d="M13.591 14.3395C13.169 14.7615 12.5967 14.9985 12 14.9985C11.4033 14.9985 10.831 14.7615 10.409 14.3395C9.98705 13.9176 9.75 13.3453 9.75 12.7485C9.75 12.1518 9.98705 11.5795 10.409 11.1575C10.831 10.7356 11.4033 10.4985 12 10.4985C12.5967 10.4985 13.169 10.7356 13.591 11.1575C14.0129 11.5795 14.25 12.1518 14.25 12.7485C14.25 13.3453 14.0129 13.9176 13.591 14.3395Z" fill="white"/>
</svg>
