<svg width="28" height="28" viewBox="0 0 28 28" fill="none" xmlns="http://www.w3.org/2000/svg">
<path d="M3.5 8.25C3.5 6.59315 4.84315 5.25 6.5 5.25H21.5C23.1569 5.25 24.5 6.59315 24.5 8.25V9.5C24.5 10.0523 24.0523 10.5 23.5 10.5H4.5C3.94772 10.5 3.5 10.0523 3.5 9.5V8.25Z" fill="currentColor"/>
<path d="M3.5 13.25C3.5 12.6977 3.94772 12.25 4.5 12.25H23.5C24.0523 12.25 24.5 12.6977 24.5 13.25V19.75C24.5 21.4069 23.1569 22.75 21.5 22.75H6.5C4.84315 22.75 3.5 21.4069 3.5 19.75V13.25Z" fill="currentColor"/>
</svg>
