<svg width="20" height="20" viewBox="0 0 20 20" fill="none" xmlns="http://www.w3.org/2000/svg">
<path d="M16.1268 10.1772L10.2467 15.8953C9.60168 16.5226 8.72681 16.875 7.81458 16.875C6.90235 16.875 6.02748 16.5226 5.38243 15.8953C4.73738 15.2681 4.375 14.4173 4.375 13.5302C4.375 12.6431 4.73738 11.7923 5.38243 11.1651L12.3356 4.40274C12.5486 4.19571 12.8014 4.0315 13.0797 3.91949C13.3579 3.80749 13.6562 3.74987 13.9573 3.74994C14.2585 3.75001 14.5567 3.80776 14.8349 3.9199C15.1131 4.03203 15.3658 4.19635 15.5787 4.40348C15.7916 4.61061 15.9605 4.85648 16.0756 5.12707C16.1908 5.39766 16.2501 5.68766 16.25 5.98051C16.2499 6.27336 16.1905 6.56334 16.0752 6.83387C15.9599 7.1044 15.7909 7.3502 15.5779 7.55723L8.61867 14.3255C8.40159 14.5279 8.11142 14.6385 7.81072 14.6348C7.51001 14.6311 7.22284 14.5126 7.0111 14.305C6.79935 14.0973 6.67999 13.8171 6.67873 13.5246C6.67748 13.2322 6.79442 12.951 7.00437 12.7416L12.9739 6.93653M8.62555 14.3181L8.61791 14.3255" stroke="#4D4D4D" stroke-width="1.5" stroke-linecap="round" stroke-linejoin="round"/>
</svg>
