<svg viewBox="0 0 24 24" fill="none" xmlns="http://www.w3.org/2000/svg">
  <path d="M3 5C3 3.89543 3.89543 3 5 3H10C11.1046 3 12 3.89543 12 5V10C12 11.1046 11.1046 12 10 12H5C3.89543 12 3 11.1046 3 10V5Z" fill="currentColor"/>
  <path d="M3 15.5C3 14.3954 3.89543 13.5 5 13.5H19C20.1046 13.5 21 14.3954 21 15.5V19C21 20.1046 20.1046 21 19 21H5C3.89543 21 3 20.1046 3 19V15.5Z" fill="currentColor"/>
  <path d="M17.9111 3.93932C17.7128 3.81559 17.4837 3.75 17.25 3.75C16.9892 3.74984 16.7348 3.83135 16.5226 3.9831C16.3104 4.13484 16.151 4.34921 16.0668 4.59615L15.6295 5.87974L14.3475 6.31719L14.2001 6.37718C13.9779 6.48599 13.793 6.65834 13.6688 6.87239C13.5446 7.08643 13.4868 7.33254 13.5025 7.57951C13.5183 7.82648 13.6071 8.06321 13.7575 8.25969C13.9079 8.45616 14.1133 8.60354 14.3475 8.68315L15.6307 9.1206L16.068 10.4029L16.128 10.5492C16.2367 10.7715 16.4089 10.9565 16.6228 11.0808C16.8367 11.2052 17.0826 11.2632 17.3295 11.2475C17.5764 11.2318 17.8131 11.1432 18.0096 10.9929C18.2061 10.8425 18.3535 10.6372 18.4332 10.4029L18.8705 9.11935L20.1525 8.6819L20.2999 8.62191C20.5221 8.5131 20.707 8.34075 20.8312 8.1267C20.9554 7.91266 21.0132 7.66656 20.9975 7.41958C20.9817 7.17261 20.8929 6.93588 20.7425 6.73941C20.5921 6.54293 20.3867 6.39555 20.1525 6.31594L18.8693 5.87849L18.432 4.59615L18.372 4.44992C18.2692 4.23994 18.1095 4.06304 17.9111 3.93932Z" fill="#5D5DF1"/>
</svg>
