<svg width="223" height="146" viewBox="0 0 223 146" fill="none" xmlns="http://www.w3.org/2000/svg">
<path d="M0 105.39V97.0611C0 94.554 1.9468 92.4716 4.46071 92.2865L51.2093 88.8455C53.3085 88.6898 55.2637 89.9098 56.0425 91.8533L81.3128 111.044C82.502 114.018 80.4748 117.291 77.2668 117.577L31.8979 121.679C31.0938 121.75 30.2854 121.62 29.5448 121.3L2.89481 109.778C1.13846 109.017 0 107.292 0 105.39Z" fill="#80D1FF"/>
<path d="M53.4355 89.2072C52.644 89.1147 51.7087 89.0053 50.6634 88.8833L4.46071 92.2865C1.9468 92.4716 0 94.554 0 97.0611V105.39C0 107.296 1.13846 109.021 2.89481 109.778L29.5448 121.3C29.7776 121.401 30.0146 121.473 30.2558 121.536V107.662C30.2558 106.892 30.8526 106.249 31.6228 106.19L54.0787 104.377L57.3671 105.264C57.3671 105.264 56.8297 96.6026 56.4191 92.1435L56.0382 91.8533C55.5515 90.6291 54.5951 89.6952 53.4312 89.2072H53.4355Z" fill="#409FD4"/>
<path d="M2.36914 97.7132V106.101L30.238 118.444C30.238 118.444 69.61 115.402 69.3306 115.402C69.0513 115.402 65.437 106.812 65.437 106.812L30.1703 109.458L2.36914 97.7132Z" fill="#DDDDFF"/>
<path d="M30.2559 109.446L30.3024 118.435C31.9953 118.305 79.4888 114.473 79.2137 114.473C78.9386 114.473 75.3201 105.883 75.3201 105.883L30.2559 109.446Z" fill="white"/>
<path d="M4.78158 90.4566V83.2758C4.78158 81.1136 6.45752 79.3215 8.62439 79.1617L48.9232 76.1959C50.7303 76.0613 52.4189 77.113 53.0876 78.7873L60.2316 96.6784C61.2557 99.2402 59.5078 102.063 56.7442 102.311L32.2738 104.499C31.5797 104.562 30.8856 104.448 30.2466 104.175L7.27433 94.2427C5.75921 93.5864 4.77734 92.1015 4.77734 90.4608L4.78158 90.4566Z" fill="#FF7CB7"/>
<path d="M5.30343 81.286L4.83366 82.6784C4.80404 82.8762 4.78711 83.0739 4.78711 83.28V90.4608C4.78711 92.1014 5.76897 93.5906 7.28409 94.2427L30.2563 104.175C30.4553 104.259 30.6626 104.326 30.87 104.381V92.2571C30.87 91.5083 30.4256 90.831 29.74 90.5281L6.21758 80.1713C5.85362 80.4868 5.54467 80.8654 5.3119 81.2902L5.30343 81.286Z" fill="#EB5597"/>
<path d="M6.82617 83.8395V91.0708L30.848 101.71C30.848 101.71 64.7858 99.0888 64.5446 99.0888C64.3033 99.0888 61.1885 91.6808 61.1885 91.6808L30.7888 93.9608L6.82617 83.8437V83.8395Z" fill="#DDDDFF"/>
<path d="M30.8652 93.9524L30.9033 101.705C32.3634 101.592 64.7819 99.0888 64.5449 99.0888C64.3079 99.0888 61.1888 91.6808 61.1888 91.6808L30.8652 93.9566V93.9524Z" fill="white"/>
<path d="M82.4126 7.3449C82.4126 7.3449 102.177 4.39179 116.08 18.0551C119.008 15.7204 122.686 14.4752 126.554 14.8286C129.965 15.1441 133.004 16.6501 135.353 18.947C143.788 12.9735 156.404 7.89597 171.225 14.2691C198.522 26.0058 200.482 61.3505 193.401 84.8785C182.749 120.265 149.264 140.474 116.334 136.848C63.3001 131.009 49.6767 96.0347 44.4839 75.3798C44.4839 75.3798 31.635 15.8088 82.4169 7.3449H82.4126Z" fill="#D4D4FF"/>
<path d="M153.755 60.7195C157.429 60.9382 160.243 63.7651 160.044 67.0295L159.448 76.8858C159.249 80.1502 156.113 82.6238 152.443 82.4008C148.77 82.1821 145.956 79.3552 146.154 76.0908L146.751 66.2345C146.95 62.9701 150.086 60.4965 153.755 60.7195Z" fill="url(#paint0_linear_602_21672)"/>
<path d="M117.07 82.7079L129.386 77.4832C129.733 77.3359 130.118 77.3401 130.461 77.4958L142.667 82.9645C143.932 83.5324 143.911 85.56 142.633 86.1027L130.317 91.3274C129.97 91.4747 129.585 91.4704 129.242 91.3148L117.037 85.8461C115.771 85.2782 115.792 83.2506 117.07 82.7079Z" fill="url(#paint1_linear_602_21672)"/>
<path d="M105.597 60.6774C109.271 60.8962 112.085 63.7231 111.886 66.9875L111.29 76.8438C111.091 80.1082 107.955 82.5817 104.285 82.3587C100.612 82.14 97.7973 79.3131 97.9963 76.0487L98.593 66.1924C98.7919 62.928 101.928 60.4545 105.597 60.6774Z" fill="url(#paint2_linear_602_21672)"/>
<path d="M70.4364 123.912L95.4189 152.064C97.5392 154.453 100.802 155.492 103.926 154.773C116.813 151.807 151.068 144.222 167.759 143.49C169.846 143.398 171.797 142.414 173.041 140.744C176.584 135.982 188.15 125.843 224.86 117.666C227.852 117.001 228.855 113.265 226.587 111.217L205.235 91.8953C201.503 88.5173 196.073 87.7559 191.544 89.9729L140.022 115.213C139.539 115.449 139.01 115.583 138.469 115.6L73.1534 117.67C69.9539 117.771 68.3203 121.527 70.4364 123.912Z" fill="#7D7DFF"/>
<path d="M74.584 114.826L101.945 144.774C103.782 146.784 106.575 147.647 109.237 147.02C120.211 144.433 149.481 137.832 164.797 137.294C166.304 137.239 167.721 136.558 168.653 135.38C171.767 131.434 182.318 122.049 215.405 114.452C218.859 113.657 220.014 109.345 217.407 106.955L197.529 88.7277C196.428 87.7181 195.078 87.0156 193.614 86.7001C185.04 84.8491 154.949 80.4952 142.299 106.922C142.299 106.922 111.345 97.9488 74.584 114.826Z" fill="white"/>
<path d="M168.653 135.38C171.768 131.434 182.319 122.049 215.406 114.452C217.785 113.905 219.071 111.692 218.792 109.589C218.246 109.08 217.505 108.781 216.701 108.819C174.663 110.838 166.825 125.869 165.361 131.564C165.043 132.805 163.867 133.63 162.58 133.537C137.331 131.745 117.334 139.313 109.432 142.91C107.185 143.932 104.532 143.419 102.83 141.64L76.396 114.014C75.7908 114.279 75.1856 114.553 74.5762 114.83L101.937 144.778C103.774 146.789 106.567 147.651 109.229 147.024C120.203 144.437 149.473 137.837 164.789 137.298C166.296 137.244 167.714 136.562 168.645 135.384L168.653 135.38Z" fill="#DDDDFF"/>
<path d="M113.165 126.125C112.771 126.125 112.382 125.944 112.132 125.599C111.726 125.036 111.853 124.249 112.42 123.841C112.894 123.5 124.253 115.571 144.936 118.276C145.63 118.368 146.121 118.999 146.028 119.693C145.935 120.383 145.295 120.871 144.601 120.779C124.985 118.212 114.011 125.814 113.901 125.894C113.677 126.054 113.419 126.129 113.165 126.129V126.125Z" fill="#DDDDFF"/>
<path d="M160.996 123.887C160.776 123.887 160.547 123.828 160.344 123.706C159.743 123.349 159.549 122.575 159.904 121.977C160.035 121.759 163.192 116.584 170.468 111.57C177.137 106.976 188.691 101.663 205.874 102.454C206.576 102.488 207.114 103.077 207.084 103.775C207.05 104.469 206.475 105.008 205.755 104.978C189.356 104.221 178.365 109.235 172.025 113.572C165.152 118.276 162.113 123.227 162.079 123.277C161.842 123.673 161.419 123.891 160.987 123.891L160.996 123.887Z" fill="#DDDDFF"/>
<path d="M155.749 117.905C155.576 117.905 155.402 117.872 155.233 117.796C154.594 117.51 154.306 116.765 154.59 116.13C159.622 104.936 175.505 94.4993 199.633 96.4217C200.331 96.4764 200.852 97.0864 200.797 97.7805C200.742 98.4746 200.128 98.9962 199.43 98.9373C173.262 96.8508 160.392 109.412 156.909 117.157C156.697 117.628 156.236 117.905 155.749 117.905Z" fill="#DDDDFF"/>
<path d="M149.451 112.407C149.366 112.407 149.282 112.399 149.193 112.382C148.507 112.243 148.063 111.574 148.207 110.893C150.044 102.029 167.637 86.6916 193.339 90.1874C194.033 90.28 194.519 90.9194 194.426 91.6093C194.329 92.2992 193.686 92.7829 192.996 92.6904C179.064 90.7932 168.911 94.6675 162.846 98.2474C155.469 102.601 151.377 108.121 150.695 111.406C150.573 112.003 150.044 112.416 149.451 112.416V112.407Z" fill="#DDDDFF"/>
<path d="M106.503 135.641C106.012 135.641 105.543 135.355 105.335 134.875C105.06 134.236 105.356 133.491 106 133.218C132.269 121.982 151.068 124.905 151.851 125.036C152.541 125.149 153.011 125.801 152.896 126.487C152.782 127.177 152.126 127.64 151.436 127.526C151.246 127.497 132.531 124.615 107.003 135.536C106.838 135.607 106.668 135.641 106.503 135.641Z" fill="#DDDDFF"/>
<path d="M15.0164 43.308C16.904 48.3812 20.9288 52.3818 26.0328 54.258C27.1458 54.666 27.1458 56.2351 26.0328 56.6432C20.9288 58.5194 16.904 62.5199 15.0164 67.5932C14.6059 68.6996 13.0273 68.6996 12.6168 67.5932C10.7292 62.5199 6.70443 58.5194 1.60042 56.6432C0.487359 56.2351 0.487359 54.666 1.60042 54.258C6.70443 52.3818 10.7292 48.3812 12.6168 43.308C13.0273 42.2016 14.6059 42.2016 15.0164 43.308Z" fill="#FED229"/>
<path d="M197.847 2.74697C199.354 6.78961 202.558 9.97408 206.625 11.4717C207.514 11.7998 207.514 13.045 206.625 13.3731C202.558 14.8707 199.354 18.0551 197.847 22.0978C197.517 22.9812 196.264 22.9812 195.934 22.0978C194.428 18.0551 191.224 14.8707 187.157 13.3731C186.268 13.045 186.268 11.7998 187.157 11.4717C191.224 9.97408 194.428 6.78961 195.934 2.74697C196.264 1.86357 197.517 1.86357 197.847 2.74697Z" fill="#FED229"/>
<path d="M206.971 21.2859L207.047 21.5551C207.711 23.9151 209.353 25.8838 211.567 26.9649C212.011 27.1795 212.011 27.8105 211.567 28.025C209.353 29.1061 207.707 31.0749 207.047 33.4348L206.971 33.7041C206.81 34.2804 205.989 34.2804 205.828 33.7041L205.752 33.4348C205.087 31.0749 203.445 29.1061 201.232 28.025C200.787 27.8105 200.787 27.1795 201.232 26.9649C203.445 25.8838 205.091 23.9151 205.752 21.5551L205.828 21.2859C205.989 20.7096 206.81 20.7096 206.971 21.2859Z" fill="#FED229"/>
<path d="M25.3981 27.0112C26.6212 30.2966 29.2282 32.8922 32.5378 34.1079C33.2615 34.3729 33.2615 35.3867 32.5378 35.656C29.2325 36.8717 26.6212 39.463 25.3981 42.7527C25.1315 43.472 24.1115 43.472 23.8407 42.7527C22.6176 39.4672 20.0105 36.8717 16.701 35.656C15.9773 35.391 15.9773 34.3771 16.701 34.1079C20.0063 32.8922 22.6176 30.3008 23.8407 27.0112C24.1073 26.2919 25.1272 26.2919 25.3981 27.0112Z" fill="#FED229"/>
<path d="M62.0007 66.5458C64.3538 64.5854 68.0612 65.1239 70.2788 67.7531L108.296 112.807C109.13 113.791 109.769 114.919 110.18 116.117L113.163 124.863C113.265 126.172 112.152 127.101 110.874 126.773L102.731 122.331C101.614 121.721 100.611 120.901 99.7771 119.912L61.7595 74.8582C59.5418 72.229 59.6476 68.5061 62.0049 66.5416L62.0007 66.5458Z" fill="#7D7DFF"/>
<path d="M56.2415 87.2557C56.2415 87.2557 31.3649 109.75 68.1231 121.309C79.5537 124.906 87.3763 124.502 92.7204 122.392C102.167 118.662 105.009 106.489 98.4596 98.6485C91.9621 90.8728 77.7537 85.7684 56.2415 87.2557Z" fill="#D4D4FF"/>
<path d="M83.0869 124.994C78.4537 124.994 73.203 124.1 67.3866 122.315C57.0007 119.124 50.507 114.455 48.0768 108.431C46.1088 103.546 46.8817 97.7581 50.3237 91.6829C50.6982 91.0171 51.5507 90.7807 52.22 91.1549C52.8933 91.5253 53.1323 92.3684 52.7539 93.0303C49.6983 98.4279 48.9931 103.266 50.6663 107.407C52.7698 112.619 58.6699 116.748 68.2112 119.679C77.9836 122.681 85.9354 123.048 91.8434 120.767C95.8392 119.226 98.7435 115.956 99.8111 111.8C100.891 107.592 99.847 103.104 97.0145 99.795C92.3892 94.3895 86.6644 91.0131 71.0756 89.7484C70.3067 89.6854 69.737 89.0196 69.8008 88.2631C69.8645 87.5027 70.5338 86.9433 71.3027 87.0024C85.7322 88.1725 93.2776 91.1589 99.1419 98.0181C102.552 102.005 103.811 107.411 102.512 112.481C101.221 117.512 97.7037 121.468 92.8553 123.339C89.9909 124.446 86.7242 124.998 83.0829 124.998L83.0869 124.994Z" fill="#A5A5FF"/>
<defs>
<linearGradient id="paint0_linear_602_21672" x1="153.758" y1="60.7209" x2="152.462" y2="82.4061" gradientUnits="userSpaceOnUse">
<stop stop-color="#111111"/>
<stop offset="1" stop-color="#4040D2"/>
</linearGradient>
<linearGradient id="paint1_linear_602_21672" x1="129.922" y1="77.385" x2="129.781" y2="91.4388" gradientUnits="userSpaceOnUse">
<stop stop-color="#111111"/>
<stop offset="1" stop-color="#4040D2"/>
</linearGradient>
<linearGradient id="paint2_linear_602_21672" x1="105.596" y1="60.6795" x2="104.3" y2="82.3646" gradientUnits="userSpaceOnUse">
<stop stop-color="#111111"/>
<stop offset="1" stop-color="#4040D2"/>
</linearGradient>
</defs>
</svg>
