<svg width="169" height="143" viewBox="0 0 169 143" fill="none" xmlns="http://www.w3.org/2000/svg">
<g clip-path="url(#clip0_594_22794)">
<path d="M112.887 7.70636C110.202 5.01397 106.472 3.3413 102.349 3.3413C98.6919 3.3413 95.3508 4.65526 92.767 6.82771C78.3213 -1.06406 51.7625 -8.98807 34.6195 25.4568C21.0445 52.5298 35.4417 115.176 84.4527 122.802C84.4527 122.802 160.513 135.393 175.015 61.9935C182.762 22.7886 147.266 -8.12151 112.887 7.71039V7.70636Z" fill="#D4D4FF"/>
<path d="M108.439 66.4996C111.739 66.7415 114.238 69.325 114.019 72.2673L113.359 81.1425C113.14 84.0848 110.285 86.2693 106.985 86.0275C103.684 85.7857 101.185 83.2021 101.404 80.2598L102.064 71.3846C102.283 68.4423 105.138 66.2578 108.439 66.4996Z" fill="url(#paint0_linear_594_22794)"/>
<path d="M73.6841 82.3759L85.133 78.1559C85.457 78.035 85.8012 78.0672 86.0969 78.2405L96.6305 84.3831C97.7239 85.0199 97.5498 86.9868 96.3632 87.4261L84.9143 91.6461C84.5903 91.767 84.2461 91.7347 83.9505 91.5614L73.4169 85.4189C72.3234 84.7821 72.4975 82.8152 73.6841 82.3759Z" fill="url(#paint1_linear_594_22794)"/>
<path d="M66.0283 59.7525C69.329 59.9944 71.8277 62.5779 71.609 65.5202L70.9489 74.3954C70.7302 77.3377 67.8751 79.5222 64.5745 79.2804C61.2739 79.0386 58.7751 76.455 58.9938 73.5127L59.6539 64.6375C59.8726 61.6952 62.7277 59.5107 66.0283 59.7525Z" fill="url(#paint2_linear_594_22794)"/>
<path d="M45.8125 66.6084C37.2997 63.1865 4.6095 59.4865 4.08708 77.8214C3.96153 85.306 14.1752 99.2638 55.4511 97.8047" fill="#D4D4FF"/>
<path d="M159.418 83.19C167.092 86.0033 190.881 103.032 180.202 115.438C175.783 120.452 160.653 123.576 134.301 98.0304" fill="#D4D4FF"/>
<path d="M161.099 118.006C154.101 115.442 144.981 109.884 133.548 98.8002C133.119 98.3851 133.111 97.7039 133.528 97.2767C133.945 96.8495 134.63 96.8414 135.059 97.2565C153.996 115.616 166.117 117.994 171.653 117.78C174.974 117.651 177.797 116.539 179.392 114.729C181.677 112.073 182.357 109.114 181.462 105.692C178.927 96.0031 164.602 86.2371 159.05 84.2017C158.491 83.9961 158.204 83.3754 158.41 82.8192C158.617 82.263 159.24 81.9768 159.799 82.1824C165.206 84.1654 180.701 94.2296 183.56 105.152C184.633 109.251 183.782 112.947 181.033 116.144C179.858 117.478 177.1 119.727 171.746 119.936C168.992 120.045 165.461 119.606 161.107 118.01L161.099 118.006Z" fill="#A5A5FF"/>
<path d="M13.746 60.9697L15.3943 79.623C15.5563 80.8765 16.4999 81.8922 17.7472 82.1421L33.8696 86.2814C35.4976 86.5434 37.1661 86.3782 38.7091 85.8018L49.9717 80.276C51.4863 79.7076 52.3976 78.168 52.1627 76.5759L50.2511 56.6732C50.0487 55.2746 49.0038 54.1461 47.6188 53.8277L35.0683 50.9378C33.0637 50.4743 30.9618 50.6798 29.0867 51.5182L15.7587 57.4672C14.3939 58.0758 13.5799 59.4946 13.746 60.9778V60.9697Z" fill="#82DBCC"/>
<path d="M32.3868 63.3679C32.2612 62.1305 31.3176 61.131 30.0824 60.9254L15.3896 58.4829C14.9644 58.4023 14.5918 58.491 14.284 58.7086C13.8548 59.3616 13.6523 60.1556 13.7414 60.9657L15.3896 79.619C15.5516 80.8725 16.4952 81.8882 17.7426 82.1381L33.865 86.2774C35.493 86.5394 37.1615 86.3741 38.7045 85.7978L40.369 84.9796L32.3868 63.3679Z" fill="#38B4A4"/>
<path d="M49.9669 80.2719C51.4815 79.7036 52.3927 78.164 52.1579 76.5719L50.2463 56.6692C50.1653 56.121 49.9548 55.6212 49.647 55.19C49.0314 54.928 48.3146 54.8957 47.6301 55.1739L34.1604 60.7118C32.8928 61.2358 32.1517 62.5578 32.3785 63.908L34.8327 86.3822C36.1448 86.4588 37.4651 86.2653 38.7003 85.8018L49.9629 80.276L49.9669 80.2719Z" fill="#56CDBE"/>
<path d="M15.3866 89.8928C19.2493 89.8928 22.3807 84.4395 22.3807 77.7125C22.3807 70.9856 19.2493 65.5323 15.3866 65.5323C11.5239 65.5323 8.39258 70.9856 8.39258 77.7125C8.39258 84.4395 11.5239 89.8928 15.3866 89.8928Z" fill="#D4D4FF"/>
<path d="M0.00022021 112.157L0.190562 130.609C0.210811 132.403 1.55131 133.91 3.33728 134.148L20.8285 136.47C22.4889 136.691 24.1777 136.441 25.7085 135.756L37.3437 130.52C38.6721 129.924 39.5104 128.594 39.4739 127.147L39.0284 108.602C38.9839 106.789 37.5948 105.289 35.7805 105.1L18.1597 103.262C16.7503 103.113 15.3248 103.322 14.0207 103.871L2.21953 108.796C0.862834 109.36 -0.0159791 110.69 0.00022021 112.157Z" fill="#9996FA"/>
<path d="M37.3448 130.52C38.6732 129.924 39.5115 128.594 39.4751 127.147L39.0296 108.603C39.0174 108.05 38.8757 107.526 38.6408 107.059C37.9645 106.442 36.952 106.216 36.0206 106.632L24.7094 111.69C23.62 112.178 22.9274 113.266 22.9477 114.455L23.3648 136.441C24.1707 136.32 24.9605 136.091 25.7097 135.752L37.3448 130.516V130.52Z" fill="#7D7BF0"/>
<path d="M22.9589 115.076C22.9306 113.596 21.8128 112.363 20.3346 112.186L3.02971 110.102C1.72567 109.945 0.620064 110.537 0.0571376 111.517C0.0206892 111.726 -0.00360983 111.944 0.000440002 112.161L0.194832 130.613C0.215081 132.407 1.55558 133.914 3.34155 134.152L20.8368 136.474C21.6832 136.586 22.5377 136.574 23.372 136.449L22.967 115.08L22.9589 115.076Z" fill="#B7B4FA"/>
<path d="M28.3949 116.329L28.5852 134.781C28.6055 136.574 29.946 138.082 31.732 138.32L49.2232 140.641C50.8836 140.863 52.5724 140.613 54.1032 139.928L65.7384 134.692C67.0667 134.096 67.905 132.765 67.8686 131.319L67.4231 112.774C67.3786 110.96 65.9895 109.461 64.1752 109.272L46.5543 107.434C45.145 107.284 43.7195 107.494 42.4154 108.042L30.6142 112.968C29.2535 113.536 28.3746 114.866 28.3908 116.333L28.3949 116.329Z" fill="#36B6FF"/>
<path d="M65.7413 134.692C67.0697 134.096 67.908 132.765 67.8715 131.319L67.4261 112.774C67.4139 112.222 67.2722 111.698 67.0373 111.23C66.361 110.614 65.3485 110.388 64.417 110.803L53.1059 115.861C52.0165 116.349 51.3239 117.437 51.3442 118.626L51.7613 140.613C52.5672 140.492 53.357 140.262 54.1062 139.924L65.7413 134.688V134.692Z" fill="#439ACC"/>
<path d="M51.3574 119.247C51.329 117.768 50.2113 116.535 48.7331 116.357L31.4281 114.273C30.1241 114.116 29.0185 114.709 28.4556 115.688C28.4191 115.898 28.3948 116.115 28.3989 116.333L28.5933 134.785C28.6135 136.578 29.954 138.086 31.74 138.324L49.2353 140.645C50.0817 140.758 50.9362 140.746 51.7705 140.621L51.3655 119.251L51.3574 119.247Z" fill="#8AD4FF"/>
<path d="M56.1351 120.065L56.3255 138.517C56.3457 140.311 57.6862 141.818 59.4722 142.056L76.9634 144.377C78.6238 144.599 80.3126 144.349 81.8435 143.664L93.4786 138.428C94.807 137.832 95.6453 136.502 95.6088 135.055L95.1633 116.51C95.1188 114.697 93.7297 113.197 91.9154 113.008L74.2946 111.17C72.8852 111.021 71.4597 111.23 70.1556 111.779L58.3544 116.704C56.9937 117.272 56.1149 118.602 56.1311 120.069L56.1351 120.065Z" fill="#FF7CB7"/>
<path d="M93.4835 138.428C94.8119 137.832 95.6502 136.502 95.6137 135.055L95.1683 116.51C95.1561 115.958 95.0144 115.434 94.7795 114.967C94.1031 114.35 93.0907 114.124 92.1592 114.539L80.848 119.598C79.7586 120.085 79.0661 121.174 79.0864 122.363L79.5035 144.349C80.3094 144.228 81.0991 143.999 81.8484 143.66L93.4835 138.424V138.428Z" fill="#EB5597"/>
<path d="M79.0976 122.983C79.0693 121.504 77.9515 120.271 76.4733 120.094L59.1684 118.01C57.8643 117.853 56.7587 118.445 56.1958 119.424C56.1594 119.634 56.1351 119.852 56.1391 120.069L56.3335 138.521C56.3538 140.315 57.6942 141.822 59.4802 142.06L76.9755 144.381C77.8219 144.494 78.6764 144.482 79.5107 144.357L79.1057 122.987L79.0976 122.983Z" fill="#FDAACF"/>
<path d="M98.9299 144.547L108.5 150L121.338 116.41L112.618 112.818C111.189 112.23 109.553 112.903 108.957 114.322L97.7352 141.048C97.1885 142.346 97.7028 143.849 98.9299 144.547Z" fill="#FEE78F"/>
<path d="M106.592 146.268L118.523 117.578C119.171 116.019 121.293 115.777 122.277 117.155L137.808 138.868C138.91 140.407 138.12 142.568 136.281 143.043L109.779 149.911C107.613 150.472 105.737 148.327 106.592 146.272V146.268Z" fill="#FED229"/>
</g>
<defs>
<linearGradient id="paint0_linear_594_22794" x1="108.437" y1="66.4912" x2="106.996" y2="86.0149" gradientUnits="userSpaceOnUse">
<stop stop-color="#111111"/>
<stop offset="1" stop-color="#4040D2"/>
</linearGradient>
<linearGradient id="paint1_linear_594_22794" x1="85.6271" y1="78.084" x2="84.4355" y2="91.7139" gradientUnits="userSpaceOnUse">
<stop stop-color="#111111"/>
<stop offset="1" stop-color="#4040D2"/>
</linearGradient>
<linearGradient id="paint2_linear_594_22794" x1="66.0226" y1="59.7486" x2="64.5821" y2="79.2723" gradientUnits="userSpaceOnUse">
<stop stop-color="#111111"/>
<stop offset="1" stop-color="#4040D2"/>
</linearGradient>
<clipPath id="clip0_594_22794">
<rect width="184" height="150" fill="white"/>
</clipPath>
</defs>
</svg>
