<svg width="32" height="32" viewBox="0 0 32 32" fill="none" xmlns="http://www.w3.org/2000/svg">
<path fill-rule="evenodd" clip-rule="evenodd" d="M24.8 3H7.2C5.98497 3 5 3.98497 5 5.2V27C5 28.215 5.98497 29.2 7.2 29.2H16.8012C17.6297 29.2 18.3012 28.5284 18.3012 27.7V21.2549C18.3012 20.8407 18.637 20.5049 19.0512 20.5049H25.5C26.3284 20.5049 27 19.8333 27 19.0049V5.2C27 3.98497 26.015 3 24.8 3ZM26.1416 22.8584C26.4565 22.5435 26.2335 22.0049 25.788 22.0049H20.3012C20.0251 22.0049 19.8012 22.2287 19.8012 22.5049V27.9917C19.8012 28.4371 20.3398 28.6602 20.6548 28.3452L26.1416 22.8584ZM9.4 8.5H22.6C23.2075 8.5 23.7 8.99249 23.7 9.6C23.7 10.2075 23.2075 10.7 22.6 10.7H9.4C8.79249 10.7 8.3 10.2075 8.3 9.6C8.3 8.99249 8.79249 8.5 9.4 8.5ZM9.4 14.3H16C16.6075 14.3 17.1 14.7925 17.1 15.4C17.1 16.0075 16.6075 16.5 16 16.5H9.4C8.79249 16.5 8.3 16.0075 8.3 15.4C8.3 14.7925 8.79249 14.3 9.4 14.3Z" fill="#A6A6A6"/>
</svg>
