<svg viewBox="0 0 32 32" fill="none" xmlns="http://www.w3.org/2000/svg">
<path d="M11.2213 4.31498C11.4438 3.42464 12.2438 2.80005 13.1615 2.80005H18.8384C19.7562 2.80005 20.5561 3.42464 20.7787 4.31498L20.95 5.00005H11.05L11.2213 4.31498Z" fill="currentColor"/>
<path d="M24.8 5H7.2C5.98497 5 5 5.98497 5 7.2V27C5 28.215 5.98497 29.2 7.2 29.2H24.8C26.015 29.2 27 28.215 27 27V7.2C27 5.98497 26.015 5 24.8 5ZM9.4 10.5H22.6C23.2075 10.5 23.7 10.9925 23.7 11.6C23.7 12.2075 23.2075 12.7 22.6 12.7H9.4C8.79249 12.7 8.3 12.2075 8.3 11.6C8.3 10.9925 8.79249 10.5 9.4 10.5ZM9.4 16.3H16C16.6075 16.3 17.1 16.7925 17.1 17.4C17.1 18.0075 16.6075 18.5 16 18.5H9.4C8.79249 18.5 8.3 18.0075 8.3 17.4C8.3 16.7925 8.79249 16.3 9.4 16.3Z" fill="currentColor"/>
</svg>
