<svg width="32" height="32" viewBox="0 0 32 32" fill="none" xmlns="http://www.w3.org/2000/svg">
<path d="M26.8116 9.63706L22.8783 5.70373C22.6197 5.44644 22.2697 5.302 21.9049 5.302C21.5401 5.302 21.1902 5.44644 20.9316 5.70373L19.0985 7.53684C18.9032 7.7321 18.9032 8.04868 19.0985 8.24395L24.2781 13.4235C24.4733 13.6188 24.7899 13.6188 24.9852 13.4235L26.8183 11.5904C26.9462 11.4618 27.0476 11.3092 27.1165 11.1414C27.1854 10.9735 27.2206 10.7938 27.22 10.6123C27.2194 10.4309 27.183 10.2514 27.1129 10.084C27.0428 9.91669 26.9404 9.7648 26.8116 9.63706ZM7.68453 18.95C7.2883 19.3468 7.01118 19.8466 6.88462 20.3928L5.81161 25.0237C5.76791 25.2236 5.76941 25.4306 5.81599 25.6298C5.86257 25.829 5.95306 26.0153 6.08085 26.175C6.20863 26.3347 6.37049 26.4639 6.55459 26.5531C6.73869 26.6422 6.94038 26.6892 7.14494 26.6904C7.24022 26.7007 7.33633 26.7007 7.43161 26.6904L12.0955 25.6163C12.6419 25.4904 13.1422 25.2139 13.5395 24.8182L23.1363 15.2577C23.3324 15.0624 23.3325 14.745 23.1366 14.5495L17.952 9.3767C17.7566 9.18173 17.4402 9.18201 17.2451 9.37733L7.68453 18.95Z" fill="#4D4D4D"/>
</svg>
