<svg width="180" height="201" viewBox="0 0 180 201" fill="none" xmlns="http://www.w3.org/2000/svg">
<rect y="80.6914" width="180" height="120" fill="#5D5DF1"/>
<path d="M77.1963 16.3611C84.6132 10.1804 95.3868 10.1804 102.804 16.3611L180 80.6914H0L77.1963 16.3611Z" fill="#7D7DFF"/>
<rect x="15.25" y="42.4414" width="149.5" height="139.5" rx="9.75" fill="#FAFAFA" stroke="#E6E6E6" stroke-width="0.5"/>
<rect x="25" y="59.1914" width="40" height="6" rx="3" fill="#E6E6E6"/>
<rect x="25" y="86.1914" width="130" height="6" rx="3" fill="#E6E6E6"/>
<rect x="25" y="101.191" width="130" height="6" rx="3" fill="#E6E6E6"/>
<rect x="25" y="116.191" width="130" height="6" rx="3" fill="#E6E6E6"/>
<rect x="25" y="131.191" width="130" height="6" rx="3" fill="#E6E6E6"/>
<circle cx="147" cy="62.1914" r="8" fill="#A5A5FF"/>
<path d="M90 140.691L0 200.691V80.6914L90 140.691Z" fill="#A5A5FF"/>
<path d="M90 140.691L180 200.691V80.6914L90 140.691Z" fill="#BEBEFF"/>
<path d="M90 140.691L180 200.691H0L90 140.691Z" fill="#BEBEFF"/>
<path d="M162 36C171.941 36 180 27.9411 180 18C180 8.05888 171.941 0 162 0C152.059 0 144 8.05888 144 18C144 27.9411 152.059 36 162 36ZM170.042 13.0957C170.679 12.5667 171.625 12.6547 172.154 13.2919C172.683 13.9293 172.595 14.8751 171.958 15.4042L161.12 24.4042C160.557 24.8715 159.738 24.8647 159.183 24.3881L153.523 19.5263C152.895 18.9866 152.822 18.0396 153.362 17.4111C153.901 16.7829 154.849 16.7107 155.477 17.25L160.176 21.2856L170.042 13.0957Z" fill="#14C369"/>
</svg>
