<svg width="180" height="201" viewBox="0 0 180 201" fill="none" xmlns="http://www.w3.org/2000/svg">
<rect y="80.6914" width="180" height="120" fill="#5D5DF1"/>
<path d="M77.1963 16.3611C84.6132 10.1804 95.3868 10.1804 102.804 16.3611L180 80.6914H0L77.1963 16.3611Z" fill="#7D7DFF"/>
<rect x="15.25" y="42.4414" width="149.5" height="139.5" rx="9.75" fill="#FAFAFA" stroke="#E6E6E6" stroke-width="0.5"/>
<rect x="25" y="59.1914" width="40" height="6" rx="3" fill="#E6E6E6"/>
<rect x="25" y="86.1914" width="130" height="6" rx="3" fill="#E6E6E6"/>
<rect x="25" y="101.191" width="130" height="6" rx="3" fill="#E6E6E6"/>
<rect x="25" y="116.191" width="130" height="6" rx="3" fill="#E6E6E6"/>
<rect x="25" y="131.191" width="130" height="6" rx="3" fill="#E6E6E6"/>
<circle cx="147" cy="62.1914" r="8" fill="#A5A5FF"/>
<path d="M90 140.691L0 200.691V80.6914L90 140.691Z" fill="#A5A5FF"/>
<path d="M90 140.691L180 200.691V80.6914L90 140.691Z" fill="#BEBEFF"/>
<path d="M90 140.691L180 200.691H0L90 140.691Z" fill="#BEBEFF"/>
<path fill-rule="evenodd" clip-rule="evenodd" d="M180 18C180 27.9411 171.941 36 162 36C152.059 36 144 27.9411 144 18C144 8.05888 152.059 0 162 0C171.941 0 180 8.05888 180 18ZM168.44 27.3111L162 20.8713L155.561 27.3106C154.975 27.8964 154.025 27.8964 153.439 27.3106C152.854 26.7248 152.854 25.7751 153.439 25.1893L159.879 18.75L153.439 12.3106C152.854 11.7249 152.854 10.7751 153.439 10.1893C154.025 9.60356 154.975 9.60356 155.561 10.1893L162 16.6287L168.44 10.1889C169.026 9.60356 169.976 9.60324 170.561 10.1889C171.147 10.7745 171.146 11.7243 170.561 12.3102L164.121 18.75L170.561 25.1898C171.146 25.7756 171.147 26.7255 170.561 27.3111C169.976 27.8968 169.026 27.8964 168.44 27.3111Z" fill="#FF3F55"/>
</svg>
