<svg viewBox="0 0 32 32" fill="none" xmlns="http://www.w3.org/2000/svg">
<path d="M16 27.9999C22.6274 27.9999 28 22.6273 28 15.9999C28 9.37253 22.6274 3.99994 16 3.99994C9.37256 3.99994 4 9.37253 4 15.9999C4 22.6273 9.37256 27.9999 16 27.9999ZM17 10.9999V16.9999C17 17.5522 16.5523 17.9999 16 17.9999C15.4477 17.9999 15 17.5522 15 16.9999V10.9999C15 10.4477 15.4477 9.99994 16 9.99994C16.5523 9.99994 17 10.4477 17 10.9999ZM16 21.9999C15.4477 21.9999 15 21.5522 15 20.9999C15 20.4477 15.4477 19.9999 16 19.9999C16.5523 19.9999 17 20.4477 17 20.9999C17 21.5522 16.5523 21.9999 16 21.9999Z" fill="currentColor"/>
</svg>
