<svg width="20" height="20" viewBox="0 0 20 20" fill="none" xmlns="http://www.w3.org/2000/svg">
<path d="M10 17.5C14.1422 17.5 17.5 14.1421 17.5 10C17.5 5.85787 14.1422 2.5 10 2.5C5.85785 2.5 2.5 5.85787 2.5 10C2.5 14.1421 5.85785 17.5 10 17.5ZM10.625 6.875V10.625C10.625 10.9702 10.3452 11.25 10 11.25C9.65481 11.25 9.375 10.9702 9.375 10.625V6.875C9.375 6.52983 9.65481 6.25 10 6.25C10.3452 6.25 10.625 6.52983 10.625 6.875ZM10 13.75C9.65481 13.75 9.375 13.4702 9.375 13.125C9.375 12.7798 9.65481 12.5 10 12.5C10.3452 12.5 10.625 12.7798 10.625 13.125C10.625 13.4702 10.3452 13.75 10 13.75Z" fill="#FF3F55"/>
</svg>
