<svg viewBox="0 0 32 32" fill="none" xmlns="http://www.w3.org/2000/svg">
<path d="M15.998 19.0014C16.7937 19.0014 17.5568 18.6853 18.1194 18.1227C18.682 17.5601 18.998 16.7971 18.998 16.0014C18.998 15.2058 18.682 14.4427 18.1194 13.8801C17.5568 13.3175 16.7937 13.0014 15.998 13.0014C15.2024 13.0014 14.4393 13.3175 13.8767 13.8801C13.3141 14.4427 12.998 15.2058 12.998 16.0014C12.998 16.7971 13.3141 17.5601 13.8767 18.1227C14.4393 18.6853 15.2024 19.0014 15.998 19.0014Z" fill="currentColor"/>
<path fill-rule="evenodd" clip-rule="evenodd" d="M2.75991 16.56C2.63374 16.1932 2.63374 15.7948 2.75991 15.428C3.71266 12.6747 5.50028 10.2871 7.87384 8.59762C10.2474 6.90813 13.0887 6.00088 16.0022 6.0022C18.9156 6.00352 21.7561 6.91335 24.1282 8.60499C26.5002 10.2966 28.2857 12.6859 29.2359 15.44C29.3621 15.8068 29.3621 16.2052 29.2359 16.572C28.2836 19.326 26.496 21.7143 24.1222 23.4044C21.7484 25.0944 18.9066 26.002 15.9926 26.0007C13.0787 25.9994 10.2377 25.0892 7.8654 23.397C5.49313 21.7048 3.70773 19.3148 2.75791 16.56M21.9999 16C21.9999 17.5913 21.3678 19.1174 20.2426 20.2426C19.1173 21.3679 17.5912 22 15.9999 22C14.4086 22 12.8825 21.3679 11.7573 20.2426C10.6321 19.1174 9.99991 17.5913 9.99991 16C9.99991 14.4087 10.6321 12.8826 11.7573 11.7574C12.8825 10.6321 14.4086 9.99999 15.9999 9.99999C17.5912 9.99999 19.1173 10.6321 20.2426 11.7574C21.3678 12.8826 21.9999 14.4087 21.9999 16Z" fill="currentColor"/>
<path d="M8.69373 28.7179L8.55979 28.8736C7.862 29.6079 6.70741 29.7102 5.88816 29.0768C5.06891 28.4433 4.87728 27.3002 5.41236 26.44L5.5293 26.2712L23.302 3.28506C23.9776 2.41122 25.2337 2.25055 26.1076 2.92619C26.9814 3.60183 27.1421 4.85793 26.4664 5.73176L8.69373 28.7179Z" fill="currentColor" stroke="white" stroke-width="2" stroke-linecap="round"/>
</svg>
