<svg viewBox="0 0 32 32" fill="none" xmlns="http://www.w3.org/2000/svg">
<path d="M16.0001 19C16.7958 19 17.5588 18.6839 18.1214 18.1213C18.6841 17.5587 19.0001 16.7956 19.0001 16C19.0001 15.2044 18.6841 14.4413 18.1214 13.8787C17.5588 13.3161 16.7958 13 16.0001 13C15.2045 13 14.4414 13.3161 13.8788 13.8787C13.3162 14.4413 13.0001 15.2044 13.0001 16C13.0001 16.7956 13.3162 17.5587 13.8788 18.1213C14.4414 18.6839 15.2045 19 16.0001 19Z" fill="currentColor"/>
<path fill-rule="evenodd" clip-rule="evenodd" d="M2.76003 16.56C2.63386 16.1932 2.63386 15.7948 2.76003 15.428C3.71278 12.6747 5.5004 10.2871 7.87396 8.59762C10.2475 6.90813 13.0889 6.00088 16.0023 6.0022C18.9158 6.00352 21.7563 6.91335 24.1283 8.60499C26.5003 10.2966 28.2858 12.6859 29.236 15.44C29.3622 15.8068 29.3622 16.2052 29.236 16.572C28.2837 19.326 26.4962 21.7143 24.1224 23.4044C21.7486 25.0944 18.9067 26.002 15.9928 26.0007C13.0788 25.9994 10.2378 25.0892 7.86552 23.397C5.49325 21.7048 3.70785 19.3148 2.75803 16.56M22 16C22 17.5913 21.3679 19.1174 20.2427 20.2426C19.1175 21.3679 17.5913 22 16 22C14.4087 22 12.8826 21.3679 11.7574 20.2426C10.6322 19.1174 10 17.5913 10 16C10 14.4087 10.6322 12.8826 11.7574 11.7574C12.8826 10.6321 14.4087 9.99999 16 9.99999C17.5913 9.99999 19.1175 10.6321 20.2427 11.7574C21.3679 12.8826 22 14.4087 22 16Z" fill="currentColor"/>
</svg>
