<svg width="32" height="32" viewBox="0 0 32 32" fill="none" xmlns="http://www.w3.org/2000/svg">
<path fill-rule="evenodd" clip-rule="evenodd" d="M28 16C28 22.6274 22.6274 28 16 28C9.37256 28 4 22.6274 4 16C4 9.37259 9.37256 4 16 4C22.6274 4 28 9.37259 28 16ZM20.2932 22.2074L16 17.9142L11.7071 22.2071C11.3165 22.5976 10.6834 22.5976 10.2928 22.2071C9.90234 21.8166 9.90234 21.1834 10.2928 20.7929L14.5858 16.5L10.2929 12.2071C9.90234 11.8166 9.90234 11.1834 10.2929 10.7929C10.6834 10.4024 11.3166 10.4024 11.7071 10.7929L16 15.0858L20.2932 10.7926C20.6838 10.4024 21.317 10.4022 21.7074 10.7926C22.0978 11.183 22.0976 11.8162 21.7074 12.2068L17.4142 16.5L21.7074 20.7932C22.0976 21.1837 22.0978 21.817 21.7074 22.2074C21.317 22.5978 20.6838 22.5976 20.2932 22.2074Z" fill="#5D5DF1"/>
</svg>
