<svg preserveAspectRatio="none" width="100%" height="100%" overflow="visible" style="display: block;" viewBox="0 0 32 32" fill="none" xmlns="http://www.w3.org/2000/svg">
<g id="Icon/Color/Fire">
<path id="Vector" d="M26.0656 14.6625C25.4589 13.2971 24.577 12.0715 23.475 11.0625L22.5656 10.2281C22.5348 10.2006 22.4976 10.181 22.4574 10.1712C22.4172 10.1613 22.3752 10.1615 22.3351 10.1717C22.295 10.1819 22.258 10.2018 22.2273 10.2296C22.1967 10.2574 22.1734 10.2923 22.1594 10.3312L21.7531 11.4969C21.5 12.2281 21.0344 12.975 20.375 13.7094C20.3313 13.7563 20.2813 13.7688 20.2469 13.7719C20.2125 13.775 20.1594 13.7688 20.1125 13.725C20.0687 13.6875 20.0469 13.6312 20.05 13.575C20.1656 11.6937 19.6031 9.57187 18.3719 7.2625C17.3531 5.34375 15.9375 3.84687 14.1687 2.80312L12.8781 2.04375C12.7094 1.94375 12.4938 2.075 12.5031 2.27187L12.5719 3.77187C12.6187 4.79687 12.5 5.70312 12.2188 6.45625C11.875 7.37812 11.3813 8.23437 10.75 9.00312C10.3107 9.53739 9.81279 10.0206 9.26563 10.4437C7.94783 11.4568 6.87629 12.7548 6.13125 14.2406C5.38804 15.7394 5.00091 17.3896 5 19.0625C5 20.5375 5.29062 21.9656 5.86562 23.3125C6.42083 24.6093 7.22206 25.7862 8.225 26.7781C9.2375 27.7781 10.4125 28.5656 11.7219 29.1125C13.0781 29.6812 14.5156 29.9687 16 29.9687C17.4844 29.9687 18.9219 29.6812 20.2781 29.1156C21.5843 28.572 22.772 27.7791 23.775 26.7812C24.7875 25.7812 25.5812 24.6125 26.1344 23.3156C26.7085 21.9724 27.003 20.5264 27 19.0656C27 17.5406 26.6875 16.0594 26.0656 14.6625Z" fill="currentColor"/>
</g>
</svg>
