<svg viewBox="0 0 32 32" fill="none" xmlns="http://www.w3.org/2000/svg">
<path d="M23.8815 5.25242C23.6171 5.08745 23.3117 5 23 5C22.6522 4.99979 22.3131 5.10847 22.0302 5.31079C21.7472 5.51312 21.5347 5.79895 21.4224 6.1282L20.8393 7.83966L19.13 8.42292L18.9335 8.50291C18.6372 8.64799 18.3906 8.87779 18.2251 9.16318C18.0595 9.44858 17.9823 9.77672 18.0034 10.106C18.0245 10.4353 18.1428 10.7509 18.3433 11.0129C18.5439 11.2749 18.8177 11.4714 19.13 11.5775L20.8409 12.1608L21.424 13.8706L21.504 14.0656C21.6489 14.362 21.8785 14.6087 22.1637 14.7744C22.4489 14.9402 22.7768 15.0175 23.106 14.9967C23.4352 14.9758 23.7508 14.8576 24.0128 14.6572C24.2747 14.4567 24.4713 14.1829 24.5776 13.8706L25.1607 12.1591L26.87 11.5759L27.0665 11.4959C27.3628 11.3508 27.6094 11.121 27.7749 10.8356C27.9405 10.5502 28.0177 10.2221 27.9966 9.89278C27.9755 9.56348 27.8572 9.24784 27.6567 8.98588C27.4561 8.72391 27.1823 8.5274 26.87 8.42125L25.1591 7.83799L24.576 6.1282L24.496 5.93322C24.3589 5.65326 24.146 5.41739 23.8815 5.25242Z" fill="currentColor"/>
<path d="M15.4105 11.4039C14.9873 11.1399 14.4987 11 14 11C13.4435 10.9997 12.9009 11.1735 12.4482 11.4973C11.9956 11.821 11.6555 12.2783 11.4758 12.8051L10.5428 15.5434L7.80805 16.4767L7.49352 16.6047C7.01949 16.8368 6.62502 17.2045 6.3601 17.6611C6.09519 18.1177 5.97175 18.6427 6.00544 19.1696C6.03912 19.6965 6.22842 20.2015 6.54933 20.6207C6.87024 21.0398 7.30832 21.3542 7.80805 21.5241L10.5455 22.4573L11.4784 25.1929L11.6064 25.5049C11.8382 25.9792 12.2056 26.3739 12.6619 26.6391C13.1182 26.9043 13.6429 27.0281 14.1696 26.9947C14.6963 26.9612 15.2012 26.7722 15.6204 26.4514C16.0396 26.1307 16.3541 25.6927 16.5242 25.1929L17.4572 22.4546L20.192 21.5214L20.5065 21.3934C20.9805 21.1613 21.375 20.7936 21.6399 20.337C21.9048 19.8803 22.0282 19.3553 21.9946 18.8284C21.9609 18.3016 21.7716 17.7966 21.4507 17.3774C21.1298 16.9583 20.6917 16.6438 20.192 16.474L17.4545 15.5408L16.5216 12.8051L16.3936 12.4932C16.1742 12.0452 15.8336 11.6678 15.4105 11.4039Z" fill="currentColor"/>
</svg>
