<svg width="32" height="32" viewBox="0 0 32 32" fill="none" xmlns="http://www.w3.org/2000/svg">
<path d="M16.0687 13.714V18.5831H22.7575C22.4638 20.149 21.5824 21.4749 20.2605 22.3664L24.2941 25.5325C26.6442 23.338 28.0001 20.1148 28.0001 16.2858C28.0001 15.3943 27.921 14.537 27.7741 13.7142L16.0687 13.714Z" fill="#4285F4"/>
<path d="M9.10337 18.3931L8.19363 19.0976L4.97345 21.6349C7.01851 25.7382 11.21 28.5728 16.0684 28.5728C19.424 28.5728 22.2374 27.4527 24.2938 25.5325L20.2602 22.3665C19.1529 23.1208 17.7406 23.5781 16.0684 23.5781C12.837 23.5781 10.0915 21.3721 9.10845 18.4004L9.10337 18.3931Z" fill="#34A853"/>
<path d="M4.97347 10.3652C4.12611 12.0567 3.64032 13.9655 3.64032 16C3.64032 18.0344 4.12611 19.9432 4.97347 21.6348C4.97347 21.6461 9.10886 18.3887 9.10886 18.3887C8.86029 17.6344 8.71337 16.8343 8.71337 15.9998C8.71337 15.1654 8.86029 14.3653 9.10886 13.611L4.97347 10.3652Z" fill="#FBBC05"/>
<path d="M16.0687 8.43348C17.8991 8.43348 19.5261 9.07353 20.8254 10.308L24.3845 6.70763C22.2264 4.67317 19.4244 3.42725 16.0687 3.42725C11.2103 3.42725 7.01851 6.25039 4.97345 10.3651L9.10872 13.6112C10.0916 10.6394 12.8373 8.43348 16.0687 8.43348Z" fill="#EA4335"/>
</svg>
