<svg width="32" height="32" viewBox="0 0 32 32" fill="none" xmlns="http://www.w3.org/2000/svg">
<path fill-rule="evenodd" clip-rule="evenodd" d="M25.3333 28H6.66667C5.2 28 4 26.8 4 25.3333V6.66667C4 5.2 5.2 4 6.66667 4H25.3333C26.8 4 28 5.2 28 6.66667V25.3333C28 26.8 26.8 28 25.3333 28ZM13 11C13 9.89333 12.1067 9 11 9C9.89333 9 9 9.89333 9 11C9 12.1067 9.89333 13 11 13C12.1067 13 13 12.1067 13 11ZM6 23L10.3167 19.4973C10.5156 19.3359 10.8042 19.3509 10.9853 19.532L12.3867 20.9333C12.9067 21.4533 13.7467 21.4533 14.2667 20.9333L20.9931 14.2069C21.1776 14.0224 21.4731 14.0108 21.6715 14.1804L26 17.88V25C26 25.5523 25.5523 26 25 26H7C6.44772 26 6 25.5523 6 25V23Z" fill="currentColor"/>
</svg>
