<svg width="24" height="24" viewBox="0 0 24 24" fill="none" xmlns="http://www.w3.org/2000/svg">
<path d="M14.5924 14.5929C13.9048 15.2805 12.9721 15.6668 11.9997 15.6668C11.0272 15.6668 10.0946 15.2805 9.40695 14.5929C8.71932 13.9053 8.33301 12.9726 8.33301 12.0002C8.33301 11.0277 8.71932 10.0951 9.40695 9.40744C10.0946 8.7198 11.0272 8.3335 11.9997 8.3335C12.9721 8.3335 13.9048 8.7198 14.5924 9.40744C15.28 10.0951 15.6663 11.0277 15.6663 12.0002C15.6663 12.9726 15.28 13.9053 14.5924 14.5929Z" stroke="currentColor" stroke-width="1.5" stroke-linecap="round" stroke-linejoin="round"/>
<path d="M3.75 15.6667V8.33333C3.75 7.11776 4.23289 5.95197 5.09243 5.09243C5.95197 4.23289 7.11776 3.75 8.33333 3.75H15.6667C16.8822 3.75 18.048 4.23289 18.9076 5.09243C19.7671 5.95197 20.25 7.11776 20.25 8.33333V15.6667C20.25 16.8822 19.7671 18.048 18.9076 18.9076C18.048 19.7671 16.8822 20.25 15.6667 20.25H8.33333C7.11776 20.25 5.95197 19.7671 5.09243 18.9076C4.23289 18.048 3.75 16.8822 3.75 15.6667Z" stroke="currentColor" stroke-width="1.5"/>
<path d="M17.042 6.9676L17.0512 6.95752" stroke="currentColor" stroke-width="2" stroke-linecap="round" stroke-linejoin="round"/>
</svg>
