<svg width="253" height="129" viewBox="0 0 253 129" fill="none" xmlns="http://www.w3.org/2000/svg">
<path d="M27.2413 67.2364C36.6265 67.2364 44.2346 65.0824 44.2346 62.4253C44.2346 59.7682 36.6265 57.6143 27.2413 57.6143C17.8562 57.6143 10.248 59.7682 10.248 62.4253C10.248 65.0824 17.8562 67.2364 27.2413 67.2364Z" fill="#36B6FF"/>
<path d="M27.9581 56.5089C20.1093 56.4839 8.42345 58.8129 9.40689 63.2962L13.9214 89.3746C14.8767 95.116 39.7344 95.4126 40.8428 89.1342L45.1075 62.5531C45.8006 59.1345 35.7507 56.4776 27.9612 56.5026L27.9581 56.5089ZM27.2431 66.6305C19.0384 66.6305 12.3884 64.7479 12.3884 62.4251C12.3884 60.1023 19.0384 58.2197 27.2431 58.2197C35.4479 58.2197 42.0978 60.1023 42.0978 62.4251C42.0978 64.7479 35.4479 66.6305 27.2431 66.6305Z" fill="#B8E5FF"/>
<path d="M71.0134 81.3236C71.0134 81.3236 43.0648 55.8727 59.2402 20.5468C65.7808 8.21784 85.8431 -8.98773 112.999 5.56098C112.999 5.56098 117.22 -0.149235 125.19 0.565713C133.161 1.28066 135.715 6.39456 135.715 6.39456C135.715 6.39456 155.518 -3.35869 173.357 14.9583C191.197 33.2753 179.898 65.5042 179.839 65.6852C179.779 65.8663 128.696 85.607 128.696 85.607L78.8622 88.8196L71.0134 81.3267V81.3236Z" fill="#D6D6FF"/>
<path d="M5.64251 86.4813L167.699 72.4664C178.963 71.4174 190.318 72.9285 200.914 76.8841L248.591 94.686C255.247 97.1712 254.079 106.924 247.023 107.767L81.0024 128.666C72.1702 129.722 63.2161 128.257 55.18 124.442L3.55386 98.2795C-2.15324 95.5727 -0.64529 87.0651 5.64251 86.4813Z" fill="url(#paint0_linear_1066_3615)"/>
<path d="M248.63 98.9192L85.2131 119.653C74.8822 120.964 66.1561 119.128 56.6963 114.773L4.33023 90.1307C3.04395 89.525 1.65464 89.6062 0.518216 90.1775C-0.680649 93.003 0.159181 96.6682 3.55597 98.2792L55.179 124.445C63.2151 128.26 72.1692 129.724 81.0014 128.669L247.022 107.77C251.459 107.239 253.563 103.19 252.867 99.6373C251.606 99.0067 250.148 98.7257 248.63 98.9192Z" fill="url(#paint1_linear_1066_3615)"/>
<path d="M143.882 36.73C146.595 36.73 148.796 38.7 148.796 41.1258V48.4532C148.796 50.8822 146.595 52.8491 143.882 52.8491C141.169 52.8491 138.968 50.8791 138.968 48.4532V41.1258C138.968 38.6969 141.169 36.73 143.882 36.73Z" fill="url(#paint2_linear_1066_3615)"/>
<path d="M117.901 55.5914L126.736 51.1769C126.986 51.052 127.267 51.0395 127.529 51.1363L136.761 54.6486C137.719 55.0139 137.794 56.5187 136.876 56.9745L128.041 61.3891C127.791 61.514 127.51 61.5264 127.248 61.4297L118.016 57.9174C117.058 57.5521 116.983 56.0473 117.901 55.5914Z" fill="url(#paint3_linear_1066_3615)"/>
<path d="M108.418 38.8271C111.131 38.8271 113.332 40.7972 113.332 43.223V50.5504C113.332 52.9794 111.131 54.9462 108.418 54.9462C105.705 54.9462 103.504 52.9762 103.504 50.5504V43.223C103.504 40.794 105.705 38.8271 108.418 38.8271Z" fill="url(#paint4_linear_1066_3615)"/>
<path d="M100.861 85.6049L135.297 102.077C136.987 102.839 138.866 103.079 140.692 102.764L196.159 93.2226C198.235 92.8667 199.833 91.1902 200.089 89.0953L200.529 85.4831L158.585 79.2983L106.016 82.5484L100.861 85.6017V85.6049Z" fill="#5D5DF1"/>
<path d="M138.23 97.9126L102.648 81.5999L108.003 76.4048L148.836 71.2129L142.095 95.8708L138.23 97.9126Z" fill="#A5A5FF"/>
<path d="M138.135 92.1145L117.611 83.4946C117.352 83.3853 117.402 83.0075 117.68 82.9669L149.097 78.5368C149.309 78.5055 149.471 78.7178 149.39 78.9145L143.992 92.0958C143.948 92.1988 143.849 92.2675 143.736 92.2675H138.888C138.628 92.2675 138.372 92.2144 138.135 92.1145Z" fill="#5D5DF1"/>
<path d="M124.096 88.0276L149.718 84.2437L149.184 85.6954L127.258 88.8175L124.096 88.0276Z" fill="#A5A5FF"/>
<path d="M136.712 95.0218L146.147 55.1783C146.618 53.1802 148.267 51.6754 150.296 51.385L205.875 43.2334C207.788 42.968 209.062 43.2521 210.892 44.6539C210.892 44.6539 211.744 45.2377 212.262 46.2087C212.643 46.9205 212.706 47.7572 212.484 48.5315L202.119 84.8939C201.682 86.5111 200.345 87.7287 198.691 88.0097L139.547 98.0502C137.792 98.3468 136.3 96.7576 136.709 95.0249L136.712 95.0218Z" fill="#A5A5FF"/>
<path d="M212.262 46.2082C212.233 46.1552 212.202 46.1021 212.171 46.049C211.447 45.5557 210.538 45.3122 209.564 45.4496L152.78 53.6012C150.732 53.8947 149.071 55.412 148.931 58.2468L140.267 96.2202C140.089 96.9508 140.579 97.6314 141.26 97.7563L198.69 88.0092C200.342 87.7283 201.681 86.5138 202.118 84.8935L212.483 48.531C212.705 47.7568 212.642 46.9169 212.262 46.2082Z" fill="#7D7DFF"/>
<path d="M181.678 73.8004C183.22 71.3424 182.848 68.3312 180.845 67.0746C178.843 65.8181 175.969 66.792 174.427 69.25C172.884 71.7081 173.257 74.7193 175.259 75.9759C177.262 77.2324 180.135 76.2584 181.678 73.8004Z" fill="#DDDDFF"/>
<path d="M85.2796 58.8447C92.3573 58.8447 116.797 65.6227 111.854 78.9444C109.772 84.3549 98.4235 91.4326 69.3447 78.4699" fill="#D6D6FF"/>
<path d="M97.1165 86.7576C90.6601 86.7576 81.5844 84.9531 68.9682 79.3272C68.4967 79.118 68.2844 78.5623 68.4936 78.0908C68.7028 77.6194 69.2585 77.4071 69.73 77.6163C90.6289 86.9325 101.185 85.2497 105.618 83.417C108.278 82.3181 110.232 80.5666 110.985 78.6122C112.043 75.7618 111.703 73.1455 109.948 70.6198C104.978 63.4703 90.4073 59.7863 85.2871 59.7863C84.7688 59.7863 84.3505 59.368 84.3505 58.8497C84.3505 58.3314 84.7688 57.9131 85.2871 57.9131C90.273 57.9131 105.883 61.4909 111.487 69.5521C113.592 72.5773 114.01 75.8492 112.739 79.2772C112.187 80.7165 110.622 83.3765 106.336 85.1498C104.132 86.0614 101.131 86.7607 97.1165 86.7607V86.7576Z" fill="url(#paint5_linear_1066_3615)"/>
<path d="M72.8956 99.2917L102.699 94.8178C104.216 94.5899 105.768 94.8178 107.157 95.4735L128.905 105.751C130.257 106.388 129.995 108.383 128.527 108.655L98.6306 114.181C96.6544 114.546 94.6125 114.209 92.858 113.229L72.4366 101.808C71.3127 101.181 71.6218 99.4853 72.8956 99.2949V99.2917Z" fill="#80D1FF"/>
<path d="M98.6305 114.18L128.527 108.654C129.564 108.463 129.995 107.414 129.685 106.587C129.454 106.415 129.155 106.334 128.846 106.393L99.6046 112.01C97.1381 112.45 94.5937 112.032 92.3989 110.82L73.6479 99.8871C72.9485 99.4781 72.0525 99.7903 71.7497 100.54C71.7153 101.024 71.9276 101.523 72.4365 101.807L92.8578 113.228C94.6124 114.208 96.6542 114.545 98.6305 114.18Z" fill="#36B6FF"/>
<path d="M29.1631 45.592C29.1809 45.5327 29.2016 45.4705 29.2253 45.3965C29.2016 45.4676 29.1809 45.5327 29.1631 45.592Z" fill="#5D5DF1"/>
<path d="M29.1279 45.7259C29.1339 45.7021 29.1428 45.6782 29.1518 45.6514C29.1428 45.6782 29.1369 45.7021 29.1279 45.7259Z" fill="#5D5DF1"/>
<path d="M35.7217 39.5029C36.2493 42.1411 36.343 45.6814 36.3586 46.5463C36.343 45.6908 36.2524 42.1473 35.7217 39.5029Z" fill="#5D5DF1"/>
<path d="M29.2383 45.3804C29.6036 44.219 30.5339 41.4248 31.6173 39.2769C30.5308 41.4279 29.6036 44.2222 29.2383 45.3804Z" fill="#5D5DF1"/>
<path d="M35.7225 39.4989C35.3822 37.7974 34.8608 36.4674 34.0616 36.483C33.2717 36.4987 32.4131 37.6944 31.6357 39.2304C31.6795 39.1461 31.7232 39.0619 31.7669 38.9776C32.4319 39.4396 33.7244 40.0016 35.7256 39.4989H35.7225Z" fill="#7D7DFF"/>
<path d="M36.359 46.7523C34.6794 47.2425 31.6229 47.742 29.0503 46.0374L29.0659 45.9219L26.0938 68.5598L33.2682 71.6506L36.359 46.7398V46.7492V46.7523Z" fill="#7D7DFF"/>
<path d="M29.0654 45.917C29.0654 45.917 29.0684 45.9024 29.0772 45.8789C29.0713 45.9024 29.0654 45.917 29.0654 45.917Z" fill="#5D5DF1"/>
<path d="M29.1484 45.6479C29.1484 45.6479 29.1573 45.6183 29.1632 45.6035C29.1573 45.6183 29.1544 45.6331 29.1484 45.6479Z" fill="#5D5DF1"/>
<path d="M29.1162 45.7666C29.1162 45.7666 29.125 45.7402 29.1279 45.7285C29.1221 45.7432 29.1191 45.7549 29.1162 45.7666Z" fill="#5D5DF1"/>
<path d="M29.0771 45.8769C29.0771 45.8769 29.083 45.8593 29.0859 45.8477C29.083 45.8593 29.0801 45.8681 29.0771 45.8769Z" fill="#5D5DF1"/>
<path d="M29.2295 45.3957C29.2295 45.3957 29.2325 45.3836 29.2355 45.3745C29.2355 45.3806 29.2325 45.3866 29.2295 45.3957Z" fill="#5D5DF1"/>
<path d="M31.6162 39.2715C31.6162 39.2715 31.6309 39.2451 31.6367 39.2334C31.6309 39.2451 31.6221 39.2598 31.6162 39.2715Z" fill="#5D5DF1"/>
<path d="M35.3979 78.6836L29.2881 76.8572L38.982 44.4442C39.672 42.4804 45.7069 44.2225 45.0919 46.2706L35.3979 78.6836Z" fill="#FEC6E6"/>
<path d="M30.6842 68.7939C30.6842 68.7939 29.4354 61.479 25.1551 54.7011C20.8748 47.9231 14.2123 46.2559 10.7031 46.8522C10.7031 46.8522 7.75904 53.983 16.8473 63.5614C24.0218 71.123 28.1054 71.3727 28.1054 71.3727L30.6811 68.7971L30.6842 68.7939Z" fill="#8ADFDE"/>
<path d="M31.7638 38.9795C30.2902 41.7737 29.0664 45.9198 29.0664 45.9198L29.0508 46.0353C31.6233 47.7399 34.6798 47.2404 36.3595 46.7503V46.7409C36.3595 46.7409 36.3283 42.5261 35.7226 39.5009C33.7214 40.0035 32.4288 39.4416 31.7638 38.9795Z" fill="#FDE2FE"/>
<path d="M42.0979 62.4261C42.0979 64.7489 35.448 66.6315 27.2432 66.6315C19.0385 66.6315 12.3886 64.7489 12.3886 62.4261C12.3886 62.0733 12.5447 61.7299 12.835 61.402H9.78164C9.40075 61.9827 9.25714 62.6165 9.407 63.3002L13.9215 89.3787C14.8768 95.1201 39.7346 95.4167 40.8429 89.1383L45.1076 62.5572C45.1888 62.1607 45.117 61.7736 44.9296 61.3989H41.6577C41.9481 61.7267 42.1042 62.0702 42.1042 62.423L42.0979 62.4261Z" fill="#B8E5FF"/>
<path d="M33.785 95.7801L32.6705 82.0306C32.4301 79.0584 34.6093 76.4422 37.5752 76.1425L74.9586 72.3617C77.9745 72.0557 80.6469 73.7447 80.8655 76.7669L81.9613 92.477C82.1237 94.7092 80.4846 96.6699 78.2586 96.9072L40.0666 100.978C36.8852 101.319 34.0473 98.9677 33.7882 95.777L33.785 95.7801Z" fill="#7D7DFF"/>
<path d="M81.96 92.4858L80.8642 76.7757C80.7987 75.861 80.5052 75.0742 80.0494 74.4217C79.4062 74.1657 78.6944 74.0533 77.9545 74.1313L39.5158 78.1962C37.524 78.4054 36.0629 80.1631 36.2127 82.1581L37.4272 98.6612C37.4896 99.501 37.7925 100.26 38.2577 100.89C38.8352 101.015 39.4409 101.053 40.0622 100.987L78.2542 96.916C80.4802 96.6787 82.1193 94.7181 81.9569 92.4858H81.96Z" fill="#4040D2"/>
<path d="M46.0792 85.3324C46.0698 85.1388 46.0886 84.939 46.2166 84.7954C46.5662 84.4052 46.9784 84.3708 47.481 84.2896C47.865 84.2335 48.1522 84.2147 48.5394 84.1741C49.1451 84.1086 49.91 84.0493 50.5437 84.0055C51.062 83.9743 51.6364 84.093 51.727 84.683C51.8425 85.3636 51.3367 86.0068 50.9715 86.4626C50.6405 86.8903 50.1535 87.4398 49.8225 87.8675C51.1962 87.8987 52.5075 88.4326 52.6917 90.0842C52.8759 91.7357 51.6708 93.1344 49.8257 93.3373C49.0264 93.4247 47.915 93.2874 47.2531 92.7473C46.7973 92.3913 46.4695 91.5671 47.1407 91.2456C47.6371 91.0083 48.1117 91.283 48.5487 91.4703C49.2231 91.7888 49.9599 91.8231 50.5843 91.3486C51.3086 90.7991 51.0745 89.8719 50.3346 89.5472C49.6352 89.2318 48.6799 89.5721 48.0836 89.0383C47.4279 88.4326 48.555 87.4054 48.9078 86.9122C49.1388 86.6249 49.5135 86.141 49.5509 85.8756C49.6227 85.5822 49.0389 85.7352 48.8329 85.7601L47.968 85.8569C47.5029 85.9069 46.7255 86.0723 46.3009 85.7789C46.1729 85.6883 46.1073 85.551 46.0823 85.3324H46.0792Z" fill="#DDDDFF"/>
<path d="M55.3507 86.6592C54.898 86.7091 54.4984 86.3875 54.4485 85.9348C54.3985 85.4821 54.7201 85.07 55.1697 85.0201C55.6192 84.9701 56.0251 85.3042 56.0719 85.7569C56.1188 86.2096 55.8003 86.6092 55.3476 86.6592H55.3507ZM55.8784 91.4328C55.4257 91.4827 55.0261 91.1611 54.9761 90.7084C54.9261 90.2557 55.2477 89.8436 55.6973 89.7937C56.1469 89.7437 56.5527 90.0778 56.5996 90.5305C56.6464 90.9832 56.3279 91.3828 55.8753 91.4328H55.8784Z" fill="#DDDDFF"/>
<path d="M58.2337 85.5069C58.2212 84.9324 58.6021 84.1207 59.0017 83.7117C59.7416 82.9499 61.0872 82.5035 62.13 82.7127C63.5443 82.9874 64.4466 83.8272 64.6089 85.2977C64.7619 86.6901 64.3685 87.4925 62.948 88.9411C62.7138 89.1878 62.4547 89.4532 62.2081 89.7029C62.0426 89.8653 61.1278 90.4366 61.7522 90.4179C62.13 90.4022 62.2799 90.3585 62.6545 90.318C63.0916 90.2711 63.5287 90.1806 63.9564 90.1743C64.3061 90.1618 64.815 90.0151 65.1084 90.218C65.405 90.421 65.4925 91.1016 65.2895 91.3732C65.0991 91.6542 64.7276 91.6167 64.431 91.6511L59.801 92.1631C59.6324 92.1818 59.417 92.2443 59.2577 92.2099C58.9393 92.1662 58.9986 91.8727 58.9705 91.6136C58.8737 90.7363 59.7541 90.0651 60.3161 89.4812C60.722 89.0317 61.2215 88.5852 61.643 88.1325C62.7451 86.993 63.1197 86.3779 63.0323 85.5912C62.9355 84.7264 62.2767 84.2924 61.4619 84.3798C60.8687 84.4454 60.3317 84.7795 60.0507 85.3071C59.9664 85.5006 59.9009 85.7286 59.8041 85.9096C59.3889 86.7651 58.2587 86.3405 58.2337 85.51V85.5069Z" fill="#DDDDFF"/>
<path d="M67.7471 82.0491L70.9348 81.6963C71.3999 81.6464 72.0993 81.4778 72.3272 82.0116C72.4677 82.3488 72.4052 82.9576 71.9463 83.0606C71.5155 83.1855 71.0034 83.1637 70.5539 83.2136C70.0637 83.2667 69.7328 83.3572 69.2582 83.4072C69.0771 83.4259 68.7119 83.429 68.562 83.4977C68.2841 83.5945 68.3403 83.9785 68.3622 84.1846C68.3934 84.4812 68.3903 84.7809 68.409 85.0806C68.4153 85.4833 68.5558 85.4553 68.9054 85.3148C69.2051 85.2024 69.5236 85.1306 69.8483 85.0931C71.5904 84.8995 73.0609 85.68 73.27 87.5876C73.2888 87.7562 73.3044 87.9092 73.2825 88.0684C73.2607 89.1674 72.6488 90.1227 71.656 90.5972C70.4945 91.1967 69.1021 91.3497 67.9282 90.7596C67.5973 90.6129 67.2851 90.36 67.1321 90.0384C66.951 89.6919 66.9417 89.2485 67.3069 89.0144C67.8564 88.6678 68.3029 89.1798 68.7837 89.3734C69.1927 89.5233 69.6454 89.6169 70.123 89.5639C71.1814 89.4483 71.8214 88.749 71.7153 87.7937C71.6091 86.8383 70.8161 86.3919 69.6953 86.5167C69.3987 86.548 69.1052 86.6073 68.8305 86.729C68.2904 86.9195 67.8096 87.2848 67.2851 86.7946C67.0416 86.5854 67.0478 86.1952 67.0416 85.8955C67.0135 85.3897 66.9822 84.8964 66.9542 84.3906C66.9385 83.8973 66.9104 83.3916 66.8823 82.8983C66.8636 82.6142 66.9229 82.4362 67.026 82.3082C67.1633 82.1365 67.4193 82.0834 67.7534 82.046L67.7471 82.0491Z" fill="#DDDDFF"/>
<path d="M237.592 91.5812C235.169 91.5812 233.181 91.0286 233.037 90.9849L233.98 87.6818C235.335 88.0627 239.341 88.7152 241.545 87.1698C242.578 86.4455 243.14 85.2841 243.262 83.62C243.399 81.7468 242.996 80.37 242.069 79.5239C240.499 78.0909 237.548 78.2126 236.543 78.3812L235.959 74.9969C236.172 74.9595 241.22 74.1228 244.367 76.9701C246.125 78.5623 246.908 80.8851 246.69 83.8698C246.49 86.5953 245.419 88.6559 243.508 89.989C241.735 91.2284 239.528 91.5781 237.598 91.5781L237.592 91.5812Z" fill="#BEBEFF"/>
<path d="M228.817 97.576H219.66C215.03 97.576 211.274 93.8233 211.274 89.1902L211.471 74.3824C211.471 67.0081 237.4 67.6825 237.4 74.3824L237.203 89.1902C237.203 93.8202 233.45 97.576 228.817 97.576Z" fill="url(#paint6_linear_1066_3615)"/>
<path d="M224.341 76.6873C229.695 76.6873 234.035 75.3734 234.035 73.7526C234.035 72.1318 229.695 70.8179 224.341 70.8179C218.988 70.8179 214.647 72.1318 214.647 73.7526C214.647 75.3734 218.988 76.6873 224.341 76.6873Z" fill="#9E80D9"/>
<path d="M227.965 51.8262C227.965 51.8262 213.968 56.8214 222.885 62.4317C230.262 67.0805 225.895 68.9287 222.214 73.0373C222.214 73.0373 235.701 67.9578 233.194 62.8876C231.449 59.3597 222.251 59.4002 227.961 51.8262H227.965Z" fill="#DDDDFF"/>
<defs>
<linearGradient id="paint0_linear_1066_3615" x1="0" y1="100.571" x2="253" y2="100.571" gradientUnits="userSpaceOnUse">
<stop stop-color="#DDDDFF"/>
<stop offset="1" stop-color="#D7F0FF"/>
</linearGradient>
<linearGradient id="paint1_linear_1066_3615" x1="0.00195312" y1="109.357" x2="252.998" y2="109.357" gradientUnits="userSpaceOnUse">
<stop stop-color="#D3D3FE"/>
<stop offset="1" stop-color="#B8E5FF"/>
</linearGradient>
<linearGradient id="paint2_linear_1066_3615" x1="143.882" y1="36.73" x2="143.882" y2="52.8491" gradientUnits="userSpaceOnUse">
<stop stop-color="#111111"/>
<stop offset="1" stop-color="#4040D2"/>
</linearGradient>
<linearGradient id="paint3_linear_1066_3615" x1="127.389" y1="51.0723" x2="127.389" y2="61.4937" gradientUnits="userSpaceOnUse">
<stop stop-color="#111111"/>
<stop offset="1" stop-color="#4040D2"/>
</linearGradient>
<linearGradient id="paint4_linear_1066_3615" x1="108.418" y1="38.8271" x2="108.418" y2="54.9462" gradientUnits="userSpaceOnUse">
<stop stop-color="#111111"/>
<stop offset="1" stop-color="#4040D2"/>
</linearGradient>
<linearGradient id="paint5_linear_1066_3615" x1="90.9347" y1="57.9131" x2="90.9347" y2="86.7607" gradientUnits="userSpaceOnUse">
<stop stop-color="#BEBEFF"/>
<stop offset="1" stop-color="#A5A5FF"/>
</linearGradient>
<linearGradient id="paint6_linear_1066_3615" x1="224.337" y1="69.1016" x2="224.337" y2="97.576" gradientUnits="userSpaceOnUse">
<stop stop-color="#DDDDFF"/>
<stop offset="1" stop-color="white"/>
</linearGradient>
</defs>
</svg>
