<svg width="32" height="32" viewBox="0 0 32 32" fill="none" xmlns="http://www.w3.org/2000/svg">
<rect x="12" y="26" width="8" height="2" rx="1" fill="currentColor"/>
<path d="M12 15H20V23C20 24.1046 19.1046 25 18 25H14C12.8954 25 12 24.1046 12 23V15Z" fill="currentColor"/>
<circle cx="16" cy="13" r="9" fill="currentColor"/>
<path d="M17.4878 7.13726C17.6388 6.75162 18.0738 6.5615 18.4595 6.71245C20.1991 7.3934 21.5866 8.77393 22.2759 10.5093C22.4287 10.8943 22.2399 11.3311 21.855 11.4839C21.4701 11.6365 21.0342 11.4479 20.8813 11.063C20.3454 9.71383 19.265 8.63829 17.9126 8.10894C17.527 7.95792 17.3368 7.52294 17.4878 7.13726Z" fill="white"/>
</svg>
