<svg width="28" height="28" viewBox="0 0 28 28" fill="none" xmlns="http://www.w3.org/2000/svg">
<path d="M20.125 7.875L24.5 13.125L20.125 18.375M24.5 13.125L15.3125 13.125M16.1875 7.4375V7.375C16.1875 5.71815 14.8444 4.375 13.1875 4.375H8.25C6.59315 4.375 5.25 5.71815 5.25 7.375L5.25 18.875C5.25 20.5319 6.59315 21.875 8.25 21.875H14C15.2081 21.875 16.1875 20.8956 16.1875 19.6875" stroke="currentColor" stroke-width="1.5" stroke-linecap="round" stroke-linejoin="round"/>
<path d="M5.25 7.61107C5.25 6.1243 6.81462 5.15731 8.14443 5.82221L11.6972 7.59861C12.036 7.768 12.25 8.11426 12.25 8.49303V23.757C12.25 24.5003 11.4677 24.9838 10.8028 24.6514L5.80279 22.1514C5.464 21.982 5.25 21.6357 5.25 21.257V7.61107Z" fill="currentColor" stroke="currentColor" stroke-width="1.5"/>
</svg>
