<svg width="97" height="28" viewBox="0 0 97 28" fill="none" xmlns="http://www.w3.org/2000/svg">
<path d="M9.25414 22.6119C8.23022 22.6119 7.3748 22.5349 6.68787 22.3743C5.74171 22.1752 5.04182 21.867 4.60115 21.4495C3.60963 19.3688 2.76069 17.089 2.05432 14.6165C1.07576 11.1872 0.388829 7.64862 0 4.00091C0.473076 3.31376 1.12112 2.77431 1.94415 2.39541C2.76717 2.01651 3.6874 1.82385 4.69836 1.82385C6.21479 1.82385 7.41368 2.11284 8.28207 2.6844C9.15045 3.26238 9.58465 4.07798 9.58465 5.14403C9.51336 5.94036 9.44208 7.10275 9.38375 8.63761C9.32543 10.1725 9.29951 11.5661 9.29951 12.8055C9.29951 13.1523 9.33191 13.422 9.40319 13.6147C9.47448 13.8073 9.61705 13.9037 9.83739 13.9037C9.92163 13.9037 10.0253 13.8908 10.1549 13.8587C10.142 13.7624 10.142 13.6083 10.142 13.3899V12.844C10.142 11.3284 10.1938 9.58165 10.2975 7.59725C10.4012 5.61926 10.5308 4.1422 10.6798 3.16605C11.639 2.58165 12.7666 2.28624 14.0627 2.28624C15.3588 2.28624 16.4021 2.46605 17.1927 2.81926C18.1389 3.25596 18.6444 3.89816 18.6962 4.74587C18.6444 5.77339 18.5472 6.78165 18.4046 7.77064C18.262 8.76605 18.0935 9.90917 17.8926 11.2064C17.6917 12.5037 17.5686 13.3578 17.5103 13.7752C17.5945 13.8202 17.7047 13.8394 17.8408 13.8394C17.9769 13.8394 18.1065 13.7881 18.2231 13.6853C18.3398 13.5826 18.437 13.3321 18.5083 12.9339C18.8323 11.2642 19.1045 9.49816 19.3183 7.6422C19.5322 5.78624 19.6683 4.16789 19.7266 2.78715C20.6987 2.13853 22.0337 1.81743 23.7445 1.81743C25.1249 1.81743 26.2265 2.18348 27.0496 2.90917C27.8726 3.63486 28.2809 4.61101 28.2809 5.83119C28.2809 6.64679 27.892 8.78532 27.1079 12.2468C26.7061 14.0642 26.3238 15.6183 25.9544 16.9092C25.585 18.2 25.2869 19.1055 25.0536 19.6321C24.5675 20.6853 23.8417 21.4495 22.8761 21.9119C21.9105 22.3743 20.6792 22.6119 19.1823 22.6119C18.5796 22.6119 17.8862 22.522 17.102 22.3422C16.3179 22.1624 15.7152 21.9633 15.3069 21.745C15.0931 21.4239 14.8598 20.9294 14.5941 20.2743C14.3284 19.6128 14.1664 19.1183 14.1015 18.7844C13.6933 18.7972 13.4859 19.0156 13.4859 19.4459C13.4859 19.7798 13.6479 20.3963 13.9784 21.2954C12.8703 22.1752 11.2955 22.6119 9.24766 22.6119H9.25414Z" fill="#5D5DF1"/>
<path d="M30.5166 20.5567C28.7863 18.9062 27.9244 16.665 27.9244 13.8393C27.9244 11.0136 28.741 8.77872 30.3676 7.14753C31.9942 5.50992 34.1327 4.69432 36.7832 4.69432C39.4338 4.69432 41.5723 5.54845 43.2054 7.25028C44.832 8.95212 45.6421 11.1741 45.6421 13.9035C45.6421 16.6329 44.8579 18.8099 43.2961 20.4154C41.7279 22.0273 39.6023 22.8301 36.9128 22.8301C34.2234 22.8301 32.0914 22.0723 30.5231 20.5567H30.5166Z" fill="#5D5DF1"/>
<rect x="31.3522" y="9.50154" width="2.36752" height="4.30546" rx="1.18376" fill="#FAFAFA"/>
<rect x="40.0331" y="9.5015" width="2.56481" height="4.30546" rx="1.28241" fill="#FAFAFA"/>
<path d="M33.4886 14.3226L36.7341 13.0787C36.8257 13.0436 36.9271 13.0436 37.0186 13.0787L40.2641 14.3226C40.6007 14.4516 40.6007 14.9238 40.2641 15.0528L37.0186 16.2967C36.9271 16.3317 36.8257 16.3317 36.7341 16.2967L33.4886 15.0528C33.152 14.9238 33.152 14.4516 33.4886 14.3226Z" fill="#FAFAFA"/>
<path d="M51.1505 22.5477C49.8933 22.5477 48.8953 22.3229 48.1436 21.8734C47.3076 21.4046 46.8928 20.711 46.8928 19.7862V11.7138C46.2707 10.8468 45.9597 9.77432 45.9597 8.50918C45.9597 7.24404 46.2707 6.13945 46.8928 5.20826H49.3166C50.5608 5.20826 51.4486 5.60643 51.9865 6.40276C51.7208 6.69817 51.4875 7.06423 51.2931 7.51377C51.0922 7.96331 50.995 8.28441 50.995 8.47707C50.995 8.66973 51.0468 8.81101 51.144 8.90734C51.2477 9.00367 51.3903 9.04863 51.5782 9.04863C51.9476 7.59725 52.6475 6.5312 53.6844 5.85046C54.5398 5.27248 55.5961 4.98991 56.8469 4.98991C58.4087 4.98991 59.6335 5.31744 60.5148 5.9789C60.8324 6.81377 60.9879 7.83487 60.9879 9.04221C60.9879 10.2495 60.7417 11.3413 60.2621 12.3239C59.9057 12.5101 59.4067 12.6706 58.7781 12.7991C58.143 12.9275 57.5079 12.9982 56.8598 12.9982C56.2118 12.9982 55.6415 12.9532 55.1296 12.8633C54.6176 12.7734 54.2482 12.6963 54.0149 12.6193C53.9307 12.7028 53.8853 12.8248 53.8853 12.9789C53.8853 13.133 53.989 13.2551 54.1964 13.3321C54.4037 13.4092 54.7472 13.4991 55.2332 13.589V21.4624C54.0797 22.1817 52.7188 22.5413 51.1505 22.5413V22.5477Z" fill="#5D5DF1"/>
<path d="M69.3283 1.95872C69.8856 1.31009 70.5013 0.822018 71.1817 0.494495C71.8557 0.166972 72.7176 0 73.761 0C75.0247 0 76.0551 0.353211 76.8457 1.05321C77.6557 1.80459 78.064 2.81927 78.064 4.09725V14.4431C78.064 16.0037 78.4464 17.0119 79.2046 17.4872C79.2175 17.5385 79.224 17.6413 79.224 17.7826V18.0651C79.224 19.5486 78.7704 20.7046 77.8631 21.533C77.0595 22.2651 76.068 22.6312 74.8886 22.6312C74.0655 22.6312 73.3527 22.4578 72.75 22.111C72.0436 21.7128 71.5446 21.1734 71.266 20.4798C70.9095 20.4798 70.7281 20.6532 70.7281 21C70.7281 21.1541 70.7864 21.3339 70.9095 21.5395C71.0327 21.745 71.1947 21.9248 71.4085 22.0789C70.7864 22.445 69.9763 22.6248 68.9848 22.6248C67.6434 22.6248 66.3926 22.3165 65.2262 21.7064C64.0597 21.0963 63.133 20.1716 62.4525 18.9385C61.6619 17.5257 61.2666 15.8174 61.2666 13.8138C61.2666 11.1358 62.0248 9.03578 63.5347 7.51376C65.0512 5.98532 66.9824 5.22752 69.3348 5.22752C70.7281 5.22752 71.9399 5.49083 72.9768 6.01101C73.0935 5.89541 73.1518 5.7734 73.1518 5.65138C73.1518 5.3367 72.7759 5.0734 72.0307 4.84862C71.2854 4.62385 70.5272 4.5211 69.769 4.5211C69.769 3.45505 69.6264 2.60092 69.3413 1.96514L69.3283 1.95872ZM70.4689 11.2257C70.3652 11.1229 70.2356 11.0716 70.0865 11.0716C69.8532 11.0716 69.6977 11.2385 69.6134 11.5661C69.5292 11.8936 69.4838 12.5615 69.4838 13.5633V15.1624C69.4838 15.445 69.5227 15.644 69.594 15.7596C69.6653 15.8752 69.7884 15.933 69.9569 15.933C70.1254 15.933 70.2485 15.8945 70.3198 15.8239V13.7239C70.3198 12.7028 70.3652 11.8679 70.4624 11.2321L70.4689 11.2257Z" fill="#5D5DF1"/>
<path d="M87.4802 14.4239V14.7835C87.4802 14.9505 87.4802 15.0725 87.4931 15.1431C87.5968 15.1945 87.7135 15.2202 87.8431 15.2202C88.1477 15.2202 88.3032 14.989 88.3032 14.533C88.3032 12.9982 88.3874 11.3991 88.5624 9.74221C88.7374 8.08532 88.9253 6.80734 89.1262 5.90826C89.9816 5.29175 91.1222 4.98349 92.5414 4.98349C93.9607 4.98349 95.0623 5.25964 95.84 5.80551C96.6177 6.35138 97 7.01285 97 7.78991C97 8.11101 96.8056 9.45321 96.4168 11.8037C95.9826 14.1991 95.4317 16.7165 94.7578 19.3624C94.6217 19.8954 94.3754 20.6404 94.0255 21.6037C93.669 22.567 93.2932 23.3633 92.8914 24.0055C91.6342 25.9835 90.0853 27.2037 88.2384 27.6725C87.37 27.8908 86.5016 28 85.6267 28C83.9289 28 82.6133 27.5826 81.6866 26.7477C80.8312 25.9963 80.4035 25.0651 80.4035 23.9477C80.4035 22.8303 80.734 21.7899 81.4015 20.8009C81.557 20.7624 81.8486 20.7367 82.2698 20.7367C82.6911 20.7367 83.216 20.7881 83.8511 20.8908C85.6008 21.2119 86.4951 21.3789 86.5275 21.3789C86.5988 21.3917 86.6831 21.4046 86.7738 21.4174C86.8645 21.4303 86.9812 21.4431 87.1302 21.4431C87.2793 21.4431 87.4024 21.4046 87.5126 21.3147C87.6163 21.2312 87.6681 21.0642 87.6681 20.8138L83.9353 20.1073C83.0151 19.7284 82.218 18.945 81.544 17.7376C80.7081 16.2541 80.1442 14.244 79.8526 11.7009C79.1592 10.8018 78.8093 9.72294 78.8093 8.47065C78.8093 7.21835 79.1268 6.12661 79.7554 5.19542H83.8187C85.1796 5.19542 86.197 5.58074 86.871 6.3578C87.3635 6.93578 87.6811 7.77707 87.8171 8.88165C87.5838 10.6991 87.4672 12.5486 87.4672 14.4174L87.4802 14.4239Z" fill="#5D5DF1"/>
</svg>
