<svg width="32" height="26" viewBox="20 0 32 26" fill="none" xmlns="http://www.w3.org/2000/svg">
<path d="M30.5762 25.7651C29.406 25.7651 28.4283 25.6771 27.6433 25.4936C26.562 25.2661 25.7621 24.9138 25.2585 24.4367C24.1253 22.0587 23.1551 19.4532 22.3478 16.6275C21.2294 12.7083 20.4444 8.66422 20 4.49541C20.5407 3.71009 21.2813 3.09358 22.2219 2.66055C23.1625 2.22752 24.2142 2.00734 25.3696 2.00734C27.1026 2.00734 28.4728 2.33761 29.4652 2.99083C30.4577 3.65138 30.9539 4.58349 30.9539 5.80184C30.8724 6.71193 30.7909 8.04037 30.7243 9.7945C30.6576 11.5486 30.628 13.1413 30.628 14.5578C30.628 14.9541 30.665 15.2624 30.7465 15.4826C30.828 15.7028 30.9909 15.8128 31.2427 15.8128C31.339 15.8128 31.4575 15.7982 31.6056 15.7615C31.5908 15.6514 31.5908 15.4752 31.5908 15.2257V14.6018C31.5908 12.8697 31.6501 10.8734 31.7686 8.60551C31.8871 6.34496 32.0352 4.65688 32.2055 3.54128C33.3017 2.87339 34.5904 2.53578 36.0716 2.53578C37.5529 2.53578 38.7453 2.74128 39.6489 3.14495C40.7302 3.64404 41.3079 4.37798 41.3671 5.34679C41.3079 6.5211 41.1968 7.6734 41.0338 8.80367C40.8709 9.94129 40.6783 11.2477 40.4487 12.7303C40.2191 14.2128 40.0784 15.189 40.0118 15.6661C40.108 15.7174 40.234 15.7395 40.3895 15.7395C40.545 15.7395 40.6931 15.6807 40.8265 15.5633C40.9598 15.4459 41.0709 15.1596 41.1523 14.7046C41.5226 12.7963 41.8337 10.778 42.0781 8.65688C42.3225 6.53578 42.4781 4.68624 42.5447 3.10826C43.6557 2.36697 45.1813 2 47.1366 2C48.7141 2 49.9732 2.41835 50.9138 3.24771C51.8544 4.07707 52.321 5.19266 52.321 6.58716C52.321 7.51927 51.8766 9.96331 50.9805 13.9193C50.5213 15.9963 50.0843 17.7725 49.6621 19.2477C49.24 20.7229 48.8993 21.7578 48.6327 22.3596C48.0772 23.5633 47.2477 24.4367 46.1442 24.9651C45.0406 25.4936 43.6334 25.7651 41.9226 25.7651C41.2338 25.7651 40.4413 25.6624 39.5452 25.4569C38.649 25.2514 37.9602 25.0239 37.4936 24.7743C37.2492 24.4073 36.9826 23.8422 36.6789 23.0936C36.3753 22.3376 36.1901 21.7725 36.1161 21.3908C35.6495 21.4055 35.4125 21.6551 35.4125 22.1468C35.4125 22.5285 35.5976 23.233 35.9753 24.2606C34.7089 25.2661 32.9091 25.7651 30.5688 25.7651H30.5762Z" fill="#5D5DF1"/>
</svg>
