<svg width="111" height="32" viewBox="0 0 111 32" fill="none" xmlns="http://www.w3.org/2000/svg">
  <path d="M10.5762 25.8422C9.40597 25.8422 8.42834 25.7541 7.64328 25.5706C6.56196 25.3431 5.76208 24.9908 5.25846 24.5137C4.1253 22.1357 3.15507 19.5302 2.34779 16.7045C1.22944 12.7853 0.444377 8.74123 0 4.57242C0.540658 3.7871 1.28129 3.17059 2.22188 2.73756C3.16248 2.30453 4.21417 2.08435 5.36955 2.08435C7.10262 2.08435 8.47278 2.41462 9.46522 3.06784C10.4577 3.72839 10.9539 4.6605 10.9539 5.87885C10.8724 6.78894 10.7909 8.11738 10.7243 9.87151C10.6576 11.6256 10.628 13.2183 10.628 14.6348C10.628 15.0311 10.665 15.3394 10.7465 15.5596C10.828 15.7798 10.9909 15.8899 11.2427 15.8899C11.339 15.8899 11.4575 15.8752 11.6056 15.8385C11.5908 15.7284 11.5908 15.5522 11.5908 15.3027V14.6788C11.5908 12.9467 11.6501 10.9504 11.7686 8.68252C11.8871 6.42197 12.0352 4.73389 12.2055 3.61829C13.3017 2.9504 14.5904 2.61279 16.0716 2.61279C17.5529 2.61279 18.7453 2.81829 19.6489 3.22196C20.7302 3.72105 21.3079 4.45499 21.3671 5.4238C21.3079 6.59811 21.1968 7.75041 21.0338 8.88068C20.8709 10.0183 20.6783 11.3247 20.4487 12.8073C20.2191 14.2899 20.0784 15.266 20.0118 15.7431C20.108 15.7944 20.234 15.8165 20.3895 15.8165C20.545 15.8165 20.6931 15.7577 20.8265 15.6403C20.9598 15.5229 21.0709 15.2366 21.1523 14.7816C21.5226 12.8733 21.8337 10.855 22.0781 8.73389C22.3225 6.61279 22.4781 4.76325 22.5447 3.18527C23.6557 2.44398 25.1813 2.07701 27.1366 2.07701C28.7141 2.07701 29.9732 2.49536 30.9138 3.32472C31.8544 4.15407 32.321 5.26967 32.321 6.66417C32.321 7.59628 31.8766 10.0403 30.9805 13.9963C30.5213 16.0733 30.0843 17.8495 29.6621 19.3247C29.24 20.8 28.8993 21.8348 28.6327 22.4367C28.0772 23.6403 27.2477 24.5137 26.1442 25.0422C25.0406 25.5706 23.6334 25.8422 21.9226 25.8422C21.2338 25.8422 20.4413 25.7394 19.5452 25.5339C18.649 25.3284 17.9602 25.1009 17.4936 24.8513C17.2492 24.4844 16.9826 23.9192 16.6789 23.1706C16.3753 22.4146 16.1901 21.8495 16.1161 21.4678C15.6495 21.4825 15.4125 21.7321 15.4125 22.2238C15.4125 22.6055 15.5976 23.31 15.9753 24.3376C14.7089 25.3431 12.9091 25.8422 10.5688 25.8422H10.5762Z" fill="#5D5DF1"/>
  <path d="M34.876 23.4934C32.8986 21.6071 31.9135 19.0457 31.9135 15.8163C31.9135 12.587 32.8467 10.0328 34.7057 8.16861C36.5647 6.29705 39.0087 5.36494 42.0379 5.36494C45.0671 5.36494 47.5111 6.34108 49.3775 8.28604C51.2365 10.231 52.1623 12.7704 52.1623 15.8897C52.1623 19.009 51.2661 21.4971 49.4812 23.3319C47.6889 25.1741 45.2596 26.0915 42.186 26.0915C39.1124 26.0915 36.6758 25.2255 34.8834 23.4934H34.876Z" fill="#5D5DF1"/>
  <rect x="35.8309" y="10.8591" width="2.70573" height="4.92053" rx="1.35287" fill="#FAFAFA"/>
  <rect x="45.752" y="10.859" width="2.93121" height="4.92053" rx="1.46561" fill="#FAFAFA"/>
  <path d="M38.2726 16.3686L41.9818 14.9471C42.0864 14.907 42.2023 14.907 42.3069 14.9471L46.0161 16.3686C46.4007 16.516 46.4007 17.0558 46.0161 17.2032L42.3069 18.6247C42.2023 18.6648 42.0864 18.6648 41.9818 18.6247L38.2726 17.2032C37.888 17.0558 37.888 16.516 38.2726 16.3686Z" fill="#FAFAFA"/>
  <path d="M58.4578 25.7686C57.021 25.7686 55.8805 25.5117 55.0213 24.998C54.0659 24.4622 53.5919 23.6695 53.5919 22.6127V13.387C52.8809 12.3961 52.5254 11.1705 52.5254 9.72459C52.5254 8.27872 52.8809 7.01633 53.5919 5.95211H56.3619C57.7839 5.95211 58.7985 6.40716 59.4133 7.31725C59.1096 7.65486 58.843 8.07321 58.6208 8.58697C58.3912 9.10073 58.2801 9.46771 58.2801 9.68789C58.2801 9.90807 58.3393 10.0695 58.4504 10.1796C58.5689 10.2897 58.7319 10.3411 58.9467 10.3411C59.3688 8.68239 60.1687 7.46404 61.3537 6.68606C62.3313 6.0255 63.5385 5.70257 64.968 5.70257C66.7529 5.70257 68.1527 6.07688 69.1599 6.83284C69.5228 7.78697 69.7006 8.95395 69.7006 10.3338C69.7006 11.7136 69.4191 12.9613 68.8711 14.0842C68.4637 14.2971 67.8934 14.4806 67.175 14.6273C66.4492 14.7741 65.7234 14.8549 64.9828 14.8549C64.2421 14.8549 63.5904 14.8035 63.0053 14.7007C62.4202 14.598 61.998 14.5099 61.7314 14.4218C61.6351 14.5172 61.5833 14.6567 61.5833 14.8328C61.5833 15.009 61.7018 15.1484 61.9388 15.2365C62.1758 15.3246 62.5683 15.4273 63.1238 15.5301V24.5283C61.8055 25.3503 60.2502 25.7613 58.4578 25.7613V25.7686Z" fill="#5D5DF1"/>
  <path d="M79.2324 2.23853C79.8693 1.49725 80.5729 0.93945 81.3506 0.565138C82.1209 0.190826 83.1059 0 84.2983 0C85.7425 0 86.9201 0.40367 87.8237 1.20367C88.7495 2.06239 89.2161 3.22202 89.2161 4.68257V16.5064C89.2161 18.2899 89.653 19.4422 90.5196 19.9853C90.5344 20.044 90.5418 20.1615 90.5418 20.3229V20.6459C90.5418 22.3413 90.0234 23.6624 88.9865 24.6092C88.0681 25.4459 86.9349 25.8642 85.587 25.8642C84.6464 25.8642 83.8317 25.6661 83.1429 25.2697C82.3356 24.8147 81.7654 24.1982 81.4469 23.4055C81.0395 23.4055 80.8322 23.6037 80.8322 24C80.8322 24.1762 80.8988 24.3817 81.0395 24.6165C81.1803 24.8514 81.3654 25.0569 81.6098 25.233C80.8988 25.6514 79.973 25.8569 78.8399 25.8569C77.3068 25.8569 75.8774 25.5046 74.5442 24.8074C73.2111 24.1101 72.152 23.0532 71.3743 21.644C70.4708 20.0294 70.019 18.0771 70.019 15.7872C70.019 12.7266 70.8855 10.3266 72.6112 8.58716C74.3443 6.84037 76.5513 5.97432 79.2398 5.97432C80.8322 5.97432 82.2171 6.27523 83.4021 6.86973C83.5355 6.73762 83.6021 6.59817 83.6021 6.45872C83.6021 6.09909 83.1725 5.79817 82.3208 5.54129C81.4691 5.28441 80.6026 5.16697 79.736 5.16697C79.736 3.94863 79.5731 2.97248 79.2472 2.24587L79.2324 2.23853ZM80.5359 12.8294C80.4174 12.7119 80.2693 12.6532 80.0989 12.6532C79.8323 12.6532 79.6546 12.844 79.5583 13.2184C79.462 13.5927 79.4102 14.356 79.4102 15.5009V17.3284C79.4102 17.6514 79.4546 17.8789 79.5361 18.011C79.6175 18.1431 79.7583 18.2092 79.9508 18.2092C80.1434 18.2092 80.2841 18.1651 80.3656 18.0844V15.6844C80.3656 14.5174 80.4174 13.5633 80.5285 12.8367L80.5359 12.8294Z" fill="#5D5DF1"/>
  <path d="M99.9774 16.4843V16.8953C99.9774 17.0861 99.9774 17.2256 99.9922 17.3063C100.111 17.365 100.244 17.3944 100.392 17.3944C100.74 17.3944 100.918 17.1302 100.918 16.6091C100.918 14.855 101.014 13.0274 101.214 11.1338C101.414 9.24027 101.629 7.77972 101.859 6.7522C102.836 6.04761 104.14 5.69531 105.762 5.69531C107.384 5.69531 108.643 6.01091 109.532 6.63476C110.42 7.25862 110.857 8.01458 110.857 8.90266C110.857 9.26963 110.635 10.8036 110.191 13.4898C109.694 16.2274 109.065 19.1045 108.295 22.1283C108.139 22.7375 107.858 23.5889 107.458 24.6898C107.05 25.7907 106.621 26.7008 106.162 27.4348C104.725 29.6953 102.955 31.0898 100.844 31.6256C99.8515 31.8751 98.8591 31.9999 97.8592 31.9999C95.9188 31.9999 94.4153 31.5228 93.3562 30.5687C92.3786 29.71 91.8898 28.6458 91.8898 27.3687C91.8898 26.0917 92.2675 24.9027 93.0303 23.7724C93.2081 23.7283 93.5414 23.699 94.0228 23.699C94.5042 23.699 95.1041 23.7577 95.8299 23.8751C97.8296 24.2421 98.8517 24.4329 98.8887 24.4329C98.9702 24.4476 99.0665 24.4623 99.1701 24.477C99.2738 24.4917 99.4071 24.5063 99.5775 24.5063C99.7478 24.5063 99.8886 24.4623 100.014 24.3595C100.133 24.2641 100.192 24.0733 100.192 23.7871L95.9262 22.9797C94.8745 22.5467 93.9635 21.6513 93.1933 20.2715C92.2379 18.5761 91.5935 16.2788 91.2602 13.3724C90.4678 12.3449 90.0678 11.1118 90.0678 9.68064C90.0678 8.24944 90.4307 7.00174 91.1491 5.93752H95.7929C97.3482 5.93752 98.511 6.37788 99.2812 7.26596C99.8441 7.92651 100.207 8.88798 100.363 10.1504C100.096 12.2274 99.9626 14.3412 99.9626 16.477L99.9774 16.4843Z" fill="#5D5DF1"/>
</svg>
