<svg width="33" height="32" viewBox="0 0 33 32" fill="none" xmlns="http://www.w3.org/2000/svg">
<path d="M10.5762 25.7651C9.40597 25.7651 8.42834 25.6771 7.64328 25.4936C6.56196 25.2661 5.76208 24.9138 5.25846 24.4367C4.1253 22.0587 3.15507 19.4532 2.34779 16.6275C1.22944 12.7083 0.444377 8.66422 0 4.49541C0.540658 3.71009 1.28129 3.09358 2.22188 2.66055C3.16248 2.22752 4.21417 2.00734 5.36955 2.00734C7.10262 2.00734 8.47278 2.33761 9.46522 2.99083C10.4577 3.65138 10.9539 4.58349 10.9539 5.80184C10.8724 6.71193 10.7909 8.04037 10.7243 9.7945C10.6576 11.5486 10.628 13.1413 10.628 14.5578C10.628 14.9541 10.665 15.2624 10.7465 15.4826C10.828 15.7028 10.9909 15.8128 11.2427 15.8128C11.339 15.8128 11.4575 15.7982 11.6056 15.7615C11.5908 15.6514 11.5908 15.4752 11.5908 15.2257V14.6018C11.5908 12.8697 11.6501 10.8734 11.7686 8.60551C11.8871 6.34496 12.0352 4.65688 12.2055 3.54128C13.3017 2.87339 14.5904 2.53578 16.0716 2.53578C17.5529 2.53578 18.7453 2.74128 19.6489 3.14495C20.7302 3.64404 21.3079 4.37798 21.3671 5.34679C21.3079 6.5211 21.1968 7.6734 21.0338 8.80367C20.8709 9.94129 20.6783 11.2477 20.4487 12.7303C20.2191 14.2128 20.0784 15.189 20.0118 15.6661C20.108 15.7174 20.234 15.7395 20.3895 15.7395C20.545 15.7395 20.6931 15.6807 20.8265 15.5633C20.9598 15.4459 21.0709 15.1596 21.1523 14.7046C21.5226 12.7963 21.8337 10.778 22.0781 8.65688C22.3225 6.53578 22.4781 4.68624 22.5447 3.10826C23.6557 2.36697 25.1813 2 27.1366 2C28.7141 2 29.9732 2.41835 30.9138 3.24771C31.8544 4.07707 32.321 5.19266 32.321 6.58716C32.321 7.51927 31.8766 9.96331 30.9805 13.9193C30.5213 15.9963 30.0843 17.7725 29.6621 19.2477C29.24 20.7229 28.8993 19.7578 28.6327 22.3596C28.0772 23.5633 27.2477 24.4367 26.1442 24.9651C25.0406 25.4936 23.6334 25.7651 21.9226 25.7651C21.2338 25.7651 20.4413 25.6624 19.5452 25.4569C18.649 25.2514 17.9602 25.0239 17.4936 24.7743C17.2492 24.4073 16.9826 23.8422 16.6789 23.0936C16.3753 22.3376 16.1901 21.7725 16.1161 21.3908C15.6495 21.4055 15.4125 21.6551 15.4125 22.1468C15.4125 22.5285 15.5976 23.233 15.9753 24.2606C14.7089 25.2661 12.9091 25.7651 10.5688 25.7651H10.5762Z" fill="#5D5DF1"/>
</svg>
