<svg viewBox="0 0 32 32" fill="none" xmlns="http://www.w3.org/2000/svg">
<path d="M27 27L21.6919 21.6919M21.6919 21.6919C22.5999 20.784 23.3201 19.7061 23.8115 18.5198C24.3029 17.3335 24.5558 16.062 24.5558 14.7779C24.5558 13.4939 24.3029 12.2224 23.8115 11.0361C23.3202 9.84976 22.5999 8.77185 21.6919 7.86389C20.784 6.95592 19.7061 6.23569 18.5198 5.7443C17.3335 5.25291 16.062 5 14.7779 5C13.4939 5 12.2224 5.25291 11.0361 5.7443C9.84976 6.23569 8.77185 6.95592 7.86389 7.86389C6.03017 9.6976 5 12.1847 5 14.7779C5 17.3712 6.03017 19.8582 7.86389 21.6919C9.6976 23.5257 12.1847 24.5558 14.7779 24.5558C17.3712 24.5558 19.8582 23.5257 21.6919 21.6919Z" stroke="currentColor" stroke-width="2" stroke-linecap="round" stroke-linejoin="round"/>
</svg>
