<svg viewBox="0 0 32 32" fill="none" xmlns="http://www.w3.org/2000/svg">
<path fill-rule="evenodd" clip-rule="evenodd" d="M18.3808 4.6504C18.4852 4.8532 18.5116 5.1136 18.5632 5.6344C18.6616 6.6184 18.7108 7.1104 18.9172 7.3816C19.0458 7.54999 19.2167 7.68132 19.4125 7.76226C19.6083 7.8432 19.822 7.87085 20.032 7.8424C20.368 7.798 20.752 7.4848 21.5176 6.8584C21.922 6.526 22.1248 6.3604 22.342 6.2908C22.6186 6.2024 22.9179 6.21733 23.1844 6.3328C23.3944 6.424 23.5804 6.6088 23.9488 6.9784L25.0216 8.0512C25.3912 8.4208 25.576 8.6056 25.6672 8.8156C25.7827 9.08207 25.7976 9.38137 25.7092 9.658C25.6396 9.8752 25.474 10.078 25.1428 10.4824C24.5152 11.2492 24.202 11.632 24.1564 11.9692C24.1283 12.1791 24.1563 12.3926 24.2374 12.5882C24.3185 12.7838 24.45 12.9544 24.6184 13.0828C24.8884 13.2892 25.3816 13.3384 26.3668 13.4368C26.8864 13.4884 27.1468 13.5148 27.3508 13.6192C27.6081 13.7526 27.8085 13.9747 27.9148 14.2444C28 14.4568 28 14.7184 28 15.2416V16.7584C28 17.2816 28 17.5432 27.916 17.7544C27.8093 18.0249 27.6081 18.2475 27.3496 18.3808C27.1468 18.4852 26.8864 18.5116 26.3656 18.5632C25.3816 18.6616 24.8896 18.7108 24.6184 18.9172C24.45 19.0458 24.3187 19.2167 24.2377 19.4125C24.1568 19.6083 24.1292 19.822 24.1576 20.032C24.2032 20.368 24.5164 20.752 25.1428 21.5176C25.474 21.922 25.6396 22.1236 25.7092 22.342C25.7976 22.6186 25.7827 22.9179 25.6672 23.1844C25.576 23.3944 25.3912 23.5792 25.0216 23.9488L23.9488 25.0204C23.5792 25.3912 23.3944 25.576 23.1844 25.666C22.9179 25.7815 22.6186 25.7964 22.342 25.708C22.1248 25.6384 21.922 25.4728 21.5176 25.1416C20.7508 24.5152 20.368 24.202 20.032 24.1576C19.822 24.1292 19.6083 24.1568 19.4125 24.2377C19.2167 24.3187 19.0458 24.45 18.9172 24.6184C18.7108 24.8884 18.6616 25.3804 18.5632 26.3656C18.5116 26.8864 18.4852 27.1468 18.3808 27.3496C18.2478 27.6078 18.0257 27.8091 17.7556 27.916C17.5432 28 17.2816 28 16.7584 28H15.2416C14.7184 28 14.4568 28 14.2456 27.916C13.9751 27.8093 13.7525 27.6081 13.6192 27.3496C13.5148 27.1468 13.4884 26.8864 13.4368 26.3656C13.3384 25.3816 13.2892 24.8896 13.0828 24.6184C12.9543 24.4502 12.7836 24.319 12.588 24.2381C12.3925 24.1571 12.179 24.1294 11.9692 24.1576C11.632 24.202 11.2492 24.5152 10.4824 25.1416C10.078 25.474 9.8752 25.6396 9.658 25.7092C9.38137 25.7976 9.08207 25.7827 8.8156 25.6672C8.6056 25.576 8.4196 25.3912 8.0512 25.0216L6.9784 23.9488C6.6088 23.5792 6.424 23.3944 6.3328 23.1844C6.21733 22.9179 6.2024 22.6186 6.2908 22.342C6.3604 22.1248 6.526 21.922 6.8572 21.5176C7.4848 20.7508 7.798 20.368 7.8424 20.0308C7.87063 19.821 7.84287 19.6075 7.76194 19.412C7.68101 19.2164 7.54979 19.0457 7.3816 18.9172C7.1116 18.7108 6.6184 18.6616 5.6332 18.5632C5.1136 18.5116 4.8532 18.4852 4.6492 18.3808C4.39186 18.2474 4.19152 18.0253 4.0852 17.7556C4 17.5432 4 17.2816 4 16.7584V15.2416C4 14.7184 4 14.4568 4.084 14.2456C4.19066 13.9751 4.39194 13.7525 4.6504 13.6192C4.8532 13.5148 5.1136 13.4884 5.6344 13.4368C6.6184 13.3384 7.1116 13.2892 7.3816 13.0828C7.55001 12.9544 7.68146 12.7838 7.7626 12.5882C7.84375 12.3926 7.87169 12.1791 7.8436 11.9692C7.798 11.632 7.4836 11.2492 6.8572 10.4812C6.526 10.0768 6.3604 9.8752 6.2908 9.6568C6.2024 9.38017 6.21733 9.08087 6.3328 8.8144C6.424 8.6056 6.6088 8.4196 6.9784 8.05L8.0512 6.9784C8.4208 6.6088 8.6056 6.4228 8.8156 6.3328C9.08207 6.21733 9.38137 6.2024 9.658 6.2908C9.8752 6.3604 10.078 6.526 10.4824 6.8572C11.2492 7.4836 11.632 7.7968 11.968 7.8424C12.1783 7.87093 12.3923 7.84321 12.5884 7.76205C12.7844 7.68089 12.9554 7.5492 13.084 7.3804C13.288 7.1104 13.3384 6.6184 13.4368 5.6332C13.4884 5.1136 13.5148 4.8532 13.6192 4.6492C13.7524 4.39141 13.9745 4.19061 14.2444 4.084C14.4568 4 14.7184 4 15.2416 4H16.7584C17.2816 4 17.5432 4 17.7544 4.084C18.0249 4.19066 18.2475 4.39194 18.3808 4.6504ZM16 20.8C17.273 20.8 18.4939 20.2943 19.3941 19.3941C20.2943 18.4939 20.8 17.273 20.8 16C20.8 14.727 20.2943 13.5061 19.3941 12.6059C18.4939 11.7057 17.273 11.2 16 11.2C14.727 11.2 13.5061 11.7057 12.6059 12.6059C11.7057 13.5061 11.2 14.727 11.2 16C11.2 17.273 11.7057 18.4939 12.6059 19.3941C13.5061 20.2943 14.727 20.8 16 20.8Z" fill="currentColor"/>
</svg>
