<svg viewBox="0 0 32 32" fill="none" xmlns="http://www.w3.org/2000/svg">
<path d="M16 27.9999C22.6274 27.9999 28 22.6273 28 15.9999C28 9.37253 22.6274 3.99994 16 3.99994C9.37256 3.99994 4 9.37253 4 15.9999C4 22.6273 9.37256 27.9999 16 27.9999ZM21.3613 12.7304C21.7863 12.3777 22.4168 12.4364 22.7695 12.8612C23.1222 13.2862 23.0635 13.9167 22.6387 14.2694L15.4131 20.2694C15.0379 20.581 14.4921 20.5764 14.1221 20.2587L10.3486 17.0175C9.92969 16.6577 9.88147 16.0263 10.2412 15.6073C10.601 15.1885 11.2324 15.1404 11.6514 15.4999L14.7842 18.1903L21.3613 12.7304Z" fill="currentColor"/>
</svg>
