<svg width="32" height="32" viewBox="0 0 32 32" fill="none" xmlns="http://www.w3.org/2000/svg">
<path d="M26 8H6V25C6 27.2091 7.79086 29 10 29H22C24.2091 29 26 27.2091 26 25V8ZM20 15V22C20 22.5523 19.5523 23 19 23C18.4477 23 18 22.5523 18 22V15C18 14.4477 18.4477 14 19 14C19.5523 14 20 14.4477 20 15ZM14 15V22C14 22.5523 13.5523 23 13 23C12.4477 23 12 22.5523 12 22V15C12 14.4477 12.4477 14 13 14C13.5523 14 14 14.4477 14 15Z" fill="#4D4D4D"/>
<rect x="3" y="7" width="26" height="2" rx="1" fill="#4D4D4D"/>
<path d="M20 7V6C20 5.44772 19.5523 5 19 5H13C12.4477 5 12 5.44772 12 6V7C12 7.55228 11.5523 8 11 8C10.4477 8 10 7.55228 10 7V6C10 4.34315 11.3431 3 13 3H19C20.6569 3 22 4.34315 22 6V7C22 7.55228 21.5523 8 21 8C20.4477 8 20 7.55228 20 7Z" fill="#4D4D4D"/>
</svg>
