<svg width="200" height="203" viewBox="0 0 200 203" fill="none" xmlns="http://www.w3.org/2000/svg">
<path d="M37.5663 65.5805L36.1143 65.7316C34.7805 65.8704 33.8111 67.0696 33.9492 68.4102L40.227 129.364C40.3651 130.704 41.5583 131.679 42.8921 131.54L44.3441 131.389C45.6779 131.25 46.6473 130.051 46.5092 128.71L40.2314 67.7566C40.0933 66.416 38.9001 65.4417 37.5663 65.5805Z" fill="#CCCCCC"/>
<path d="M58.4262 106.676C58.4262 106.676 27.7889 89.7468 26.6264 117.479C25.4638 145.211 65.5538 143.311 65.5538 143.311L58.4262 106.679V106.676Z" fill="#D5D1FE"/>
<path d="M121.734 0.0996021C118.361 -0.720213 116.26 3.67001 118.982 5.83448C138.912 21.6676 151.788 46.7716 151.788 75.0361C151.788 122.938 114.797 161.772 69.1685 161.772C44.3553 161.772 22.0996 150.287 6.95251 132.109C4.62365 129.312 0.175559 131.898 1.41813 135.323C15.7267 174.82 53.4192 203.019 97.6676 203.004C154.307 202.981 200.4 156.286 199.993 99.3585C199.65 51.2154 166.401 10.9411 121.734 0.103433V0.0996021Z" fill="#FEE78F"/>
<path d="M126.067 74.0477C124.451 71.1553 121.73 68.8798 118.288 67.9221C115.239 67.0716 112.14 67.4011 109.48 68.6346C99.2608 58.6206 78.9376 45.7679 56.6247 70.8144C39.0001 90.4746 36.4578 146.62 75.5872 164.442C75.5872 164.442 136.134 192.737 165.296 134.247C180.874 103.006 158.435 68.7036 126.067 74.0515V74.0477Z" fill="#D5D1FE"/>
<path d="M108.695 122.562C111.393 123.535 112.88 126.294 112.011 128.719L109.396 136.043C108.531 138.472 105.638 139.648 102.939 138.675C100.241 137.702 98.7541 134.944 99.6232 132.519L102.238 125.194C103.103 122.765 105.996 121.589 108.695 122.562Z" fill="url(#paint0_linear_1790_28505)"/>
<path d="M76.0061 127.86L86.5412 126.968C86.8385 126.941 87.1168 127.048 87.3264 127.263L94.6903 134.89C95.4526 135.679 94.8504 137.3 93.7603 137.392L83.2252 138.284C82.9279 138.311 82.6496 138.204 82.44 137.989L75.076 130.362C74.3137 129.573 74.916 127.952 76.0061 127.86Z" fill="url(#paint1_linear_1790_28505)"/>
<path d="M74.8705 107.017C77.569 107.99 79.0555 110.748 78.1865 113.173L75.5718 120.497C74.7066 122.926 71.8136 124.102 69.115 123.129C66.4164 122.156 64.9299 119.398 65.799 116.973L68.4137 109.648C69.2789 107.22 72.1719 106.043 74.8705 107.017Z" fill="url(#paint2_linear_1790_28505)"/>
<path d="M132.85 147.333C132.85 147.333 156.607 168.656 121.503 179.612C110.586 183.022 103.116 182.639 98.0119 180.639C88.99 177.103 86.2761 165.564 92.5309 158.132C98.7361 150.762 112.305 145.923 132.85 147.333Z" fill="#D5D1FE"/>
<path d="M106.877 183.501C111.31 183.501 116.334 182.631 121.899 180.896C131.836 177.793 138.048 173.253 140.373 167.395C142.256 162.645 141.517 157.018 138.224 151.11C137.865 150.463 137.05 150.233 136.409 150.597C135.765 150.957 135.537 151.777 135.899 152.42C138.822 157.669 139.497 162.373 137.896 166.399C135.883 171.468 130.238 175.483 121.11 178.333C111.76 181.252 104.152 181.608 98.4996 179.39C94.6766 177.892 91.898 174.713 90.8765 170.671C89.8436 166.579 90.8422 162.216 93.5522 158.998C97.9775 153.742 103.455 150.459 118.369 149.229C119.105 149.168 119.65 148.521 119.589 147.785C119.528 147.046 118.888 146.502 118.152 146.559C104.347 147.697 97.1275 150.601 91.5169 157.27C88.2542 161.147 87.0497 166.403 88.2923 171.334C89.5272 176.226 92.8928 180.072 97.5315 181.892C100.272 182.968 103.397 183.504 106.881 183.504L106.877 183.501Z" fill="#A5A5FF"/>
<path d="M40.0731 79.6189L36.5244 79.9882C35.1906 80.1269 34.2213 81.3262 34.3594 82.6667L40.6372 143.62C40.7753 144.961 41.9684 145.935 43.3022 145.796L46.8509 145.427C48.1847 145.288 49.154 144.089 49.016 142.749L42.7381 81.795C42.6001 80.4544 41.4069 79.4802 40.0731 79.6189Z" fill="#7D7DFF"/>
<path d="M36.9753 130.469C40.2171 130.469 42.8451 124.147 42.8451 116.349C42.8451 108.55 40.2171 102.228 36.9753 102.228C33.7335 102.228 31.1055 108.55 31.1055 116.349C31.1055 124.147 33.7335 130.469 36.9753 130.469Z" fill="#D5D1FE"/>
<path d="M47.4847 74.879L37.1973 70.0291L28.4993 77.3768C25.8313 79.6293 21.8024 77.4266 22.2331 73.9519L23.6434 62.6201L14.0002 56.5749C11.0462 54.7207 11.8848 50.1888 15.3037 49.526L26.464 47.3731L29.2045 36.2902C30.043 32.8922 34.594 32.2946 36.2749 35.3593L41.7597 45.3618L53.0953 44.5535C56.5715 44.3045 58.542 48.4687 56.1598 51.0239L48.3919 59.36L52.657 69.9448C53.9644 73.1896 50.6331 76.3616 47.4809 74.8752L47.4847 74.879Z" fill="#FED229"/>
<path d="M61.5271 29.0728C62.4953 31.7084 64.5649 33.7848 67.1835 34.7579C67.7552 34.9724 67.7552 35.7845 67.1835 35.9991C64.5611 36.9721 62.4953 39.0523 61.5271 41.6841C61.3137 42.2588 60.5056 42.2588 60.2922 41.6841C59.324 39.0485 57.2544 36.9721 54.6358 35.9991C54.0641 35.7845 54.0641 34.9724 54.6358 34.7579C57.2582 33.7848 59.324 31.7046 60.2922 29.0728C60.5056 28.4981 61.3137 28.4981 61.5271 29.0728Z" fill="#FED229"/>
<path d="M7.32009 64.3938C8.28823 67.0294 10.3579 69.1058 12.9764 70.0788C13.5482 70.2934 13.5482 71.1055 12.9764 71.3201C10.3541 72.2931 8.28823 74.3733 7.32009 77.0051C7.10665 77.5798 6.2986 77.5798 6.08515 77.0051C5.11701 74.3695 3.04734 72.2931 0.4288 71.3201C-0.142933 71.1055 -0.142933 70.2934 0.4288 70.0788C3.05115 69.1058 5.11701 67.0256 6.08515 64.3938C6.2986 63.8191 7.10665 63.8191 7.32009 64.3938Z" fill="#D5D1FE"/>
<defs>
<linearGradient id="paint0_linear_1790_28505" x1="108.698" y1="122.564" x2="102.894" y2="138.66" gradientUnits="userSpaceOnUse">
<stop stop-color="#111111"/>
<stop offset="1" stop-color="#4040D2"/>
</linearGradient>
<linearGradient id="paint1_linear_1790_28505" x1="86.9536" y1="127.058" x2="82.7458" y2="138.246" gradientUnits="userSpaceOnUse">
<stop stop-color="#111111"/>
<stop offset="1" stop-color="#4040D2"/>
</linearGradient>
<linearGradient id="paint2_linear_1790_28505" x1="74.8699" y1="107.018" x2="69.0663" y2="123.114" gradientUnits="userSpaceOnUse">
<stop stop-color="#111111"/>
<stop offset="1" stop-color="#4040D2"/>
</linearGradient>
</defs>
</svg>
