<svg width="208" height="207" viewBox="0 0 208 207" fill="none" xmlns="http://www.w3.org/2000/svg">
<path d="M171.031 192.268L171.008 154.995L49.0729 141.242L40.9576 183.534C40.8371 183.922 40.7554 184.315 40.7321 184.718C40.1255 194.419 68.8069 204.096 104.787 206.332C140.767 208.568 170.428 202.52 171.031 192.82C171.043 192.637 171.039 192.455 171.031 192.272V192.268Z" fill="#54546E"/>
<path d="M109.401 145.341C95.2008 144.459 82.0266 144.886 71.3955 146.33C64.5868 145.88 48.1929 145.795 48.1929 145.795L46.0154 156.765C45.891 157.141 45.8132 157.522 45.7899 157.91C45.2221 167.001 72.7837 176.112 107.352 178.262C141.921 180.413 170.4 174.784 170.968 165.693C171.535 156.602 143.974 147.491 109.405 145.341H109.401Z" fill="#FF7CB7"/>
<path d="M197.667 141.33C198.851 123.362 160.754 106.252 112.573 103.114C64.392 99.9749 24.3732 111.996 23.1884 129.963C22.0035 147.931 60.1013 165.041 108.282 168.179C156.463 171.318 196.482 159.297 197.667 141.33Z" fill="#54546E"/>
<path d="M171.792 133.588C172.589 121.512 146.604 109.988 113.754 107.848C80.9046 105.708 53.6289 113.763 52.8326 125.839C52.0362 137.915 78.0207 149.439 110.871 151.579C143.72 153.719 170.996 145.664 171.792 133.588Z" fill="#35354F"/>
<path d="M133.902 61.0749C131.996 58.3033 129.022 56.2576 125.437 55.6054C122.26 55.0271 119.145 55.6443 116.555 57.131C105.255 47.966 83.4294 36.8602 63.0538 64.1842C46.9477 85.6468 49.5024 142.539 90.8875 156.929C90.8875 156.929 154.997 179.92 179.273 118.219C192.241 85.2625 166.301 52.7057 133.906 61.0749H133.902Z" fill="#D5D1FE"/>
<path d="M196.213 134.708C191.158 134.25 182.541 133.466 171.77 132.484C171.808 132.907 171.816 133.334 171.789 133.761C170.996 145.837 143.722 153.881 110.872 151.73C78.0222 149.58 52.0355 138.047 52.8288 125.97C52.926 124.488 53.4237 123.071 54.2792 121.72C43.4303 120.714 34.6074 119.888 29.1635 119.364C25.5394 122.616 23.4397 126.246 23.183 130.159C22.0009 148.128 60.1002 165.25 108.282 168.406C156.461 171.562 196.477 159.556 197.659 141.587C197.811 139.269 197.305 136.968 196.216 134.708H196.213Z" fill="#54546E"/>
<path d="M108.282 163.781C62.8961 160.807 26.461 145.439 23.3736 128.646C23.2841 129.132 23.2141 129.621 23.183 130.118C22.0009 148.087 60.1002 165.209 108.282 168.365C156.461 171.521 196.477 159.515 197.659 141.546C197.729 140.505 197.659 139.465 197.469 138.433C194.261 155.578 155.135 166.851 108.282 163.781Z" fill="#35354F"/>
<path d="M136.523 92.055C139.42 92.4703 141.465 94.9003 141.096 97.4895L139.976 105.296C139.606 107.881 136.958 109.643 134.061 109.232C131.164 108.817 129.119 106.387 129.488 103.797L130.608 95.9911C130.978 93.4058 133.626 91.6435 136.523 92.055Z" fill="url(#paint0_linear_1815_33329)"/>
<path d="M104.927 103.964L115.274 100.921C115.566 100.835 115.865 100.882 116.118 101.053L125.034 107.116C125.96 107.745 125.688 109.472 124.614 109.791L114.267 112.834C113.976 112.919 113.676 112.873 113.423 112.702L104.507 106.639C103.582 106.01 103.854 104.282 104.927 103.964Z" fill="url(#paint1_linear_1815_33329)"/>
<path d="M99.5422 83.5833C102.439 83.9986 104.484 86.4287 104.115 89.0178L102.995 96.8242C102.626 99.4094 99.9777 101.172 97.0808 100.76C94.1839 100.345 92.1385 97.9149 92.508 95.3258L93.6278 87.5195C93.9972 84.9342 96.6453 83.1718 99.5422 83.5833Z" fill="url(#paint2_linear_1815_33329)"/>
<path d="M43.0709 36.8754L41.5849 36.7778C40.2198 36.6881 39.0402 37.7153 38.95 39.072L34.8494 100.759C34.7592 102.115 35.7927 103.288 37.1577 103.377L38.6437 103.475C40.0087 103.565 41.1884 102.538 41.2786 101.181L45.3792 39.4942C45.4694 38.1375 44.4359 36.965 43.0709 36.8754Z" fill="#CCCCCC"/>
<path d="M68.9492 83.4021C68.9492 83.4021 29.1118 59.1835 23.2052 86.6784C17.2986 114.177 69.8591 121.211 69.8591 121.211L68.9492 83.3983V83.4021Z" fill="#D5D1FE"/>
<path d="M43.1932 51.268L39.5615 51.0295C38.1964 50.9399 37.0164 51.9718 36.9258 53.3345L32.8073 115.292C32.7167 116.654 33.7498 117.832 35.1149 117.921L38.7466 118.16C40.1117 118.249 41.2917 117.217 41.3823 115.855L45.5008 53.8976C45.5914 52.5349 44.5583 51.3576 43.1932 51.268Z" fill="#7D7DFF"/>
<path d="M39.5971 88.9072C40.9352 81.1187 39.3768 74.3562 36.1163 73.8029C32.8559 73.2495 29.1281 79.1148 27.79 86.9034C26.4519 94.692 28.0103 101.454 31.2707 102.008C34.5312 102.561 38.259 96.6958 39.5971 88.9072Z" fill="#D5D1FE"/>
<path d="M51.4644 48.0114L41.9493 41.4046L31.9482 47.2545C28.8802 49.0478 25.2055 46.1559 26.2321 42.7593L29.5879 31.6806L20.9243 23.9908C18.2685 21.6345 19.8861 17.248 23.4402 17.1743L35.0278 16.9336L39.6746 6.33239C41.0978 3.08331 45.7756 3.26576 46.946 6.61576L50.7567 17.5469L62.2938 18.6843C65.8285 19.0337 67.1039 23.5288 64.2731 25.6755L55.0379 32.6705L57.5188 43.9743C58.2809 47.4408 54.3886 50.0377 51.4722 48.0114H51.4644Z" fill="#FED229"/>
<path d="M72.737 0.5118C73.8925 3.64174 76.3628 6.10748 79.4882 7.26301C80.1706 7.51777 80.1706 8.48223 79.4882 8.73699C76.3583 9.89252 73.8925 12.3628 72.737 15.4882C72.4822 16.1706 71.5178 16.1706 71.263 15.4882C70.1075 12.3583 67.6372 9.89252 64.5118 8.73699C63.8294 8.48223 63.8294 7.51777 64.5118 7.26301C67.6417 6.10748 70.1075 3.63719 71.263 0.5118C71.5178 -0.1706 72.4822 -0.1706 72.737 0.5118Z" fill="#FED229"/>
<path d="M193.468 57.4367C194.455 60.1074 196.567 62.2113 199.238 63.1973C199.822 63.4147 199.822 64.2376 199.238 64.455C196.563 65.441 194.455 67.5488 193.468 70.2156C193.25 70.7979 192.426 70.7979 192.208 70.2156C191.22 67.5449 189.109 65.441 186.437 64.455C185.854 64.2376 185.854 63.4147 186.437 63.1973C189.113 62.2113 191.22 60.1035 192.208 57.4367C192.426 56.8544 193.25 56.8544 193.468 57.4367Z" fill="#FED229"/>
<path d="M7.46782 64.4367C8.4555 67.1074 10.5669 69.2113 13.2383 70.1973C13.8216 70.4147 13.8216 71.2376 13.2383 71.455C10.5631 72.441 8.4555 74.5488 7.46782 77.2156C7.25007 77.7979 6.42571 77.7979 6.20796 77.2156C5.22028 74.5449 3.10884 72.441 0.437454 71.455C-0.145818 71.2376 -0.145818 70.4147 0.437454 70.1973C3.11273 69.2113 5.22028 67.1035 6.20796 64.4367C6.42571 63.8544 7.25007 63.8544 7.46782 64.4367Z" fill="#D5D1FE"/>
<path d="M168.921 33.6397C170.366 37.5522 173.454 40.6344 177.36 42.0788C178.213 42.3972 178.213 43.6028 177.36 43.9212C173.448 45.3656 170.366 48.4535 168.921 52.3603C168.603 53.2133 167.397 53.2133 167.079 52.3603C165.634 48.4478 162.546 45.3656 158.64 43.9212C157.787 43.6028 157.787 42.3972 158.64 42.0788C162.552 40.6344 165.634 37.5465 167.079 33.6397C167.397 32.7868 168.603 32.7868 168.921 33.6397Z" fill="#D5D1FE"/>
<path d="M176.68 111.622C184.807 111.793 212.691 120.911 206.66 137.541C204.124 144.295 190.904 152.917 157.855 135.911" fill="#D5D1FE"/>
<defs>
<linearGradient id="paint0_linear_1815_33329" x1="136.552" y1="92.0529" x2="134.099" y2="109.227" gradientUnits="userSpaceOnUse">
<stop stop-color="#111111"/>
<stop offset="1" stop-color="#4040D2"/>
</linearGradient>
<linearGradient id="paint1_linear_1815_33329" x1="115.708" y1="100.911" x2="113.83" y2="112.885" gradientUnits="userSpaceOnUse">
<stop stop-color="#111111"/>
<stop offset="1" stop-color="#4040D2"/>
</linearGradient>
<linearGradient id="paint2_linear_1815_33329" x1="99.573" y1="83.583" x2="97.1207" y2="100.757" gradientUnits="userSpaceOnUse">
<stop stop-color="#111111"/>
<stop offset="1" stop-color="#4040D2"/>
</linearGradient>
</defs>
</svg>
