<svg width="233" height="203" viewBox="0 0 233 203" fill="none" xmlns="http://www.w3.org/2000/svg">
<path d="M87.5303 141.081C87.5303 141.081 114.947 157.592 82.3297 174.919C72.1849 180.31 64.7401 181.329 59.3288 180.317C49.7661 178.528 44.9407 167.698 49.7355 159.228C54.4881 150.827 66.9881 143.537 87.5303 141.081Z" fill="#D5D1FE"/>
<path d="M32.5792 178.156L32.4585 179.618C32.3477 180.962 33.3463 182.14 34.689 182.251L95.7404 187.294C97.0832 187.405 98.2615 186.406 98.3724 185.062L98.4931 183.6C98.604 182.257 97.6053 181.078 96.2626 180.967L35.2112 175.925C33.8685 175.814 32.6901 176.813 32.5792 178.156Z" fill="#CCCCCC"/>
<path d="M46.8394 178.269L46.5445 181.843C46.4336 183.186 47.4322 184.365 48.775 184.476L109.826 189.518C111.169 189.629 112.347 188.63 112.458 187.287L112.753 183.713C112.864 182.37 111.866 181.192 110.523 181.081L49.4714 176.038C48.1287 175.927 46.9503 176.926 46.8394 178.269Z" fill="#7D7DFF"/>
<path d="M43.5478 170.062L36.8765 179.329L42.487 189.278C44.2065 192.327 41.2959 195.901 37.9603 194.836L27.0879 191.354L19.3635 199.763C16.9968 202.341 12.6961 200.675 12.6808 197.173L12.631 185.753L2.24877 181.003C-0.933672 179.547 -0.680914 174.942 2.64323 173.847L13.485 170.273L14.7909 158.925C15.193 155.447 19.6469 154.267 21.7187 157.09L28.4704 166.3L39.6607 164.036C43.092 163.342 45.5928 167.219 43.5478 170.058V170.062Z" fill="#FED229"/>
<path d="M154.369 0.0996174C150.979 -0.720198 148.869 3.67003 151.604 5.83449C171.629 21.6676 184.565 46.7716 184.565 75.0361C184.565 122.938 147.399 161.772 101.554 161.772C76.6227 161.772 54.2614 150.287 39.0423 132.109C36.7024 129.312 32.2332 131.898 33.4816 135.323C47.8582 174.82 85.7296 203.019 130.188 203.004C187.097 202.981 233.409 156.286 232.999 99.3585C232.654 51.2155 199.248 10.9411 154.369 0.103448V0.0996174Z" fill="#FEE78F"/>
<path d="M145.642 76.423C143.559 73.8409 140.483 72.0519 136.914 71.6841C133.751 71.3585 130.737 72.2013 128.309 73.8601C116.518 65.6964 94.2404 56.4294 76.31 84.8586C62.1249 107.197 68.957 162.982 110.693 174.004C110.693 174.004 175.391 191.764 194.539 129.205C204.768 95.792 176.823 65.727 145.646 76.423H145.642Z" fill="#D5D1FE"/>
<path d="M102.639 141.273L112.929 138.625C113.22 138.553 113.515 138.606 113.757 138.786L122.324 145.073C123.212 145.724 122.883 147.421 121.818 147.693L111.528 150.34C111.237 150.413 110.942 150.36 110.701 150.179L102.134 143.893C101.245 143.242 101.575 141.545 102.639 141.273Z" fill="url(#paint0_linear_1792_28560)"/>
<path d="M161.925 144.23C161.925 144.23 189.341 160.741 156.724 178.068C146.579 183.459 139.135 184.478 133.723 183.466C124.161 181.677 119.335 170.847 124.13 162.377C128.883 153.976 141.383 146.686 161.925 144.23Z" fill="#D5D1FE"/>
<path d="M143.012 184.623C147.389 183.796 152.184 182.003 157.358 179.256C166.591 174.352 171.88 168.729 173.086 162.538C174.063 157.519 172.282 152.125 167.939 146.938C167.464 146.371 166.618 146.295 166.051 146.774C165.484 147.249 165.408 148.095 165.886 148.662C169.75 153.271 171.286 157.768 170.459 162.025C169.417 167.38 164.584 172.379 156.101 176.885C147.416 181.501 139.971 183.271 133.974 182.148C129.922 181.39 126.586 178.789 124.829 175.007C123.048 171.18 123.224 166.706 125.3 163.04C128.689 157.048 133.487 152.8 147.983 148.804C148.695 148.609 149.116 147.869 148.917 147.157C148.722 146.444 147.986 146.027 147.27 146.222C133.855 149.923 127.268 154.121 122.967 161.722C120.467 166.139 120.256 171.533 122.4 176.141C124.53 180.716 128.566 183.868 133.484 184.788C136.39 185.332 139.573 185.274 143.016 184.623H143.012Z" fill="#A5A5FF"/>
<path d="M97.4904 135.676C97.0423 135.676 96.5789 135.626 96.1117 135.511C92.4659 134.63 91.5238 131.059 91.5353 129.293C91.5391 128.661 92.0523 128.152 92.6842 128.152H92.6918C93.3237 128.156 93.8331 128.673 93.8331 129.305C93.8331 129.45 93.8828 132.611 96.6517 133.277C99.0529 133.856 101.443 131.684 101.469 131.661C101.933 131.232 102.66 131.259 103.093 131.722C103.522 132.186 103.499 132.91 103.036 133.343C102.921 133.45 100.5 135.672 97.4942 135.676H97.4904Z" fill="url(#paint1_linear_1792_28560)"/>
<path d="M131.448 143.023C130.782 143.023 130.088 142.935 129.38 142.724C125.167 141.46 124.022 136.848 123.972 136.652C123.827 136.036 124.206 135.415 124.823 135.266C125.439 135.12 126.056 135.496 126.205 136.112C126.217 136.166 127.113 139.644 130.035 140.522C133.037 141.426 135.955 139.051 135.986 139.024C136.476 138.622 137.2 138.687 137.602 139.177C138.008 139.667 137.939 140.391 137.449 140.794C137.319 140.901 134.711 143.019 131.444 143.019L131.448 143.023Z" fill="url(#paint2_linear_1792_28560)"/>
<path d="M41.8765 114.138C41.6544 114.138 41.4323 114.073 41.2408 113.947C40.854 113.69 40.6625 113.223 40.7506 112.767L42.6271 103.285L37.1737 106.936C36.6452 107.289 35.9329 107.147 35.5805 106.622C35.2282 106.093 35.3699 105.381 35.8946 105.028L43.6534 99.8336C44.0402 99.5769 44.5419 99.5731 44.9287 99.8336C45.3155 100.09 45.507 100.558 45.4189 101.014L43.5424 110.495L48.5439 107.143C49.0724 106.791 49.7847 106.932 50.1371 107.457C50.4894 107.986 50.3477 108.698 49.823 109.051L42.516 113.943C42.3246 114.073 42.0986 114.138 41.8765 114.138Z" fill="#A5A5FF"/>
<path d="M52.7858 125.01C52.3913 125.01 52.0199 124.807 51.8092 124.466C51.5641 124.072 51.5833 123.57 51.8514 123.191L57.4886 115.337L51.0165 116.391C50.3923 116.49 49.7987 116.069 49.6991 115.441C49.5957 114.816 50.0208 114.222 50.6488 114.123L59.8553 112.621C60.3111 112.545 60.7706 112.755 61.0157 113.15C61.2608 113.544 61.2417 114.046 60.9736 114.426L55.3363 122.279L61.2723 121.31C61.8965 121.21 62.4901 121.631 62.5897 122.26C62.6893 122.888 62.268 123.478 61.6399 123.578L52.9696 124.991C52.9083 125.003 52.8471 125.007 52.7858 125.007V125.01Z" fill="#A5A5FF"/>
<path d="M46.9961 96.5045C46.7817 96.5045 46.5672 96.4432 46.3796 96.3244C45.9889 96.0754 45.786 95.6119 45.8664 95.156L48.1718 82.0275L40.547 87.3754C40.0262 87.7394 39.31 87.613 38.9462 87.0958C38.5824 86.5748 38.7088 85.8584 39.2258 85.4945L49.1216 78.5528C49.5007 78.2847 50.0062 78.2732 50.3969 78.5222C50.7875 78.7712 50.9905 79.2348 50.91 79.6906L48.6046 92.8192L55.655 87.8735C56.1758 87.5095 56.892 87.6359 57.2558 88.1531C57.6196 88.6741 57.4932 89.3905 56.9762 89.7544L47.6548 96.29C47.4557 96.4279 47.2259 96.4968 46.9961 96.4968V96.5045Z" fill="#A5A5FF"/>
<defs>
<linearGradient id="paint0_linear_1792_28560" x1="113.357" y1="138.641" x2="111.089" y2="150.385" gradientUnits="userSpaceOnUse">
<stop stop-color="#111111"/>
<stop offset="1" stop-color="#4040D2"/>
</linearGradient>
<linearGradient id="paint1_linear_1792_28560" x1="97.1189" y1="135.436" x2="98.1677" y2="128.756" gradientUnits="userSpaceOnUse">
<stop stop-color="#111111"/>
<stop offset="1" stop-color="#4040D2"/>
</linearGradient>
<linearGradient id="paint2_linear_1792_28560" x1="130.185" y1="142.665" x2="131.24" y2="135.948" gradientUnits="userSpaceOnUse">
<stop stop-color="#111111"/>
<stop offset="1" stop-color="#4040D2"/>
</linearGradient>
</defs>
</svg>
