<svg width="48" height="48" viewBox="0 0 48 48" fill="none" xmlns="http://www.w3.org/2000/svg">
<g clip-path="url(#clip0_1519_29755)">
<path d="M0 24C0 10.7452 10.7452 0 24 0V0C37.2548 0 48 10.7452 48 24V24C48 37.2548 37.2548 48 24 48V48C10.7452 48 0 37.2548 0 24V24Z" fill="#5D5DF1"/>
<path d="M61.9381 25.8247C61.9381 45.8038 44.9388 62 23.9691 62C2.99933 62 -14 45.8038 -14 25.8247C-14 13.7713 -5.83496 4 4.23711 4C9.88291 4 14.9295 7.07018 18.2747 11.8915C19.5863 10.1835 21.6491 9.08247 23.9691 9.08247C26.289 9.08247 28.3518 10.1835 29.6634 11.8915C33.0086 7.07018 38.0552 4 43.701 4C53.7731 4 61.9381 13.7713 61.9381 25.8247Z" fill="url(#paint0_linear_1519_29755)"/>
<rect x="15.25" y="20.4329" width="3.58763" height="6.57732" rx="1.79381" fill="url(#paint1_linear_1519_29755)"/>
<rect x="28.4043" y="20.4326" width="3.8866" height="6.57732" rx="1.9433" fill="url(#paint2_linear_1519_29755)"/>
<path d="M18.5165 27.6716L23.8027 25.895C23.9517 25.8449 24.1169 25.8449 24.2659 25.895L29.5521 27.6716C30.1001 27.8558 30.1001 28.5303 29.5521 28.7145L24.2659 30.491C24.1169 30.5411 23.9517 30.5411 23.8027 30.491L18.5165 28.7145C17.9685 28.5303 17.9685 27.8558 18.5165 27.6716Z" fill="url(#paint3_linear_1519_29755)"/>
</g>
<defs>
<linearGradient id="paint0_linear_1519_29755" x1="23.9691" y1="4" x2="23.9691" y2="62" gradientUnits="userSpaceOnUse">
<stop stop-color="#DDDDFF"/>
<stop offset="1" stop-color="#FAFAFC"/>
</linearGradient>
<linearGradient id="paint1_linear_1519_29755" x1="17.0438" y1="20.4329" x2="17.0438" y2="27.0102" gradientUnits="userSpaceOnUse">
<stop stop-color="#111111"/>
<stop offset="1" stop-color="#4040D2"/>
</linearGradient>
<linearGradient id="paint2_linear_1519_29755" x1="30.3476" y1="20.4326" x2="30.3476" y2="27.0099" gradientUnits="userSpaceOnUse">
<stop stop-color="#111111"/>
<stop offset="1" stop-color="#4040D2"/>
</linearGradient>
<linearGradient id="paint3_linear_1519_29755" x1="24.0343" y1="25.8574" x2="24.0343" y2="30.5286" gradientUnits="userSpaceOnUse">
<stop stop-color="#111111"/>
<stop offset="1" stop-color="#4040D2"/>
</linearGradient>
<clipPath id="clip0_1519_29755">
<path d="M0 24C0 10.7452 10.7452 0 24 0V0C37.2548 0 48 10.7452 48 24V24C48 37.2548 37.2548 48 24 48V48C10.7452 48 0 37.2548 0 24V24Z" fill="white"/>
</clipPath>
</defs>
</svg>
