<svg width="175" height="140" viewBox="0 0 175 140" fill="none" xmlns="http://www.w3.org/2000/svg">
<g clip-path="url(#clip0_2695_41442)">
<path d="M57.3001 8.12963C59.7626 5.84309 63.1094 4.50341 66.7413 4.65226C69.96 4.78458 72.8565 6.07463 75.0505 8.09241C88.0616 1.62973 111.741 -4.4112 125.566 26.7197C136.524 51.1935 121.534 106.133 78.0915 111.086C78.0915 111.086 10.6475 119.438 0.586428 53.9142C-4.78497 18.9173 27.6128 -7.14844 57.3001 8.12963Z" fill="#D5D1FE"/>
<path d="M66.9189 44.9864C64.0018 45.0443 61.6797 47.2068 61.7293 49.8158L61.8822 57.6967C61.9318 60.3099 64.3365 62.3773 67.2536 62.3236C70.1706 62.2657 72.4927 60.1032 72.4432 57.4941L72.2903 49.6132C72.2407 47 69.836 44.9326 66.9189 44.9864Z" fill="url(#paint0_linear_2695_41442)"/>
<path d="M100.11 61.7658L90.2433 57.4822C89.9665 57.3622 89.6607 57.3705 89.3922 57.5111L79.8269 62.4356C78.8353 62.9483 78.8931 64.6932 79.9178 65.1398L89.7847 69.4234C90.0615 69.5433 90.3673 69.5351 90.6358 69.3945L100.201 64.4699C101.193 63.9572 101.135 62.2124 100.11 61.7658Z" fill="url(#paint1_linear_2695_41442)"/>
<path d="M103.788 41.0751C101.292 41.1247 99.3087 43.2789 99.3624 45.8921L99.5153 53.773C99.5649 56.3862 101.631 58.4619 104.126 58.4123C106.622 58.3627 108.605 56.2084 108.552 53.5952L108.399 45.7143C108.349 43.1011 106.283 41.0255 103.788 41.0751Z" fill="url(#paint2_linear_2695_41442)"/>
<path d="M149.122 38.2304C147.329 37.1761 146.379 35.0218 146.937 32.9131C149.399 23.6057 155.089 22.6175 159.241 21.898C160.303 21.7119 161.307 21.5383 162.336 21.2447C164.84 20.5253 165.464 16.5435 165.468 16.5021L165.48 16.4111C165.658 14.6828 165.29 10.6679 158.423 9.66316C155.808 9.27862 153.87 9.59286 152.659 10.5976C151.035 11.9414 150.804 14.414 150.804 14.4388C150.692 17.0644 148.474 19.0988 145.854 18.9871C143.23 18.8755 141.198 16.6551 141.309 14.0336C141.338 13.3555 141.731 7.30632 146.598 3.2749C148.916 1.35635 153.085 -0.723449 159.799 0.256497C168.472 1.52588 172.166 6.16512 173.736 9.83268C175.322 13.5333 175.012 16.866 174.901 17.6805C174.434 21.5011 171.819 28.4227 164.956 30.3909C163.439 30.825 162.076 31.0648 160.869 31.2716C159.469 31.5155 158.258 31.7264 157.696 32.1192C157.13 32.5162 156.572 33.6656 156.126 35.3526C155.452 37.8914 152.853 39.4047 150.316 38.7308C149.887 38.6191 149.49 38.4496 149.127 38.2346L149.122 38.2304Z" fill="#B8E5FF"/>
<path d="M148.986 50.7014C151.615 50.7014 153.746 48.5688 153.746 45.9381C153.746 43.3074 151.615 41.1748 148.986 41.1748C146.358 41.1748 144.227 43.3074 144.227 45.9381C144.227 48.5688 146.358 50.7014 148.986 50.7014Z" fill="#B8E5FF"/>
<path d="M33.0466 108.343L54.4339 133.216C56.2501 135.326 59.0717 136.274 61.792 135.682C73.0093 133.236 102.827 127 117.32 126.548C119.131 126.491 120.838 125.651 121.933 124.211C125.06 120.09 135.208 111.368 167.16 104.635C169.761 104.088 170.676 100.836 168.727 99.0215L150.397 81.8998C147.195 78.9064 142.485 78.1795 138.532 80.0675L93.5405 101.534C93.1197 101.737 92.6584 101.843 92.1897 101.852L35.471 102.921C32.693 102.972 31.234 106.238 33.0466 108.343Z" fill="#36B6FF"/>
<path d="M36.7402 100.449L60.1784 126.918C61.7528 128.697 64.1678 129.48 66.4852 128.964C76.0402 126.827 101.518 121.393 114.817 121.099C116.123 121.07 117.365 120.486 118.183 119.47C120.927 116.059 130.187 107.979 158.99 101.716C161.998 101.064 163.042 97.3048 160.805 95.1904L143.742 79.0444C142.794 78.1512 141.631 77.5196 140.365 77.2285C132.94 75.5133 106.867 71.3725 95.6044 94.3116C95.6044 94.3116 68.8297 86.1236 36.7396 100.453L36.7402 100.449Z" fill="white"/>
<path d="M118.182 119.468C120.926 116.057 130.186 107.978 158.988 101.716C161.058 101.266 162.199 99.3483 161.977 97.5059C161.51 97.0562 160.868 96.7861 160.172 96.809C123.663 98.0946 116.695 111.137 115.366 116.095C115.077 117.177 114.048 117.883 112.934 117.789C91.0354 115.94 73.596 122.323 66.7049 125.373C64.7433 126.24 62.4484 125.762 60.9873 124.187L38.3327 99.7598C37.8045 99.9858 37.2757 100.216 36.7457 100.454L60.1831 126.92C61.7575 128.698 64.1725 129.481 66.4898 128.965C76.0445 126.828 101.521 121.395 114.82 121.101C116.126 121.072 117.368 120.488 118.186 119.472L118.182 119.468Z" fill="#D7F0FF"/>
<path d="M70.1163 110.763C69.7744 110.761 69.4386 110.597 69.2268 110.291C68.8795 109.792 68.9962 109.107 69.4955 108.76C69.9119 108.468 79.8524 101.67 97.7785 104.265C98.38 104.35 98.7982 104.91 98.7134 105.516C98.6291 106.117 98.0658 106.534 97.4643 106.449C80.467 103.985 70.8583 110.5 70.7609 110.57C70.5666 110.706 70.3407 110.77 70.1157 110.767L70.1163 110.763Z" fill="#D7F0FF"/>
<path d="M111.658 109.332C111.466 109.33 111.269 109.278 111.096 109.17C110.578 108.85 110.418 108.172 110.733 107.653C110.847 107.465 113.645 102.981 120.014 98.6826C125.853 94.7439 135.94 90.2359 150.844 91.1194C151.452 91.1551 151.917 91.6798 151.879 92.2837C151.844 92.8923 151.336 93.355 150.716 93.3175C136.487 92.4708 126.894 96.7272 121.345 100.444C115.33 104.475 112.638 108.765 112.612 108.807C112.401 109.149 112.033 109.335 111.658 109.328L111.658 109.332Z" fill="#D7F0FF"/>
<path d="M107.168 104.045C107.018 104.045 106.864 104.011 106.719 103.944C106.167 103.687 105.924 103.035 106.181 102.483C110.668 92.7605 124.565 83.8229 145.49 85.777C146.096 85.8332 146.542 86.372 146.486 86.9777C146.431 87.5834 145.892 88.0333 145.287 87.973C122.594 85.8531 111.288 96.6795 108.184 103.408C107.997 103.816 107.588 104.054 107.168 104.049L107.168 104.045Z" fill="#D7F0FF"/>
<path d="M101.759 99.1701C101.684 99.1679 101.61 99.1616 101.537 99.143C100.942 99.0132 100.565 98.4258 100.695 97.8304C102.381 90.1088 117.813 76.9091 140.089 80.2516C140.69 80.3406 141.107 80.9045 141.015 81.505C140.926 82.1061 140.36 82.5187 139.763 82.4303C127.69 80.6146 118.836 83.8818 113.533 86.9445C107.082 90.6633 103.471 95.4381 102.845 98.3007C102.73 98.8188 102.267 99.1751 101.755 99.1654L101.759 99.1701Z" fill="#D7F0FF"/>
<path d="M64.234 119.001C63.8092 118.996 63.4024 118.742 63.2277 118.321C62.9936 117.758 63.2589 117.115 63.8215 116.882C86.7405 107.366 103.028 110.13 103.707 110.255C104.306 110.361 104.706 110.934 104.601 111.533C104.496 112.132 103.923 112.531 103.324 112.425C103.157 112.398 86.9438 109.669 64.6715 118.917C64.5296 118.976 64.3801 119.001 64.234 119.001Z" fill="#D7F0FF"/>
<path opacity="0.5" d="M129.407 53.0272C131.365 41.4078 123.884 30.4586 112.698 28.5714C101.512 26.6841 90.8576 34.5735 88.9 46.1928C86.9424 57.8121 94.4233 68.7614 105.609 70.6486C116.795 72.5359 127.449 64.6465 129.407 53.0272Z" fill="white"/>
<path d="M124.41 69.4521C135.921 59.4417 138.123 43.1217 129.335 33.0039C120.546 22.8819 104.089 22.7909 92.578 32.8013C81.0667 42.8116 78.8644 59.1316 87.6528 69.2495C96.4413 79.3714 112.898 79.4624 124.41 69.4521ZM93.9374 63.7874C87.7975 56.7169 89.3386 45.3173 97.3792 38.3253C105.42 31.3334 116.915 31.3954 123.054 38.4659C129.194 45.5364 127.653 56.9361 119.613 63.928C111.572 70.9199 100.077 70.8579 93.9374 63.7833V63.7874Z" fill="#5D5DF1"/>
<path d="M85.3184 62.6318L90.7986 71.5741L74.1208 81.8095C71.9476 83.1433 69.1043 82.4582 67.7737 80.287L67.1213 79.2225C65.7885 77.0477 66.4731 74.2024 68.6428 72.8708L85.3205 62.6354L85.3184 62.6318Z" fill="#5D5DF1"/>
<path d="M22.154 80.5542C22.154 80.5542 7.73389 117.023 52.3578 109.634C66.2366 107.335 74.24 102.795 78.7561 97.7838C86.7347 88.9313 83.3838 74.7944 72.4261 70.1138C61.5552 65.4704 43.9743 67.666 22.154 80.5542Z" fill="#D5D1FE"/>
<path d="M70.5789 105.814C65.7034 108.262 59.7039 110.085 52.6302 111.255C39.9992 113.348 30.6695 111.805 24.8973 106.678C20.2159 102.518 17.9434 95.9442 18.3194 87.6622C18.3607 86.7566 19.1293 86.0537 20.0341 86.0951C20.939 86.1364 21.6414 86.9055 21.6001 87.811C21.2654 95.1751 23.1082 100.695 27.0789 104.222C32.0743 108.659 40.4909 109.936 52.0931 108.014C63.9763 106.045 72.5374 102.233 77.5411 96.6843C80.9251 92.9299 82.2349 87.9185 81.1358 82.9278C80.0243 77.8751 76.5288 73.6494 71.7854 71.6233C64.0341 68.3113 56.2084 67.7407 39.1274 74.6334C38.2845 74.9725 37.33 74.5673 36.9912 73.7238C36.6524 72.8844 37.0573 71.9293 37.9002 71.5861C53.7086 65.2102 63.2408 64.3998 73.0746 68.6008C78.793 71.0444 83.0034 76.1344 84.3421 82.2208C85.6726 88.2576 84.0818 94.3316 79.9789 98.884C77.5535 101.576 74.4133 103.887 70.5789 105.814Z" fill="#A5A5FF"/>
</g>
<defs>
<linearGradient id="paint0_linear_2695_41442" x1="66.9175" y1="44.9841" x2="67.2546" y2="62.3222" gradientUnits="userSpaceOnUse">
<stop stop-color="#111111"/>
<stop offset="1" stop-color="#4040D2"/>
</linearGradient>
<linearGradient id="paint1_linear_2695_41442" x1="89.8152" y1="57.4854" x2="90.2158" y2="69.5894" gradientUnits="userSpaceOnUse">
<stop stop-color="#111111"/>
<stop offset="1" stop-color="#4040D2"/>
</linearGradient>
<linearGradient id="paint2_linear_2695_41442" x1="103.804" y1="41.0745" x2="104.142" y2="58.4126" gradientUnits="userSpaceOnUse">
<stop stop-color="#111111"/>
<stop offset="1" stop-color="#4040D2"/>
</linearGradient>
<clipPath id="clip0_2695_41442">
<rect width="175" height="140" fill="white"/>
</clipPath>
</defs>
</svg>
