<svg width="253" height="129" viewBox="0 0 253 129" fill="none" xmlns="http://www.w3.org/2000/svg">
<path d="M27.2413 67.2364C36.6265 67.2364 44.2346 65.0824 44.2346 62.4253C44.2346 59.7682 36.6265 57.6143 27.2413 57.6143C17.8562 57.6143 10.248 59.7682 10.248 62.4253C10.248 65.0824 17.8562 67.2364 27.2413 67.2364Z" fill="#36B6FF"/>
<path d="M27.9581 56.5093C20.1093 56.4844 8.42345 58.8134 9.40689 63.2967L13.9214 89.3751C14.8767 95.1165 39.7344 95.4131 40.8428 89.1347L45.1075 62.5536C45.8006 59.135 35.7507 56.4781 27.9612 56.5031L27.9581 56.5093ZM27.2431 66.631C19.0384 66.631 12.3884 64.7484 12.3884 62.4256C12.3884 60.1028 19.0384 58.2202 27.2431 58.2202C35.4479 58.2202 42.0978 60.1028 42.0978 62.4256C42.0978 64.7484 35.4479 66.631 27.2431 66.631Z" fill="#B8E5FF"/>
<path d="M71.0134 81.3236C71.0134 81.3236 43.0648 55.8727 59.2402 20.5468C65.7808 8.21784 85.8431 -8.98773 112.999 5.56098C112.999 5.56098 117.22 -0.149235 125.19 0.565713C133.161 1.28066 135.715 6.39456 135.715 6.39456C135.715 6.39456 155.518 -3.35869 173.357 14.9583C191.197 33.2753 179.898 65.5042 179.839 65.6852C179.779 65.8663 128.696 85.607 128.696 85.607L78.8622 88.8196L71.0134 81.3267V81.3236Z" fill="#D6D6FF"/>
<path d="M5.64251 86.4818L167.699 72.4669C178.963 71.4179 190.318 72.929 200.914 76.8846L248.591 94.6865C255.247 97.1716 254.079 106.925 247.023 107.768L81.0024 128.667C72.1702 129.722 63.2161 128.258 55.18 124.443L3.55386 98.28C-2.15324 95.5732 -0.64529 87.0656 5.64251 86.4818Z" fill="#D7F0FF"/>
<path d="M248.63 98.9197L85.2131 119.653C74.8822 120.964 66.1561 119.129 56.6963 114.773L4.33023 90.1312C3.04395 89.5255 1.65464 89.6067 0.518216 90.178C-0.680649 93.0035 0.159181 96.6687 3.55597 98.2797L55.179 124.446C63.2151 128.261 72.1692 129.725 81.0014 128.67L247.022 107.771C251.459 107.24 253.563 103.191 252.867 99.6378C251.606 99.0071 250.148 98.7262 248.63 98.9197Z" fill="#B8E5FF"/>
<path d="M143.882 36.7305C146.595 36.7305 148.796 38.7005 148.796 41.1263V48.4537C148.796 50.8827 146.595 52.8496 143.882 52.8496C141.169 52.8496 138.968 50.8796 138.968 48.4537V41.1263C138.968 38.6974 141.169 36.7305 143.882 36.7305Z" fill="url(#paint0_linear_1886_15711)"/>
<path d="M117.901 55.5914L126.736 51.1769C126.986 51.052 127.267 51.0395 127.529 51.1363L136.761 54.6486C137.719 55.0139 137.794 56.5187 136.876 56.9745L128.041 61.3891C127.791 61.514 127.51 61.5264 127.248 61.4297L118.016 57.9174C117.058 57.5521 116.983 56.0473 117.901 55.5914Z" fill="url(#paint1_linear_1886_15711)"/>
<path d="M108.418 38.8271C111.131 38.8271 113.332 40.7972 113.332 43.223V50.5504C113.332 52.9794 111.131 54.9462 108.418 54.9462C105.705 54.9462 103.504 52.9762 103.504 50.5504V43.223C103.504 40.794 105.705 38.8271 108.418 38.8271Z" fill="url(#paint2_linear_1886_15711)"/>
<path d="M100.861 85.6053L135.297 102.077C136.987 102.839 138.866 103.079 140.692 102.764L196.159 93.2231C198.235 92.8672 199.833 91.1907 200.089 89.0958L200.529 85.4836L158.585 79.2988L106.016 82.5489L100.861 85.6022V85.6053Z" fill="#5D5DF1"/>
<path d="M138.23 97.9126L102.648 81.5999L108.003 76.4048L148.836 71.2129L142.095 95.8708L138.23 97.9126Z" fill="#A5A5FF"/>
<path d="M138.135 92.115L117.611 83.4951C117.352 83.3858 117.402 83.008 117.68 82.9674L149.097 78.5373C149.309 78.506 149.471 78.7183 149.39 78.915L143.992 92.0963C143.948 92.1993 143.849 92.268 143.736 92.268H138.888C138.628 92.268 138.372 92.2149 138.135 92.115Z" fill="#5D5DF1"/>
<path d="M124.096 88.0281L149.718 84.2441L149.184 85.6959L127.258 88.8179L124.096 88.0281Z" fill="#A5A5FF"/>
<path d="M136.712 95.0223L146.147 55.1788C146.618 53.1807 148.267 51.6759 150.296 51.3855L205.875 43.2339C207.788 42.9685 209.062 43.2526 210.892 44.6544C210.892 44.6544 211.744 45.2382 212.262 46.2092C212.643 46.921 212.706 47.7577 212.484 48.532L202.119 84.8944C201.682 86.5116 200.345 87.7292 198.691 88.0102L139.547 98.0507C137.792 98.3472 136.3 96.7581 136.709 95.0254L136.712 95.0223Z" fill="#A5A5FF"/>
<path d="M212.262 46.2087C212.233 46.1557 212.202 46.1026 212.171 46.0495C211.447 45.5562 210.538 45.3127 209.564 45.4501L152.78 53.6017C150.732 53.8952 149.071 55.4125 148.931 58.2473L140.267 96.2207C140.089 96.9513 140.579 97.6319 141.26 97.7567L198.69 88.0097C200.342 87.7288 201.681 86.5143 202.118 84.8939L212.483 48.5315C212.705 47.7573 212.642 46.9174 212.262 46.2087Z" fill="#7D7DFF"/>
<path d="M181.678 73.8009C183.22 71.3429 182.848 68.3316 180.845 67.0751C178.843 65.8185 175.969 66.7925 174.427 69.2505C172.884 71.7086 173.257 74.7198 175.259 75.9764C177.262 77.2329 180.135 76.2589 181.678 73.8009Z" fill="#DDDDFF"/>
<path d="M85.2796 58.8447C92.3573 58.8447 116.797 65.6227 111.854 78.9444C109.772 84.3549 98.4235 91.4326 69.3447 78.4699" fill="#D6D6FF"/>
<path d="M97.1165 86.7576C90.6601 86.7576 81.5844 84.9531 68.9682 79.3272C68.4967 79.118 68.2844 78.5623 68.4936 78.0908C68.7028 77.6194 69.2585 77.4071 69.73 77.6163C90.6289 86.9325 101.185 85.2497 105.618 83.417C108.278 82.3181 110.232 80.5666 110.985 78.6122C112.043 75.7618 111.703 73.1455 109.948 70.6198C104.978 63.4703 90.4073 59.7863 85.2871 59.7863C84.7688 59.7863 84.3505 59.368 84.3505 58.8497C84.3505 58.3314 84.7688 57.9131 85.2871 57.9131C90.273 57.9131 105.883 61.4909 111.487 69.5521C113.592 72.5773 114.01 75.8492 112.739 79.2772C112.187 80.7165 110.622 83.3765 106.336 85.1498C104.132 86.0614 101.131 86.7607 97.1165 86.7607V86.7576Z" fill="url(#paint3_linear_1886_15711)"/>
<path d="M72.8956 99.2922L102.699 94.8183C104.216 94.5904 105.768 94.8183 107.157 95.474L128.905 105.752C130.257 106.389 129.995 108.384 128.527 108.655L98.6306 114.181C96.6544 114.547 94.6125 114.209 92.858 113.229L72.4366 101.809C71.3127 101.181 71.6218 99.4858 72.8956 99.2953V99.2922Z" fill="#80D1FF"/>
<path d="M98.6305 114.181L128.527 108.655C129.564 108.464 129.995 107.415 129.685 106.588C129.454 106.416 129.155 106.335 128.846 106.394L99.6046 112.011C97.1381 112.451 94.5937 112.033 92.3989 110.821L73.6479 99.8881C72.9485 99.4791 72.0525 99.7913 71.7497 100.541C71.7153 101.024 71.9276 101.524 72.4365 101.808L92.8578 113.229C94.6124 114.209 96.6542 114.546 98.6305 114.181Z" fill="#36B6FF"/>
<path d="M29.1631 45.591C29.1809 45.5317 29.2016 45.4695 29.2253 45.3955C29.2016 45.4666 29.1809 45.5317 29.1631 45.591Z" fill="#5D5DF1"/>
<path d="M29.1279 45.7259C29.1339 45.7021 29.1428 45.6782 29.1518 45.6514C29.1428 45.6782 29.1369 45.7021 29.1279 45.7259Z" fill="#5D5DF1"/>
<path d="M35.7217 39.5029C36.2493 42.1411 36.343 45.6814 36.3586 46.5463C36.343 45.6908 36.2524 42.1473 35.7217 39.5029Z" fill="#5D5DF1"/>
<path d="M29.2383 45.38C29.6036 44.2186 30.5339 41.4243 31.6173 39.2764C30.5308 41.4275 29.6036 44.2217 29.2383 45.38Z" fill="#5D5DF1"/>
<path d="M35.7225 39.4984C35.3822 37.7969 34.8608 36.4669 34.0616 36.4826C33.2717 36.4982 32.4131 37.6939 31.6357 39.23C31.6795 39.1457 31.7232 39.0614 31.7669 38.9771C32.4319 39.4391 33.7244 40.0011 35.7256 39.4984H35.7225Z" fill="#7D7DFF"/>
<path d="M36.359 46.7523C34.6794 47.2425 31.6229 47.742 29.0503 46.0374L29.0659 45.9219L26.0938 68.5598L33.2682 71.6506L36.359 46.7398V46.7492V46.7523Z" fill="#7D7DFF"/>
<path d="M29.0654 45.9161C29.0654 45.9161 29.0684 45.9014 29.0772 45.8779C29.0713 45.9014 29.0654 45.9161 29.0654 45.9161Z" fill="#5D5DF1"/>
<path d="M29.1484 45.6469C29.1484 45.6469 29.1573 45.6173 29.1632 45.6025C29.1573 45.6173 29.1544 45.6321 29.1484 45.6469Z" fill="#5D5DF1"/>
<path d="M29.1162 45.7657C29.1162 45.7657 29.125 45.7393 29.1279 45.7275C29.1221 45.7422 29.1191 45.7539 29.1162 45.7657Z" fill="#5D5DF1"/>
<path d="M29.0771 45.8759C29.0771 45.8759 29.083 45.8584 29.0859 45.8467C29.083 45.8584 29.0801 45.8671 29.0771 45.8759Z" fill="#5D5DF1"/>
<path d="M29.2295 45.3952C29.2295 45.3952 29.2325 45.3831 29.2355 45.374C29.2355 45.3801 29.2325 45.3861 29.2295 45.3952Z" fill="#5D5DF1"/>
<path d="M31.6162 39.2715C31.6162 39.2715 31.6309 39.2451 31.6367 39.2334C31.6309 39.2451 31.6221 39.2598 31.6162 39.2715Z" fill="#5D5DF1"/>
<path d="M35.3979 78.6836L29.2881 76.8572L38.982 44.4442C39.672 42.4804 45.7069 44.2225 45.0919 46.2706L35.3979 78.6836Z" fill="#FEC6E6"/>
<path d="M30.6842 68.793C30.6842 68.793 29.4354 61.478 25.1551 54.7001C20.8748 47.9221 14.2123 46.255 10.7031 46.8513C10.7031 46.8513 7.75904 53.982 16.8473 63.5604C24.0218 71.122 28.1054 71.3718 28.1054 71.3718L30.6811 68.7961L30.6842 68.793Z" fill="#8ADFDE"/>
<path d="M31.7638 38.9795C30.2902 41.7737 29.0664 45.9198 29.0664 45.9198L29.0508 46.0353C31.6233 47.7399 34.6798 47.2404 36.3595 46.7503V46.7409C36.3595 46.7409 36.3283 42.5261 35.7226 39.5009C33.7214 40.0035 32.4288 39.4416 31.7638 38.9795Z" fill="#FDE2FE"/>
<path d="M42.0979 62.4256C42.0979 64.7484 35.448 66.631 27.2432 66.631C19.0385 66.631 12.3886 64.7484 12.3886 62.4256C12.3886 62.0728 12.5447 61.7294 12.835 61.4016H9.78164C9.40075 61.9823 9.25714 62.616 9.407 63.2998L13.9215 89.3782C14.8768 95.1196 39.7346 95.4162 40.8429 89.1378L45.1076 62.5567C45.1888 62.1602 45.117 61.7731 44.9296 61.3984H41.6577C41.9481 61.7263 42.1042 62.0697 42.1042 62.4225L42.0979 62.4256Z" fill="#B8E5FF"/>
<path d="M33.785 95.7801L32.6705 82.0306C32.4301 79.0584 34.6093 76.4422 37.5752 76.1425L74.9586 72.3617C77.9745 72.0557 80.6469 73.7447 80.8655 76.7669L81.9613 92.477C82.1237 94.7092 80.4846 96.6699 78.2586 96.9072L40.0666 100.978C36.8852 101.319 34.0473 98.9677 33.7882 95.777L33.785 95.7801Z" fill="#7D7DFF"/>
<path d="M81.96 92.4863L80.8642 76.7762C80.7987 75.8614 80.5052 75.0747 80.0494 74.4222C79.4062 74.1662 78.6944 74.0538 77.9545 74.1318L39.5158 78.1967C37.524 78.4059 36.0629 80.1636 36.2127 82.1586L37.4272 98.6617C37.4896 99.5015 37.7925 100.26 38.2577 100.891C38.8352 101.016 39.4409 101.053 40.0622 100.988L78.2542 96.9165C80.4802 96.6792 82.1193 94.7186 81.9569 92.4863H81.96Z" fill="#4040D2"/>
<path d="M46.0792 85.3334C46.0698 85.1398 46.0886 84.94 46.2166 84.7964C46.5662 84.4061 46.9784 84.3718 47.481 84.2906C47.865 84.2344 48.1522 84.2157 48.5394 84.1751C49.1451 84.1095 49.91 84.0502 50.5437 84.0065C51.062 83.9753 51.6364 84.0939 51.727 84.684C51.8425 85.3646 51.3367 86.0077 50.9715 86.4636C50.6405 86.8913 50.1535 87.4408 49.8225 87.8685C51.1962 87.8997 52.5075 88.4336 52.6917 90.0851C52.8759 91.7367 51.6708 93.1354 49.8257 93.3383C49.0264 93.4257 47.915 93.2883 47.2531 92.7482C46.7973 92.3923 46.4695 91.5681 47.1407 91.2465C47.6371 91.0093 48.1117 91.284 48.5487 91.4713C49.2231 91.7898 49.9599 91.8241 50.5843 91.3496C51.3086 90.8001 51.0745 89.8728 50.3346 89.5481C49.6352 89.2328 48.6799 89.5731 48.0836 89.0392C47.4279 88.4336 48.555 87.4064 48.9078 86.9131C49.1388 86.6259 49.5135 86.142 49.5509 85.8766C49.6227 85.5831 49.0389 85.7361 48.8329 85.7611L47.968 85.8579C47.5029 85.9078 46.7255 86.0733 46.3009 85.7798C46.1729 85.6893 46.1073 85.5519 46.0823 85.3334H46.0792Z" fill="#DDDDFF"/>
<path d="M55.3507 86.6596C54.898 86.7096 54.4984 86.388 54.4485 85.9353C54.3985 85.4826 54.7201 85.0705 55.1697 85.0206C55.6192 84.9706 56.0251 85.3047 56.0719 85.7574C56.1188 86.2101 55.8003 86.6097 55.3476 86.6596H55.3507ZM55.8784 91.4332C55.4257 91.4832 55.0261 91.1616 54.9761 90.7089C54.9261 90.2562 55.2477 89.8441 55.6973 89.7942C56.1469 89.7442 56.5527 90.0783 56.5996 90.531C56.6464 90.9837 56.3279 91.3833 55.8753 91.4332H55.8784Z" fill="#DDDDFF"/>
<path d="M58.2337 85.5079C58.2212 84.9334 58.6021 84.1217 59.0017 83.7127C59.7416 82.9509 61.0872 82.5045 62.13 82.7136C63.5443 82.9884 64.4466 83.8282 64.6089 85.2987C64.7619 86.6911 64.3685 87.4935 62.948 88.9421C62.7138 89.1888 62.4547 89.4541 62.2081 89.7039C62.0426 89.8662 61.1278 90.4376 61.7522 90.4188C62.13 90.4032 62.2799 90.3595 62.6545 90.3189C63.0916 90.2721 63.5287 90.1816 63.9564 90.1753C64.3061 90.1628 64.815 90.0161 65.1084 90.219C65.405 90.422 65.4925 91.1026 65.2895 91.3742C65.0991 91.6552 64.7276 91.6177 64.431 91.652L59.801 92.1641C59.6324 92.1828 59.417 92.2452 59.2577 92.2109C58.9393 92.1672 58.9986 91.8737 58.9705 91.6146C58.8737 90.7373 59.7541 90.066 60.3161 89.4822C60.722 89.0326 61.2215 88.5862 61.643 88.1335C62.7451 86.994 63.1197 86.3789 63.0323 85.5922C62.9355 84.7274 62.2767 84.2934 61.4619 84.3808C60.8687 84.4464 60.3317 84.7804 60.0507 85.3081C59.9664 85.5016 59.9009 85.7295 59.8041 85.9106C59.3889 86.7661 58.2587 86.3415 58.2337 85.511V85.5079Z" fill="#DDDDFF"/>
<path d="M67.7471 82.0496L70.9348 81.6968C71.3999 81.6469 72.0993 81.4783 72.3272 82.0121C72.4677 82.3493 72.4052 82.9581 71.9463 83.0611C71.5155 83.186 71.0034 83.1642 70.5539 83.2141C70.0637 83.2672 69.7328 83.3577 69.2582 83.4077C69.0771 83.4264 68.7119 83.4295 68.562 83.4982C68.2841 83.595 68.3403 83.979 68.3622 84.1851C68.3934 84.4817 68.3903 84.7814 68.409 85.0811C68.4153 85.4838 68.5558 85.4557 68.9054 85.3152C69.2051 85.2029 69.5236 85.131 69.8483 85.0936C71.5904 84.9 73.0609 85.6805 73.27 87.5881C73.2888 87.7567 73.3044 87.9097 73.2825 88.0689C73.2607 89.1678 72.6488 90.1232 71.656 90.5977C70.4945 91.1972 69.1021 91.3502 67.9282 90.7601C67.5973 90.6134 67.2851 90.3605 67.1321 90.0389C66.951 89.6924 66.9417 89.249 67.3069 89.0149C67.8564 88.6683 68.3029 89.1803 68.7837 89.3739C69.1927 89.5238 69.6454 89.6174 70.123 89.5643C71.1814 89.4488 71.8214 88.7495 71.7153 87.7941C71.6091 86.8388 70.8161 86.3923 69.6953 86.5172C69.3987 86.5484 69.1052 86.6078 68.8305 86.7295C68.2904 86.92 67.8096 87.2853 67.2851 86.7951C67.0416 86.5859 67.0478 86.1957 67.0416 85.8959C67.0135 85.3902 66.9822 84.8969 66.9542 84.3911C66.9385 83.8978 66.9104 83.3921 66.8823 82.8988C66.8636 82.6147 66.9229 82.4367 67.026 82.3087C67.1633 82.137 67.4193 82.0839 67.7534 82.0465L67.7471 82.0496Z" fill="#DDDDFF"/>
<path d="M237.592 91.5807C235.169 91.5807 233.181 91.0281 233.037 90.9844L233.98 87.6813C235.335 88.0622 239.341 88.7147 241.545 87.1693C242.578 86.445 243.14 85.2836 243.262 83.6195C243.399 81.7463 242.996 80.3695 242.069 79.5234C240.499 78.0904 237.548 78.2122 236.543 78.3807L235.959 74.9965C236.172 74.959 241.22 74.1223 244.367 76.9696C246.125 78.5618 246.908 80.8846 246.69 83.8693C246.49 86.5948 245.419 88.6554 243.508 89.9885C241.735 91.228 239.528 91.5776 237.598 91.5776L237.592 91.5807Z" fill="#BEBEFF"/>
<path d="M228.817 97.576H219.66C215.03 97.576 211.274 93.8233 211.274 89.1902L211.471 74.3824C211.471 67.0081 237.4 67.6825 237.4 74.3824L237.203 89.1902C237.203 93.8202 233.45 97.576 228.817 97.576Z" fill="url(#paint4_linear_1886_15711)"/>
<path d="M224.341 76.6878C229.695 76.6878 234.035 75.3739 234.035 73.7531C234.035 72.1323 229.695 70.8184 224.341 70.8184C218.988 70.8184 214.647 72.1323 214.647 73.7531C214.647 75.3739 218.988 76.6878 224.341 76.6878Z" fill="#9E80D9"/>
<path d="M227.965 51.8262C227.965 51.8262 213.968 56.8214 222.885 62.4317C230.262 67.0805 225.895 68.9287 222.214 73.0373C222.214 73.0373 235.701 67.9578 233.194 62.8876C231.449 59.3597 222.251 59.4002 227.961 51.8262H227.965Z" fill="#DDDDFF"/>
<defs>
<linearGradient id="paint0_linear_1886_15711" x1="143.882" y1="36.7305" x2="143.882" y2="52.8496" gradientUnits="userSpaceOnUse">
<stop stop-color="#111111"/>
<stop offset="1" stop-color="#4040D2"/>
</linearGradient>
<linearGradient id="paint1_linear_1886_15711" x1="127.389" y1="51.0723" x2="127.389" y2="61.4937" gradientUnits="userSpaceOnUse">
<stop stop-color="#111111"/>
<stop offset="1" stop-color="#4040D2"/>
</linearGradient>
<linearGradient id="paint2_linear_1886_15711" x1="108.418" y1="38.8271" x2="108.418" y2="54.9462" gradientUnits="userSpaceOnUse">
<stop stop-color="#111111"/>
<stop offset="1" stop-color="#4040D2"/>
</linearGradient>
<linearGradient id="paint3_linear_1886_15711" x1="90.9347" y1="57.9131" x2="90.9347" y2="86.7607" gradientUnits="userSpaceOnUse">
<stop stop-color="#BEBEFF"/>
<stop offset="1" stop-color="#A5A5FF"/>
</linearGradient>
<linearGradient id="paint4_linear_1886_15711" x1="224.337" y1="69.1016" x2="224.337" y2="97.576" gradientUnits="userSpaceOnUse">
<stop stop-color="#DDDDFF"/>
<stop offset="1" stop-color="white"/>
</linearGradient>
</defs>
</svg>
