<svg width="253" height="154" viewBox="0 0 253 154" fill="none" xmlns="http://www.w3.org/2000/svg">
<path d="M126.5 153.769C196.364 153.769 253 142.691 253 129.026C253 115.361 196.364 104.284 126.5 104.284C56.636 104.284 0 115.361 0 129.026C0 142.691 56.636 153.769 126.5 153.769Z" fill="#D7F0FF"/>
<path d="M43.3462 87.5405C53.6372 87.5405 61.9796 85.182 61.9796 82.2727C61.9796 79.3634 53.6372 77.0049 43.3462 77.0049C33.0553 77.0049 24.7129 79.3634 24.7129 82.2727C24.7129 85.182 33.0553 87.5405 43.3462 87.5405Z" fill="#B66BC7"/>
<path d="M44.1301 75.7946C35.5238 75.7673 22.7101 78.3174 23.7885 83.2263L28.7387 111.781C29.7862 118.067 57.043 118.392 58.2583 111.517L62.9346 82.4127C63.6946 78.6695 52.6748 75.7604 44.1335 75.7878L44.1301 75.7946ZM43.3461 86.8772C34.3496 86.8772 27.0578 84.8159 27.0578 82.2726C27.0578 79.7292 34.3496 77.6679 43.3461 77.6679C52.3427 77.6679 59.6345 79.7292 59.6345 82.2726C59.6345 84.8159 52.3427 86.8772 43.3461 86.8772Z" fill="#FFB9D9"/>
<path d="M48.6575 92.3829C48.6575 92.3829 52.5527 84.0931 52.9996 74.2039C53.4465 64.3147 47.8754 57.9287 43.9032 56.0557C43.9032 56.0557 35.8932 61.2007 38.3397 77.3178C40.2738 90.0397 44.2345 93.1729 44.2345 93.1729L48.6614 92.379L48.6575 92.3829Z" fill="#AEE0DF"/>
<path d="M45.2816 89.0417C45.1412 88.9426 45.0522 88.7785 45.0625 88.5939C45.3775 82.468 44.6996 73.3613 44.6928 73.2724C44.6722 72.9887 44.8845 72.7426 45.1652 72.7221C45.4459 72.7016 45.6958 72.9135 45.7164 73.1938C45.7232 73.2861 46.4045 82.4544 46.0861 88.6451C46.0724 88.9289 45.8293 89.1442 45.5452 89.1306C45.4459 89.1237 45.3535 89.093 45.2782 89.0383L45.2816 89.0417Z" fill="#58C7C5"/>
<path d="M45.4241 89.2461C45.4241 89.2461 44.0548 81.2367 39.3614 73.8152C34.6679 66.3938 27.3625 64.5684 23.5146 65.2213C23.5146 65.2213 20.2864 73.029 30.2518 83.5168C38.1187 91.7962 42.5964 92.0697 42.5964 92.0697L45.4207 89.2495L45.4241 89.2461Z" fill="#58C7C5"/>
<path d="M44.866 92.8761C44.6948 92.8761 44.5271 92.7907 44.4312 92.6334C41.1824 87.4271 35.4175 80.3407 35.3593 80.2723C35.1813 80.0536 35.2121 79.7288 35.4346 79.551C35.6537 79.3733 35.9789 79.404 36.157 79.6262C36.2152 79.698 42.0212 86.8323 45.3042 92.0933C45.4548 92.3326 45.3795 92.6505 45.1399 92.8009C45.0543 92.8522 44.9618 92.8795 44.8694 92.8795L44.866 92.8761Z" fill="#24ACAB"/>
<path d="M59.6346 82.2721C59.6346 84.8154 52.3429 86.8768 43.3463 86.8768C34.3497 86.8768 27.0579 84.8154 27.0579 82.2721C27.0579 81.8858 27.2291 81.5098 27.5475 81.1509H24.1994C23.7818 81.7867 23.6243 82.4807 23.7886 83.2293L28.7388 111.783C29.7863 118.07 57.0431 118.395 58.2584 111.52L62.9347 82.4157C63.0237 81.9816 62.945 81.5577 62.7396 81.1475H59.1519C59.4703 81.5064 59.6415 81.8824 59.6415 82.2687L59.6346 82.2721Z" fill="#FFB9D9"/>
<path d="M200.028 88.1216C200.028 88.1216 238.38 93.5595 229.984 114.313C221.588 135.067 178.596 118.563 178.596 118.563L200.028 88.1216Z" fill="#FF7CB7"/>
<path d="M202.285 98.7183C202.285 98.7183 206.421 100.97 205.417 102.561C205.417 102.561 208.582 102.561 208.612 105.187C208.612 105.187 208.569 102.768 211.182 102.437C211.182 102.437 206.042 102.624 208.832 99.9686C208.832 99.9686 207.151 101.626 202.285 98.7183Z" fill="#EB5597"/>
<path d="M230.801 108.439C229.202 107.563 228.044 109.627 228.044 109.627C213.63 127.506 188.188 115.127 188.188 115.127L184.236 120.457C196.179 124.103 223.478 130.404 229.989 114.317C230.791 112.331 231.163 110.49 231.186 108.777C231.074 108.636 230.949 108.521 230.801 108.442V108.439Z" fill="#EB5597"/>
<path opacity="0.5" d="M126.5 149.851C60.0081 149.851 5.50134 139.818 0.390263 127.067C0.133511 127.713 0 128.366 0 129.026C0 142.693 56.6361 153.772 126.5 153.772C196.364 153.772 253 142.693 253 129.03C253 128.37 252.866 127.717 252.606 127.067C247.495 139.815 192.988 149.851 126.497 149.851H126.5Z" fill="#80D1FF"/>
<path d="M166.693 33.1767C164.677 30.8385 161.695 29.1908 158.23 28.7943C155.16 28.4422 152.236 29.1361 149.874 30.565C138.447 23.0786 116.845 14.4026 99.3897 39.347C85.5833 58.9449 92.1151 108.704 132.596 119.311C132.596 119.311 195.353 136.355 214.048 81.0758C224.034 51.5508 196.969 24.2648 166.693 33.1801V33.1767Z" fill="#D4D4FF"/>
<path d="M170.36 119.089L132.6 137.125C130.748 137.959 128.687 138.222 126.684 137.877L65.865 127.43C63.5884 127.04 61.8357 125.204 61.555 122.911L61.0723 118.956L107.065 112.184L164.708 115.742L170.36 119.085V119.089Z" fill="#5D5DF1"/>
<path d="M129.391 132.568L168.407 114.707L162.536 109.018L117.762 103.333L125.153 130.332L129.391 132.568Z" fill="#A5A5FF"/>
<path d="M129.495 126.216L152.001 116.778C152.285 116.658 152.23 116.245 151.925 116.2L117.476 111.35C117.243 111.315 117.065 111.548 117.154 111.763L123.073 126.196C123.121 126.309 123.231 126.384 123.354 126.384H128.67C128.955 126.384 129.235 126.326 129.495 126.216Z" fill="#5D5DF1"/>
<path d="M144.89 121.742L116.795 117.599L117.38 119.188L141.423 122.607L144.89 121.742Z" fill="#A5A5FF"/>
<path d="M131.053 129.399L120.708 85.7729C120.191 83.5851 118.383 81.9375 116.158 81.6195L55.2154 72.694C53.1169 72.4034 51.7202 72.7145 49.7141 74.2494C49.7141 74.2494 48.7795 74.8886 48.2113 75.9518C47.7936 76.7312 47.7251 77.6473 47.9682 78.4951L59.3337 118.31C59.813 120.08 61.2782 121.414 63.0926 121.721L127.945 132.715C129.869 133.04 131.505 131.3 131.057 129.402L131.053 129.399Z" fill="#A5A5FF"/>
<path d="M48.2113 75.9518C48.2421 75.8937 48.2763 75.8356 48.3105 75.7775C49.1047 75.2374 50.1009 74.9707 51.169 75.1212L113.433 84.0467C115.679 84.368 117.5 86.0294 117.654 89.1333L127.154 130.712C127.349 131.512 126.812 132.257 126.065 132.394L63.0926 121.721C61.2816 121.414 59.813 120.084 59.3337 118.31L47.9682 78.4952C47.7251 77.6474 47.7936 76.7278 48.2113 75.9518Z" fill="#7D7DFF"/>
<path d="M88.7841 108.545C90.9797 107.169 91.3884 103.872 89.697 101.181C88.0057 98.4894 84.8547 97.423 82.6591 98.7989C80.4635 100.175 80.0547 103.472 81.7461 106.163C83.4375 108.855 86.5885 109.921 88.7841 108.545Z" fill="#DDDDFF"/>
<path d="M148.71 84.2518L140.61 78.9053C140.381 78.7549 140.11 78.7139 139.847 78.7925L130.532 81.5239C129.566 81.8076 129.334 83.3425 130.176 83.8963L138.275 89.2427C138.505 89.3931 138.775 89.4341 139.039 89.3555L148.354 86.6242C149.319 86.3404 149.552 84.8056 148.71 84.2518Z" fill="url(#paint0_linear_2385_40491)"/>
<path d="M125.436 60.9633C126.002 60.934 126.485 61.3686 126.515 61.9341C126.544 62.4997 126.109 62.9823 125.543 63.0117C123.492 63.1182 121.762 63.8711 120.578 65.1355C119.401 66.3925 118.679 68.2447 118.802 70.7186C118.899 72.661 119.667 74.151 120.816 75.1141C121.968 76.0801 123.586 76.5843 125.504 76.3944H125.505C128.146 76.1348 130.685 74.2578 130.543 71.1061L130.535 70.9552C130.417 69.3093 129.626 68.2368 128.656 67.5698C127.65 66.8775 126.46 66.6322 125.656 66.6982C124.1 66.826 122.469 68.1408 122.64 70.4565L122.65 70.5677V70.568C122.743 71.5251 123.15 71.9594 123.596 72.2028C124.112 72.4845 124.801 72.5672 125.46 72.5443L125.549 72.5359C125.77 72.5035 126.075 72.3808 126.328 72.1514C126.593 71.9108 126.754 71.5981 126.733 71.1989L126.733 71.1976C126.717 70.8797 126.64 70.7183 126.588 70.6404C126.536 70.5634 126.469 70.5112 126.382 70.4718C126.287 70.429 126.171 70.4044 126.055 70.3967C125.933 70.3886 125.861 70.4024 125.88 70.3984C125.325 70.5159 124.78 70.1622 124.663 69.6082C124.545 69.0542 124.899 68.5097 125.454 68.3921C125.776 68.3239 126.508 68.2788 127.227 68.6024C127.608 68.7741 127.995 69.0552 128.291 69.4941C128.586 69.9319 128.753 70.4688 128.784 71.0921L128.788 71.1953C128.812 72.2551 128.335 73.1008 127.71 73.6683C127.089 74.2323 126.276 74.5676 125.533 74.594H125.532C124.719 74.6223 123.598 74.5411 122.611 74.0025C121.554 73.4254 120.763 72.3829 120.605 70.7663L120.591 70.5957C120.332 67.0376 122.945 64.8626 125.487 64.6538C126.764 64.5489 128.426 64.9206 129.822 65.881C131.255 66.8668 132.417 68.4831 132.583 70.8094L132.596 71.0297C132.8 75.618 129.023 78.1089 125.707 78.4351L125.707 78.4354C123.311 78.6727 121.124 78.0505 119.495 76.6851C117.863 75.3169 116.873 73.2704 116.751 70.8204C116.604 67.8762 117.466 65.4553 119.078 63.7348C120.682 62.0218 122.944 61.0927 125.436 60.9633Z" fill="#000D77"/>
<path d="M160.227 66.6996C160.793 66.6703 161.276 67.1049 161.306 67.6704C161.335 68.236 160.9 68.7186 160.334 68.748C158.283 68.8545 156.553 69.6074 155.369 70.8719C154.192 72.1288 153.47 73.981 153.593 76.4549C153.69 78.3973 154.458 79.8873 155.607 80.8504C156.759 81.8165 158.377 82.3206 160.295 82.1307H160.296C162.937 81.8711 165.476 79.9941 165.334 76.8425L165.326 76.6916C165.208 75.0456 164.417 73.9732 163.447 73.3062C162.441 72.6138 161.251 72.3685 160.447 72.4345C158.891 72.5623 157.26 73.8771 157.431 76.1928L157.441 76.304V76.3043C157.534 77.2615 157.941 77.6957 158.387 77.9391C158.903 78.2208 159.592 78.3035 160.251 78.2806L160.34 78.2723C160.561 78.2399 160.866 78.1171 161.119 77.8877C161.384 77.6471 161.545 77.3345 161.524 76.9353L161.524 76.9339C161.508 76.616 161.431 76.4546 161.379 76.3768C161.327 76.2997 161.26 76.2475 161.173 76.2082C161.078 76.1654 160.962 76.1408 160.846 76.1331C160.724 76.1249 160.652 76.1387 160.671 76.1347C160.116 76.2522 159.571 75.8985 159.454 75.3446C159.336 74.7905 159.69 74.246 160.245 74.1284C160.567 74.0603 161.299 74.0152 162.018 74.3387C162.399 74.5104 162.786 74.7915 163.082 75.2304C163.377 75.6682 163.544 76.2052 163.575 76.8284L163.579 76.9316C163.603 77.9916 163.126 78.8374 162.501 79.4049C161.88 79.969 161.067 80.304 160.324 80.3303H160.323C159.51 80.3586 158.389 80.2774 157.402 79.7388C156.345 79.1618 155.554 78.1192 155.396 76.5026L155.382 76.332C155.123 72.774 157.736 70.599 160.278 70.3902C161.555 70.2853 163.217 70.6569 164.613 71.6173C166.046 72.6031 167.208 74.2195 167.374 76.5457L167.387 76.766C167.591 81.3543 163.814 83.8452 160.498 84.1714L160.498 84.1717C158.102 84.4091 155.915 83.7868 154.286 82.4215C152.654 81.0532 151.664 79.0068 151.542 76.5567C151.395 73.6125 152.258 71.1916 153.869 69.4711C155.473 67.7582 157.735 66.829 160.227 66.6996Z" fill="#000D77"/>
<path d="M189.88 96.7667C189.88 96.7667 211.218 115.794 179.689 125.57C169.884 128.613 163.174 128.271 158.59 126.487C150.487 123.331 148.05 113.035 153.668 106.403C159.241 99.8262 171.428 95.5087 189.88 96.7667Z" fill="#D4D4FF"/>
<path d="M166.553 129.04C170.534 129.04 175.046 128.264 180.044 126.715C188.969 123.946 194.549 119.896 196.637 114.669C198.329 110.43 197.664 105.408 194.707 100.137C194.385 99.5594 193.652 99.3543 193.077 99.679C192.499 100 192.293 100.732 192.618 101.306C195.244 105.989 195.85 110.187 194.412 113.78C192.605 118.303 187.535 121.885 179.336 124.428C170.938 127.033 164.105 127.351 159.028 125.372C155.595 124.035 153.099 121.198 152.182 117.592C151.254 113.941 152.151 110.047 154.585 107.176C158.559 102.486 163.479 99.5559 176.874 98.4586C177.535 98.4039 178.025 97.8262 177.97 97.1699C177.915 96.5101 177.34 96.0247 176.679 96.076C164.28 97.0913 157.796 99.6824 152.757 105.634C149.826 109.093 148.745 113.783 149.861 118.183C150.97 122.548 153.993 125.98 158.159 127.604C160.62 128.565 163.427 129.043 166.556 129.043L166.553 129.04Z" fill="#A5A5FF"/>
<path d="M14.1531 121.843C16.5004 121.843 18.4273 121.307 18.5664 121.265L17.6529 118.065C16.3401 118.434 12.4592 119.066 10.3237 117.569C9.32242 116.867 8.77795 115.742 8.65998 114.129C8.52688 112.314 8.91709 110.981 9.81548 110.161C11.337 108.772 14.1955 108.89 15.1695 109.054L15.7351 105.775C15.5294 105.738 10.6382 104.928 7.58918 107.686C5.88618 109.229 5.12694 111.48 5.33868 114.371C5.53227 117.012 6.5698 119.008 8.42102 120.3C10.1391 121.501 12.2777 121.84 14.1471 121.84L14.1531 121.843Z" fill="#BEBEFF"/>
<path d="M22.6537 127.652H31.5256C36.0115 127.652 39.6504 124.016 39.6504 119.527L39.4598 105.18C39.4598 98.0352 14.3383 98.6886 14.3383 105.18L14.5289 119.527C14.5289 124.013 18.1648 127.652 22.6537 127.652Z" fill="url(#paint1_linear_2385_40491)"/>
<path d="M26.9906 107.413C21.8034 107.413 17.5984 106.14 17.5984 104.569C17.5984 102.999 21.8034 101.726 26.9906 101.726C32.1778 101.726 36.3828 102.999 36.3828 104.569C36.3828 106.14 32.1778 107.413 26.9906 107.413Z" fill="#9E80D9"/>
<path d="M27.4906 34.7015C22.1468 35.8228 9.21673 30.9344 10.8976 15.295C10.8976 15.295 13.1913 -0.139207 29.5001 0.000948804C29.5001 0.000948804 38.8151 1.35465 40.181 6.87201C40.181 6.87201 46.2267 2.54427 52.2244 5.52514C52.2244 5.52514 57.2636 7.86335 57.0753 13.1585C57.0753 13.1585 65.7809 15.8181 61.6078 25.6632C62.5424 25.9298 62.8129 27.1741 62.3062 28.0219C62.3062 28.0219 68.571 26.7707 71.6212 31.3993C74.668 36.0279 71.8813 39.8292 71.8813 39.8292C72.6858 39.7164 73.5759 41.7503 72.1004 42.393C72.1004 42.393 81.477 42.6528 78.6014 51.9544C78.6014 51.9544 87.9506 53.1576 84.671 61.0713C84.671 61.0713 89.3199 64.6778 84.671 68.6637C84.671 68.6637 79.7722 71.3848 76.9376 66.2195C76.9376 66.2195 67.4789 69.4431 67.2495 59.2083C67.2495 59.2083 59.9715 60.9654 58.2187 54.778C58.2187 54.778 53.2617 57.7965 48.76 53.52C48.76 53.52 45.3503 50.8229 46.0007 46.7549C46.0007 46.7549 44.0939 47.0968 44.046 45.2234C44.046 45.2234 38.8836 47.6198 31.7014 43.9381C31.7014 43.9381 26.7375 39.583 27.4906 34.7049V34.7015Z" fill="#DDDDFF"/>
<path d="M246.249 68.5952C246.249 68.5952 247.04 62.2711 239.44 62.4797C239.44 62.4797 233.37 62.7429 233.949 68.5952C234.021 68.4414 231.731 68.1508 232.1 70.0173C232.1 70.0173 227.297 67.1185 224.076 71.2309C224.076 71.2309 221.7 73.8118 223.812 76.0782C223.812 76.0782 221.173 80.5598 226.188 82.9834C231.204 85.4071 234 81.5614 234 81.5614C234 81.5614 236.482 87.0958 243.449 84.6174C243.449 84.6174 247.406 82.563 246.67 79.2949C246.67 79.2949 252.161 77.9242 250.84 73.2853C250.84 73.2853 250.576 69.3849 246.249 68.5952Z" fill="#BEBEFF"/>
<defs>
<linearGradient id="paint0_linear_2385_40491" x1="140.841" y1="78.8607" x2="139.248" y2="89.483" gradientUnits="userSpaceOnUse">
<stop stop-color="#111111"/>
<stop offset="1" stop-color="#4040D2"/>
</linearGradient>
<linearGradient id="paint1_linear_2385_40491" x1="26.9944" y1="100.063" x2="26.9944" y2="127.652" gradientUnits="userSpaceOnUse">
<stop stop-color="#DDDDFF"/>
<stop offset="1" stop-color="white"/>
</linearGradient>
</defs>
</svg>
