<svg width="51" height="35" viewBox="0 0 51 35" fill="none" xmlns="http://www.w3.org/2000/svg">
<path d="M42.6631 0.733283C42.6631 0.733283 65.1737 20.8155 31.911 31.1323C21.5697 34.3418 14.4917 33.9827 9.65581 32.0985C1.10891 28.7706 -1.46256 17.9022 4.46477 10.9021C10.344 3.96124 23.1977 -0.595658 42.6631 0.733283Z" fill="#D4D4FF"/>
<path d="M18.0588 34.7972C22.2582 34.7972 27.0201 33.9791 32.2925 32.3429C41.7052 29.4185 47.5919 25.1429 49.797 19.6273C51.5804 15.1518 50.8811 9.85455 47.7621 4.29077C47.4217 3.67998 46.6484 3.46527 46.0416 3.80583C45.4311 4.1464 45.2165 4.91637 45.5569 5.52346C48.3281 10.4653 48.9645 14.8964 47.4512 18.687C45.5458 23.4586 40.1956 27.2418 31.5451 29.9256C22.6874 32.676 15.4799 33.0092 10.1261 30.9214C6.50382 29.511 3.86945 26.5163 2.90377 22.7108C1.92698 18.8573 2.87047 14.7483 5.43824 11.7165C9.63029 6.76726 14.8213 3.67627 28.9515 2.51761C29.647 2.45838 30.1651 1.85129 30.1059 1.15906C30.0467 0.463122 29.4399 -0.0514244 28.7443 0.00410241C15.6649 1.07392 8.82369 3.80954 3.51055 10.0915C0.417389 13.7414 -0.722191 18.6907 0.454396 23.3365C1.62358 27.9452 4.81294 31.5655 9.20849 33.2794C11.8059 34.2937 14.7658 34.7972 18.0662 34.7972H18.0588Z" fill="#A5A5FF"/>
</svg>
