<svg width="61" height="35" viewBox="0 0 61 35" fill="none" xmlns="http://www.w3.org/2000/svg">
<path d="M60.2965 22.3562V16.2038C60.2965 14.3529 58.8572 12.813 57.0035 12.676L22.4829 10.1329C20.9326 10.0181 19.4897 10.9177 18.9125 12.3539L0.253572 26.5318C-0.623318 28.7306 0.871467 31.1479 3.23944 31.3589L36.7389 34.3907C37.3308 34.4425 37.9302 34.3462 38.4778 34.1093L58.1579 25.5989C59.4566 25.0362 60.2965 23.7628 60.2965 22.3562Z" fill="#80D1FF"/>
<path d="M20.84 10.3993C21.4246 10.3327 22.1165 10.2512 22.8861 10.1587L57.0034 12.6722C58.8608 12.8092 60.2964 14.3491 60.2964 16.2V22.3524C60.2964 23.759 59.4565 25.0362 58.1578 25.5951L38.4777 34.1055C38.3075 34.1796 38.1299 34.2351 37.9523 34.2795V24.0293C37.9523 23.4592 37.512 22.9854 36.9422 22.941L13.8471 20.8457L11.4199 21.501C11.4199 21.501 18.3314 15.8594 18.6348 12.5649L18.916 12.3501C19.2749 11.4469 19.9816 10.7547 20.84 10.3956V10.3993Z" fill="#409FD4"/>
<path d="M58.547 16.6851V22.8818L37.9678 31.9993C37.9678 31.9993 8.89351 29.7524 9.10071 29.7524C9.30791 29.7524 11.9756 23.4075 11.9756 23.4075L38.0159 25.362L58.5433 16.6851H58.547Z" fill="#DDDDFF"/>
<path d="M37.9561 25.3546L37.9228 31.9956C36.6722 31.8994 1.60403 29.0675 1.80752 29.0675C2.01102 29.0675 4.68237 22.7227 4.68237 22.7227L37.9598 25.3546H37.9561Z" fill="white"/>
<path d="M56.7669 11.325V6.02032C56.7669 4.42115 55.5311 3.09961 53.929 2.98115L11.9752 0.00861881C10.6395 -0.0913294 9.39262 0.686045 8.90053 1.92244L3.62439 15.1415C2.8696 17.0331 4.15719 19.1209 6.19957 19.3023L36.4652 21.7011C36.9795 21.7492 37.4901 21.6641 37.9637 21.4605L54.928 14.1235C56.0454 13.6386 56.7706 12.5429 56.7706 11.3287L56.7669 11.325Z" fill="#FF7CB7"/>
<path d="M56.3811 4.5506L56.7289 5.5797C56.7511 5.72406 56.7622 5.87214 56.7622 6.02391V11.3286C56.7622 12.539 56.037 13.6422 54.9196 14.1234L37.9553 21.4603C37.8073 21.5233 37.6556 21.5714 37.5039 21.6121V12.6538C37.5039 12.1022 37.8332 11.5988 38.3401 11.3767L55.7077 3.7251C55.9778 3.95831 56.2035 4.23965 56.3774 4.5506H56.3848H56.3811Z" fill="#EB5597"/>
<path d="M55.2575 6.43506V11.7767L37.5199 19.6356C37.5199 19.6356 12.4601 17.6996 12.6377 17.6996C12.8153 17.6996 15.1166 12.2283 15.1166 12.2283L37.5643 13.9127L55.2575 6.43876V6.43506Z" fill="#DDDDFF"/>
<path d="M37.5049 13.9049L37.4753 19.6316C36.3986 19.5465 12.4599 17.6993 12.6338 17.6993C12.8077 17.6993 15.1127 12.228 15.1127 12.228L37.5049 13.9086V13.9049Z" fill="white"/>
</svg>
