<svg width="37" height="30" viewBox="0 0 37 30" fill="none" xmlns="http://www.w3.org/2000/svg">
<path d="M9.33792 22.9837C11.8132 22.9837 13.8482 22.4173 13.9925 22.3729L13.0305 18.9969C11.6467 19.3855 7.55084 20.0519 5.29756 18.4712C4.24308 17.7308 3.66588 16.5426 3.54378 14.8398C3.40319 12.9222 3.81388 11.5156 4.76107 10.653C6.36685 9.18713 9.38232 9.31299 10.4072 9.48327L11.0029 6.0221C10.7846 5.98509 5.62686 5.12627 2.4116 8.03958C0.613418 9.66836 -0.185774 12.0449 0.0362238 15.0952C0.239721 17.8826 1.33491 19.9889 3.28849 21.3512C5.10147 22.6172 7.35844 22.9763 9.33052 22.9763H9.33792V22.9837Z" fill="#BEBEFF"/>
<path d="M18.3038 29.1139H27.661C32.3933 29.1139 36.2301 25.2752 36.2301 20.5406L36.0303 5.40029C36.0303 -2.14025 9.53125 -1.45172 9.53125 5.40029L9.73105 20.5406C9.73105 25.2752 13.5679 29.1139 18.3001 29.1139H18.3038Z" fill="url(#paint0_linear_2385_41177)"/>
<path d="M22.8792 7.75088C17.407 7.75088 12.9707 6.40713 12.9707 4.74873C12.9707 3.09033 17.407 1.74658 22.8792 1.74658C28.3514 1.74658 32.7877 3.09033 32.7877 4.74873C32.7877 6.40713 28.3514 7.75088 22.8792 7.75088Z" fill="#9E80D9"/>
<defs>
<linearGradient id="paint0_linear_2385_41177" x1="22.8844" y1="-0.00431906" x2="22.8844" y2="29.1102" gradientUnits="userSpaceOnUse">
<stop stop-color="#DDDDFF"/>
<stop offset="1" stop-color="white"/>
</linearGradient>
</defs>
</svg>
