<svg width="300" height="72" viewBox="0 0 300 72" fill="none" xmlns="http://www.w3.org/2000/svg">
<path d="M293.554 23.5683L102.144 0.698627C88.8424 -0.978281 75.3339 0.372873 62.6282 4.65214L5.47126 23.9051C-2.50955 26.5926 -1.50316 38.194 6.82174 39.4674L202.664 70.6512C213.087 72.243 223.747 70.8548 233.415 66.6459L295.574 37.6313C302.437 34.644 300.983 24.5048 293.557 23.5683H293.554Z" fill="#D7F0FF"/>
<path d="M5.25657 28.9174L198.021 59.8051C210.205 61.7597 220.613 59.9199 231.986 55.1261L294.967 27.9476C296.514 27.2812 298.156 27.4293 299.481 28.1512C300.794 31.5457 299.655 35.8546 295.57 37.6351L233.411 66.6497C223.743 70.8587 213.083 72.2468 202.66 70.655L6.82165 39.4675C1.58991 38.6679 -0.748458 33.789 0.213531 29.606C1.73421 28.9063 3.47319 28.6324 5.25657 28.9174Z" fill="#B8E5FF"/>
</svg>
