<svg width="130" height="70" viewBox="0 0 130 70" fill="none" xmlns="http://www.w3.org/2000/svg">
<path d="M129.252 49.0671L89.4218 68.1017C87.4682 68.9827 85.2926 69.2604 83.18 68.8976L19.0227 57.8737C16.6214 57.4628 14.7714 55.523 14.4754 53.1021L13.9648 48.9265L62.4824 41.7783L123.287 45.5356L129.248 49.0634L129.252 49.0671Z" fill="#5D5DF1"/>
<path d="M86.0329 63.2929L127.191 44.4434L120.998 38.4391L73.7676 32.4385L81.5634 60.9311L86.0329 63.2891V63.2929Z" fill="#A5A5FF"/>
<path d="M86.1437 56.5925L109.883 46.631C110.182 46.5052 110.123 46.0684 109.801 46.0202L73.4639 40.9007C73.2198 40.8636 73.031 41.1117 73.1235 41.3375L79.3691 56.5703C79.4209 56.6888 79.5356 56.7702 79.6651 56.7702H85.2742C85.5739 56.7702 85.8699 56.7073 86.1437 56.5925Z" fill="#5D5DF1"/>
<path d="M102.383 51.8694L72.7461 47.4976L73.364 49.1745L98.7272 52.7837L102.386 51.8694H102.383Z" fill="#A5A5FF"/>
<path d="M87.7864 59.9502L76.8752 13.9074C76.3313 11.5975 74.4221 9.86132 72.0764 9.52446L7.78959 0.103415C5.57702 -0.203833 4.10443 0.125629 1.98806 1.74331C1.98806 1.74331 1.00387 2.41704 0.404476 3.53868C-0.0358192 4.36047 -0.109819 5.32664 0.149178 6.22247L12.137 48.2414C12.6439 50.1108 14.1868 51.5175 16.1034 51.8433L84.5119 63.4447C86.5395 63.7889 88.2674 61.9528 87.7938 59.9502H87.7864Z" fill="#A5A5FF"/>
<path d="M0.4927 3.54249C0.526 3.47956 0.562999 3.42033 0.596298 3.3574C1.43249 2.78733 2.48328 2.506 3.61177 2.66517L69.2934 12.0862C71.6614 12.4268 73.5854 14.1777 73.7482 17.4538L83.7676 61.3348C83.9748 62.1788 83.405 62.9672 82.6207 63.1079L16.1916 51.8434C14.2824 51.5176 12.7322 50.1146 12.2253 48.2415L0.237402 6.22259C-0.017895 5.32676 0.052405 4.35689 0.4927 3.53879V3.54249Z" fill="#7D7DFF"/>
<path d="M43.2936 37.9395C45.6098 36.4884 46.039 33.0088 44.2556 30.1658C42.4722 27.3265 39.146 26.2012 36.8335 27.6523C34.5173 29.1034 34.0844 32.5831 35.8715 35.426C37.6549 38.2653 40.9812 39.3906 43.2973 37.9395H43.2936Z" fill="#DDDDFF"/>
</svg>
