<svg width="43" height="45" viewBox="0 0 43 45" fill="none" xmlns="http://www.w3.org/2000/svg">
<path d="M21.2033 12.7268C32.3257 12.7268 41.3422 10.1728 41.3422 7.02232C41.3422 3.87184 32.3257 1.31787 21.2033 1.31787C10.0809 1.31787 1.06445 3.87184 1.06445 7.02232C1.06445 10.1728 10.0809 12.7268 21.2033 12.7268Z" fill="#2D96D1"/>
<path d="M22.0542 0.00761223C12.7525 -0.022002 -1.09644 2.73953 0.0690421 8.05529L5.41919 38.9763C6.55138 45.7839 36.0104 46.1355 37.3239 38.6913L42.3781 7.17427C43.1994 3.12081 31.2893 -0.0294072 22.0579 0.000207082L22.0542 0.00761223ZM21.2032 12.0051C11.4797 12.0051 3.59879 9.77292 3.59879 7.01879C3.59879 4.26466 11.4797 2.03249 21.2032 2.03249C30.9267 2.03249 38.8076 4.26466 38.8076 7.01879C38.8076 9.77292 30.9267 12.0051 21.2032 12.0051Z" fill="#80D1FF"/>
</svg>
