<svg width="241" height="131" viewBox="0 0 241 131" fill="none" xmlns="http://www.w3.org/2000/svg">
<path d="M221.871 73.5173C221.893 73.4432 221.919 73.3655 221.949 73.2729C221.919 73.3618 221.893 73.4432 221.871 73.5173Z" fill="#5D5DF1"/>
<path d="M221.828 73.6619C221.836 73.6323 221.847 73.6027 221.858 73.5693C221.847 73.6027 221.839 73.6323 221.828 73.6619Z" fill="#5D5DF1"/>
<path d="M229.645 66.2803C230.27 69.4083 230.381 73.6061 230.399 74.6315C230.381 73.6172 230.274 69.4157 229.645 66.2803Z" fill="#5D5DF1"/>
<path d="M221.957 73.2472C222.39 71.8702 223.493 68.5571 224.776 66.0103C223.489 68.5608 222.39 71.8739 221.957 73.2472Z" fill="#5D5DF1"/>
<path d="M229.646 66.2807C229.243 64.2632 228.625 62.6862 227.678 62.7048C226.741 62.7233 225.724 64.141 224.803 65.9623C224.855 65.8624 224.906 65.7624 224.958 65.6625C225.746 66.2103 227.278 66.8767 229.65 66.2807H229.646Z" fill="#5D5DF1"/>
<path d="M230.4 74.8758C228.409 75.457 224.787 76.0493 221.738 74.0281L221.757 73.8911L218.234 100.733L226.737 104.398L230.4 74.861V74.8721V74.8758Z" fill="#5D5DF1"/>
<path d="M221.758 73.8914C221.758 73.8914 221.762 73.8729 221.773 73.8433C221.765 73.8729 221.758 73.8914 221.758 73.8914Z" fill="#5D5DF1"/>
<path d="M221.854 73.5731C221.854 73.5731 221.865 73.5361 221.872 73.5176C221.865 73.5361 221.861 73.5546 221.854 73.5731Z" fill="#5D5DF1"/>
<path d="M221.812 73.7137C221.812 73.7137 221.824 73.6803 221.827 73.6655C221.82 73.684 221.816 73.6988 221.812 73.7137Z" fill="#5D5DF1"/>
<path d="M221.771 73.8432C221.771 73.8432 221.779 73.821 221.783 73.8062C221.779 73.821 221.775 73.8321 221.771 73.8432Z" fill="#5D5DF1"/>
<path d="M221.949 73.2736C221.949 73.2736 221.953 73.2585 221.957 73.2471C221.957 73.2547 221.953 73.2623 221.949 73.2736Z" fill="#5D5DF1"/>
<path d="M224.775 66.01C224.775 66.01 224.794 65.9767 224.801 65.9619C224.794 65.9767 224.783 65.9952 224.775 66.01Z" fill="#5D5DF1"/>
<path d="M229.26 112.738L222.02 110.572L233.508 72.1403C234.326 69.8119 241.478 71.8775 240.749 74.3059L229.26 112.738Z" fill="#FEC4E6"/>
<path d="M223.674 101.014C223.674 101.014 222.194 92.3409 217.122 84.3043C212.049 76.2678 204.153 74.291 199.994 74.998C199.994 74.998 196.505 83.4529 207.276 94.81C215.778 103.776 220.618 104.072 220.618 104.072L223.67 101.018L223.674 101.014Z" fill="#8ADFDE"/>
<path d="M224.954 65.6621C223.207 68.9752 221.757 73.8912 221.757 73.8912L221.738 74.0281C224.787 76.0493 228.409 75.457 230.4 74.8759V74.8647C230.4 74.8647 230.363 69.8673 229.645 66.2803C227.273 66.8763 225.742 66.21 224.954 65.6621Z" fill="#FDE2FE"/>
<path d="M237.2 93.4625C237.2 96.2166 229.319 98.4488 219.596 98.4488C209.872 98.4488 201.991 96.2166 201.991 93.4625C201.991 93.0442 202.176 92.637 202.52 92.2483H198.902C198.45 92.9369 198.28 93.6883 198.458 94.499L203.808 125.42C204.94 132.228 234.399 132.579 235.713 125.135L240.767 93.618C240.863 93.1479 240.778 92.6888 240.556 92.2446H236.678C237.022 92.6333 237.207 93.0405 237.207 93.4588L237.2 93.4625Z" fill="#80D1FF"/>
</svg>
