<svg width="43" height="64" viewBox="0 0 43 64" fill="none" xmlns="http://www.w3.org/2000/svg">
<path d="M21.4491 33.231C32.3048 33.231 41.1033 30.7434 41.1033 27.6709C41.1033 24.5984 32.3048 22.1108 21.4491 22.1108C10.5934 22.1108 1.79492 24.5984 1.79492 27.6709C1.79492 30.7434 10.5934 33.231 21.4491 33.231Z" fill="#B66BC7"/>
<path d="M22.2737 20.8338C13.194 20.8042 -0.321961 23.4954 0.817626 28.6779L6.03827 58.8141C7.14455 65.4477 35.8969 65.792 37.1771 58.5365L42.1092 27.8191C42.912 23.8693 31.2868 20.7968 22.2774 20.8264V20.8338H22.2737ZM21.4486 32.5314C11.9582 32.5314 4.26599 30.3548 4.26599 27.671C4.26599 24.9872 11.9582 22.8105 21.4486 22.8105C30.939 22.8105 38.6312 24.9872 38.6312 27.671C38.6312 30.3548 30.939 32.5314 21.4486 32.5314Z" fill="#FFB9D9"/>
<path d="M27.0501 38.3394C27.0501 38.3394 31.1608 29.5921 31.6306 19.153C32.1005 8.7177 26.225 1.97675 22.0367 0C22.0367 0 13.586 5.43052 16.1685 22.4402C18.2072 35.8666 22.3881 39.1723 22.3881 39.1723L27.0575 38.3357H27.0538L27.0501 38.3394Z" fill="#AEE0DF"/>
<path d="M23.4924 34.8153C23.3444 34.7116 23.2519 34.5376 23.263 34.3414C23.596 27.8781 22.882 18.2646 22.8746 18.172C22.8524 17.8722 23.078 17.6131 23.374 17.5909C23.67 17.5687 23.9327 17.7945 23.9549 18.0869C23.9623 18.1832 24.6801 27.8596 24.3434 34.3933C24.3286 34.6931 24.0733 34.9189 23.7736 34.9078C23.67 34.9004 23.5701 34.8671 23.4924 34.8116V34.8153Z" fill="#58C7C5"/>
<path d="M23.6396 35.0302C23.6396 35.0302 22.1966 26.579 17.2424 18.7461C12.2918 10.9131 4.5848 8.98816 0.525947 9.67669C0.525947 9.67669 -2.87801 17.9169 7.63357 28.9852C15.9326 37.7251 20.6537 38.0101 20.6537 38.0101L23.6322 35.0339L23.6396 35.0302Z" fill="#58C7C5"/>
<path d="M23.0513 38.8615C22.87 38.8615 22.6924 38.7689 22.5925 38.606C19.1663 33.1126 13.0836 25.6313 13.0244 25.561C12.8357 25.3314 12.869 24.9872 13.1021 24.7984C13.3315 24.6096 13.6756 24.6429 13.8643 24.8761C13.9272 24.9502 20.0506 32.4833 23.5138 38.0323C23.6729 38.284 23.5915 38.6208 23.3399 38.78C23.2511 38.8356 23.1512 38.8615 23.055 38.8615H23.0513Z" fill="#24ACAB"/>
<path d="M38.6314 27.6707C38.6314 30.3545 30.9391 32.5311 21.4488 32.5311C11.9584 32.5311 4.26614 30.3545 4.26614 27.6707C4.26614 27.2635 4.44744 26.8674 4.78414 26.4861H1.25068C0.810383 27.1561 0.643885 27.8891 0.817783 28.6813L6.03842 58.8175C7.14471 65.4511 35.8971 65.7954 37.1773 58.5399L42.1093 27.8225C42.2018 27.3634 42.1204 26.9155 41.9021 26.4824H38.1171C38.4538 26.86 38.6351 27.2598 38.6351 27.667H38.6277L38.6314 27.6707Z" fill="#FFB9D9"/>
</svg>
