<svg width="14" height="17" viewBox="0 0 14 17" fill="none" xmlns="http://www.w3.org/2000/svg">
<path d="M7.69221 0.546939L7.78841 0.887505C8.632 3.87855 10.7114 6.37355 13.5159 7.74321C14.0783 8.01344 14.0783 8.81673 13.5159 9.08696C10.7114 10.4566 8.6283 12.9516 7.78841 15.9427L7.69221 16.2832C7.48871 17.0125 6.44902 17.0125 6.24553 16.2832L6.14933 15.9427C5.30944 12.9516 3.22636 10.4566 0.421795 9.08696C-0.140598 8.81673 -0.140598 8.01714 0.421795 7.74321C3.22636 6.37355 5.31314 3.87855 6.14933 0.887505L6.24553 0.546939C6.44902 -0.182313 7.48871 -0.182313 7.69221 0.546939Z" fill="#FED229"/>
</svg>
